%TF.GenerationSoftware,KiCad,Pcbnew,9.0.4*%
%TF.CreationDate,2025-12-27T15:03:28+03:00*%
%TF.ProjectId,Blinky _hristmas ball,426c696e-6b79-4202-9168-726973746d61,rev?*%
%TF.SameCoordinates,Original*%
%TF.FileFunction,Legend,Bot*%
%TF.FilePolarity,Positive*%
%FSLAX46Y46*%
G04 Gerber Fmt 4.6, Leading zero omitted, Abs format (unit mm)*
G04 Created by KiCad (PCBNEW 9.0.4) date 2025-12-27 15:03:28*
%MOMM*%
%LPD*%
G01*
G04 APERTURE LIST*
%ADD10C,0.000000*%
%ADD11R,1.700000X1.700000*%
%ADD12C,1.700000*%
%ADD13C,0.650000*%
%ADD14O,1.000000X2.100000*%
%ADD15O,1.000000X1.800000*%
G04 APERTURE END LIST*
D10*
%TO.C,G\u002A\u002A\u002A*%
G36*
X76237531Y-88146797D02*
G01*
X76302343Y-88288268D01*
X76234491Y-88463725D01*
X76128361Y-88539897D01*
X75965911Y-88499267D01*
X75921923Y-88471189D01*
X75831461Y-88326944D01*
X75876424Y-88182143D01*
X76044653Y-88098654D01*
X76069566Y-88096061D01*
X76237531Y-88146797D01*
G37*
G36*
X81433695Y-103336689D02*
G01*
X81508382Y-103483881D01*
X81471441Y-103633979D01*
X81402918Y-103690540D01*
X81218876Y-103746759D01*
X81102445Y-103684354D01*
X81056646Y-103536675D01*
X81087930Y-103373507D01*
X81199153Y-103264678D01*
X81293987Y-103255610D01*
X81433695Y-103336689D01*
G37*
G36*
X82540247Y-77381479D02*
G01*
X82615255Y-77500993D01*
X82575023Y-77686030D01*
X82531478Y-77752187D01*
X82374180Y-77832637D01*
X82160576Y-77755206D01*
X82080795Y-77664808D01*
X82127317Y-77523669D01*
X82232541Y-77407205D01*
X82397007Y-77344534D01*
X82540247Y-77381479D01*
G37*
G36*
X85786032Y-107834765D02*
G01*
X85826171Y-107906647D01*
X85798179Y-108056296D01*
X85631909Y-108165284D01*
X85448416Y-108183207D01*
X85280318Y-108131550D01*
X85208576Y-108029484D01*
X85264042Y-107871418D01*
X85421974Y-107759415D01*
X85617851Y-107739819D01*
X85786032Y-107834765D01*
G37*
G36*
X100043837Y-110110038D02*
G01*
X100169327Y-110265777D01*
X100168374Y-110466251D01*
X100078227Y-110559356D01*
X99855909Y-110604759D01*
X99670444Y-110575691D01*
X99543444Y-110466251D01*
X99536690Y-110283079D01*
X99652394Y-110120928D01*
X99855909Y-110054426D01*
X100043837Y-110110038D01*
G37*
G36*
X109383197Y-60060658D02*
G01*
X109456682Y-60164120D01*
X109415735Y-60326787D01*
X109324798Y-60431895D01*
X109162402Y-60475542D01*
X109019187Y-60403564D01*
X108957576Y-60229252D01*
X108958509Y-60203423D01*
X109034137Y-60034491D01*
X109193410Y-59979887D01*
X109383197Y-60060658D01*
G37*
G36*
X77464055Y-91925458D02*
G01*
X77623996Y-92051832D01*
X77655990Y-92236255D01*
X77540195Y-92437711D01*
X77429876Y-92533098D01*
X77299478Y-92556896D01*
X77126607Y-92456932D01*
X77022293Y-92312724D01*
X77015824Y-92122482D01*
X77106395Y-91961365D01*
X77276922Y-91893426D01*
X77464055Y-91925458D01*
G37*
G36*
X106184742Y-107439267D02*
G01*
X106297173Y-107538487D01*
X106353230Y-107729792D01*
X106246424Y-107927482D01*
X106156764Y-108002680D01*
X105961552Y-108055979D01*
X105785951Y-107941826D01*
X105724008Y-107826805D01*
X105728605Y-107635420D01*
X105830962Y-107476746D01*
X105995025Y-107396216D01*
X106184742Y-107439267D01*
G37*
G36*
X110319577Y-60007552D02*
G01*
X110422582Y-60150742D01*
X110408625Y-60355092D01*
X110356606Y-60423621D01*
X110198267Y-60482092D01*
X110147779Y-60478865D01*
X109968984Y-60401532D01*
X109885016Y-60258786D01*
X109931242Y-60101092D01*
X110008750Y-60035694D01*
X110198267Y-59974092D01*
X110319577Y-60007552D01*
G37*
G36*
X76141357Y-95275872D02*
G01*
X76245190Y-95371820D01*
X76316897Y-95577000D01*
X76293029Y-95794537D01*
X76170409Y-95950644D01*
X76014245Y-96019023D01*
X75782119Y-96008357D01*
X75593840Y-95834571D01*
X75515092Y-95644776D01*
X75538118Y-95425931D01*
X75672131Y-95269091D01*
X75884191Y-95207866D01*
X76141357Y-95275872D01*
G37*
G36*
X80306517Y-63267355D02*
G01*
X80433296Y-63428867D01*
X80436801Y-63643481D01*
X80297909Y-63868759D01*
X80123655Y-64002475D01*
X79937922Y-64014715D01*
X79745256Y-63866195D01*
X79654042Y-63711835D01*
X79649453Y-63486691D01*
X79771208Y-63300189D01*
X79998959Y-63205329D01*
X80075587Y-63201383D01*
X80306517Y-63267355D01*
G37*
G36*
X92807703Y-108450403D02*
G01*
X92937807Y-108584678D01*
X92983879Y-108768964D01*
X92909867Y-108957826D01*
X92838194Y-109019695D01*
X92659242Y-109080759D01*
X92612209Y-109077769D01*
X92431038Y-108988811D01*
X92344891Y-108817833D01*
X92367120Y-108621196D01*
X92511076Y-108455267D01*
X92629620Y-108411575D01*
X92807703Y-108450403D01*
G37*
G36*
X116929655Y-80618136D02*
G01*
X117036920Y-80782841D01*
X117010727Y-81018704D01*
X117010163Y-81020150D01*
X116892858Y-81122344D01*
X116704422Y-81143460D01*
X116518054Y-81089725D01*
X116406953Y-80967363D01*
X116403896Y-80957256D01*
X116414089Y-80746021D01*
X116552452Y-80601748D01*
X116781271Y-80564978D01*
X116929655Y-80618136D01*
G37*
G36*
X117248568Y-87606980D02*
G01*
X117363778Y-87763559D01*
X117385895Y-87957499D01*
X117280309Y-88151159D01*
X117185515Y-88217640D01*
X116965890Y-88239591D01*
X116752957Y-88119711D01*
X116655603Y-87993506D01*
X116641114Y-87811359D01*
X116789586Y-87617448D01*
X116877305Y-87556469D01*
X117074874Y-87525403D01*
X117248568Y-87606980D01*
G37*
G36*
X91645864Y-70431331D02*
G01*
X91858701Y-70573730D01*
X91935097Y-70787384D01*
X91858975Y-71028770D01*
X91853028Y-71037619D01*
X91664765Y-71194421D01*
X91437817Y-71229884D01*
X91236842Y-71133159D01*
X91148149Y-70972541D01*
X91156697Y-70757770D01*
X91259989Y-70562211D01*
X91429640Y-70435813D01*
X91637265Y-70428528D01*
X91645864Y-70431331D01*
G37*
G36*
X94410259Y-67050442D02*
G01*
X94542114Y-67104260D01*
X94591909Y-67238919D01*
X94588452Y-67378345D01*
X94518042Y-67556419D01*
X94495585Y-67581458D01*
X94307545Y-67683582D01*
X94119229Y-67653122D01*
X93981103Y-67513608D01*
X93943629Y-67288572D01*
X93974677Y-67139767D01*
X94065293Y-67060692D01*
X94267909Y-67043759D01*
X94410259Y-67050442D01*
G37*
G36*
X109634720Y-104200637D02*
G01*
X109677763Y-104227580D01*
X109750893Y-104378338D01*
X109746293Y-104577033D01*
X109660309Y-104745826D01*
X109601019Y-104790939D01*
X109423242Y-104847426D01*
X109258931Y-104804374D01*
X109127714Y-104665299D01*
X109082938Y-104482540D01*
X109135440Y-104310831D01*
X109296053Y-104204908D01*
X109457250Y-104182471D01*
X109634720Y-104200637D01*
G37*
G36*
X124307642Y-78533026D02*
G01*
X124357497Y-78602992D01*
X124406669Y-78815443D01*
X124372597Y-79037098D01*
X124261076Y-79186644D01*
X124131202Y-79242620D01*
X123893621Y-79250223D01*
X123700749Y-79152623D01*
X123583108Y-78983407D01*
X123571225Y-78776162D01*
X123695623Y-78564473D01*
X123871957Y-78460658D01*
X124110436Y-78441070D01*
X124307642Y-78533026D01*
G37*
G36*
X83021937Y-106996012D02*
G01*
X83173597Y-107127859D01*
X83243636Y-107274034D01*
X83237820Y-107382063D01*
X83128195Y-107508378D01*
X83028991Y-107585910D01*
X82880242Y-107641426D01*
X82850216Y-107637173D01*
X82704906Y-107562728D01*
X82563077Y-107441421D01*
X82499242Y-107333478D01*
X82539976Y-107195281D01*
X82688871Y-107033459D01*
X82880242Y-106964092D01*
X83021937Y-106996012D01*
G37*
G36*
X86886415Y-71395800D02*
G01*
X86914337Y-71413204D01*
X87036166Y-71573351D01*
X87076014Y-71776031D01*
X87014798Y-71940314D01*
X86995027Y-71956949D01*
X86821863Y-71999335D01*
X86621731Y-71952980D01*
X86482784Y-71835288D01*
X86480117Y-71830240D01*
X86448244Y-71665762D01*
X86548978Y-71485350D01*
X86611763Y-71413469D01*
X86733747Y-71344904D01*
X86886415Y-71395800D01*
G37*
G36*
X97108914Y-105345291D02*
G01*
X97266532Y-105508055D01*
X97300674Y-105724260D01*
X97191229Y-105945528D01*
X97164626Y-105973178D01*
X96935240Y-106102743D01*
X96700249Y-106079419D01*
X96503790Y-105905759D01*
X96426835Y-105774103D01*
X96415541Y-105644892D01*
X96507050Y-105477450D01*
X96537517Y-105433483D01*
X96692643Y-105303294D01*
X96917426Y-105286950D01*
X97108914Y-105345291D01*
G37*
G36*
X112290917Y-96359031D02*
G01*
X112351245Y-96409744D01*
X112508236Y-96648720D01*
X112534841Y-96913495D01*
X112422133Y-97150246D01*
X112211703Y-97288624D01*
X111954186Y-97312203D01*
X111709633Y-97226205D01*
X111526999Y-97048515D01*
X111455242Y-96797018D01*
X111463381Y-96695901D01*
X111573081Y-96444076D01*
X111776711Y-96288715D01*
X112030561Y-96252730D01*
X112290917Y-96359031D01*
G37*
G36*
X86376780Y-103827939D02*
G01*
X86555565Y-104012169D01*
X86617042Y-104136253D01*
X86628312Y-104280771D01*
X86535087Y-104456669D01*
X86526515Y-104469526D01*
X86354270Y-104632297D01*
X86105991Y-104678092D01*
X85854648Y-104635082D01*
X85671817Y-104475162D01*
X85610742Y-104197601D01*
X85615895Y-104128856D01*
X85716502Y-103916885D01*
X85909011Y-103789764D01*
X86145183Y-103756959D01*
X86376780Y-103827939D01*
G37*
G36*
X107791409Y-71068165D02*
G01*
X108016626Y-71163251D01*
X108164158Y-71359204D01*
X108221234Y-71608473D01*
X108175085Y-71863509D01*
X108012939Y-72076763D01*
X107882327Y-72152557D01*
X107622932Y-72183131D01*
X107382696Y-72087630D01*
X107206004Y-71889584D01*
X107137242Y-71612524D01*
X107168820Y-71487144D01*
X107314142Y-71288462D01*
X107524635Y-71130086D01*
X107741327Y-71065426D01*
X107791409Y-71068165D01*
G37*
G36*
X94474126Y-99877908D02*
G01*
X94696739Y-100009251D01*
X94873337Y-100204156D01*
X94945242Y-100408571D01*
X94903825Y-100584290D01*
X94775909Y-100783426D01*
X94613914Y-100893872D01*
X94394909Y-100952759D01*
X94215612Y-100911520D01*
X94013909Y-100783426D01*
X93903463Y-100621430D01*
X93844576Y-100402426D01*
X93850577Y-100336242D01*
X93950443Y-100107079D01*
X94131931Y-99925791D01*
X94341158Y-99852092D01*
X94474126Y-99877908D01*
G37*
G36*
X112846728Y-75680713D02*
G01*
X113063909Y-75806759D01*
X113082370Y-75825930D01*
X113217837Y-76075145D01*
X113192940Y-76332325D01*
X113010158Y-76562614D01*
X112828111Y-76683542D01*
X112612814Y-76730091D01*
X112376957Y-76648278D01*
X112344897Y-76629503D01*
X112167133Y-76430009D01*
X112104658Y-76170022D01*
X112160016Y-75907956D01*
X112335751Y-75702222D01*
X112350218Y-75693201D01*
X112580277Y-75638761D01*
X112846728Y-75680713D01*
G37*
G36*
X112483448Y-57115540D02*
G01*
X112630548Y-57309111D01*
X112666182Y-57366324D01*
X112814209Y-57556627D01*
X112941592Y-57659272D01*
X112972191Y-57675191D01*
X112990970Y-57742938D01*
X112909801Y-57869151D01*
X112714588Y-58079948D01*
X112352572Y-58448816D01*
X112021501Y-58104269D01*
X111690430Y-57759723D01*
X111953836Y-57502195D01*
X112018652Y-57435219D01*
X112160623Y-57255304D01*
X112217242Y-57127713D01*
X112244774Y-57031524D01*
X112343758Y-57018140D01*
X112483448Y-57115540D01*
G37*
G36*
X94531884Y-54778041D02*
G01*
X94890484Y-54846504D01*
X95116354Y-54890057D01*
X95735065Y-54966203D01*
X96281521Y-54955323D01*
X96810625Y-54857739D01*
X96989683Y-54817186D01*
X97247177Y-54794742D01*
X97360916Y-54838552D01*
X97329928Y-54931507D01*
X97153240Y-55056496D01*
X96829878Y-55196410D01*
X96615279Y-55253644D01*
X96238034Y-55301040D01*
X95811493Y-55310939D01*
X95371979Y-55287061D01*
X94955818Y-55233126D01*
X94599334Y-55152855D01*
X94338852Y-55049967D01*
X94210697Y-54928181D01*
X94189076Y-54856879D01*
X94206252Y-54780216D01*
X94312164Y-54754941D01*
X94531884Y-54778041D01*
G37*
G36*
X94839409Y-55624978D02*
G01*
X95011131Y-55641129D01*
X95447797Y-55667063D01*
X95938401Y-55681502D01*
X96405742Y-55681654D01*
X96702917Y-55680304D01*
X97021488Y-55690453D01*
X97236809Y-55711951D01*
X97315909Y-55742592D01*
X97290091Y-55778191D01*
X97144644Y-55860998D01*
X96913742Y-55949163D01*
X96811559Y-55976961D01*
X96448878Y-56032719D01*
X96009131Y-56057886D01*
X95541265Y-56053837D01*
X95094225Y-56021947D01*
X94716958Y-55963593D01*
X94458409Y-55880150D01*
X94283202Y-55777836D01*
X94179178Y-55672878D01*
X94237658Y-55612111D01*
X94457963Y-55595992D01*
X94839409Y-55624978D01*
G37*
G36*
X99940576Y-86206648D02*
G01*
X99940303Y-86654993D01*
X99938279Y-87493565D01*
X99934443Y-88272741D01*
X99928987Y-88976815D01*
X99922103Y-89590082D01*
X99913984Y-90096838D01*
X99904820Y-90481376D01*
X99894806Y-90727992D01*
X99884131Y-90820981D01*
X99883015Y-90821735D01*
X99779077Y-90832942D01*
X99523498Y-90843388D01*
X99132882Y-90852847D01*
X98623837Y-90861093D01*
X98012967Y-90867900D01*
X97316878Y-90873041D01*
X96552175Y-90876292D01*
X95735465Y-90877426D01*
X91643242Y-90877426D01*
X91643242Y-86263092D01*
X91643242Y-81648759D01*
X95791909Y-81648759D01*
X99940576Y-81648759D01*
X99940576Y-86206648D01*
G37*
G36*
X94659320Y-56385826D02*
G01*
X94924087Y-56412950D01*
X95318013Y-56435082D01*
X95775838Y-56448306D01*
X96243398Y-56450413D01*
X96581615Y-56448028D01*
X96916274Y-56449982D01*
X97121650Y-56460803D01*
X97220898Y-56483585D01*
X97237175Y-56521424D01*
X97193635Y-56577413D01*
X97155654Y-56609519D01*
X96955339Y-56721987D01*
X96699813Y-56817658D01*
X96615155Y-56839616D01*
X96230369Y-56895220D01*
X95798912Y-56903379D01*
X95356691Y-56869682D01*
X94939610Y-56799722D01*
X94583575Y-56699087D01*
X94324492Y-56573370D01*
X94198265Y-56428159D01*
X94192718Y-56395850D01*
X94235198Y-56352698D01*
X94380207Y-56350323D01*
X94659320Y-56385826D01*
G37*
G36*
X78969487Y-57983951D02*
G01*
X79053740Y-58145453D01*
X79154909Y-58387534D01*
X79217468Y-58542019D01*
X79338351Y-58755047D01*
X79506670Y-58908034D01*
X79777899Y-59060947D01*
X80231555Y-59290803D01*
X79883417Y-59430100D01*
X79823736Y-59455295D01*
X79448660Y-59699958D01*
X79185007Y-60057624D01*
X79020034Y-60544746D01*
X78915135Y-61032426D01*
X78814864Y-60550076D01*
X78717977Y-60180670D01*
X78559661Y-59853423D01*
X78328573Y-59620979D01*
X77994850Y-59443022D01*
X77568271Y-59265744D01*
X77952307Y-59153765D01*
X77991346Y-59141718D01*
X78380340Y-58936856D01*
X78667718Y-58623962D01*
X78822296Y-58235933D01*
X78830038Y-58197188D01*
X78881934Y-58016153D01*
X78931498Y-57943034D01*
X78969487Y-57983951D01*
G37*
G36*
X76229784Y-87104788D02*
G01*
X76249772Y-87137865D01*
X76245814Y-87227626D01*
X76165315Y-87362665D01*
X75992347Y-87566211D01*
X75710984Y-87861495D01*
X75667335Y-87906030D01*
X75361329Y-88204669D01*
X75139576Y-88384946D01*
X74980508Y-88457306D01*
X74862556Y-88432197D01*
X74764151Y-88320064D01*
X74735947Y-88264362D01*
X74744211Y-88132760D01*
X74874834Y-87961118D01*
X74878754Y-87956942D01*
X75005034Y-87806469D01*
X75020358Y-87706343D01*
X74935501Y-87590813D01*
X74847688Y-87469693D01*
X74805293Y-87252130D01*
X74925116Y-87064487D01*
X74996959Y-87018305D01*
X75118019Y-87023105D01*
X75298569Y-87135742D01*
X75351929Y-87175012D01*
X75497352Y-87263803D01*
X75605026Y-87254388D01*
X75752883Y-87149047D01*
X75955695Y-87014665D01*
X76101151Y-86999631D01*
X76229784Y-87104788D01*
G37*
G36*
X75785336Y-61920655D02*
G01*
X75884097Y-62299048D01*
X76019674Y-62564857D01*
X76220718Y-62743260D01*
X76519254Y-62875940D01*
X76846932Y-62989190D01*
X76514183Y-63088884D01*
X76414617Y-63122004D01*
X76074443Y-63316064D01*
X75859782Y-63610809D01*
X75753768Y-64027047D01*
X75731147Y-64195714D01*
X75697560Y-64377497D01*
X75672135Y-64435874D01*
X75652706Y-64384643D01*
X75608363Y-64205338D01*
X75555475Y-63947621D01*
X75541866Y-63880576D01*
X75407294Y-63492277D01*
X75186927Y-63226969D01*
X74855907Y-63052859D01*
X74694717Y-62989593D01*
X74657937Y-62943119D01*
X74752242Y-62896756D01*
X74759686Y-62894123D01*
X75077355Y-62775555D01*
X75273170Y-62681239D01*
X75386711Y-62587195D01*
X75457558Y-62469445D01*
X75491951Y-62375829D01*
X75558129Y-62117506D01*
X75611053Y-61819001D01*
X75672268Y-61371092D01*
X75785336Y-61920655D01*
G37*
G36*
X68879989Y-72179280D02*
G01*
X68930409Y-72344411D01*
X68951279Y-72594627D01*
X68957389Y-72690480D01*
X69059272Y-72985677D01*
X69261717Y-73190249D01*
X69532358Y-73266759D01*
X69718251Y-73292485D01*
X69916374Y-73376073D01*
X69992325Y-73437070D01*
X70002464Y-73503207D01*
X69869056Y-73581153D01*
X69696756Y-73651446D01*
X69440949Y-73727065D01*
X69374513Y-73748960D01*
X69167971Y-73910280D01*
X69013391Y-74161316D01*
X68952576Y-74440963D01*
X68945910Y-74540279D01*
X68901371Y-74741015D01*
X68850080Y-74827774D01*
X68777621Y-74823559D01*
X68721265Y-74692316D01*
X68698576Y-74458513D01*
X68696440Y-74388173D01*
X68603145Y-74045193D01*
X68368326Y-73789916D01*
X67987153Y-73616628D01*
X67961440Y-73608997D01*
X67742360Y-73531665D01*
X67660967Y-73463517D01*
X67690846Y-73383794D01*
X67708496Y-73366703D01*
X67875454Y-73295602D01*
X68111475Y-73266759D01*
X68177434Y-73264389D01*
X68463449Y-73174121D01*
X68638917Y-72957340D01*
X68698576Y-72619845D01*
X68713791Y-72392576D01*
X68752692Y-72208251D01*
X68814653Y-72127703D01*
X68879989Y-72179280D01*
G37*
G36*
X72174216Y-65701185D02*
G01*
X72203624Y-65858426D01*
X72241672Y-66082340D01*
X72321186Y-66524357D01*
X72388511Y-66844299D01*
X72452001Y-67074481D01*
X72520011Y-67247214D01*
X72600898Y-67394812D01*
X72834168Y-67660751D01*
X73229592Y-67906981D01*
X73778576Y-68106932D01*
X73925172Y-68150157D01*
X74146921Y-68232207D01*
X74205876Y-68298316D01*
X74104412Y-68360013D01*
X73844903Y-68428827D01*
X73533651Y-68511252D01*
X73098029Y-68695068D01*
X72770074Y-68952491D01*
X72530961Y-69306673D01*
X72361871Y-69780764D01*
X72243981Y-70397913D01*
X72136234Y-71159188D01*
X71996585Y-70329140D01*
X71959153Y-70112140D01*
X71893838Y-69756988D01*
X71836960Y-69475245D01*
X71797705Y-69313807D01*
X71672341Y-69097314D01*
X71408977Y-68849343D01*
X71059369Y-68632806D01*
X70666699Y-68479551D01*
X70555242Y-68448533D01*
X70243739Y-68357689D01*
X70081924Y-68294132D01*
X70058968Y-68244501D01*
X70164045Y-68195436D01*
X70386326Y-68133574D01*
X70688141Y-68044856D01*
X71136473Y-67852402D01*
X71472337Y-67597810D01*
X71718140Y-67254670D01*
X71896291Y-66796568D01*
X72029196Y-66197092D01*
X72077476Y-65923433D01*
X72119594Y-65717280D01*
X72149023Y-65648667D01*
X72174216Y-65701185D01*
G37*
G36*
X119397506Y-65688461D02*
G01*
X119456787Y-66025898D01*
X119571112Y-66445730D01*
X119733203Y-66745077D01*
X119970076Y-66953955D01*
X120308747Y-67102381D01*
X120776230Y-67220373D01*
X120831052Y-67231879D01*
X121123711Y-67296108D01*
X121335833Y-67347323D01*
X121424687Y-67375315D01*
X121376994Y-67393126D01*
X121201350Y-67422115D01*
X120937642Y-67453761D01*
X120904952Y-67457280D01*
X120434381Y-67540932D01*
X120072704Y-67688093D01*
X119802395Y-67919660D01*
X119605933Y-68256529D01*
X119465793Y-68719596D01*
X119364452Y-69329759D01*
X119299887Y-69837759D01*
X119231320Y-69499092D01*
X119201917Y-69351869D01*
X119136825Y-69018761D01*
X119071730Y-68678737D01*
X119024681Y-68482158D01*
X118918801Y-68182682D01*
X118801796Y-67969600D01*
X118693896Y-67856920D01*
X118384409Y-67644547D01*
X118020181Y-67488243D01*
X117678242Y-67425322D01*
X117595062Y-67422864D01*
X117370423Y-67391115D01*
X117309436Y-67336466D01*
X117412090Y-67275298D01*
X117678374Y-67223994D01*
X117885427Y-67191571D01*
X118323645Y-67064294D01*
X118673458Y-66879044D01*
X118895036Y-66654467D01*
X118912615Y-66620853D01*
X118988675Y-66412634D01*
X119074431Y-66106170D01*
X119154473Y-65754894D01*
X119297785Y-65047028D01*
X119397506Y-65688461D01*
G37*
G36*
X114484135Y-59670362D02*
G01*
X114545070Y-59897996D01*
X114618465Y-60228092D01*
X114668260Y-60460946D01*
X114792319Y-60937718D01*
X114938851Y-61289222D01*
X115136548Y-61546260D01*
X115414106Y-61739639D01*
X115800217Y-61900164D01*
X116323576Y-62058638D01*
X116453874Y-62095838D01*
X116706659Y-62174713D01*
X116852542Y-62230787D01*
X116863128Y-62253789D01*
X116855925Y-62254242D01*
X116696743Y-62278236D01*
X116430993Y-62329781D01*
X116112175Y-62398564D01*
X115676060Y-62524482D01*
X115311808Y-62709292D01*
X115037550Y-62968492D01*
X114835525Y-63325550D01*
X114687973Y-63803938D01*
X114577134Y-64427125D01*
X114552329Y-64597568D01*
X114506415Y-64876571D01*
X114469745Y-65052479D01*
X114448580Y-65092875D01*
X114439299Y-65050987D01*
X114405618Y-64865222D01*
X114356960Y-64575645D01*
X114300433Y-64223951D01*
X114274166Y-64069986D01*
X114192528Y-63684833D01*
X114100881Y-63349979D01*
X114014534Y-63124312D01*
X113927234Y-62988193D01*
X113611669Y-62704090D01*
X113153858Y-62478785D01*
X112568049Y-62320197D01*
X112322166Y-62267386D01*
X112123937Y-62211323D01*
X112047909Y-62170473D01*
X112057401Y-62160007D01*
X112182032Y-62111549D01*
X112420867Y-62045122D01*
X112735259Y-61971892D01*
X113165917Y-61857841D01*
X113575541Y-61670681D01*
X113872436Y-61406592D01*
X114086990Y-61036679D01*
X114249592Y-60532049D01*
X114265197Y-60469230D01*
X114344370Y-60117799D01*
X114402006Y-59808012D01*
X114426543Y-59600715D01*
X114442344Y-59567034D01*
X114484135Y-59670362D01*
G37*
G36*
X122474119Y-71256924D02*
G01*
X122530774Y-71467592D01*
X122572668Y-71679086D01*
X122651985Y-71733768D01*
X122783642Y-71641159D01*
X122861897Y-71587483D01*
X122978518Y-71632835D01*
X123003667Y-71671109D01*
X122973726Y-71786836D01*
X122809185Y-71960097D01*
X122784970Y-71981917D01*
X122632047Y-72151199D01*
X122562823Y-72335810D01*
X122546576Y-72612018D01*
X122546576Y-73029953D01*
X122905580Y-72817939D01*
X122966771Y-72780430D01*
X123208325Y-72578522D01*
X123315403Y-72357451D01*
X123365017Y-72170016D01*
X123456533Y-71977014D01*
X123548280Y-71906585D01*
X123618951Y-71970170D01*
X123647242Y-72179214D01*
X123647243Y-72183793D01*
X123654610Y-72358781D01*
X123698868Y-72388344D01*
X123813422Y-72295946D01*
X123890584Y-72239897D01*
X124064249Y-72194370D01*
X124193249Y-72250938D01*
X124224250Y-72396543D01*
X124151611Y-72521524D01*
X123985159Y-72650793D01*
X123774242Y-72758748D01*
X123964742Y-72810961D01*
X124083784Y-72869442D01*
X124155242Y-72980300D01*
X124150448Y-73007831D01*
X124048158Y-73078300D01*
X123849872Y-73082731D01*
X123604909Y-73017766D01*
X123493323Y-73005824D01*
X123280451Y-73048863D01*
X123053944Y-73138083D01*
X122873941Y-73248314D01*
X122800576Y-73354391D01*
X122815969Y-73401386D01*
X122940963Y-73522761D01*
X123140987Y-73639934D01*
X123354570Y-73720612D01*
X123520242Y-73732497D01*
X123832752Y-73652514D01*
X124031929Y-73621115D01*
X124129418Y-73642580D01*
X124155242Y-73716137D01*
X124119224Y-73806894D01*
X123977355Y-73904474D01*
X123956074Y-73911331D01*
X123866612Y-73954879D01*
X123897431Y-74013158D01*
X124062022Y-74120601D01*
X124096874Y-74142579D01*
X124258758Y-74270319D01*
X124324576Y-74368838D01*
X124322192Y-74395010D01*
X124235355Y-74491458D01*
X124063490Y-74501452D01*
X123861234Y-74419068D01*
X123789643Y-74373088D01*
X123637181Y-74295367D01*
X123585611Y-74330559D01*
X123610156Y-74485189D01*
X123622259Y-74628057D01*
X123573684Y-74741560D01*
X123529330Y-74749876D01*
X123427990Y-74670458D01*
X123343755Y-74502601D01*
X123308576Y-74299576D01*
X123266562Y-74206915D01*
X123123878Y-74046608D01*
X122929230Y-73877790D01*
X122734290Y-73744328D01*
X122590724Y-73690092D01*
X122576533Y-73711203D01*
X122555039Y-73853645D01*
X122546576Y-74086093D01*
X122546596Y-74099608D01*
X122566154Y-74362217D01*
X122646191Y-74540402D01*
X122821742Y-74714129D01*
X122968201Y-74849296D01*
X123033906Y-74963125D01*
X122991076Y-75054729D01*
X122897291Y-75118293D01*
X122783642Y-75061692D01*
X122662729Y-74971928D01*
X122575018Y-75007041D01*
X122546576Y-75199981D01*
X122531045Y-75378221D01*
X122488367Y-75498078D01*
X122379406Y-75539969D01*
X122279975Y-75445233D01*
X122223711Y-75228739D01*
X122218372Y-75176606D01*
X122185477Y-75007927D01*
X122111336Y-74973680D01*
X121953481Y-75044988D01*
X121932759Y-75055637D01*
X121785595Y-75089902D01*
X121738008Y-75018431D01*
X121790705Y-74870048D01*
X121944391Y-74673579D01*
X122061001Y-74541559D01*
X122177604Y-74320082D01*
X122207909Y-74039551D01*
X122207909Y-73677405D01*
X121854295Y-73874249D01*
X121716049Y-73958901D01*
X121510652Y-74156285D01*
X121380162Y-74435159D01*
X121364399Y-74480210D01*
X121260789Y-74683253D01*
X121163356Y-74758786D01*
X121098566Y-74700608D01*
X121092881Y-74502511D01*
X121120853Y-74271372D01*
X120857561Y-74407525D01*
X120829926Y-74421318D01*
X120635718Y-74491551D01*
X120512089Y-74492889D01*
X120431055Y-74373816D01*
X120479721Y-74223660D01*
X120647537Y-74095304D01*
X120865164Y-73996146D01*
X120677693Y-73854737D01*
X120653787Y-73836120D01*
X120532653Y-73696596D01*
X120553689Y-73609626D01*
X120695739Y-73591256D01*
X120937651Y-73657534D01*
X121058062Y-73703920D01*
X121232875Y-73744777D01*
X121390325Y-73711694D01*
X121611318Y-73597458D01*
X121716996Y-73535575D01*
X121886876Y-73421871D01*
X121953909Y-73354090D01*
X121951883Y-73346535D01*
X121866897Y-73264734D01*
X121695572Y-73150665D01*
X121562591Y-73083911D01*
X121330148Y-73034888D01*
X121018239Y-73055689D01*
X120776347Y-73074920D01*
X120619473Y-73043801D01*
X120617207Y-72956220D01*
X120773259Y-72815808D01*
X120783685Y-72808495D01*
X120885090Y-72724750D01*
X120858903Y-72670301D01*
X120688592Y-72603745D01*
X120603038Y-72566145D01*
X120460439Y-72439063D01*
X120437746Y-72302089D01*
X120550069Y-72199335D01*
X120550278Y-72199255D01*
X120700741Y-72209818D01*
X120893591Y-72299578D01*
X120909143Y-72309764D01*
X121052933Y-72396262D01*
X121092567Y-72374603D01*
X121062904Y-72230581D01*
X121052008Y-72175754D01*
X121065298Y-72011001D01*
X121143398Y-71947331D01*
X121255308Y-72018858D01*
X121323479Y-72145761D01*
X121393501Y-72356540D01*
X121430633Y-72437741D01*
X121579705Y-72619852D01*
X121787847Y-72807263D01*
X122000698Y-72953667D01*
X122163893Y-73012759D01*
X122176978Y-72995496D01*
X122199145Y-72859490D01*
X122207909Y-72632412D01*
X122195113Y-72411106D01*
X122122390Y-72209731D01*
X121953909Y-72025750D01*
X121904820Y-71979879D01*
X121758707Y-71810920D01*
X121699909Y-71686430D01*
X121756212Y-71594822D01*
X121883117Y-71580481D01*
X121996242Y-71658092D01*
X122092376Y-71742071D01*
X122174888Y-71676021D01*
X122223711Y-71467592D01*
X122272419Y-71271167D01*
X122377242Y-71192426D01*
X122474119Y-71256924D01*
G37*
G36*
X98966030Y-47484457D02*
G01*
X98956960Y-47925583D01*
X98921487Y-48298645D01*
X98848086Y-48649123D01*
X98725222Y-49052092D01*
X98685984Y-49168907D01*
X98481868Y-49743327D01*
X98266920Y-50283501D01*
X98016110Y-50849482D01*
X97704407Y-51501325D01*
X97596222Y-51728560D01*
X97471217Y-52013766D01*
X97396642Y-52215064D01*
X97385843Y-52299032D01*
X97484452Y-52334704D01*
X97673291Y-52385717D01*
X97689740Y-52389333D01*
X97806057Y-52393041D01*
X97945686Y-52348847D01*
X98135579Y-52241938D01*
X98402686Y-52057500D01*
X98773958Y-51780718D01*
X99188485Y-51477086D01*
X100203537Y-50830399D01*
X101202527Y-50338863D01*
X102203098Y-49995904D01*
X103222892Y-49794950D01*
X104279551Y-49729426D01*
X104829795Y-49746526D01*
X105607961Y-49851100D01*
X106273082Y-50061684D01*
X106844941Y-50390825D01*
X107343321Y-50851068D01*
X107788004Y-51454961D01*
X108198774Y-52215051D01*
X108330495Y-52494865D01*
X108609723Y-53117703D01*
X108817101Y-53640747D01*
X108962283Y-54097353D01*
X109054924Y-54520875D01*
X109098995Y-54896281D01*
X109104676Y-54944670D01*
X109121195Y-55402092D01*
X109121402Y-55436008D01*
X109121039Y-55513470D01*
X109119514Y-55839171D01*
X109102142Y-56129027D01*
X109064434Y-56333426D01*
X109059930Y-56357842D01*
X108983523Y-56577886D01*
X108863566Y-56841426D01*
X108500562Y-57458518D01*
X107983754Y-58047008D01*
X107324193Y-58564092D01*
X107102309Y-58698875D01*
X106603877Y-58950550D01*
X106042458Y-59186100D01*
X105485240Y-59378460D01*
X104999409Y-59500566D01*
X104940044Y-59512175D01*
X104756035Y-59561013D01*
X104681909Y-59603179D01*
X104685053Y-59616355D01*
X104767165Y-59742595D01*
X104949308Y-59968773D01*
X105216342Y-60277957D01*
X105553126Y-60653214D01*
X105944518Y-61077611D01*
X106375377Y-61534214D01*
X106830562Y-62006092D01*
X107039618Y-62221006D01*
X107336498Y-62530470D01*
X107559315Y-62762731D01*
X107963791Y-63197726D01*
X108259009Y-63532943D01*
X108450934Y-63775336D01*
X108545528Y-63931860D01*
X108548756Y-64009467D01*
X108493542Y-64034050D01*
X108274408Y-64052221D01*
X107914967Y-64037974D01*
X107431655Y-63992212D01*
X106840909Y-63915835D01*
X106702663Y-63896333D01*
X106171102Y-63826731D01*
X105711820Y-63775044D01*
X105343855Y-63742700D01*
X105086245Y-63731129D01*
X104958028Y-63741759D01*
X104978242Y-63776020D01*
X105004589Y-63787689D01*
X105183390Y-63861901D01*
X105475785Y-63979847D01*
X105847760Y-64127882D01*
X106265298Y-64292359D01*
X107658147Y-64891207D01*
X109399040Y-65788449D01*
X111113773Y-66837910D01*
X112785757Y-68030081D01*
X112916177Y-68132579D01*
X113342067Y-68491268D01*
X113842432Y-68939713D01*
X114391924Y-69452881D01*
X114965197Y-70005739D01*
X115536902Y-70573256D01*
X116081691Y-71130399D01*
X116574217Y-71652134D01*
X116989133Y-72113430D01*
X117301089Y-72489255D01*
X118418305Y-74010520D01*
X119504104Y-75694016D01*
X120441455Y-77395529D01*
X121240807Y-79134181D01*
X121912606Y-80929092D01*
X122502821Y-82948875D01*
X122926525Y-84982360D01*
X123181007Y-87020888D01*
X123256603Y-88832321D01*
X123266268Y-89063903D01*
X123182306Y-91110852D01*
X122929122Y-93161180D01*
X122506716Y-95214334D01*
X121915088Y-97269759D01*
X121189431Y-99224588D01*
X120308133Y-101129236D01*
X119278509Y-102956828D01*
X118096964Y-104713735D01*
X116759902Y-106406332D01*
X116559777Y-106638231D01*
X115183078Y-108087548D01*
X113680070Y-109436611D01*
X112064471Y-110678289D01*
X110350003Y-111805451D01*
X108550384Y-112810965D01*
X106679335Y-113687700D01*
X104750577Y-114428526D01*
X102777828Y-115026312D01*
X100774810Y-115473926D01*
X98755242Y-115764238D01*
X98492949Y-115791699D01*
X98112989Y-115832628D01*
X97803004Y-115867369D01*
X97612242Y-115890485D01*
X97540612Y-115898434D01*
X97212431Y-115915828D01*
X96755353Y-115921998D01*
X96199790Y-115918018D01*
X95576157Y-115904963D01*
X94914865Y-115883905D01*
X94246328Y-115855919D01*
X93600958Y-115822077D01*
X93009169Y-115783455D01*
X92501373Y-115741125D01*
X92107983Y-115696162D01*
X91907434Y-115667233D01*
X89756557Y-115269487D01*
X87667654Y-114722942D01*
X85647643Y-114032214D01*
X83703440Y-113201916D01*
X81841963Y-112236662D01*
X80070130Y-111141068D01*
X78394857Y-109919747D01*
X76823062Y-108577313D01*
X75361662Y-107118381D01*
X74017575Y-105547565D01*
X72797716Y-103869479D01*
X71709005Y-102088737D01*
X71259884Y-101246278D01*
X70423059Y-99435965D01*
X69718970Y-97559051D01*
X69152311Y-95635432D01*
X68727777Y-93684999D01*
X68450062Y-91727647D01*
X68323863Y-89783269D01*
X68335928Y-89014759D01*
X69761719Y-89014759D01*
X69765903Y-89760962D01*
X69782300Y-90479073D01*
X69815113Y-91114986D01*
X69868540Y-91714673D01*
X69946776Y-92324105D01*
X70054017Y-92989254D01*
X70194458Y-93756092D01*
X70219202Y-93883959D01*
X70644689Y-95649876D01*
X71222588Y-97421581D01*
X71940572Y-99171678D01*
X72786315Y-100872770D01*
X73747489Y-102497460D01*
X74811768Y-104018352D01*
X76080573Y-105563001D01*
X77522581Y-107065620D01*
X79066314Y-108434001D01*
X80709025Y-109666571D01*
X82447965Y-110761761D01*
X84280386Y-111718000D01*
X86203539Y-112533717D01*
X88214676Y-113207340D01*
X90311049Y-113737300D01*
X92489909Y-114122026D01*
X92788348Y-114157320D01*
X93353615Y-114203913D01*
X94023678Y-114241878D01*
X94759842Y-114270385D01*
X95523413Y-114288601D01*
X96275699Y-114295698D01*
X96978006Y-114290845D01*
X97591641Y-114273210D01*
X98077909Y-114241965D01*
X98268630Y-114223400D01*
X100292128Y-113938789D01*
X102304661Y-113498684D01*
X104284317Y-112910394D01*
X106209186Y-112181228D01*
X108057358Y-111318493D01*
X109806923Y-110329500D01*
X110040954Y-110182593D01*
X111698793Y-109033882D01*
X113262741Y-107757802D01*
X114721703Y-106366570D01*
X116064583Y-104872400D01*
X117280285Y-103287509D01*
X118357711Y-101624112D01*
X119285767Y-99894426D01*
X119493369Y-99456822D01*
X120118532Y-98014409D01*
X120635100Y-96595738D01*
X121057076Y-95154634D01*
X121398459Y-93644922D01*
X121673252Y-92020426D01*
X121673486Y-92018810D01*
X121744630Y-91372227D01*
X121793316Y-90598554D01*
X121819821Y-89738387D01*
X121824421Y-88832321D01*
X121807392Y-87920951D01*
X121769011Y-87044873D01*
X121709554Y-86244683D01*
X121629296Y-85560975D01*
X121339076Y-83968297D01*
X120829426Y-82006350D01*
X120161486Y-80086595D01*
X119340708Y-78221163D01*
X118372544Y-76422182D01*
X117262445Y-74701781D01*
X116015865Y-73072091D01*
X116011625Y-73066991D01*
X115601344Y-72596700D01*
X115099435Y-72057208D01*
X114539356Y-71481629D01*
X113954570Y-70903073D01*
X113378537Y-70354654D01*
X112844718Y-69869482D01*
X112386576Y-69480670D01*
X112089423Y-69244944D01*
X110768075Y-68280206D01*
X109419863Y-67426025D01*
X108066476Y-66694356D01*
X106729607Y-66097158D01*
X105430946Y-65646387D01*
X105019266Y-65533891D01*
X104521035Y-65432323D01*
X104163564Y-65411806D01*
X103942152Y-65472243D01*
X103852100Y-65613536D01*
X103848585Y-65637180D01*
X103843606Y-65702241D01*
X103865488Y-65757492D01*
X103936224Y-65814357D01*
X104077807Y-65884260D01*
X104312231Y-65978625D01*
X104661490Y-66108875D01*
X105147576Y-66286436D01*
X106046584Y-66644471D01*
X107280913Y-67221636D01*
X108531299Y-67896353D01*
X108711981Y-68006938D01*
X109753169Y-68644188D01*
X110901952Y-69440710D01*
X111589648Y-69976514D01*
X112582482Y-70832766D01*
X113322187Y-71536420D01*
X113578211Y-71779966D01*
X114539486Y-72780465D01*
X115428956Y-73796613D01*
X116209273Y-74790759D01*
X116634790Y-75389903D01*
X117109778Y-76145426D01*
X117651103Y-77006465D01*
X118545090Y-78710451D01*
X118765535Y-79222520D01*
X119305182Y-80476058D01*
X119460308Y-80930719D01*
X119919813Y-82277483D01*
X120377415Y-84088921D01*
X120384837Y-84125117D01*
X120446850Y-84427556D01*
X120555797Y-84989502D01*
X120640760Y-85490433D01*
X120704576Y-85963249D01*
X120725622Y-86184144D01*
X120750080Y-86440849D01*
X120764056Y-86680666D01*
X120780110Y-86956134D01*
X120797500Y-87542003D01*
X120801866Y-87938682D01*
X120805088Y-88231356D01*
X120805710Y-89057092D01*
X120804344Y-89425847D01*
X120797323Y-90021808D01*
X120794451Y-90265636D01*
X120772108Y-90985569D01*
X120733234Y-91621115D01*
X120700841Y-91940575D01*
X120673751Y-92207743D01*
X120589578Y-92780921D01*
X120476636Y-93376119D01*
X120330845Y-94028805D01*
X120148127Y-94774448D01*
X120128944Y-94847612D01*
X120033332Y-95212266D01*
X119491569Y-96914989D01*
X119432229Y-97101489D01*
X118679190Y-98926557D01*
X117781131Y-100679358D01*
X117755534Y-100720673D01*
X117007865Y-101927452D01*
X116744969Y-102351780D01*
X115577620Y-103935711D01*
X115147723Y-104430746D01*
X114286000Y-105423039D01*
X113088718Y-106597921D01*
X112877025Y-106805653D01*
X111775639Y-107726092D01*
X111357613Y-108075440D01*
X110298412Y-108825230D01*
X109734678Y-109224288D01*
X108015138Y-110244087D01*
X107796482Y-110350759D01*
X106205909Y-111126723D01*
X105752639Y-111320660D01*
X103761604Y-112064019D01*
X101751500Y-112640127D01*
X99726467Y-113048799D01*
X97690645Y-113289845D01*
X95648172Y-113363080D01*
X93603190Y-113268315D01*
X91559836Y-113005362D01*
X89522252Y-112574035D01*
X87494576Y-111974146D01*
X86457545Y-111598063D01*
X84590303Y-110787622D01*
X83645383Y-110283919D01*
X88441094Y-110283919D01*
X88491399Y-110471504D01*
X88649551Y-110678013D01*
X88707880Y-110738468D01*
X89017003Y-110947598D01*
X89341378Y-110989026D01*
X89676853Y-110862006D01*
X89954647Y-110612710D01*
X90073472Y-110309999D01*
X90030638Y-109957826D01*
X90026900Y-109946796D01*
X89910617Y-109716859D01*
X89765178Y-109553636D01*
X89761698Y-109551188D01*
X89723625Y-109519927D01*
X89691825Y-109475242D01*
X89665780Y-109402959D01*
X89644970Y-109288904D01*
X89628875Y-109118904D01*
X89616976Y-108878785D01*
X89615974Y-108839248D01*
X91574895Y-108839248D01*
X91663620Y-109199098D01*
X91870660Y-109505223D01*
X92192710Y-109720854D01*
X92477235Y-109813624D01*
X92807258Y-109821253D01*
X93156956Y-109697986D01*
X93320278Y-109598857D01*
X93589963Y-109307917D01*
X93732303Y-108946446D01*
X93736175Y-108553682D01*
X93590454Y-108168866D01*
X93572319Y-108140337D01*
X93400046Y-107934280D01*
X93221823Y-107800934D01*
X93022015Y-107709895D01*
X92965065Y-105699139D01*
X95379516Y-105699139D01*
X95480188Y-106147247D01*
X95716191Y-106546392D01*
X96075115Y-106859202D01*
X96450421Y-107091092D01*
X96484920Y-109080759D01*
X96519418Y-111070426D01*
X96273717Y-111358728D01*
X96138766Y-111535981D01*
X96065971Y-111725179D01*
X96076438Y-111951394D01*
X96160743Y-112200790D01*
X96344105Y-112446259D01*
X96600864Y-112596260D01*
X96930292Y-112616382D01*
X97290148Y-112471147D01*
X97422407Y-112368847D01*
X97593917Y-112101137D01*
X97633013Y-111788828D01*
X97539006Y-111473673D01*
X97311205Y-111197426D01*
X97271338Y-111158613D01*
X97232544Y-111091145D01*
X97205361Y-110982905D01*
X97188728Y-110812480D01*
X97181588Y-110558456D01*
X97182434Y-110323453D01*
X98924576Y-110323453D01*
X98955683Y-110589314D01*
X99121596Y-110915094D01*
X99433511Y-111155576D01*
X99479072Y-111178210D01*
X99847601Y-111282153D01*
X100183077Y-111221525D01*
X100499376Y-110994226D01*
X100658632Y-110815823D01*
X100761175Y-110610117D01*
X100787242Y-110350759D01*
X100768940Y-110124207D01*
X100682156Y-109919772D01*
X100490909Y-109698826D01*
X100194576Y-109402492D01*
X100194576Y-107258884D01*
X100193288Y-106779094D01*
X100188406Y-106227534D01*
X100180403Y-105747538D01*
X100169831Y-105363547D01*
X100157241Y-105100004D01*
X100143184Y-104981350D01*
X100043839Y-104887897D01*
X99803479Y-104847426D01*
X99515165Y-104847426D01*
X99518458Y-105651759D01*
X99524455Y-107116707D01*
X99533745Y-109385989D01*
X99229161Y-109690574D01*
X99061648Y-109876996D01*
X98953122Y-110082307D01*
X98924576Y-110323453D01*
X97182434Y-110323453D01*
X97182880Y-110199420D01*
X97191547Y-109713960D01*
X97206529Y-109080660D01*
X97256072Y-107090895D01*
X97628374Y-106859104D01*
X97725056Y-106792557D01*
X98038985Y-106468837D01*
X98250602Y-106070331D01*
X98328190Y-105651759D01*
X98320347Y-105535524D01*
X98211852Y-105153937D01*
X98003350Y-104780046D01*
X97730124Y-104482813D01*
X97663813Y-104429528D01*
X97467373Y-104271194D01*
X97337076Y-104165478D01*
X97317404Y-104129095D01*
X97294709Y-104013576D01*
X97276034Y-103810927D01*
X97261071Y-103509405D01*
X97251793Y-103178487D01*
X98775640Y-103178487D01*
X98787198Y-103623956D01*
X98795180Y-103797556D01*
X98818395Y-104127623D01*
X98846730Y-104375756D01*
X98875763Y-104498275D01*
X98915871Y-104524503D01*
X99097420Y-104562740D01*
X99380214Y-104586425D01*
X99720181Y-104595708D01*
X100073247Y-104590740D01*
X100395339Y-104571670D01*
X100642384Y-104538648D01*
X100770309Y-104491826D01*
X100780330Y-104479204D01*
X100829139Y-104320021D01*
X100860534Y-104049601D01*
X100874702Y-103714573D01*
X100871833Y-103361570D01*
X100852115Y-103037222D01*
X100815739Y-102788160D01*
X100762892Y-102661016D01*
X100704105Y-102636511D01*
X100495533Y-102599149D01*
X100185741Y-102570368D01*
X99817326Y-102554946D01*
X99745088Y-102553634D01*
X99328486Y-102553923D01*
X99048965Y-102589857D01*
X98880800Y-102688133D01*
X98798266Y-102875444D01*
X98775640Y-103178487D01*
X97251793Y-103178487D01*
X97249516Y-103097270D01*
X97241062Y-102562778D01*
X97238360Y-102243592D01*
X99269964Y-102243592D01*
X99328244Y-102250246D01*
X99516472Y-102250183D01*
X99782526Y-102239995D01*
X100259477Y-102214898D01*
X100181315Y-101858995D01*
X100169618Y-101809442D01*
X100055019Y-101519338D01*
X99899463Y-101359186D01*
X99720680Y-101348632D01*
X99643036Y-101431877D01*
X99601909Y-101612527D01*
X99551114Y-101816901D01*
X99418131Y-102026468D01*
X99407064Y-102038357D01*
X99295882Y-102175258D01*
X99269964Y-102243592D01*
X97238360Y-102243592D01*
X97235403Y-101894189D01*
X97232231Y-101079761D01*
X97231242Y-100107751D01*
X97229803Y-99165946D01*
X97224676Y-98243436D01*
X97215868Y-97482296D01*
X97203413Y-96884112D01*
X97194795Y-96651514D01*
X98863138Y-96651514D01*
X98865040Y-97022629D01*
X98881545Y-97427864D01*
X98910860Y-97829652D01*
X98951194Y-98190423D01*
X99000755Y-98472609D01*
X99057749Y-98638641D01*
X99068606Y-98654494D01*
X99207819Y-98805110D01*
X99434451Y-99009187D01*
X99705140Y-99227297D01*
X99844109Y-99334144D01*
X100157087Y-99578030D01*
X100543812Y-99882082D01*
X100968062Y-100217780D01*
X101393612Y-100556607D01*
X102550314Y-101480808D01*
X102598373Y-102214898D01*
X102606473Y-102338617D01*
X102617768Y-102572653D01*
X102629477Y-103003225D01*
X102637379Y-103542540D01*
X102638439Y-103714573D01*
X102641161Y-104156244D01*
X102640507Y-104809982D01*
X102635104Y-105469399D01*
X102607576Y-107742372D01*
X102385610Y-107924732D01*
X102338016Y-107965845D01*
X102087246Y-108290130D01*
X101978524Y-108653338D01*
X102009782Y-109019780D01*
X102178946Y-109353768D01*
X102483948Y-109619616D01*
X102769441Y-109734201D01*
X103151543Y-109749969D01*
X103511085Y-109630356D01*
X103807998Y-109390512D01*
X104002213Y-109045586D01*
X104036989Y-108825230D01*
X103982409Y-108476667D01*
X103824823Y-108155686D01*
X103588840Y-107928779D01*
X103361499Y-107794485D01*
X103363634Y-107688728D01*
X105054759Y-107688728D01*
X105129616Y-108054102D01*
X105353577Y-108397361D01*
X105492973Y-108530069D01*
X105691835Y-108631076D01*
X105964712Y-108654425D01*
X106373844Y-108596132D01*
X106695277Y-108418230D01*
X106894207Y-108126347D01*
X106964592Y-107726092D01*
X107221909Y-107726092D01*
X107274461Y-107781776D01*
X107433576Y-107810759D01*
X107572786Y-107789738D01*
X107645242Y-107726092D01*
X107592691Y-107670408D01*
X107433576Y-107641426D01*
X107294365Y-107662446D01*
X107221909Y-107726092D01*
X106964592Y-107726092D01*
X106958025Y-107631000D01*
X106895393Y-107382854D01*
X106788082Y-107139024D01*
X106662691Y-106953288D01*
X106545820Y-106879426D01*
X106526465Y-106852615D01*
X106497950Y-106677042D01*
X106493355Y-106603772D01*
X107274753Y-106603772D01*
X107274826Y-106727216D01*
X107283324Y-106739967D01*
X107386687Y-106788861D01*
X107560576Y-106710092D01*
X107567848Y-106705653D01*
X107744920Y-106647188D01*
X107983909Y-106616824D01*
X108075601Y-106612070D01*
X108141019Y-106597921D01*
X108059455Y-106572210D01*
X107820498Y-106529364D01*
X107585370Y-106497481D01*
X107389270Y-106500271D01*
X107296918Y-106556386D01*
X107274753Y-106603772D01*
X106493355Y-106603772D01*
X106477084Y-106344302D01*
X106464270Y-105862073D01*
X106459909Y-105238035D01*
X106459909Y-103596645D01*
X106227076Y-103563582D01*
X106047946Y-103539124D01*
X105914097Y-103537588D01*
X105819580Y-103579994D01*
X105757565Y-103687239D01*
X105721220Y-103880222D01*
X105703716Y-104179839D01*
X105698223Y-104606987D01*
X105698013Y-104991051D01*
X105697909Y-105182563D01*
X105697909Y-106775284D01*
X105488004Y-106912819D01*
X105339830Y-107029945D01*
X105125873Y-107335817D01*
X105054759Y-107688728D01*
X103363634Y-107688728D01*
X103397152Y-106028167D01*
X103404154Y-105529687D01*
X103404964Y-105273150D01*
X104895054Y-105273150D01*
X105025482Y-105345069D01*
X105253409Y-105299352D01*
X105273034Y-105288390D01*
X105341663Y-105167421D01*
X105358332Y-104991051D01*
X105324588Y-104831942D01*
X105241980Y-104762759D01*
X105119874Y-104823940D01*
X104989829Y-104973174D01*
X104899998Y-105144818D01*
X104895054Y-105273150D01*
X103404964Y-105273150D01*
X103406476Y-104794438D01*
X103401357Y-104033001D01*
X103389310Y-103310516D01*
X103370850Y-102692122D01*
X103322016Y-101454835D01*
X105189909Y-101454835D01*
X105189909Y-102346797D01*
X105189909Y-103238759D01*
X106031388Y-103238759D01*
X106872867Y-103238759D01*
X106926028Y-102878926D01*
X106943703Y-102710622D01*
X106958146Y-102363005D01*
X106952382Y-102011092D01*
X106925576Y-101503092D01*
X106057742Y-101478964D01*
X105189909Y-101454835D01*
X103322016Y-101454835D01*
X103308895Y-101122394D01*
X102069236Y-100131755D01*
X101730898Y-99861527D01*
X101289005Y-99508980D01*
X100875038Y-99179112D01*
X100523764Y-98899624D01*
X100269951Y-98698216D01*
X99710327Y-98255317D01*
X99649340Y-97264967D01*
X99623795Y-96892907D01*
X99594271Y-96543045D01*
X99566363Y-96285377D01*
X99560761Y-96253926D01*
X101997002Y-96253926D01*
X102004414Y-96541745D01*
X102125655Y-96800159D01*
X102343584Y-96986497D01*
X102641064Y-97058092D01*
X102832368Y-97082941D01*
X102948087Y-97145743D01*
X102996098Y-97194289D01*
X103152976Y-97339220D01*
X103396052Y-97558835D01*
X103702337Y-97832809D01*
X104048841Y-98140818D01*
X104412575Y-98462538D01*
X104770550Y-98777644D01*
X105099776Y-99065813D01*
X105377265Y-99306720D01*
X105580028Y-99480041D01*
X105685074Y-99565451D01*
X105692599Y-99594088D01*
X105706604Y-99757141D01*
X105718877Y-100030426D01*
X105727408Y-100375480D01*
X105740242Y-101164426D01*
X106039602Y-101189622D01*
X106072885Y-101192026D01*
X106281773Y-101188277D01*
X106399435Y-101154344D01*
X106418914Y-101086382D01*
X106440111Y-100876733D01*
X106454565Y-100564758D01*
X106459909Y-100188261D01*
X106459909Y-99282653D01*
X105549742Y-98485784D01*
X105537369Y-98474953D01*
X105134246Y-98124011D01*
X104707885Y-97755945D01*
X104308351Y-97413812D01*
X103985712Y-97140670D01*
X103801289Y-96984070D01*
X103560145Y-96764455D01*
X103417020Y-96600919D01*
X103348094Y-96463792D01*
X103329545Y-96323404D01*
X103322530Y-96236389D01*
X103211240Y-95976464D01*
X102998047Y-95798445D01*
X102726285Y-95717873D01*
X102439289Y-95750292D01*
X102180394Y-95911244D01*
X102120558Y-95979369D01*
X101997002Y-96253926D01*
X99560761Y-96253926D01*
X99543740Y-96158355D01*
X99504439Y-96109970D01*
X99341128Y-96052545D01*
X99127352Y-96053200D01*
X98937457Y-96117006D01*
X98910312Y-96161921D01*
X98877631Y-96352088D01*
X98863138Y-96651514D01*
X97194795Y-96651514D01*
X97187346Y-96450470D01*
X97167700Y-96182953D01*
X97144510Y-96083149D01*
X97012510Y-96061536D01*
X96805843Y-96084879D01*
X96553909Y-96140213D01*
X96553402Y-99498986D01*
X96552290Y-100345246D01*
X96552254Y-100372692D01*
X96547804Y-101302450D01*
X96539535Y-102082447D01*
X96526944Y-102723464D01*
X96509533Y-103236283D01*
X96486799Y-103631685D01*
X96458244Y-103920452D01*
X96423366Y-104113366D01*
X96381664Y-104221208D01*
X96332640Y-104254759D01*
X96221214Y-104291780D01*
X96021999Y-104432112D01*
X95803465Y-104637750D01*
X95609243Y-104866513D01*
X95482964Y-105076217D01*
X95426588Y-105239441D01*
X95379516Y-105699139D01*
X92965065Y-105699139D01*
X92961092Y-105558850D01*
X92900169Y-103407805D01*
X93365433Y-102630921D01*
X93830697Y-101854038D01*
X94338799Y-101874775D01*
X94690869Y-101862192D01*
X95141439Y-101732611D01*
X95503775Y-101462503D01*
X95792331Y-101043601D01*
X95812647Y-100998631D01*
X95877334Y-100707317D01*
X95889122Y-100345246D01*
X95849745Y-99986393D01*
X95760937Y-99704730D01*
X95658742Y-99549981D01*
X95474877Y-99336679D01*
X95265415Y-99133160D01*
X95073505Y-98980746D01*
X94942296Y-98920759D01*
X94919110Y-98912653D01*
X94874458Y-98783772D01*
X94871118Y-98496503D01*
X94909150Y-98048919D01*
X94988615Y-97439092D01*
X94993735Y-97403736D01*
X95055698Y-96965932D01*
X95092294Y-96662564D01*
X95103348Y-96462716D01*
X95088687Y-96335473D01*
X95048138Y-96249920D01*
X94981528Y-96175140D01*
X94921431Y-96128307D01*
X94727619Y-96055747D01*
X94528798Y-96048954D01*
X94401694Y-96115782D01*
X94400518Y-96117967D01*
X94375488Y-96235786D01*
X94375477Y-96235869D01*
X94341849Y-96485098D01*
X94303859Y-96830756D01*
X94265776Y-97237615D01*
X94230585Y-97645857D01*
X94189991Y-98086964D01*
X94152447Y-98402369D01*
X94110510Y-98617035D01*
X94056737Y-98755925D01*
X93983685Y-98844003D01*
X93883911Y-98906231D01*
X93749971Y-98967573D01*
X93439327Y-99158000D01*
X93119850Y-99523288D01*
X92915876Y-100007344D01*
X92867416Y-100268610D01*
X92900331Y-100728669D01*
X93096510Y-101182187D01*
X93139267Y-101252965D01*
X93194114Y-101363873D01*
X93207990Y-101471917D01*
X93170730Y-101606128D01*
X93072169Y-101795539D01*
X92902143Y-102069179D01*
X92650487Y-102456082D01*
X92235909Y-103091152D01*
X92235909Y-105375270D01*
X92235909Y-105422163D01*
X92235909Y-107659388D01*
X92022551Y-107827216D01*
X91765602Y-108105442D01*
X91607787Y-108462440D01*
X91574895Y-108839248D01*
X89615974Y-108839248D01*
X89608755Y-108554374D01*
X89603691Y-108131499D01*
X89601265Y-107595984D01*
X89600958Y-106933657D01*
X89602251Y-106130345D01*
X89603675Y-105555143D01*
X90479046Y-105555143D01*
X90587997Y-105782170D01*
X90744300Y-105911773D01*
X90929109Y-105925618D01*
X91135242Y-105778759D01*
X91266880Y-105608567D01*
X91283040Y-105422163D01*
X91138654Y-105231513D01*
X91042952Y-105165308D01*
X90816482Y-105122537D01*
X90613337Y-105206692D01*
X90491497Y-105402460D01*
X90479046Y-105555143D01*
X89603675Y-105555143D01*
X89604624Y-105171874D01*
X89615843Y-100910426D01*
X90015709Y-100549889D01*
X90054698Y-100514882D01*
X90292971Y-100303866D01*
X90614064Y-100022575D01*
X90980761Y-99703518D01*
X91355848Y-99379205D01*
X92296121Y-98569057D01*
X92482159Y-97389401D01*
X92505011Y-97241266D01*
X92563338Y-96826148D01*
X92603653Y-96480147D01*
X92622491Y-96235869D01*
X92616390Y-96125918D01*
X92536666Y-96082417D01*
X92356444Y-96051206D01*
X92145422Y-96043428D01*
X91969477Y-96060939D01*
X91894486Y-96105592D01*
X91882683Y-96201869D01*
X91882471Y-96203602D01*
X91850194Y-96435717D01*
X91802718Y-96765621D01*
X91745079Y-97157842D01*
X91598429Y-98146593D01*
X90223836Y-99347488D01*
X88849242Y-100548384D01*
X88849242Y-104999614D01*
X88849234Y-105314799D01*
X88848935Y-106247828D01*
X88847818Y-107029837D01*
X88845361Y-107674875D01*
X88842578Y-108011097D01*
X88841040Y-108196991D01*
X88834332Y-108610236D01*
X88824713Y-108928657D01*
X88811659Y-109166305D01*
X88794648Y-109337228D01*
X88773155Y-109455476D01*
X88746658Y-109535098D01*
X88714633Y-109590143D01*
X88676556Y-109634661D01*
X88673578Y-109637868D01*
X88539194Y-109854415D01*
X88455698Y-110115328D01*
X88441094Y-110283919D01*
X83645383Y-110283919D01*
X82811327Y-109839314D01*
X81127092Y-108759670D01*
X79544072Y-107555226D01*
X79028197Y-107092716D01*
X81924427Y-107092716D01*
X81926125Y-107449995D01*
X82077808Y-107786007D01*
X82377951Y-108069302D01*
X82609062Y-108181212D01*
X82964899Y-108223631D01*
X83301918Y-108133114D01*
X83585503Y-107928760D01*
X83589299Y-107922954D01*
X85049624Y-107922954D01*
X85089122Y-108321267D01*
X85255505Y-108689747D01*
X85524087Y-108984711D01*
X85870185Y-109162476D01*
X85924156Y-109177578D01*
X86119780Y-109228896D01*
X86250178Y-109235292D01*
X86388610Y-109188674D01*
X86608334Y-109080952D01*
X86681357Y-109041107D01*
X86925239Y-108860270D01*
X87095168Y-108665789D01*
X87205167Y-108401889D01*
X87234181Y-108011097D01*
X87128324Y-107636427D01*
X86901718Y-107319783D01*
X86568486Y-107103069D01*
X86495607Y-107070649D01*
X86297261Y-106944228D01*
X86198086Y-106819360D01*
X86181727Y-106763972D01*
X86146545Y-106733862D01*
X86096675Y-106858259D01*
X86021234Y-106984365D01*
X85827188Y-107048759D01*
X85628914Y-107108391D01*
X85396029Y-107278548D01*
X85194834Y-107511278D01*
X85076594Y-107758133D01*
X85049624Y-107922954D01*
X83589299Y-107922954D01*
X83781038Y-107629668D01*
X83853909Y-107254938D01*
X83838586Y-107085449D01*
X83747563Y-106873730D01*
X83545530Y-106638780D01*
X83237151Y-106330400D01*
X83298059Y-103837659D01*
X83353251Y-101578882D01*
X84887457Y-101578882D01*
X84948686Y-101749995D01*
X85021293Y-101812466D01*
X85210740Y-101876567D01*
X85399685Y-101860278D01*
X85514727Y-101762038D01*
X85550206Y-101560104D01*
X85466502Y-101394347D01*
X85258977Y-101333759D01*
X85155905Y-101342980D01*
X84966100Y-101430372D01*
X84887457Y-101578882D01*
X83353251Y-101578882D01*
X83358968Y-101344917D01*
X83923939Y-100825670D01*
X84189950Y-100582824D01*
X84556013Y-100251378D01*
X84954293Y-99892872D01*
X85335576Y-99551720D01*
X85418037Y-99478099D01*
X85823341Y-99114021D01*
X86289360Y-98692652D01*
X86764768Y-98260496D01*
X87198242Y-97864055D01*
X88214242Y-96931092D01*
X88239403Y-97508112D01*
X88264564Y-98085131D01*
X87683692Y-98735778D01*
X87571313Y-98862602D01*
X87247016Y-99236420D01*
X86925977Y-99615824D01*
X86663698Y-99935534D01*
X86224576Y-100484642D01*
X86224576Y-101314086D01*
X86218298Y-101560104D01*
X86212284Y-101795814D01*
X86163811Y-102211499D01*
X86072226Y-102497224D01*
X85930862Y-102672566D01*
X85733052Y-102757097D01*
X85527411Y-102830396D01*
X85211488Y-103048400D01*
X84932554Y-103354984D01*
X84738297Y-103704719D01*
X84647582Y-104137481D01*
X84696203Y-104563510D01*
X84865505Y-104949802D01*
X85132361Y-105274918D01*
X85473642Y-105517421D01*
X85866221Y-105655872D01*
X86286968Y-105668835D01*
X86712756Y-105534870D01*
X86771588Y-105503569D01*
X87176106Y-105192320D01*
X87441843Y-104788949D01*
X87560952Y-104304834D01*
X87568895Y-104091578D01*
X87513639Y-103737081D01*
X87346748Y-103418453D01*
X87046418Y-103083952D01*
X86753145Y-102802144D01*
X86869860Y-102414329D01*
X86876423Y-102391437D01*
X86932169Y-102099886D01*
X86971611Y-101722767D01*
X86986576Y-101335638D01*
X86986576Y-100644762D01*
X88007388Y-99426519D01*
X89028201Y-98208277D01*
X89012697Y-97527351D01*
X89012044Y-97491814D01*
X89021332Y-97109738D01*
X89055152Y-96749076D01*
X89106849Y-96483601D01*
X89127293Y-96414544D01*
X89172656Y-96201869D01*
X89148048Y-96052783D01*
X89045576Y-95890934D01*
X88834379Y-95707508D01*
X88535538Y-95620003D01*
X88225994Y-95662586D01*
X87960691Y-95837943D01*
X87937958Y-95863374D01*
X87814405Y-96043514D01*
X87803487Y-96059433D01*
X87748576Y-96223789D01*
X87748827Y-96244828D01*
X87747458Y-96293835D01*
X87732005Y-96344272D01*
X87688420Y-96410036D01*
X87602656Y-96505026D01*
X87460665Y-96643137D01*
X87248402Y-96838269D01*
X86951817Y-97104318D01*
X86556865Y-97455182D01*
X86049497Y-97904759D01*
X85576995Y-98325199D01*
X85048066Y-98798991D01*
X84522211Y-99272793D01*
X84040793Y-99709331D01*
X83645178Y-100071330D01*
X82626242Y-101010235D01*
X82566063Y-103669663D01*
X82562847Y-103811766D01*
X82505883Y-106329092D01*
X82301764Y-106498426D01*
X82074241Y-106745619D01*
X81924427Y-107092716D01*
X79028197Y-107092716D01*
X78068742Y-106232512D01*
X76707575Y-104798064D01*
X76082334Y-104022061D01*
X79686122Y-104022061D01*
X79789711Y-104380691D01*
X80036938Y-104713747D01*
X80285806Y-104890302D01*
X80651307Y-104983259D01*
X80700511Y-104987108D01*
X81055304Y-104972291D01*
X81330032Y-104853066D01*
X81588809Y-104603458D01*
X81694767Y-104466343D01*
X81852189Y-104139868D01*
X81854009Y-103811766D01*
X81704084Y-103443225D01*
X81487849Y-103056339D01*
X81670031Y-102809923D01*
X81681417Y-102794312D01*
X81789932Y-102596476D01*
X81779226Y-102503401D01*
X81673299Y-102530949D01*
X81496150Y-102694986D01*
X81336790Y-102856757D01*
X81188868Y-102917181D01*
X80986674Y-102894188D01*
X80789129Y-102867603D01*
X80403219Y-102915975D01*
X80084717Y-103084815D01*
X79848870Y-103344915D01*
X79710923Y-103667067D01*
X79686122Y-104022061D01*
X76082334Y-104022061D01*
X75467047Y-103258413D01*
X74524587Y-101871642D01*
X76911242Y-101871642D01*
X76945135Y-102093154D01*
X77101262Y-102397655D01*
X77346855Y-102610108D01*
X77667805Y-102719437D01*
X77982113Y-102683695D01*
X78272422Y-102483272D01*
X78446922Y-102256120D01*
X78519909Y-101965729D01*
X78520327Y-101940926D01*
X78548302Y-101790735D01*
X78637042Y-101633477D01*
X78810196Y-101436033D01*
X79091409Y-101165281D01*
X79666437Y-100624402D01*
X80290160Y-100021654D01*
X80881915Y-99433600D01*
X81426000Y-98876611D01*
X81906712Y-98367059D01*
X82308348Y-97921316D01*
X82615205Y-97555752D01*
X82811581Y-97286738D01*
X83015734Y-96963339D01*
X83310768Y-97222382D01*
X83401177Y-97298283D01*
X83582762Y-97429508D01*
X83695754Y-97481426D01*
X83710873Y-97478223D01*
X83837136Y-97396429D01*
X84036849Y-97227969D01*
X84277522Y-97004726D01*
X84526667Y-96758579D01*
X84751796Y-96521410D01*
X84920420Y-96325100D01*
X85000050Y-96201529D01*
X85004785Y-96043514D01*
X84917675Y-95779512D01*
X84749443Y-95496403D01*
X84533142Y-95254412D01*
X85139398Y-95254412D01*
X85195630Y-95497158D01*
X85243640Y-95575698D01*
X85427278Y-95691712D01*
X85657528Y-95678708D01*
X85885909Y-95534092D01*
X85953840Y-95462694D01*
X86039998Y-95318530D01*
X86007962Y-95173848D01*
X85970293Y-95124175D01*
X104861141Y-95124175D01*
X104970102Y-95318530D01*
X104978058Y-95332721D01*
X105253409Y-95570166D01*
X105258666Y-95573997D01*
X105428327Y-95716617D01*
X105693882Y-95962090D01*
X106035682Y-96291239D01*
X106434078Y-96684889D01*
X106869421Y-97123864D01*
X107322063Y-97588989D01*
X108954463Y-99282653D01*
X108988550Y-99318019D01*
X108996887Y-101398840D01*
X108997774Y-101628242D01*
X108999172Y-102223497D01*
X108998626Y-102363005D01*
X108997400Y-102676283D01*
X108990910Y-103006833D01*
X108978154Y-103235378D01*
X108957584Y-103382151D01*
X108927652Y-103467384D01*
X108886811Y-103511310D01*
X108833511Y-103534161D01*
X108744191Y-103587280D01*
X108575625Y-103770374D01*
X108411530Y-104022376D01*
X108287196Y-104285860D01*
X108237909Y-104503402D01*
X108243503Y-104586573D01*
X108343993Y-104912756D01*
X108537635Y-105225422D01*
X108781466Y-105449771D01*
X108827914Y-105476700D01*
X109217203Y-105606757D01*
X109604947Y-105591005D01*
X109960303Y-105447486D01*
X110252426Y-105194242D01*
X110450470Y-104849314D01*
X110523593Y-104430746D01*
X110515482Y-104246182D01*
X110466531Y-104070722D01*
X110346822Y-103899385D01*
X110126742Y-103675846D01*
X109729574Y-103295292D01*
X109707241Y-102002547D01*
X110720581Y-102002547D01*
X110758500Y-102070028D01*
X110862576Y-102138092D01*
X110967551Y-102071465D01*
X111017342Y-101927452D01*
X110978944Y-101797260D01*
X110955549Y-101778421D01*
X110830721Y-101771509D01*
X110730886Y-101863311D01*
X110720581Y-102002547D01*
X109707241Y-102002547D01*
X109692189Y-101131250D01*
X109684930Y-100711100D01*
X110706258Y-100711100D01*
X110781285Y-100914493D01*
X110876469Y-100990153D01*
X111071646Y-101035665D01*
X111237062Y-100973926D01*
X111267815Y-100964729D01*
X112725242Y-100964729D01*
X112726284Y-101197909D01*
X112737139Y-101445549D01*
X112769222Y-101588413D01*
X112833870Y-101665761D01*
X112942421Y-101716854D01*
X113165369Y-101775691D01*
X113515163Y-101798228D01*
X113843401Y-101753530D01*
X114081441Y-101645877D01*
X114146504Y-101582934D01*
X114255677Y-101375341D01*
X114313630Y-101049360D01*
X114320327Y-100974674D01*
X114325253Y-100720673D01*
X114277357Y-100550921D01*
X114160959Y-100398576D01*
X114020939Y-100278943D01*
X113827829Y-100209434D01*
X113535984Y-100191915D01*
X113404385Y-100192490D01*
X113075660Y-100205702D01*
X112874971Y-100259421D01*
X112770730Y-100383759D01*
X112731350Y-100608825D01*
X112729561Y-100713063D01*
X112725242Y-100964729D01*
X111267815Y-100964729D01*
X111341204Y-100942781D01*
X111567359Y-100919375D01*
X111863221Y-100910426D01*
X112072132Y-100907883D01*
X112295945Y-100888928D01*
X112410999Y-100843494D01*
X112454499Y-100762259D01*
X112458953Y-100713063D01*
X112416576Y-100650238D01*
X112276747Y-100621168D01*
X112003681Y-100614092D01*
X111982590Y-100614005D01*
X111576135Y-100573766D01*
X111275777Y-100467639D01*
X111226992Y-100439897D01*
X111033425Y-100370655D01*
X110881713Y-100413213D01*
X110776983Y-100507948D01*
X110706258Y-100711100D01*
X109684930Y-100711100D01*
X109654803Y-98967207D01*
X107899028Y-97144816D01*
X107790403Y-97032006D01*
X107337125Y-96559920D01*
X106913644Y-96116802D01*
X106537549Y-95721198D01*
X106226430Y-95391653D01*
X105997876Y-95146714D01*
X105869477Y-95004926D01*
X105758989Y-94890875D01*
X105483323Y-94715951D01*
X105217265Y-94690853D01*
X104984290Y-94820473D01*
X104897429Y-94929966D01*
X104861141Y-95124175D01*
X85970293Y-95124175D01*
X85854552Y-94971551D01*
X85812518Y-94922971D01*
X85688258Y-94803390D01*
X85583459Y-94796133D01*
X85426668Y-94887096D01*
X85228375Y-95051763D01*
X85139398Y-95254412D01*
X84533142Y-95254412D01*
X84526035Y-95246461D01*
X84337873Y-95052574D01*
X84283903Y-94914002D01*
X84361909Y-94814426D01*
X84440821Y-94744588D01*
X84399045Y-94687605D01*
X84204564Y-94655294D01*
X83849631Y-94645092D01*
X83252999Y-94645092D01*
X82706140Y-95207980D01*
X82591336Y-95326891D01*
X82362762Y-95581233D01*
X82244336Y-95771545D01*
X82227864Y-95937203D01*
X82305149Y-96117583D01*
X82467995Y-96352061D01*
X82665705Y-96619697D01*
X81641146Y-97706728D01*
X81419524Y-97939163D01*
X81359176Y-98002455D01*
X80886536Y-98488462D01*
X80368567Y-99012287D01*
X79850826Y-99527961D01*
X79742617Y-99633785D01*
X79378869Y-99989514D01*
X79102357Y-100256315D01*
X78749890Y-100592974D01*
X78486816Y-100835333D01*
X78293494Y-100997969D01*
X78150283Y-101095462D01*
X78037540Y-101142388D01*
X77935624Y-101153324D01*
X77824894Y-101142849D01*
X77769660Y-101136138D01*
X77574973Y-101139345D01*
X77411228Y-101217494D01*
X77209940Y-101399128D01*
X77113958Y-101504370D01*
X76968509Y-101712339D01*
X76911242Y-101871642D01*
X74524587Y-101871642D01*
X74353632Y-101620093D01*
X73373803Y-99889637D01*
X73116116Y-99332368D01*
X75520365Y-99332368D01*
X75554351Y-99527524D01*
X75711983Y-99787495D01*
X76001601Y-100127259D01*
X76193111Y-100320221D01*
X76368334Y-100471483D01*
X76471272Y-100529426D01*
X76585149Y-100485676D01*
X76784968Y-100350013D01*
X77017802Y-100159198D01*
X77240825Y-99951024D01*
X77411212Y-99763288D01*
X77486135Y-99633785D01*
X77484113Y-99581698D01*
X77404915Y-99390458D01*
X77244323Y-99172641D01*
X77177168Y-99097040D01*
X76987399Y-98870127D01*
X76935320Y-98800970D01*
X77334576Y-98800970D01*
X77349314Y-98885307D01*
X77423407Y-98906642D01*
X77576907Y-98819462D01*
X77828567Y-98616774D01*
X77970281Y-98504251D01*
X78215876Y-98341982D01*
X78408829Y-98252582D01*
X78483454Y-98228904D01*
X78686063Y-98102350D01*
X78756058Y-97939163D01*
X78676082Y-97770646D01*
X78592277Y-97711181D01*
X78407455Y-97681710D01*
X78248678Y-97751567D01*
X78181242Y-97903253D01*
X78144671Y-97996473D01*
X77993818Y-98172615D01*
X77757909Y-98370426D01*
X77564637Y-98525598D01*
X77398483Y-98690965D01*
X77334576Y-98800970D01*
X76935320Y-98800970D01*
X76850193Y-98687926D01*
X76733006Y-98562059D01*
X76591826Y-98497426D01*
X76495130Y-98530208D01*
X76296120Y-98646582D01*
X76054153Y-98814651D01*
X75815440Y-99000041D01*
X75626193Y-99168379D01*
X75532623Y-99285291D01*
X75520365Y-99332368D01*
X73116116Y-99332368D01*
X72534037Y-98073578D01*
X71840807Y-96178450D01*
X71662723Y-95569253D01*
X74523844Y-95569253D01*
X74580787Y-96018779D01*
X74767514Y-96421797D01*
X75076579Y-96739365D01*
X75127569Y-96773177D01*
X75431582Y-96896671D01*
X75849307Y-96952129D01*
X76125781Y-96952820D01*
X76551736Y-96869619D01*
X76886127Y-96664588D01*
X77158166Y-96323702D01*
X77376909Y-95962778D01*
X78156750Y-95960102D01*
X78936591Y-95957426D01*
X80026180Y-95004926D01*
X80219599Y-94835636D01*
X80655255Y-94453091D01*
X80958896Y-94185441D01*
X84202601Y-94185441D01*
X84281110Y-94395752D01*
X84369105Y-94471928D01*
X84587247Y-94506374D01*
X84751049Y-94431817D01*
X89887463Y-94431817D01*
X89894212Y-94754283D01*
X89969693Y-94922711D01*
X90015437Y-94951426D01*
X90217310Y-95024650D01*
X90479104Y-95078656D01*
X90728262Y-95100396D01*
X90867205Y-95069202D01*
X90948940Y-94972934D01*
X90992362Y-94864952D01*
X91063798Y-94611549D01*
X91137205Y-94286251D01*
X91181722Y-94052426D01*
X92108909Y-94052426D01*
X92108909Y-94983759D01*
X92670266Y-95008563D01*
X93231622Y-95033367D01*
X93269057Y-94778310D01*
X93273736Y-94737526D01*
X93283608Y-94498627D01*
X93281814Y-94165617D01*
X93268393Y-93797384D01*
X93230294Y-93071515D01*
X92669602Y-93096303D01*
X92108909Y-93121092D01*
X92108909Y-93350983D01*
X92108909Y-94052426D01*
X91181722Y-94052426D01*
X91203839Y-93936258D01*
X91254951Y-93608768D01*
X91281795Y-93350983D01*
X91275624Y-93210100D01*
X91270852Y-93199128D01*
X91186423Y-93127372D01*
X91000311Y-93089691D01*
X90679249Y-93078759D01*
X90133274Y-93078759D01*
X90035578Y-93523259D01*
X89949414Y-93956018D01*
X89942543Y-94008792D01*
X89887463Y-94431817D01*
X84751049Y-94431817D01*
X84851070Y-94386291D01*
X85003737Y-94218093D01*
X85016458Y-94008792D01*
X84864123Y-93793189D01*
X84757641Y-93707537D01*
X84635353Y-93683142D01*
X84461957Y-93761730D01*
X84440144Y-93774597D01*
X84261005Y-93959483D01*
X84202601Y-94185441D01*
X80958896Y-94185441D01*
X81086570Y-94072900D01*
X81472422Y-93731346D01*
X81771693Y-93464712D01*
X81884278Y-93363835D01*
X87774521Y-93363835D01*
X87796024Y-93527225D01*
X87823146Y-93573771D01*
X87904685Y-93623654D01*
X88062586Y-93653376D01*
X88327806Y-93667709D01*
X88731301Y-93671426D01*
X89611242Y-93671426D01*
X89611242Y-93078759D01*
X89611242Y-93070894D01*
X94177623Y-93070894D01*
X94201599Y-94027326D01*
X94213414Y-94498627D01*
X94225576Y-94983759D01*
X94755839Y-95008994D01*
X95055447Y-95013258D01*
X95249651Y-94985090D01*
X95251264Y-94983759D01*
X96257576Y-94983759D01*
X96769051Y-95008506D01*
X97003861Y-95013200D01*
X97229936Y-95001316D01*
X97340551Y-94973229D01*
X97360493Y-94900714D01*
X97381236Y-94687179D01*
X97395359Y-94371842D01*
X97399747Y-94052426D01*
X98289576Y-94052426D01*
X98289576Y-94983759D01*
X98861076Y-95008794D01*
X99432576Y-95033829D01*
X99432576Y-94052426D01*
X99432576Y-93462567D01*
X100289637Y-93462567D01*
X100317276Y-93726592D01*
X100370925Y-94051592D01*
X100371097Y-94052426D01*
X100440937Y-94391798D01*
X100517669Y-94701441D01*
X100591475Y-94934752D01*
X100652710Y-95045962D01*
X100708693Y-95071949D01*
X100934178Y-95097342D01*
X101213211Y-95068271D01*
X101472704Y-94996119D01*
X101639572Y-94892269D01*
X101676672Y-94823907D01*
X101692106Y-94677674D01*
X101664958Y-94438638D01*
X101593253Y-94071795D01*
X101591734Y-94064693D01*
X101499072Y-93645283D01*
X101419636Y-93364537D01*
X101331883Y-93195838D01*
X101214264Y-93112569D01*
X101045236Y-93088113D01*
X100803251Y-93095854D01*
X100582151Y-93110867D01*
X100406485Y-93144283D01*
X100324099Y-93211561D01*
X100291683Y-93332759D01*
X100289637Y-93462567D01*
X99432576Y-93462567D01*
X99432576Y-93071022D01*
X98861076Y-93096057D01*
X98289576Y-93121092D01*
X98289576Y-93992113D01*
X98289576Y-94052426D01*
X97399747Y-94052426D01*
X97400576Y-93992113D01*
X97400576Y-93071022D01*
X96829076Y-93096057D01*
X96257576Y-93121092D01*
X96257576Y-94052426D01*
X96257576Y-94331867D01*
X96257576Y-94983759D01*
X95251264Y-94983759D01*
X95330587Y-94918301D01*
X95341584Y-94856652D01*
X95353473Y-94644451D01*
X95356797Y-94331867D01*
X95350658Y-93961732D01*
X95326242Y-93121092D01*
X94751933Y-93095993D01*
X94177623Y-93070894D01*
X89611242Y-93070894D01*
X89611242Y-92486092D01*
X101887909Y-92486092D01*
X101887909Y-93078759D01*
X101887909Y-93671426D01*
X102767851Y-93671426D01*
X103141314Y-93669322D01*
X103437167Y-93651622D01*
X103617325Y-93601020D01*
X103710483Y-93500213D01*
X103745335Y-93331894D01*
X103750576Y-93078759D01*
X103747088Y-92853529D01*
X103717738Y-92675104D01*
X103633834Y-92566454D01*
X103466681Y-92510271D01*
X103187585Y-92489253D01*
X102767851Y-92486092D01*
X101887909Y-92486092D01*
X89611242Y-92486092D01*
X88731998Y-92486092D01*
X87852754Y-92486092D01*
X87796722Y-92934558D01*
X87780353Y-93104655D01*
X87774521Y-93363835D01*
X81884278Y-93363835D01*
X82427618Y-92876998D01*
X84417427Y-92730380D01*
X84764035Y-92704276D01*
X85303316Y-92661291D01*
X85774523Y-92620827D01*
X86152444Y-92585185D01*
X86411865Y-92556669D01*
X86527573Y-92537584D01*
X86621060Y-92426510D01*
X86646649Y-92234434D01*
X86641267Y-92208725D01*
X104858628Y-92208725D01*
X104870376Y-92234434D01*
X104963136Y-92437418D01*
X104991170Y-92471877D01*
X105053210Y-92517178D01*
X105154289Y-92544617D01*
X105320370Y-92555202D01*
X105577413Y-92549944D01*
X105951381Y-92529851D01*
X106468236Y-92495933D01*
X106767535Y-92476096D01*
X107243030Y-92446482D01*
X107659578Y-92422808D01*
X107980527Y-92407111D01*
X108169225Y-92401426D01*
X108477008Y-92401426D01*
X108703590Y-93078759D01*
X108823540Y-93437333D01*
X109170071Y-94473241D01*
X109373337Y-94677674D01*
X109886882Y-95194167D01*
X110603692Y-95915092D01*
X110460320Y-96312572D01*
X110452548Y-96334253D01*
X110373277Y-96605866D01*
X110365665Y-96832890D01*
X110425355Y-97115372D01*
X110604432Y-97564966D01*
X110877549Y-97947340D01*
X111210171Y-98205709D01*
X111407886Y-98283264D01*
X111784210Y-98360107D01*
X112175381Y-98378863D01*
X112497914Y-98331384D01*
X112516966Y-98325091D01*
X112881229Y-98136977D01*
X113208455Y-97855657D01*
X113432994Y-97536909D01*
X113508535Y-97312132D01*
X113563922Y-96914989D01*
X113556011Y-96500978D01*
X113481856Y-96153437D01*
X113475663Y-96137584D01*
X113291731Y-95830414D01*
X113015225Y-95533722D01*
X112708280Y-95314867D01*
X112467729Y-95237605D01*
X112103873Y-95200146D01*
X111714244Y-95218107D01*
X111370850Y-95292683D01*
X111299757Y-95316615D01*
X111185880Y-95338599D01*
X111078141Y-95312727D01*
X110945554Y-95220552D01*
X110757133Y-95043630D01*
X110522002Y-94804337D01*
X115175332Y-94804337D01*
X115196721Y-94960501D01*
X115286409Y-95026564D01*
X115307513Y-95027788D01*
X115478416Y-95057962D01*
X115711910Y-95115809D01*
X115875549Y-95176122D01*
X115973403Y-95265211D01*
X115911046Y-95335944D01*
X115690504Y-95364759D01*
X115643458Y-95365196D01*
X115367912Y-95401482D01*
X115222813Y-95509176D01*
X115180576Y-95706778D01*
X115211441Y-95880978D01*
X115336101Y-96000841D01*
X115534095Y-95987795D01*
X115781310Y-95836630D01*
X115862799Y-95770585D01*
X116062277Y-95642906D01*
X116165801Y-95641257D01*
X116166269Y-95766926D01*
X116154556Y-95808807D01*
X116075220Y-96130207D01*
X116057150Y-96329609D01*
X116102503Y-96440309D01*
X116213432Y-96495601D01*
X116218171Y-96496869D01*
X116405732Y-96540727D01*
X116505712Y-96530632D01*
X116591914Y-96459554D01*
X116612159Y-96428376D01*
X116647356Y-96249356D01*
X116639985Y-95992248D01*
X116633871Y-95936093D01*
X116622771Y-95734922D01*
X116654123Y-95658004D01*
X116738845Y-95669713D01*
X116872032Y-95774688D01*
X117002477Y-95960458D01*
X117081406Y-96094211D01*
X117180349Y-96150386D01*
X117337352Y-96098364D01*
X117480295Y-95993504D01*
X117550582Y-95851592D01*
X117551542Y-95772530D01*
X117556407Y-95641161D01*
X117555360Y-95634106D01*
X117467649Y-95571454D01*
X117281241Y-95507533D01*
X117266993Y-95503830D01*
X117052541Y-95430614D01*
X116916950Y-95354605D01*
X116889850Y-95313939D01*
X116927900Y-95217891D01*
X117082189Y-95143031D01*
X117315430Y-95112055D01*
X117471543Y-95082657D01*
X117636368Y-94940569D01*
X117673138Y-94847612D01*
X117646412Y-94720508D01*
X117499983Y-94559569D01*
X117467280Y-94529784D01*
X117309570Y-94401031D01*
X117216053Y-94348759D01*
X117196307Y-94355701D01*
X117080278Y-94444471D01*
X116916242Y-94602759D01*
X116858305Y-94661597D01*
X116704652Y-94801019D01*
X116615437Y-94856759D01*
X116602099Y-94842600D01*
X116595798Y-94714689D01*
X116623893Y-94496926D01*
X116626013Y-94485158D01*
X116643145Y-94170203D01*
X116557344Y-93985622D01*
X116365909Y-93925426D01*
X116178887Y-93981703D01*
X116074751Y-94136848D01*
X116106034Y-94337781D01*
X116144823Y-94427102D01*
X116189649Y-94622433D01*
X116188375Y-94787336D01*
X116137107Y-94856759D01*
X116110341Y-94846651D01*
X115983516Y-94753655D01*
X115807500Y-94594931D01*
X115800351Y-94588015D01*
X115619410Y-94432142D01*
X115490438Y-94385729D01*
X115358969Y-94428577D01*
X115307675Y-94467098D01*
X115214798Y-94619420D01*
X115175332Y-94804337D01*
X110522002Y-94804337D01*
X110481892Y-94763517D01*
X110272949Y-94546500D01*
X110072006Y-94320153D01*
X109925804Y-94114119D01*
X109807911Y-93882952D01*
X109691898Y-93581203D01*
X109551333Y-93163426D01*
X109406515Y-92730594D01*
X109262171Y-92325517D01*
X109145649Y-92041480D01*
X109046134Y-91855546D01*
X108952814Y-91744780D01*
X108854874Y-91686245D01*
X108809535Y-91679311D01*
X108611378Y-91674043D01*
X108291473Y-91677630D01*
X107880589Y-91688684D01*
X107409498Y-91705814D01*
X106908970Y-91727632D01*
X106409775Y-91752748D01*
X105942684Y-91779773D01*
X105538468Y-91807317D01*
X105227898Y-91833992D01*
X105041742Y-91858408D01*
X104989229Y-91875001D01*
X104893086Y-91979394D01*
X104869537Y-92004964D01*
X104858628Y-92208725D01*
X86641267Y-92208725D01*
X86605127Y-92036091D01*
X86499742Y-91905300D01*
X86398678Y-91886599D01*
X86128589Y-91881466D01*
X85707054Y-91896100D01*
X85143306Y-91930152D01*
X84446576Y-91983271D01*
X84193069Y-92003985D01*
X83644643Y-92047811D01*
X83153049Y-92085786D01*
X82746264Y-92115821D01*
X82452262Y-92135825D01*
X82299020Y-92143709D01*
X82171067Y-92168836D01*
X81985824Y-92269075D01*
X81740531Y-92462458D01*
X81410020Y-92766617D01*
X81323681Y-92848707D01*
X80988103Y-93161191D01*
X80582139Y-93532065D01*
X80149351Y-93921738D01*
X79733299Y-94290617D01*
X78703022Y-95195426D01*
X78029071Y-95195426D01*
X77728321Y-95193883D01*
X77507221Y-95180528D01*
X77380229Y-95142030D01*
X77307146Y-95065056D01*
X77247774Y-94936271D01*
X77191020Y-94819314D01*
X76919226Y-94501637D01*
X76528015Y-94291610D01*
X76033245Y-94198863D01*
X75735321Y-94198738D01*
X75311938Y-94288896D01*
X74980980Y-94504427D01*
X74716965Y-94858093D01*
X74604127Y-95112159D01*
X74523844Y-95569253D01*
X71662723Y-95569253D01*
X71443798Y-94820347D01*
X71119862Y-93402578D01*
X70933701Y-92215130D01*
X76318892Y-92215130D01*
X76383352Y-92517349D01*
X76566536Y-92821190D01*
X76823804Y-93034992D01*
X77028133Y-93120132D01*
X77403460Y-93157925D01*
X77759931Y-93029020D01*
X78102643Y-92732209D01*
X78142056Y-92688557D01*
X78246098Y-92592594D01*
X78369030Y-92528913D01*
X78548417Y-92487445D01*
X78821822Y-92458119D01*
X79226808Y-92430868D01*
X80133238Y-92375407D01*
X80956407Y-91401741D01*
X81079729Y-91255836D01*
X81227761Y-91080547D01*
X87748576Y-91080547D01*
X87754643Y-91247982D01*
X87802533Y-91444755D01*
X87912343Y-91551780D01*
X87926290Y-91558117D01*
X88102529Y-91594083D01*
X88385607Y-91618772D01*
X88721479Y-91631115D01*
X89056099Y-91630041D01*
X89335424Y-91614477D01*
X89505409Y-91583352D01*
X89546781Y-91538171D01*
X89595090Y-91328743D01*
X89611242Y-90955037D01*
X89611242Y-90369426D01*
X88767555Y-90369426D01*
X88455102Y-90372125D01*
X88126063Y-90394936D01*
X87918900Y-90457636D01*
X87805603Y-90579774D01*
X87758165Y-90780896D01*
X87748576Y-91080547D01*
X81227761Y-91080547D01*
X81376232Y-90904738D01*
X81637056Y-90595489D01*
X81837634Y-90357228D01*
X81953402Y-90219097D01*
X82127228Y-90010118D01*
X83604402Y-90124580D01*
X83939016Y-90149381D01*
X84479456Y-90185194D01*
X84985773Y-90214002D01*
X85413102Y-90233338D01*
X85716576Y-90240734D01*
X86351576Y-90242426D01*
X86377683Y-89927779D01*
X86383983Y-89844219D01*
X86379352Y-89721700D01*
X86331855Y-89636929D01*
X86216262Y-89580321D01*
X86007339Y-89542288D01*
X85679855Y-89513244D01*
X85208576Y-89483603D01*
X85160940Y-89480708D01*
X84747124Y-89453896D01*
X84233921Y-89418544D01*
X83682041Y-89378912D01*
X83152192Y-89339263D01*
X81900142Y-89243242D01*
X81639465Y-89488834D01*
X81593733Y-89533965D01*
X81411405Y-89728420D01*
X81158341Y-90010648D01*
X81090810Y-90087923D01*
X80861683Y-90350109D01*
X80548574Y-90716264D01*
X79718360Y-91698103D01*
X78986545Y-91754354D01*
X78956521Y-91756661D01*
X78612927Y-91780419D01*
X78390570Y-91781580D01*
X78245018Y-91751442D01*
X78131838Y-91681306D01*
X78006595Y-91562470D01*
X77694163Y-91331745D01*
X77343381Y-91249783D01*
X76964200Y-91333196D01*
X76834168Y-91402881D01*
X76577540Y-91633689D01*
X76391110Y-91924490D01*
X76318892Y-92215130D01*
X70933701Y-92215130D01*
X70898303Y-91989341D01*
X70771185Y-90529123D01*
X70757183Y-89991677D01*
X78857919Y-89991677D01*
X78884788Y-90210458D01*
X79022343Y-90366447D01*
X79251061Y-90435056D01*
X79487988Y-90401203D01*
X79667699Y-90276346D01*
X79752896Y-90087923D01*
X79706281Y-89863366D01*
X79535308Y-89653502D01*
X79308012Y-89569870D01*
X79064565Y-89645693D01*
X78938097Y-89772226D01*
X78857919Y-89991677D01*
X70757183Y-89991677D01*
X70730576Y-88970416D01*
X70760740Y-87961738D01*
X73709563Y-87961738D01*
X73727696Y-88136991D01*
X73881846Y-88655327D01*
X74183566Y-89092714D01*
X74635912Y-89454069D01*
X75068294Y-89653301D01*
X75577013Y-89739940D01*
X76072893Y-89685900D01*
X76532088Y-89504942D01*
X76930750Y-89210822D01*
X77245033Y-88817302D01*
X77325145Y-88631012D01*
X87843494Y-88631012D01*
X87850599Y-88911495D01*
X87875576Y-89480426D01*
X88702550Y-89504676D01*
X89060590Y-89513707D01*
X89344264Y-89503154D01*
X89511207Y-89448424D01*
X89589719Y-89326962D01*
X89608100Y-89116210D01*
X89594650Y-88793612D01*
X89568909Y-88295092D01*
X88891860Y-88269988D01*
X88831665Y-88267767D01*
X88408630Y-88256636D01*
X88124968Y-88270962D01*
X87954006Y-88327179D01*
X87869073Y-88441718D01*
X87843494Y-88631012D01*
X77325145Y-88631012D01*
X77451091Y-88338139D01*
X77525076Y-87787092D01*
X77520770Y-87651262D01*
X77491629Y-87505239D01*
X77917884Y-87505239D01*
X77941364Y-87787092D01*
X77943730Y-87815499D01*
X77969576Y-88125759D01*
X79408909Y-88130519D01*
X79733079Y-88130243D01*
X80193937Y-88127388D01*
X80741363Y-88122201D01*
X81354034Y-88115040D01*
X82010625Y-88106262D01*
X82689812Y-88096226D01*
X83370271Y-88085290D01*
X84030676Y-88073810D01*
X84649706Y-88062146D01*
X85206034Y-88050654D01*
X85678337Y-88039693D01*
X86045291Y-88029621D01*
X86285571Y-88020795D01*
X86377853Y-88013573D01*
X86382057Y-88006044D01*
X86388565Y-87889468D01*
X86377853Y-87681259D01*
X86351576Y-87363759D01*
X82668576Y-87386366D01*
X82236745Y-87389320D01*
X81456715Y-87396194D01*
X80722009Y-87404583D01*
X80053296Y-87414139D01*
X79471244Y-87424516D01*
X78996520Y-87435367D01*
X78649793Y-87446346D01*
X78451730Y-87457106D01*
X77917884Y-87505239D01*
X77491629Y-87505239D01*
X77415900Y-87125771D01*
X77283867Y-86863612D01*
X87765120Y-86863612D01*
X87790909Y-87363759D01*
X88701076Y-87387790D01*
X89611242Y-87411821D01*
X89611242Y-86816290D01*
X89611242Y-86220759D01*
X88785742Y-86222055D01*
X88570900Y-86224725D01*
X88232981Y-86239132D01*
X87978259Y-86263121D01*
X87849787Y-86293409D01*
X87813034Y-86333315D01*
X87765950Y-86523296D01*
X87765120Y-86863612D01*
X77283867Y-86863612D01*
X77188893Y-86675036D01*
X76863952Y-86308900D01*
X76465278Y-86037207D01*
X76017074Y-85869801D01*
X75543541Y-85816527D01*
X75068882Y-85887227D01*
X74617298Y-86091747D01*
X74212992Y-86439929D01*
X74025292Y-86672418D01*
X73812573Y-87049852D01*
X73713929Y-87459679D01*
X73709563Y-87961738D01*
X70760740Y-87961738D01*
X70779714Y-87327230D01*
X70958581Y-85533050D01*
X71274164Y-83792521D01*
X71353600Y-83495594D01*
X72636303Y-83495594D01*
X72707440Y-83705510D01*
X72759091Y-83816034D01*
X72981943Y-84107498D01*
X73255682Y-84245616D01*
X73561718Y-84225083D01*
X73881463Y-84040592D01*
X74159576Y-83807759D01*
X76804673Y-83835378D01*
X79449771Y-83862997D01*
X80080853Y-84773649D01*
X80116182Y-84824517D01*
X80359909Y-85169466D01*
X80574809Y-85463898D01*
X80738737Y-85677987D01*
X80829546Y-85781909D01*
X80900415Y-85806511D01*
X81129176Y-85837631D01*
X81513432Y-85866037D01*
X82056640Y-85891920D01*
X82762257Y-85915472D01*
X83633739Y-85936883D01*
X86320322Y-85994249D01*
X86293616Y-85620670D01*
X86266909Y-85247092D01*
X83779560Y-85204759D01*
X83117871Y-85193087D01*
X82541261Y-85181148D01*
X82097844Y-85168546D01*
X81768771Y-85153746D01*
X81535194Y-85135215D01*
X81378267Y-85111418D01*
X81279142Y-85080821D01*
X81218970Y-85041890D01*
X81178903Y-84993092D01*
X81170887Y-84981530D01*
X87772526Y-84981530D01*
X87787670Y-85179664D01*
X87794341Y-85205008D01*
X87829890Y-85284792D01*
X87903943Y-85334500D01*
X88049206Y-85361224D01*
X88298383Y-85372057D01*
X88684179Y-85374092D01*
X89045849Y-85369650D01*
X89339184Y-85351096D01*
X89507928Y-85315175D01*
X89576140Y-85258779D01*
X89592347Y-85163783D01*
X89601485Y-84934552D01*
X89594650Y-84644945D01*
X89568909Y-84146426D01*
X88724204Y-84146426D01*
X87879500Y-84146426D01*
X87809186Y-84565831D01*
X87790118Y-84702671D01*
X87772526Y-84981530D01*
X81170887Y-84981530D01*
X81100401Y-84879861D01*
X80939721Y-84652882D01*
X80726594Y-84354440D01*
X80485855Y-84019426D01*
X80021037Y-83374536D01*
X82013244Y-83374536D01*
X82160576Y-83596092D01*
X82301007Y-83693882D01*
X82562742Y-83747704D01*
X82579078Y-83746597D01*
X82760604Y-83738060D01*
X83076279Y-83726084D01*
X83496407Y-83711693D01*
X83991294Y-83695912D01*
X84531242Y-83679765D01*
X84667875Y-83675763D01*
X85178305Y-83659894D01*
X85621581Y-83644695D01*
X85972173Y-83631137D01*
X86204551Y-83620188D01*
X86293187Y-83612820D01*
X86297370Y-83605024D01*
X86303899Y-83487371D01*
X86293187Y-83278592D01*
X86266909Y-82961092D01*
X84599754Y-82961092D01*
X84501599Y-82961029D01*
X83893836Y-82956680D01*
X83437762Y-82944846D01*
X83118008Y-82924609D01*
X82919206Y-82895052D01*
X82825988Y-82855259D01*
X82805779Y-82844618D01*
X87780512Y-82844618D01*
X87800566Y-83054090D01*
X87812593Y-83098593D01*
X87850458Y-83174487D01*
X87929147Y-83221299D01*
X88080786Y-83246048D01*
X88337502Y-83255751D01*
X88731421Y-83257426D01*
X89611242Y-83257426D01*
X89611242Y-82664759D01*
X90584909Y-82664759D01*
X90584909Y-83487371D01*
X90584909Y-84934552D01*
X90584909Y-85994249D01*
X90584909Y-86263092D01*
X90584909Y-86816290D01*
X90584909Y-87889468D01*
X90584909Y-89116210D01*
X90584909Y-89844219D01*
X90584909Y-90955037D01*
X90584909Y-91935759D01*
X95771339Y-91957577D01*
X100957768Y-91979394D01*
X100951777Y-90411759D01*
X101930242Y-90411759D01*
X101930242Y-91004426D01*
X101930242Y-91597092D01*
X102735982Y-91621086D01*
X102795595Y-91622727D01*
X103229702Y-91622599D01*
X103509355Y-91595582D01*
X103646148Y-91540653D01*
X103714142Y-91387566D01*
X103746867Y-91136527D01*
X103743534Y-90854725D01*
X103704994Y-90607745D01*
X103632103Y-90461169D01*
X103480270Y-90411060D01*
X103171725Y-90385452D01*
X102721936Y-90387302D01*
X101930242Y-90411759D01*
X100951777Y-90411759D01*
X100949234Y-89746335D01*
X105124418Y-89746335D01*
X105129488Y-89836156D01*
X105153446Y-89945244D01*
X105173630Y-90018656D01*
X105269712Y-90181569D01*
X105444431Y-90247786D01*
X105738345Y-90237578D01*
X105746096Y-90236712D01*
X105946061Y-90217345D01*
X106280052Y-90187967D01*
X106715430Y-90151327D01*
X107219554Y-90110177D01*
X107759786Y-90067266D01*
X107986691Y-90049565D01*
X108505717Y-90010522D01*
X108889058Y-89985899D01*
X109160970Y-89975980D01*
X109345708Y-89981049D01*
X109467526Y-90001389D01*
X109550680Y-90037284D01*
X109619423Y-90089019D01*
X109686404Y-90149935D01*
X109871606Y-90325849D01*
X110136091Y-90581576D01*
X110455290Y-90893313D01*
X110702322Y-91136527D01*
X110804635Y-91237259D01*
X111811086Y-92232092D01*
X114539405Y-92232092D01*
X117267725Y-92232092D01*
X117458504Y-92435167D01*
X117645312Y-92587683D01*
X117833102Y-92673381D01*
X117991143Y-92690484D01*
X118314481Y-92632774D01*
X118566739Y-92466075D01*
X118736215Y-92224102D01*
X118811204Y-91940575D01*
X118780003Y-91649210D01*
X118630908Y-91383726D01*
X118352216Y-91177839D01*
X118166696Y-91097954D01*
X117957253Y-91058408D01*
X117757412Y-91116265D01*
X117499557Y-91279592D01*
X117170242Y-91512426D01*
X114630242Y-91484347D01*
X112090242Y-91456269D01*
X110929288Y-90314511D01*
X110620360Y-90010691D01*
X112095498Y-90010691D01*
X112175463Y-90083967D01*
X112291426Y-90153492D01*
X112438494Y-90200092D01*
X112497688Y-90224225D01*
X112649999Y-90346979D01*
X112832600Y-90538759D01*
X112946011Y-90668040D01*
X113088090Y-90818714D01*
X113158611Y-90877426D01*
X113169409Y-90871154D01*
X113244493Y-90769760D01*
X113352903Y-90583726D01*
X113502978Y-90379157D01*
X113794311Y-90196549D01*
X113997192Y-90117164D01*
X114110019Y-90021808D01*
X114056547Y-89924353D01*
X113838003Y-89814053D01*
X113822027Y-89807562D01*
X113552419Y-89644327D01*
X113402420Y-89410833D01*
X113313503Y-89173092D01*
X113238303Y-88973240D01*
X113218929Y-88928859D01*
X113170461Y-88896411D01*
X113102687Y-88983400D01*
X112995508Y-89209374D01*
X112860076Y-89466760D01*
X112686105Y-89646054D01*
X112416582Y-89790935D01*
X112245712Y-89868804D01*
X112111305Y-89948217D01*
X112095498Y-90010691D01*
X110620360Y-90010691D01*
X109768334Y-89172753D01*
X109405288Y-89217624D01*
X109365717Y-89222301D01*
X109080511Y-89250371D01*
X108709547Y-89280901D01*
X108322576Y-89308065D01*
X107587425Y-89354770D01*
X106894309Y-89400442D01*
X106341655Y-89440938D01*
X105914267Y-89479314D01*
X105596948Y-89518626D01*
X105374500Y-89561928D01*
X105231727Y-89612277D01*
X105153432Y-89672727D01*
X105124418Y-89746335D01*
X100949234Y-89746335D01*
X100943884Y-88346511D01*
X101880379Y-88346511D01*
X101905311Y-88913468D01*
X101930242Y-89480426D01*
X102735982Y-89504420D01*
X102795595Y-89506061D01*
X103229702Y-89505932D01*
X103509355Y-89478916D01*
X103646148Y-89423986D01*
X103685269Y-89355436D01*
X103731687Y-89143120D01*
X103747820Y-88873395D01*
X103731281Y-88616201D01*
X103679684Y-88441481D01*
X103618625Y-88397985D01*
X103414768Y-88337956D01*
X103121414Y-88291976D01*
X102787178Y-88265045D01*
X102460674Y-88262163D01*
X102190516Y-88288329D01*
X101880379Y-88346511D01*
X100943884Y-88346511D01*
X100938904Y-87043542D01*
X101899526Y-87043542D01*
X101923562Y-87299660D01*
X101989353Y-87418253D01*
X102040845Y-87443757D01*
X102226576Y-87473936D01*
X102244985Y-87472048D01*
X102416594Y-87457529D01*
X102695418Y-87436121D01*
X103030909Y-87411733D01*
X103708242Y-87363759D01*
X103712712Y-87279092D01*
X105147576Y-87279092D01*
X105147576Y-87617759D01*
X105147576Y-87956426D01*
X110269909Y-88006575D01*
X111181736Y-88016403D01*
X112060298Y-88027645D01*
X112878393Y-88039870D01*
X113620468Y-88052761D01*
X114270971Y-88066001D01*
X114814352Y-88079273D01*
X115235058Y-88092261D01*
X115517539Y-88104647D01*
X115646242Y-88116116D01*
X115831071Y-88198066D01*
X116030802Y-88438824D01*
X116043336Y-88462457D01*
X116221009Y-88682866D01*
X116452814Y-88858451D01*
X116482117Y-88873395D01*
X116511819Y-88888542D01*
X116925489Y-89008011D01*
X117327025Y-88958961D01*
X117720576Y-88741004D01*
X117826386Y-88649086D01*
X118062478Y-88315449D01*
X118152943Y-87938682D01*
X118094047Y-87554450D01*
X117882057Y-87198418D01*
X117624594Y-86968800D01*
X117249853Y-86796521D01*
X116860668Y-86768421D01*
X116489846Y-86885455D01*
X116170191Y-87148579D01*
X115968932Y-87387762D01*
X112547921Y-87309730D01*
X111792755Y-87294019D01*
X110911663Y-87278942D01*
X110026387Y-87266857D01*
X109171616Y-87258111D01*
X108382042Y-87253053D01*
X107692354Y-87252032D01*
X107137242Y-87255396D01*
X105147576Y-87279092D01*
X103712712Y-87279092D01*
X103733230Y-86890464D01*
X103739679Y-86680666D01*
X103715346Y-86463419D01*
X103627804Y-86327608D01*
X103450654Y-86256218D01*
X103157498Y-86232232D01*
X102721936Y-86238635D01*
X101930242Y-86263092D01*
X101904686Y-86805716D01*
X101899526Y-87043542D01*
X100938904Y-87043542D01*
X100936005Y-86284910D01*
X100935718Y-86209844D01*
X114034764Y-86209844D01*
X114122274Y-86444355D01*
X114274984Y-86594139D01*
X114492299Y-86632739D01*
X114708862Y-86511045D01*
X114804920Y-86383837D01*
X114821639Y-86184144D01*
X114673823Y-85968006D01*
X114621243Y-85918471D01*
X114475972Y-85846215D01*
X114297480Y-85894807D01*
X114110333Y-86020045D01*
X114034764Y-86209844D01*
X100935718Y-86209844D01*
X100933239Y-85561243D01*
X105135287Y-85561243D01*
X105156953Y-85748998D01*
X105167357Y-85768612D01*
X105216960Y-85806404D01*
X105318222Y-85834855D01*
X105490752Y-85855162D01*
X105754162Y-85868521D01*
X106128060Y-85876128D01*
X106632058Y-85879180D01*
X107285766Y-85878874D01*
X109363020Y-85874389D01*
X109928651Y-85328318D01*
X110028516Y-85232691D01*
X110290827Y-84996821D01*
X110494353Y-84851530D01*
X110681374Y-84770507D01*
X110894172Y-84727436D01*
X111084812Y-84698923D01*
X111225031Y-84653771D01*
X111263611Y-84569047D01*
X111238733Y-84409525D01*
X111235122Y-84392513D01*
X111173384Y-84180091D01*
X111075793Y-84070970D01*
X110899031Y-84042184D01*
X110599785Y-84070769D01*
X110522235Y-84081736D01*
X110297096Y-84131130D01*
X110106174Y-84219290D01*
X109899654Y-84374655D01*
X109627718Y-84625660D01*
X109307676Y-84932807D01*
X109112528Y-85120092D01*
X107722718Y-85120694D01*
X107469320Y-85121634D01*
X106948685Y-85128249D01*
X106461288Y-85140132D01*
X106052493Y-85156029D01*
X105767661Y-85174687D01*
X105493273Y-85205411D01*
X105299826Y-85248413D01*
X105200175Y-85314980D01*
X105153904Y-85421357D01*
X105135287Y-85561243D01*
X100933239Y-85561243D01*
X100927832Y-84146426D01*
X101930242Y-84146426D01*
X101930242Y-84739092D01*
X101930242Y-85331759D01*
X102791453Y-85355814D01*
X103167198Y-85362658D01*
X103470871Y-85345490D01*
X103651762Y-85281741D01*
X103734848Y-85150987D01*
X103745105Y-84932807D01*
X103707511Y-84606775D01*
X103679783Y-84436643D01*
X103623422Y-84272669D01*
X103517966Y-84172376D01*
X103333441Y-84122537D01*
X103039874Y-84109928D01*
X102607292Y-84121321D01*
X101930242Y-84146426D01*
X100927832Y-84146426D01*
X100919883Y-82066363D01*
X101887909Y-82066363D01*
X101887909Y-82661894D01*
X101887909Y-83257426D01*
X102779566Y-83257426D01*
X102800019Y-83257427D01*
X103216248Y-83254844D01*
X103491703Y-83233795D01*
X103653805Y-83174532D01*
X103729976Y-83057309D01*
X103738695Y-82961092D01*
X105147576Y-82961092D01*
X105147576Y-83257426D01*
X105147576Y-83553759D01*
X105655576Y-83608070D01*
X105722667Y-83614395D01*
X106036542Y-83634261D01*
X106458493Y-83651526D01*
X106941590Y-83664519D01*
X107438902Y-83671570D01*
X108714228Y-83680759D01*
X108933169Y-83447926D01*
X108944073Y-83436064D01*
X109084445Y-83264431D01*
X109156907Y-83168719D01*
X111206654Y-83168719D01*
X111228048Y-83413388D01*
X111240525Y-83501350D01*
X111325605Y-83899117D01*
X111451283Y-84322480D01*
X111544459Y-84569047D01*
X111596575Y-84706957D01*
X111740496Y-84988064D01*
X111746287Y-84996789D01*
X111861336Y-85122179D01*
X112015300Y-85184871D01*
X112237881Y-85185129D01*
X112558779Y-85123221D01*
X113007695Y-84999412D01*
X113378851Y-84884923D01*
X113663890Y-84769369D01*
X113820389Y-84640655D01*
X113867045Y-84468633D01*
X113822556Y-84223155D01*
X113705619Y-83874072D01*
X113682558Y-83808473D01*
X113571319Y-83459046D01*
X113488390Y-83145115D01*
X113450279Y-82927852D01*
X113381987Y-82681563D01*
X113332365Y-82619672D01*
X113708922Y-82619672D01*
X113762296Y-82907746D01*
X113885374Y-83346505D01*
X113997443Y-83689997D01*
X114122330Y-83999710D01*
X114222492Y-84147158D01*
X114299960Y-84135007D01*
X114326567Y-84055813D01*
X115554180Y-84055813D01*
X115558912Y-84265032D01*
X115654808Y-84414490D01*
X115797262Y-84468633D01*
X115865538Y-84494583D01*
X116148571Y-84444915D01*
X116242192Y-84411138D01*
X116462390Y-84366894D01*
X116601094Y-84430306D01*
X116706230Y-84616085D01*
X116846152Y-84828382D01*
X117050964Y-84997085D01*
X117436173Y-85116119D01*
X117804672Y-85076498D01*
X118128401Y-84880579D01*
X118226898Y-84777062D01*
X118410156Y-84456944D01*
X118458556Y-84125117D01*
X118391211Y-83807443D01*
X118227235Y-83529785D01*
X117985742Y-83318005D01*
X117685847Y-83197967D01*
X117346662Y-83195533D01*
X116987302Y-83336567D01*
X116960871Y-83353358D01*
X116771596Y-83514303D01*
X116664097Y-83674917D01*
X116651241Y-83710195D01*
X116578837Y-83798589D01*
X116430115Y-83839885D01*
X116158904Y-83850092D01*
X115993000Y-83855994D01*
X115698069Y-83920026D01*
X115693111Y-83924705D01*
X115554180Y-84055813D01*
X114326567Y-84055813D01*
X114356766Y-83965928D01*
X114362726Y-83924705D01*
X114352853Y-83684613D01*
X114291177Y-83396184D01*
X114192652Y-83094978D01*
X114072235Y-82816558D01*
X113944880Y-82596485D01*
X113825542Y-82470320D01*
X113729177Y-82473624D01*
X113724652Y-82478923D01*
X113708922Y-82619672D01*
X113332365Y-82619672D01*
X113225940Y-82486935D01*
X113024858Y-82410759D01*
X113018182Y-82410898D01*
X112848172Y-82440091D01*
X112572897Y-82509645D01*
X112243102Y-82604354D01*
X111909536Y-82709014D01*
X111622945Y-82808421D01*
X111434076Y-82887371D01*
X111341777Y-82937709D01*
X111236636Y-83030399D01*
X111206654Y-83168719D01*
X109156907Y-83168719D01*
X109290841Y-82991812D01*
X109537243Y-82653243D01*
X109797637Y-82283759D01*
X110443165Y-81352426D01*
X113114346Y-81310092D01*
X113243045Y-81308061D01*
X113962747Y-81297339D01*
X114534358Y-81290795D01*
X114976192Y-81289174D01*
X115306561Y-81293223D01*
X115543776Y-81303687D01*
X115706150Y-81321310D01*
X115811996Y-81346839D01*
X115879626Y-81381018D01*
X115927352Y-81424594D01*
X116127619Y-81604785D01*
X116467231Y-81769884D01*
X116812990Y-81804342D01*
X117136537Y-81722907D01*
X117409514Y-81540327D01*
X117603563Y-81271348D01*
X117690327Y-80930719D01*
X117641446Y-80533187D01*
X117611344Y-80448218D01*
X117400185Y-80141289D01*
X117077739Y-79942196D01*
X116673448Y-79871075D01*
X116648012Y-79871241D01*
X116429979Y-79900615D01*
X116237347Y-80002711D01*
X116007321Y-80209426D01*
X115668654Y-80548092D01*
X112963716Y-80548092D01*
X112606799Y-80548764D01*
X111965339Y-80553478D01*
X111385771Y-80562205D01*
X110889584Y-80574360D01*
X110498264Y-80589360D01*
X110233299Y-80606618D01*
X110116176Y-80625552D01*
X110072296Y-80663303D01*
X109932064Y-80825415D01*
X109728579Y-81087256D01*
X109481773Y-81422814D01*
X109211576Y-81806080D01*
X108481883Y-82862381D01*
X108449576Y-82909148D01*
X106798576Y-82935120D01*
X105147576Y-82961092D01*
X103738695Y-82961092D01*
X103747640Y-82862381D01*
X103734218Y-82570000D01*
X103708242Y-82114426D01*
X102798076Y-82090394D01*
X101887909Y-82066363D01*
X100919883Y-82066363D01*
X100914242Y-80590426D01*
X95749576Y-80590426D01*
X90584909Y-80590426D01*
X90584909Y-82011725D01*
X90584909Y-82664759D01*
X89611242Y-82664759D01*
X89611242Y-82072092D01*
X88733751Y-82072092D01*
X87856259Y-82072092D01*
X87802895Y-82461423D01*
X87791377Y-82563063D01*
X87780512Y-82844618D01*
X82805779Y-82844618D01*
X82646294Y-82760640D01*
X82406524Y-82786049D01*
X82175334Y-82945382D01*
X82029418Y-83153163D01*
X82013244Y-83374536D01*
X80021037Y-83374536D01*
X79906115Y-83215092D01*
X77014064Y-83192817D01*
X76315804Y-83187225D01*
X75676146Y-83180946D01*
X75173167Y-83173570D01*
X74789591Y-83163953D01*
X74508141Y-83150952D01*
X74311543Y-83133422D01*
X74182520Y-83110221D01*
X74103797Y-83080204D01*
X74058098Y-83042228D01*
X74028146Y-82995149D01*
X74017176Y-82976819D01*
X73862471Y-82825278D01*
X73640878Y-82697166D01*
X73534069Y-82659607D01*
X73220340Y-82645939D01*
X72953712Y-82794154D01*
X72737550Y-83102742D01*
X72735628Y-83106677D01*
X72644165Y-83326684D01*
X72636303Y-83495594D01*
X71353600Y-83495594D01*
X71732542Y-82079136D01*
X71950472Y-81464463D01*
X76826576Y-81464463D01*
X76851623Y-81604079D01*
X76973588Y-81870523D01*
X77161508Y-82139140D01*
X77375547Y-82345962D01*
X77432610Y-82375020D01*
X77609742Y-82409462D01*
X77658505Y-82404078D01*
X77736238Y-82322881D01*
X77757390Y-82119422D01*
X77842576Y-82119422D01*
X77850500Y-82269378D01*
X77904168Y-82388784D01*
X78025561Y-82367863D01*
X78234419Y-82211242D01*
X78466371Y-82011725D01*
X78242863Y-81865277D01*
X78160329Y-81816016D01*
X77978123Y-81768625D01*
X77875043Y-81867959D01*
X77842576Y-82119422D01*
X77757390Y-82119422D01*
X77757909Y-82114426D01*
X77756192Y-82039716D01*
X77717978Y-81868003D01*
X77617787Y-81818092D01*
X77550242Y-81815163D01*
X77524815Y-81778093D01*
X77617787Y-81663259D01*
X77721379Y-81441496D01*
X77741278Y-81239449D01*
X77836078Y-81239449D01*
X77893968Y-81514834D01*
X77932646Y-81567642D01*
X78098693Y-81638636D01*
X78319416Y-81652031D01*
X78523667Y-81608435D01*
X78640298Y-81508456D01*
X78642303Y-81393324D01*
X78561238Y-81182988D01*
X78418869Y-80962284D01*
X78253749Y-80788126D01*
X78104433Y-80717426D01*
X78102772Y-80717433D01*
X77953203Y-80792544D01*
X77860064Y-80982618D01*
X77851848Y-81070592D01*
X77836078Y-81239449D01*
X77741278Y-81239449D01*
X77757909Y-81070592D01*
X77756522Y-80931165D01*
X77738192Y-80737636D01*
X77685021Y-80652041D01*
X77580109Y-80632759D01*
X77487031Y-80649391D01*
X77266443Y-80777124D01*
X77052455Y-80989082D01*
X76890641Y-81234962D01*
X76826576Y-81464463D01*
X71950472Y-81464463D01*
X72339792Y-80366387D01*
X72679231Y-79592106D01*
X74876460Y-79592106D01*
X74913835Y-79951235D01*
X75093680Y-80281944D01*
X75293615Y-80472531D01*
X75647432Y-80646386D01*
X76023486Y-80667970D01*
X76391127Y-80537767D01*
X76719710Y-80256263D01*
X76796728Y-80167537D01*
X76918405Y-80060039D01*
X77066194Y-79996652D01*
X77287795Y-79960555D01*
X77630909Y-79934926D01*
X78308242Y-79892968D01*
X79534403Y-80770863D01*
X80403796Y-81393324D01*
X80760563Y-81648759D01*
X82328403Y-81630784D01*
X82619215Y-81627009D01*
X83298980Y-81615689D01*
X84017475Y-81600972D01*
X84705347Y-81584341D01*
X85293242Y-81567284D01*
X86690242Y-81521759D01*
X86717070Y-81195027D01*
X86723345Y-81118603D01*
X87833242Y-81118603D01*
X88150742Y-81171082D01*
X88267275Y-81186968D01*
X88661791Y-81210780D01*
X89077597Y-81203548D01*
X89420742Y-81165673D01*
X89437294Y-81162326D01*
X89531865Y-81124835D01*
X89584172Y-81037069D01*
X89606527Y-80859369D01*
X89611242Y-80552078D01*
X89611216Y-80517614D01*
X89605035Y-80222604D01*
X89579453Y-80052459D01*
X89525187Y-79971097D01*
X101887909Y-79971097D01*
X101887909Y-80546053D01*
X101887913Y-80552078D01*
X101887930Y-80577069D01*
X101894036Y-80872806D01*
X101919553Y-81043392D01*
X101976879Y-81129564D01*
X102078409Y-81172061D01*
X102256365Y-81197001D01*
X102555149Y-81210430D01*
X102900155Y-81209562D01*
X103227326Y-81194673D01*
X103472609Y-81166040D01*
X103534667Y-81143730D01*
X103670453Y-80980922D01*
X103680307Y-80939332D01*
X104608210Y-80939332D01*
X104644486Y-81198712D01*
X104727561Y-81434933D01*
X106017895Y-81444743D01*
X106537785Y-81443433D01*
X106984490Y-81428963D01*
X107281886Y-81401343D01*
X107420173Y-81361155D01*
X107492374Y-81288901D01*
X107662971Y-81105694D01*
X107907427Y-80837102D01*
X108205354Y-80505546D01*
X108536367Y-80133449D01*
X108662861Y-79991573D01*
X109045741Y-79571867D01*
X109409683Y-79183568D01*
X111740738Y-79183568D01*
X111818860Y-79420278D01*
X112044283Y-79614818D01*
X112221415Y-79686042D01*
X112424468Y-79665409D01*
X112632792Y-79498045D01*
X112655372Y-79473010D01*
X112784940Y-79222520D01*
X112747882Y-78975822D01*
X112546103Y-78749371D01*
X112387329Y-78646866D01*
X112253850Y-78636220D01*
X112065270Y-78718781D01*
X112022683Y-78742407D01*
X111808989Y-78944381D01*
X111740738Y-79183568D01*
X109409683Y-79183568D01*
X109454466Y-79135788D01*
X109869049Y-78703554D01*
X110269501Y-78295381D01*
X110635833Y-77931486D01*
X110948058Y-77632086D01*
X111186187Y-77417397D01*
X111330233Y-77307637D01*
X111347294Y-77300187D01*
X111519762Y-77319960D01*
X111773092Y-77454033D01*
X111898913Y-77530437D01*
X112368859Y-77708390D01*
X112836747Y-77738522D01*
X113276974Y-77634364D01*
X113663939Y-77409445D01*
X113972040Y-77077295D01*
X114175675Y-76651446D01*
X114249242Y-76145426D01*
X114214758Y-75805838D01*
X114040303Y-75347112D01*
X113735326Y-74972693D01*
X113318675Y-74703335D01*
X112809197Y-74559792D01*
X112807744Y-74559598D01*
X112347583Y-74577701D01*
X111919376Y-74739158D01*
X111549201Y-75018171D01*
X111263135Y-75388939D01*
X111087256Y-75825663D01*
X111047643Y-76302544D01*
X111049422Y-76354600D01*
X111023478Y-76489604D01*
X110934594Y-76637879D01*
X110760245Y-76830967D01*
X110695827Y-76892444D01*
X110477911Y-77100410D01*
X110361014Y-77208158D01*
X110067751Y-77475312D01*
X109807222Y-77708622D01*
X109624915Y-77867196D01*
X109609780Y-77880245D01*
X109442279Y-78042841D01*
X109199506Y-78297885D01*
X108911655Y-78613026D01*
X108608915Y-78955912D01*
X108603720Y-78961900D01*
X108279975Y-79332641D01*
X107953149Y-79702826D01*
X107661070Y-80029841D01*
X107441561Y-80271071D01*
X107054776Y-80688502D01*
X107026213Y-80719328D01*
X105886119Y-80697210D01*
X105656030Y-80693178D01*
X105255447Y-80690610D01*
X104983130Y-80699105D01*
X104810873Y-80721445D01*
X104710471Y-80760413D01*
X104653718Y-80818791D01*
X104608210Y-80939332D01*
X103680307Y-80939332D01*
X103739734Y-80688502D01*
X103735928Y-80288404D01*
X103717949Y-80148521D01*
X103665012Y-80040247D01*
X103536147Y-79987312D01*
X103284909Y-79955426D01*
X103124192Y-79943436D01*
X102742400Y-79933187D01*
X102374742Y-79942095D01*
X101887909Y-79971097D01*
X89525187Y-79971097D01*
X89522134Y-79966520D01*
X89420742Y-79924123D01*
X89165428Y-79883720D01*
X88732660Y-79878248D01*
X88226060Y-79924600D01*
X87833242Y-79978442D01*
X87833242Y-80548522D01*
X87833242Y-80868295D01*
X87833242Y-81118603D01*
X86723345Y-81118603D01*
X86743898Y-80868295D01*
X83877318Y-80898694D01*
X81010737Y-80929092D01*
X80421490Y-80498199D01*
X80382599Y-80469772D01*
X79782024Y-80034865D01*
X79304446Y-79697926D01*
X78940371Y-79452543D01*
X78680304Y-79292307D01*
X78514749Y-79210806D01*
X78480024Y-79201157D01*
X78263889Y-79179344D01*
X77948686Y-79179090D01*
X77588576Y-79200972D01*
X77275533Y-79227607D01*
X77036844Y-79236709D01*
X76888991Y-79216501D01*
X76790419Y-79160499D01*
X76699576Y-79062218D01*
X76669123Y-79027191D01*
X76356227Y-78789452D01*
X75985794Y-78670963D01*
X75615823Y-78691560D01*
X75490852Y-78734970D01*
X75177798Y-78944895D01*
X74968724Y-79243633D01*
X74876460Y-79592106D01*
X72679231Y-79592106D01*
X73101992Y-78627764D01*
X73136858Y-78555158D01*
X73375312Y-78108109D01*
X81567909Y-78108109D01*
X81589632Y-78321056D01*
X81664459Y-78489075D01*
X81771772Y-78531686D01*
X81889615Y-78427121D01*
X81927581Y-78377251D01*
X82094438Y-78277240D01*
X82270470Y-78283831D01*
X82388374Y-78400600D01*
X82390717Y-78598280D01*
X82263181Y-78750561D01*
X82044014Y-78809088D01*
X82017842Y-78809077D01*
X81858835Y-78847785D01*
X81838790Y-78965627D01*
X81954504Y-79175720D01*
X82026621Y-79261035D01*
X82321514Y-79476521D01*
X82748254Y-79669798D01*
X83279744Y-79827535D01*
X83591623Y-79896943D01*
X83880408Y-79940406D01*
X84079776Y-79928457D01*
X84230744Y-79857163D01*
X84374325Y-79722592D01*
X84640107Y-79384913D01*
X84741620Y-79175493D01*
X84998333Y-79175493D01*
X85057448Y-79236265D01*
X85092144Y-79248856D01*
X85270297Y-79313038D01*
X85546630Y-79412308D01*
X85877773Y-79531077D01*
X86024893Y-79583279D01*
X86327870Y-79687169D01*
X86552525Y-79759165D01*
X86658519Y-79786092D01*
X86681432Y-79775809D01*
X86750337Y-79660881D01*
X86810902Y-79475664D01*
X86843035Y-79292261D01*
X86826644Y-79182773D01*
X86759904Y-79147039D01*
X86564169Y-79069951D01*
X86288333Y-78972457D01*
X85979010Y-78869907D01*
X85682818Y-78777651D01*
X85446374Y-78711040D01*
X85316295Y-78685426D01*
X85307441Y-78686271D01*
X85198081Y-78767537D01*
X85080789Y-78940947D01*
X85032452Y-79040622D01*
X84998333Y-79175493D01*
X84741620Y-79175493D01*
X84888123Y-78873259D01*
X85005964Y-78278704D01*
X85017796Y-78119987D01*
X85008723Y-77785218D01*
X84924107Y-77537690D01*
X84740953Y-77349416D01*
X84436265Y-77192415D01*
X83987049Y-77038700D01*
X83971435Y-77033952D01*
X83402418Y-76887182D01*
X82949294Y-76831693D01*
X82586424Y-76866776D01*
X82288173Y-76991723D01*
X82106056Y-77126894D01*
X81830559Y-77431644D01*
X81639440Y-77776908D01*
X81567909Y-78108109D01*
X73375312Y-78108109D01*
X74063063Y-76818725D01*
X75123808Y-75163476D01*
X75521353Y-74638512D01*
X76763520Y-74638512D01*
X76804591Y-74811665D01*
X76959290Y-74875426D01*
X76987248Y-74876440D01*
X77038640Y-74915529D01*
X76977580Y-75042646D01*
X76932305Y-75133563D01*
X76937019Y-75277761D01*
X77067257Y-75333519D01*
X77302012Y-75285134D01*
X77386527Y-75258368D01*
X77752479Y-75244656D01*
X78096576Y-75383300D01*
X78153753Y-75433238D01*
X78146588Y-75514181D01*
X78011909Y-75641059D01*
X77882985Y-75727677D01*
X77687134Y-75779511D01*
X77404360Y-75765353D01*
X77137807Y-75757135D01*
X76964417Y-75804550D01*
X76922815Y-75897596D01*
X77031151Y-76023710D01*
X77088426Y-76067284D01*
X77125334Y-76132657D01*
X77009574Y-76183422D01*
X76874195Y-76254578D01*
X76792532Y-76418986D01*
X76869568Y-76624029D01*
X76887778Y-76647822D01*
X77003169Y-76732887D01*
X77151436Y-76679277D01*
X77199220Y-76651706D01*
X77306304Y-76632768D01*
X77362666Y-76751697D01*
X77391938Y-76827213D01*
X77491828Y-76887685D01*
X77621967Y-76802133D01*
X77762168Y-76579270D01*
X77791351Y-76525272D01*
X77937092Y-76324172D01*
X78124631Y-76120711D01*
X78307544Y-75961829D01*
X78439408Y-75894470D01*
X78446681Y-75894873D01*
X78479567Y-75973565D01*
X78459776Y-76152335D01*
X78400061Y-76381097D01*
X78313172Y-76609767D01*
X78211860Y-76788260D01*
X78177796Y-76834278D01*
X78059641Y-77020638D01*
X78011909Y-77143254D01*
X78034945Y-77229685D01*
X78151566Y-77300718D01*
X78302724Y-77250672D01*
X78348023Y-77220994D01*
X78428608Y-77245158D01*
X78506278Y-77412716D01*
X78510046Y-77423219D01*
X78610161Y-77597461D01*
X78724193Y-77669426D01*
X78753950Y-77666507D01*
X78894545Y-77569738D01*
X78979549Y-77387178D01*
X78972811Y-77188726D01*
X78964555Y-77164777D01*
X78952912Y-77083612D01*
X79032381Y-77140259D01*
X79136245Y-77213040D01*
X79307616Y-77232348D01*
X79422766Y-77113512D01*
X79428558Y-77089307D01*
X79376716Y-76921990D01*
X79202275Y-76700951D01*
X79088555Y-76573754D01*
X78973438Y-76370495D01*
X78958241Y-76154518D01*
X78985576Y-75888066D01*
X79258019Y-76080246D01*
X79285190Y-76100278D01*
X79493061Y-76305193D01*
X79634212Y-76526426D01*
X79635730Y-76530124D01*
X79733848Y-76724540D01*
X79824596Y-76839082D01*
X79939623Y-76847344D01*
X80036944Y-76780426D01*
X81737242Y-76780426D01*
X81750681Y-76839429D01*
X81853876Y-76907426D01*
X81931761Y-76888016D01*
X82075909Y-76780426D01*
X82114296Y-76728887D01*
X82108284Y-76667714D01*
X81959276Y-76653426D01*
X81811388Y-76678623D01*
X81737242Y-76780426D01*
X80036944Y-76780426D01*
X80068963Y-76758410D01*
X80128576Y-76618554D01*
X80191338Y-76551870D01*
X80359084Y-76523088D01*
X80523446Y-76488198D01*
X80624014Y-76383720D01*
X80612171Y-76260513D01*
X80471222Y-76170998D01*
X80381156Y-76143745D01*
X80340844Y-76087262D01*
X80431793Y-75968486D01*
X80497667Y-75875193D01*
X80529861Y-75705952D01*
X80449415Y-75594761D01*
X80275714Y-75588782D01*
X80169733Y-75618428D01*
X79823129Y-75685892D01*
X79573089Y-75669810D01*
X79378489Y-75569289D01*
X79178736Y-75411071D01*
X79493082Y-75225602D01*
X79494023Y-75225047D01*
X79715782Y-75111486D01*
X79886282Y-75087755D01*
X80089428Y-75142106D01*
X80205119Y-75179999D01*
X80378382Y-75197497D01*
X80512695Y-75126837D01*
X80583563Y-75061169D01*
X80595686Y-74979705D01*
X80478063Y-74867162D01*
X80371996Y-74776636D01*
X80356398Y-74719886D01*
X80469370Y-74681004D01*
X80490044Y-74674859D01*
X80617046Y-74569606D01*
X80611301Y-74420983D01*
X80472381Y-74285509D01*
X80344674Y-74241250D01*
X80243163Y-74302843D01*
X80183026Y-74331234D01*
X80128374Y-74197239D01*
X80127263Y-74192609D01*
X80035077Y-74014070D01*
X79905795Y-73979367D01*
X79774969Y-74079845D01*
X79678150Y-74306848D01*
X79640857Y-74434335D01*
X79514457Y-74635547D01*
X79278188Y-74792657D01*
X79156150Y-74854099D01*
X79011578Y-74912385D01*
X78943313Y-74893146D01*
X78902869Y-74796935D01*
X78878408Y-74606608D01*
X78958265Y-74303081D01*
X79161748Y-74038641D01*
X79291548Y-73901688D01*
X79366562Y-73740355D01*
X79322366Y-73637952D01*
X79159153Y-73625337D01*
X79132866Y-73629970D01*
X78983619Y-73616149D01*
X78926320Y-73487040D01*
X78844076Y-73346632D01*
X78690783Y-73298690D01*
X78536746Y-73346792D01*
X78451720Y-73490439D01*
X78399947Y-73617141D01*
X78262249Y-73629000D01*
X78113225Y-73631017D01*
X78041226Y-73732173D01*
X78073032Y-73901635D01*
X78212578Y-74101946D01*
X78254346Y-74147626D01*
X78395618Y-74385396D01*
X78435242Y-74689558D01*
X78434005Y-74779943D01*
X78420782Y-74969335D01*
X78397749Y-75044759D01*
X78382229Y-75040468D01*
X78258292Y-74979664D01*
X78063808Y-74869851D01*
X77853895Y-74702809D01*
X77671403Y-74404184D01*
X77609570Y-74264595D01*
X77484934Y-74133930D01*
X77361848Y-74136187D01*
X77274654Y-74281947D01*
X77199552Y-74402430D01*
X77036563Y-74401772D01*
X76874472Y-74400724D01*
X76786760Y-74528826D01*
X76763520Y-74638512D01*
X75521353Y-74638512D01*
X76308852Y-73598608D01*
X77607953Y-72133317D01*
X77788415Y-71958823D01*
X80687760Y-71958823D01*
X80826612Y-72331646D01*
X81119017Y-72677463D01*
X81122047Y-72680121D01*
X81340380Y-72846817D01*
X81536890Y-72914556D01*
X81798029Y-72913373D01*
X81947920Y-72903635D01*
X82096260Y-72917220D01*
X82217428Y-72986775D01*
X82353161Y-73139664D01*
X82545197Y-73403254D01*
X82655856Y-73541351D01*
X82890126Y-73804730D01*
X83215894Y-74153527D01*
X83616179Y-74570110D01*
X84074000Y-75036845D01*
X84572376Y-75536100D01*
X85094327Y-76050242D01*
X85437699Y-76383720D01*
X85573098Y-76515217D01*
X85795713Y-76728887D01*
X86044433Y-76967613D01*
X86466897Y-77367625D01*
X86826169Y-77701933D01*
X87107926Y-77957215D01*
X87297652Y-78119987D01*
X87297845Y-78120153D01*
X87381602Y-78177426D01*
X87495013Y-78119298D01*
X87627458Y-77968664D01*
X87632636Y-77959267D01*
X89733720Y-77959267D01*
X89759485Y-78133916D01*
X89816400Y-78399414D01*
X89909286Y-78779837D01*
X90041164Y-79292261D01*
X90042965Y-79299259D01*
X90045169Y-79307678D01*
X90115127Y-79511148D01*
X90214625Y-79595903D01*
X90397673Y-79609123D01*
X90606851Y-79590911D01*
X90896209Y-79532893D01*
X91133909Y-79451823D01*
X91261268Y-79364336D01*
X91265756Y-79351415D01*
X91260612Y-79206376D01*
X91221062Y-78952670D01*
X91157204Y-78634633D01*
X91079140Y-78296602D01*
X90996969Y-77982916D01*
X90920792Y-77737911D01*
X90860707Y-77605926D01*
X90835347Y-77580801D01*
X90727235Y-77542426D01*
X92108909Y-77542426D01*
X92108909Y-78473759D01*
X92108909Y-79351415D01*
X92108909Y-79405092D01*
X92669958Y-79429889D01*
X92768903Y-79434089D01*
X93017549Y-79434588D01*
X93181837Y-79395748D01*
X93276234Y-79291657D01*
X93315211Y-79096401D01*
X93313234Y-78784065D01*
X93310682Y-78743233D01*
X94138068Y-78743233D01*
X94150037Y-79047245D01*
X94158555Y-79096401D01*
X94182255Y-79233161D01*
X94233743Y-79340363D01*
X94322858Y-79411005D01*
X94488289Y-79441111D01*
X94776471Y-79447426D01*
X94953839Y-79443597D01*
X95220963Y-79408476D01*
X95226123Y-79405092D01*
X96257576Y-79405092D01*
X96769051Y-79429840D01*
X97003861Y-79434533D01*
X97229936Y-79422650D01*
X97340551Y-79394562D01*
X97360493Y-79322048D01*
X97381236Y-79108513D01*
X97395359Y-78793176D01*
X97399747Y-78473759D01*
X98289576Y-78473759D01*
X98289576Y-79405092D01*
X98853168Y-79429947D01*
X99416760Y-79454802D01*
X99431473Y-79278173D01*
X100292587Y-79278173D01*
X100336821Y-79400428D01*
X100437300Y-79474180D01*
X100596742Y-79527640D01*
X100619371Y-79533751D01*
X100911699Y-79592060D01*
X101177641Y-79616287D01*
X101251117Y-79615481D01*
X101348436Y-79597367D01*
X101420832Y-79532750D01*
X101484759Y-79392174D01*
X101489455Y-79376112D01*
X105629134Y-79376112D01*
X105698822Y-79575525D01*
X105804088Y-79651853D01*
X106006705Y-79701426D01*
X106090585Y-79694839D01*
X106196883Y-79638204D01*
X106285004Y-79492039D01*
X106384253Y-79218890D01*
X106400583Y-79191608D01*
X106514351Y-79053618D01*
X106716431Y-78830379D01*
X106984813Y-78545866D01*
X107297488Y-78224056D01*
X107600341Y-77921168D01*
X107898266Y-77639715D01*
X108118523Y-77457784D01*
X108280201Y-77359943D01*
X108402388Y-77330759D01*
X108598280Y-77301345D01*
X108772992Y-77157909D01*
X108830576Y-76892444D01*
X108797122Y-76720208D01*
X108618909Y-76518640D01*
X108491580Y-76443546D01*
X108361285Y-76429057D01*
X108195576Y-76518640D01*
X108063750Y-76641091D01*
X107983909Y-76873869D01*
X107970417Y-76949716D01*
X107890895Y-77098598D01*
X107726964Y-77303235D01*
X107463701Y-77581538D01*
X107086184Y-77951417D01*
X106967532Y-78064242D01*
X106632715Y-78372587D01*
X106330445Y-78637220D01*
X106089995Y-78833009D01*
X105940639Y-78934825D01*
X105874208Y-78972797D01*
X105694081Y-79158022D01*
X105629134Y-79376112D01*
X101489455Y-79376112D01*
X101556672Y-79146187D01*
X101653025Y-78765332D01*
X101672754Y-78685900D01*
X101759012Y-78325358D01*
X101798282Y-78120670D01*
X103889626Y-78120670D01*
X103946118Y-78206130D01*
X104072910Y-78367926D01*
X104166556Y-78458454D01*
X104275967Y-78516092D01*
X104318990Y-78491234D01*
X104472613Y-78366631D01*
X104715993Y-78152933D01*
X105030247Y-77867792D01*
X105396493Y-77528862D01*
X105795851Y-77153795D01*
X106209439Y-76760243D01*
X106618375Y-76365858D01*
X107003777Y-75988293D01*
X107346764Y-75645201D01*
X108021953Y-74960411D01*
X108054414Y-74083509D01*
X108086874Y-73206607D01*
X108422133Y-73058691D01*
X108561869Y-72984144D01*
X108892787Y-72698184D01*
X109148464Y-72321386D01*
X109286806Y-71909688D01*
X109305345Y-71536420D01*
X109208078Y-71091325D01*
X108994818Y-70713662D01*
X108690830Y-70413230D01*
X108321376Y-70199823D01*
X107911718Y-70083239D01*
X107487119Y-70073274D01*
X107072842Y-70179723D01*
X106694150Y-70412384D01*
X106376305Y-70781053D01*
X106217968Y-71101957D01*
X106123425Y-71583799D01*
X106181107Y-72060798D01*
X106385568Y-72500892D01*
X106731363Y-72872017D01*
X106807493Y-72931836D01*
X107055603Y-73133561D01*
X107203901Y-73289376D01*
X107278053Y-73448375D01*
X107303723Y-73659649D01*
X107306576Y-73972292D01*
X107306576Y-74593158D01*
X106728419Y-75163896D01*
X105570081Y-76307369D01*
X105129597Y-76746264D01*
X104696835Y-77187406D01*
X104346218Y-77556467D01*
X104087985Y-77842396D01*
X104014294Y-77933201D01*
X103932374Y-78034147D01*
X103889626Y-78120670D01*
X101798282Y-78120670D01*
X101804861Y-78086381D01*
X101812817Y-77933201D01*
X101785400Y-77830050D01*
X101725128Y-77741159D01*
X101631978Y-77655523D01*
X101439018Y-77583295D01*
X101129746Y-77555419D01*
X100674245Y-77542426D01*
X100482368Y-78290638D01*
X100478832Y-78304426D01*
X100470160Y-78338273D01*
X100361976Y-78775307D01*
X100301879Y-79079203D01*
X100292587Y-79278173D01*
X99431473Y-79278173D01*
X99476112Y-78742297D01*
X99482741Y-78655822D01*
X99499296Y-78290638D01*
X99497217Y-77972184D01*
X99476480Y-77761246D01*
X99417498Y-77492699D01*
X98853537Y-77517562D01*
X98289576Y-77542426D01*
X98289576Y-78413446D01*
X98289576Y-78473759D01*
X97399747Y-78473759D01*
X97400576Y-78413446D01*
X97400576Y-77492355D01*
X96829076Y-77517390D01*
X96257576Y-77542426D01*
X96257576Y-78473759D01*
X96257576Y-78752619D01*
X96257576Y-79405092D01*
X95226123Y-79405092D01*
X95332148Y-79335566D01*
X95342753Y-79274765D01*
X95354036Y-79064046D01*
X95356947Y-78752619D01*
X95350658Y-78383066D01*
X95326242Y-77542426D01*
X94767674Y-77517685D01*
X94209106Y-77492945D01*
X94154949Y-78255920D01*
X94147750Y-78371310D01*
X94138068Y-78743233D01*
X93310682Y-78743233D01*
X93284774Y-78328737D01*
X93227208Y-77492918D01*
X92668059Y-77517672D01*
X92108909Y-77542426D01*
X90727235Y-77542426D01*
X90648518Y-77514485D01*
X90386078Y-77515223D01*
X90107990Y-77572049D01*
X89874215Y-77673991D01*
X89744718Y-77810081D01*
X89742511Y-77818821D01*
X89734284Y-77851393D01*
X89733720Y-77959267D01*
X87632636Y-77959267D01*
X87710024Y-77818821D01*
X87703013Y-77695268D01*
X87595455Y-77522860D01*
X87514304Y-77427803D01*
X87319658Y-77222429D01*
X87036204Y-76934691D01*
X86682497Y-76583171D01*
X86277091Y-76186453D01*
X85838538Y-75763121D01*
X85559189Y-75493771D01*
X85071373Y-75017008D01*
X84594554Y-74543720D01*
X84436937Y-74384706D01*
X85928242Y-74384706D01*
X86179798Y-74566566D01*
X86416871Y-74755179D01*
X86645465Y-74963371D01*
X86655660Y-74973680D01*
X86826616Y-75166035D01*
X86945591Y-75331880D01*
X86954785Y-75347941D01*
X87015882Y-75414612D01*
X87080348Y-75364504D01*
X87178413Y-75177586D01*
X87194419Y-75146214D01*
X87383904Y-74892950D01*
X87621565Y-74694880D01*
X87684720Y-74655371D01*
X87851076Y-74523396D01*
X87917680Y-74422562D01*
X87908289Y-74394034D01*
X87797546Y-74281765D01*
X87602166Y-74155759D01*
X87534138Y-74116682D01*
X87303706Y-73912214D01*
X87144389Y-73605426D01*
X87121343Y-73544622D01*
X87040904Y-73361092D01*
X86987660Y-73317015D01*
X86943968Y-73393759D01*
X86886540Y-73558524D01*
X86777788Y-73828418D01*
X86668672Y-73998898D01*
X86525956Y-74113496D01*
X86316405Y-74215744D01*
X85928242Y-74384706D01*
X84436937Y-74384706D01*
X84156789Y-74102074D01*
X83786137Y-73720234D01*
X83510658Y-73426366D01*
X82770905Y-72612307D01*
X82809792Y-72071700D01*
X82813188Y-71740737D01*
X82798911Y-71674881D01*
X85761098Y-71674881D01*
X85819469Y-71980178D01*
X85989192Y-72275949D01*
X86240648Y-72502588D01*
X86486450Y-72621756D01*
X86815278Y-72663803D01*
X87143711Y-72552940D01*
X87497091Y-72284776D01*
X87711272Y-72085484D01*
X88216757Y-72388712D01*
X88229779Y-72396526D01*
X88481771Y-72548777D01*
X88666811Y-72662464D01*
X88745664Y-72713493D01*
X88746986Y-72717641D01*
X88743037Y-72831404D01*
X88721972Y-73075482D01*
X88686818Y-73417830D01*
X88640599Y-73826403D01*
X88591160Y-74253357D01*
X88573727Y-74422562D01*
X88539366Y-74756063D01*
X88514766Y-75141721D01*
X88520591Y-75440541D01*
X88560071Y-75682736D01*
X88636436Y-75898516D01*
X88752917Y-76118094D01*
X88912742Y-76371680D01*
X88991585Y-76490411D01*
X89173670Y-76745564D01*
X89318286Y-76922201D01*
X89399576Y-76987609D01*
X89409248Y-76986849D01*
X89545794Y-76941743D01*
X89725861Y-76853121D01*
X89882787Y-76757072D01*
X89949909Y-76689682D01*
X89932800Y-76628367D01*
X89847140Y-76446419D01*
X89714601Y-76205432D01*
X89563588Y-75956069D01*
X89422508Y-75748998D01*
X89415675Y-75739910D01*
X89352291Y-75655297D01*
X89305043Y-75576246D01*
X89274065Y-75481003D01*
X89259494Y-75347818D01*
X89261466Y-75154937D01*
X89280116Y-74880610D01*
X89315582Y-74503084D01*
X89367998Y-74000606D01*
X89437501Y-73351426D01*
X89473068Y-72948514D01*
X89466695Y-72620317D01*
X89391351Y-72377637D01*
X89225243Y-72182714D01*
X88946579Y-71997786D01*
X88533568Y-71785092D01*
X88403851Y-71720260D01*
X88081130Y-71540583D01*
X87897951Y-71399855D01*
X87838281Y-71286581D01*
X87857958Y-71198840D01*
X87971910Y-70973556D01*
X88082611Y-70802634D01*
X90203909Y-70802634D01*
X90242198Y-71038292D01*
X90386091Y-71378477D01*
X90600098Y-71693732D01*
X90844916Y-71915805D01*
X91135242Y-72095236D01*
X91135242Y-73475251D01*
X91135247Y-73540313D01*
X91137454Y-74058067D01*
X91149553Y-74456745D01*
X91180059Y-74781697D01*
X91237486Y-75078274D01*
X91330348Y-75391827D01*
X91467161Y-75767705D01*
X91656438Y-76251259D01*
X91736752Y-76411504D01*
X91801681Y-76471406D01*
X91901623Y-76453199D01*
X92092743Y-76422967D01*
X92266080Y-76368189D01*
X92374202Y-76273528D01*
X92377059Y-76224226D01*
X92343142Y-76031381D01*
X92266516Y-75743335D01*
X92157535Y-75401752D01*
X92136337Y-75339802D01*
X92040353Y-75045345D01*
X91974297Y-74795242D01*
X91932727Y-74546761D01*
X91910200Y-74257167D01*
X91901273Y-73883728D01*
X91901199Y-73835403D01*
X93081892Y-73835403D01*
X93082391Y-73843213D01*
X93151085Y-73980100D01*
X93313156Y-74182559D01*
X93536298Y-74409759D01*
X93795050Y-74673669D01*
X94016596Y-74986823D01*
X94183326Y-75362259D01*
X94202135Y-75413909D01*
X94305802Y-75676725D01*
X94392534Y-75819784D01*
X94493304Y-75878961D01*
X94639087Y-75890129D01*
X94861819Y-75879697D01*
X95003156Y-75834450D01*
X95066762Y-75729657D01*
X95057156Y-75540585D01*
X94978860Y-75242500D01*
X94836395Y-74810669D01*
X94521909Y-73889345D01*
X94521909Y-71175323D01*
X94521909Y-68461302D01*
X94778106Y-68355182D01*
X94845481Y-68323827D01*
X95140909Y-68084850D01*
X95339642Y-67747852D01*
X95422321Y-67358423D01*
X95369587Y-66962156D01*
X95196148Y-66633484D01*
X94903441Y-66365702D01*
X94542199Y-66209926D01*
X94150115Y-66175045D01*
X93764880Y-66269943D01*
X93424186Y-66503507D01*
X93241808Y-66745947D01*
X93113627Y-67128287D01*
X93122399Y-67532861D01*
X93265416Y-67918939D01*
X93269325Y-67923593D01*
X93539972Y-68245793D01*
X93823914Y-68483092D01*
X93757009Y-70896092D01*
X93753938Y-71006522D01*
X93753454Y-71023946D01*
X93736203Y-71634210D01*
X93720261Y-72182060D01*
X93706282Y-72646125D01*
X93694921Y-73005034D01*
X93686833Y-73237415D01*
X93682673Y-73321896D01*
X93673151Y-73329435D01*
X93565661Y-73397497D01*
X93378909Y-73509540D01*
X93319065Y-73547956D01*
X93150118Y-73699544D01*
X93081892Y-73835403D01*
X91901199Y-73835403D01*
X91900504Y-73383710D01*
X91903765Y-72123759D01*
X92172512Y-71954426D01*
X92208005Y-71930710D01*
X92441157Y-71727984D01*
X92642458Y-71488759D01*
X92702426Y-71387523D01*
X92814283Y-71006522D01*
X92796673Y-70598704D01*
X92662796Y-70208518D01*
X92425853Y-69880416D01*
X92099042Y-69658846D01*
X91766871Y-69565915D01*
X91304327Y-69562585D01*
X90879922Y-69695857D01*
X90663997Y-69863551D01*
X90435521Y-70156336D01*
X90268594Y-70491571D01*
X90203909Y-70802634D01*
X88082611Y-70802634D01*
X88170564Y-70666835D01*
X88434712Y-70304573D01*
X88745141Y-69912667D01*
X89082643Y-69517013D01*
X89428007Y-69143509D01*
X89615598Y-68950743D01*
X89846079Y-68723190D01*
X90011188Y-68585387D01*
X90142953Y-68517125D01*
X90273404Y-68498193D01*
X90434570Y-68508382D01*
X90666259Y-68514983D01*
X90853021Y-68453179D01*
X91048403Y-68286624D01*
X91127526Y-68200665D01*
X91280113Y-67923593D01*
X91265845Y-67644513D01*
X91085383Y-67346588D01*
X90879831Y-67167580D01*
X90578974Y-67071111D01*
X90274013Y-67130781D01*
X89999769Y-67346588D01*
X89957595Y-67398594D01*
X89831375Y-67583160D01*
X89780576Y-67707869D01*
X89769830Y-67734543D01*
X89668140Y-67871367D01*
X89476298Y-68093190D01*
X89215442Y-68376104D01*
X89129773Y-68464927D01*
X88906708Y-68696206D01*
X88831221Y-68773313D01*
X88483088Y-69139139D01*
X88389313Y-69241929D01*
X88153409Y-69500513D01*
X87876311Y-69819375D01*
X87685919Y-70057667D01*
X87485999Y-70325616D01*
X87281491Y-70576599D01*
X87130366Y-70720623D01*
X87010358Y-70777797D01*
X86899203Y-70768233D01*
X86687338Y-70761299D01*
X86406079Y-70864031D01*
X86129514Y-71054144D01*
X85903786Y-71298910D01*
X85775034Y-71565599D01*
X85761098Y-71674881D01*
X82798911Y-71674881D01*
X82730512Y-71359362D01*
X82532065Y-71074666D01*
X82204673Y-70860271D01*
X81830926Y-70757763D01*
X81439510Y-70810855D01*
X81068053Y-71029232D01*
X80873833Y-71232914D01*
X80703241Y-71584183D01*
X80687760Y-71958823D01*
X77788415Y-71958823D01*
X79010868Y-70776799D01*
X80507357Y-69538249D01*
X80832808Y-69309298D01*
X85846698Y-69309298D01*
X85892240Y-69422054D01*
X85976360Y-69492396D01*
X86169708Y-69543435D01*
X86367364Y-69508432D01*
X86513029Y-69402794D01*
X86550406Y-69241929D01*
X86528414Y-69184799D01*
X86390939Y-69091021D01*
X86184210Y-69088180D01*
X85965307Y-69182112D01*
X85941055Y-69199589D01*
X85846698Y-69309298D01*
X80832808Y-69309298D01*
X81893762Y-68562928D01*
X85413452Y-68562928D01*
X85446149Y-68819516D01*
X85476219Y-68879728D01*
X85595568Y-69007334D01*
X85756871Y-68998201D01*
X85991742Y-68854348D01*
X86004393Y-68844821D01*
X86144606Y-68708525D01*
X86209055Y-68539177D01*
X86223436Y-68289182D01*
X86313026Y-68289182D01*
X86334332Y-68570175D01*
X86395850Y-68783051D01*
X86405961Y-68801430D01*
X86583607Y-69005071D01*
X86785499Y-69057390D01*
X86984635Y-68950699D01*
X87119466Y-68747023D01*
X87134712Y-68464927D01*
X86992101Y-68130818D01*
X86886414Y-67988164D01*
X86695749Y-67832532D01*
X86515024Y-67783878D01*
X86384635Y-67860198D01*
X86332911Y-68020815D01*
X86314495Y-68269361D01*
X86313026Y-68289182D01*
X86223436Y-68289182D01*
X86224576Y-68269361D01*
X86212259Y-68026789D01*
X86151764Y-67839555D01*
X86030350Y-67796826D01*
X85836506Y-67887272D01*
X85688234Y-68010365D01*
X85501978Y-68274510D01*
X85413452Y-68562928D01*
X81893762Y-68562928D01*
X82087177Y-68426863D01*
X83740087Y-67451838D01*
X85455844Y-66622369D01*
X87224208Y-65947653D01*
X87508517Y-65851267D01*
X87737206Y-65761489D01*
X87858808Y-65684960D01*
X87903521Y-65601278D01*
X87901541Y-65490041D01*
X87897851Y-65467625D01*
X96467937Y-65467625D01*
X96475885Y-67358423D01*
X96489757Y-70658359D01*
X96511576Y-75849092D01*
X96826223Y-75875200D01*
X97008905Y-75880607D01*
X97115109Y-75840651D01*
X97597275Y-75840651D01*
X97607683Y-75968715D01*
X97626099Y-75996355D01*
X97699935Y-76049129D01*
X97820631Y-76022275D01*
X98035576Y-75909202D01*
X98289576Y-75764426D01*
X98003643Y-75737092D01*
X97956528Y-75733627D01*
X97723718Y-75756344D01*
X97597275Y-75840651D01*
X97115109Y-75840651D01*
X97131039Y-75834658D01*
X97188283Y-75705866D01*
X97195619Y-75609069D01*
X97202743Y-75353671D01*
X97208572Y-74958244D01*
X97213032Y-74438323D01*
X97216053Y-73809446D01*
X97217563Y-73087148D01*
X97217489Y-72286966D01*
X97215759Y-71424435D01*
X97212303Y-70515092D01*
X97200908Y-68081871D01*
X98787236Y-68081871D01*
X98844034Y-68281383D01*
X98961735Y-68489219D01*
X99126536Y-68676462D01*
X99153051Y-68698567D01*
X99194024Y-68742362D01*
X99226452Y-68805192D01*
X99250988Y-68903753D01*
X99268290Y-69054742D01*
X99279012Y-69274859D01*
X99283809Y-69580800D01*
X99283337Y-69989262D01*
X99278251Y-70516945D01*
X99269207Y-71180544D01*
X99256861Y-71996759D01*
X99245338Y-72724452D01*
X99238821Y-73087148D01*
X99232911Y-73416030D01*
X99220170Y-73973689D01*
X99205919Y-74416334D01*
X99188964Y-74762871D01*
X99168109Y-75032205D01*
X99142160Y-75243243D01*
X99109922Y-75414889D01*
X99070200Y-75566049D01*
X99021799Y-75715630D01*
X99020950Y-75718109D01*
X99007041Y-75764426D01*
X98936580Y-75999053D01*
X98893555Y-76214600D01*
X98901180Y-76318267D01*
X98902236Y-76319189D01*
X99027931Y-76374988D01*
X99234524Y-76426936D01*
X99310394Y-76440019D01*
X99428133Y-76439379D01*
X99515451Y-76374914D01*
X99602981Y-76215307D01*
X99721358Y-75929241D01*
X99940576Y-75381644D01*
X99940576Y-72159516D01*
X99940576Y-71912990D01*
X101403339Y-71912990D01*
X101408031Y-72105117D01*
X101484314Y-72267430D01*
X101656272Y-72474695D01*
X101948270Y-72801092D01*
X101996546Y-74207547D01*
X102044823Y-75614002D01*
X101754699Y-76095621D01*
X101612856Y-76341978D01*
X101505597Y-76550580D01*
X101464576Y-76661986D01*
X101468630Y-76677714D01*
X101567812Y-76769509D01*
X101758190Y-76869412D01*
X101806989Y-76889601D01*
X101993584Y-76962581D01*
X102087143Y-76992092D01*
X102095864Y-76986048D01*
X102173614Y-76882903D01*
X102307927Y-76678455D01*
X102475905Y-76407156D01*
X102829328Y-75822221D01*
X102769823Y-74261453D01*
X102768480Y-74226199D01*
X102748844Y-73684049D01*
X102740055Y-73352684D01*
X103565308Y-73352684D01*
X103585126Y-73480006D01*
X103687246Y-73683316D01*
X103883493Y-73990663D01*
X103888351Y-73997913D01*
X104083275Y-74302261D01*
X104192043Y-74516714D01*
X104231576Y-74684603D01*
X104218796Y-74849260D01*
X104203855Y-74952515D01*
X104231976Y-75152034D01*
X104377889Y-75341102D01*
X104614110Y-75503088D01*
X104867261Y-75532924D01*
X105082581Y-75417427D01*
X105225176Y-75163896D01*
X105221951Y-74998410D01*
X105114265Y-74782078D01*
X104936279Y-74608124D01*
X104735050Y-74536759D01*
X104629879Y-74509073D01*
X104520271Y-74404930D01*
X104389271Y-74197362D01*
X104216242Y-73859426D01*
X104089234Y-73607674D01*
X103933547Y-73344304D01*
X103809731Y-73214745D01*
X103701142Y-73204025D01*
X103591135Y-73297173D01*
X103565308Y-73352684D01*
X102740055Y-73352684D01*
X102738264Y-73285167D01*
X102738273Y-73005034D01*
X102750404Y-72819127D01*
X102776192Y-72702926D01*
X102817168Y-72631909D01*
X102874867Y-72581555D01*
X103065641Y-72411962D01*
X103268369Y-72077248D01*
X103314885Y-71703845D01*
X103198809Y-71316654D01*
X103196037Y-71311357D01*
X102990015Y-71064452D01*
X102700335Y-70882391D01*
X102400114Y-70811426D01*
X102367519Y-70810422D01*
X102291184Y-70783714D01*
X102248770Y-70693917D01*
X102230494Y-70505638D01*
X102226576Y-70183481D01*
X102226822Y-70134788D01*
X102239975Y-69836577D01*
X102269181Y-69619378D01*
X102308905Y-69527314D01*
X102319375Y-69522269D01*
X102435004Y-69433506D01*
X102627879Y-69262546D01*
X102862337Y-69040743D01*
X103333439Y-68582393D01*
X103659368Y-68765576D01*
X103892271Y-68872007D01*
X104284633Y-68940851D01*
X104634496Y-68866626D01*
X104915895Y-68657330D01*
X105102866Y-68320960D01*
X105157765Y-68006938D01*
X105077984Y-67664150D01*
X104834658Y-67336533D01*
X104667627Y-67192652D01*
X104464997Y-67107398D01*
X104179760Y-67086092D01*
X104129506Y-67087183D01*
X103767520Y-67163350D01*
X103480798Y-67341502D01*
X103312391Y-67596314D01*
X103246392Y-67657375D01*
X103033769Y-67713234D01*
X102665231Y-67748180D01*
X102596354Y-67752343D01*
X102281701Y-67783834D01*
X102109570Y-67831155D01*
X102057242Y-67899980D01*
X102104428Y-67977040D01*
X102271566Y-68017426D01*
X102407586Y-68029696D01*
X102437406Y-68049762D01*
X102518728Y-68104484D01*
X102492104Y-68252169D01*
X102325835Y-68478468D01*
X102018043Y-68789100D01*
X101455875Y-69314980D01*
X101470252Y-70338369D01*
X101471457Y-70721612D01*
X101463585Y-71149402D01*
X101447361Y-71511062D01*
X101424451Y-71755028D01*
X101403339Y-71912990D01*
X99940576Y-71912990D01*
X99940576Y-68937388D01*
X100236909Y-68657909D01*
X100398454Y-68487825D01*
X100504991Y-68291105D01*
X100531360Y-68049762D01*
X100530759Y-68019077D01*
X100451336Y-67664583D01*
X100262757Y-67402888D01*
X99999417Y-67240793D01*
X99695710Y-67185101D01*
X99386029Y-67242612D01*
X99104769Y-67420128D01*
X98886324Y-67724451D01*
X98815394Y-67892472D01*
X98787236Y-68081871D01*
X97200908Y-68081871D01*
X97188909Y-65519759D01*
X96828423Y-65493692D01*
X96467937Y-65467625D01*
X87897851Y-65467625D01*
X87885416Y-65392087D01*
X87830909Y-65308140D01*
X87698871Y-65276716D01*
X87443545Y-65276477D01*
X87100147Y-65313782D01*
X86565869Y-65437402D01*
X85933993Y-65636771D01*
X85228155Y-65901314D01*
X84471992Y-66220457D01*
X83689140Y-66583625D01*
X82903235Y-66980243D01*
X82137916Y-67399736D01*
X81416817Y-67831529D01*
X80763576Y-68265047D01*
X80465679Y-68477864D01*
X78791115Y-69791215D01*
X77246429Y-71209691D01*
X75834872Y-72728048D01*
X74559690Y-74341042D01*
X73424132Y-76043430D01*
X72431448Y-77829968D01*
X71584884Y-79695414D01*
X70887690Y-81634523D01*
X70343113Y-83642053D01*
X69954404Y-85712759D01*
X69946694Y-85765337D01*
X69879993Y-86257490D01*
X69830812Y-86715057D01*
X69796773Y-87178801D01*
X69775497Y-87689490D01*
X69764605Y-88287887D01*
X69761719Y-89014759D01*
X68335928Y-89014759D01*
X68353872Y-87871759D01*
X68479987Y-86404808D01*
X68796906Y-84342551D01*
X69269989Y-82320729D01*
X69893555Y-80348028D01*
X70661926Y-78433134D01*
X71569422Y-76584732D01*
X72610364Y-74811510D01*
X73779072Y-73122151D01*
X75069867Y-71525343D01*
X76477070Y-70029770D01*
X77995001Y-68644119D01*
X79617981Y-67377076D01*
X81340330Y-66237326D01*
X83156369Y-65233555D01*
X83319551Y-65152606D01*
X83965640Y-64846257D01*
X84631527Y-64550053D01*
X85275092Y-64281717D01*
X85854214Y-64058973D01*
X86326772Y-63899542D01*
X86516904Y-63834897D01*
X86709340Y-63744823D01*
X86788536Y-63673778D01*
X86740293Y-63637498D01*
X86550410Y-63651720D01*
X86527750Y-63655459D01*
X86287142Y-63691347D01*
X85952716Y-63737291D01*
X85589576Y-63784307D01*
X85475196Y-63798837D01*
X85034100Y-63857162D01*
X84539989Y-63925054D01*
X84079820Y-63990632D01*
X83861027Y-64021135D01*
X83459375Y-64064089D01*
X83195692Y-64066832D01*
X83051230Y-64028634D01*
X83007242Y-63948763D01*
X83018738Y-63911618D01*
X83117624Y-63757610D01*
X83293205Y-63533731D01*
X83515524Y-63274275D01*
X83754624Y-63013533D01*
X83980548Y-62785798D01*
X84163340Y-62625362D01*
X84239367Y-62560215D01*
X86073144Y-62560215D01*
X86090983Y-62566749D01*
X86239160Y-62570347D01*
X86498201Y-62553313D01*
X86825994Y-62518010D01*
X86887583Y-62510628D01*
X87342461Y-62469441D01*
X87851580Y-62440411D01*
X88315903Y-62429426D01*
X88631008Y-62431433D01*
X88893280Y-62443794D01*
X89054836Y-62474627D01*
X89153426Y-62531995D01*
X89226803Y-62623960D01*
X89248904Y-62660868D01*
X89346441Y-62851687D01*
X89481146Y-63138495D01*
X89637556Y-63485622D01*
X89800205Y-63857402D01*
X89953629Y-64218164D01*
X90082364Y-64532240D01*
X90170945Y-64763962D01*
X90203909Y-64877661D01*
X90177665Y-64940610D01*
X90055742Y-65049823D01*
X89983362Y-65097273D01*
X89960481Y-65164351D01*
X90071925Y-65265697D01*
X90095484Y-65281784D01*
X90309550Y-65357239D01*
X90579925Y-65381229D01*
X90819626Y-65368112D01*
X91179735Y-65318819D01*
X91396544Y-65241248D01*
X91461649Y-65139291D01*
X91366642Y-65016843D01*
X91364544Y-65015285D01*
X91312322Y-64961352D01*
X91298151Y-64884806D01*
X91331529Y-64760942D01*
X91338819Y-64745149D01*
X93357194Y-64745149D01*
X93385439Y-64882180D01*
X93397951Y-64887382D01*
X93540879Y-64905294D01*
X93818940Y-64923286D01*
X94205744Y-64940801D01*
X94674901Y-64957279D01*
X95200021Y-64972161D01*
X95754715Y-64984888D01*
X96312591Y-64994902D01*
X96847261Y-65001643D01*
X97332334Y-65004553D01*
X97741421Y-65003072D01*
X98048132Y-64996642D01*
X98226076Y-64984704D01*
X98357837Y-64932186D01*
X98416576Y-64768804D01*
X98416372Y-64738767D01*
X98406852Y-64633764D01*
X98370081Y-64551306D01*
X98288301Y-64488670D01*
X98143749Y-64443137D01*
X97918667Y-64411984D01*
X97595294Y-64392491D01*
X97155870Y-64381937D01*
X96582634Y-64377600D01*
X95857827Y-64376759D01*
X93502279Y-64376759D01*
X93404791Y-64590722D01*
X93357194Y-64745149D01*
X91338819Y-64745149D01*
X91421952Y-64565053D01*
X91578914Y-64272433D01*
X91811914Y-63858376D01*
X92095922Y-63319585D01*
X94225576Y-63319585D01*
X94256860Y-63430848D01*
X94416454Y-63514864D01*
X94460684Y-63517545D01*
X94616076Y-63456972D01*
X94683955Y-63323686D01*
X94681895Y-63318426D01*
X95580242Y-63318426D01*
X95580541Y-63323686D01*
X95582575Y-63359466D01*
X95627985Y-63443615D01*
X95762289Y-63489055D01*
X96025689Y-63513383D01*
X96292088Y-63517745D01*
X96451638Y-63484033D01*
X96523765Y-63401859D01*
X96539132Y-63351477D01*
X96531712Y-63318426D01*
X97188909Y-63318426D01*
X97197290Y-63351477D01*
X97215380Y-63422818D01*
X97361727Y-63512497D01*
X97457164Y-63518723D01*
X97608317Y-63452259D01*
X97654576Y-63256357D01*
X97652902Y-63220962D01*
X97594737Y-63128742D01*
X97421742Y-63122302D01*
X97244966Y-63179908D01*
X97188909Y-63318426D01*
X96531712Y-63318426D01*
X96506388Y-63205617D01*
X96326169Y-63130140D01*
X95994221Y-63122804D01*
X95940372Y-63126469D01*
X95712895Y-63156070D01*
X95606554Y-63213580D01*
X95580242Y-63318426D01*
X94681895Y-63318426D01*
X94626811Y-63177794D01*
X94606750Y-63159999D01*
X94444859Y-63112308D01*
X94292865Y-63174316D01*
X94225576Y-63319585D01*
X92095922Y-63319585D01*
X92399720Y-62743251D01*
X92674430Y-62120657D01*
X93949849Y-62120657D01*
X93978106Y-62255566D01*
X93995030Y-62262690D01*
X94146600Y-62283978D01*
X94426003Y-62305114D01*
X94802287Y-62325192D01*
X95244496Y-62343307D01*
X95721677Y-62358552D01*
X96202874Y-62370022D01*
X96657133Y-62376811D01*
X97053501Y-62378013D01*
X97361022Y-62372724D01*
X97548742Y-62360037D01*
X97678062Y-62309356D01*
X97734100Y-62157545D01*
X97651597Y-61915859D01*
X97640153Y-61895930D01*
X97595001Y-61845554D01*
X97516427Y-61808514D01*
X97381782Y-61782773D01*
X97168413Y-61766296D01*
X96853668Y-61757048D01*
X96414898Y-61752992D01*
X95829448Y-61752092D01*
X94094946Y-61752092D01*
X93997457Y-61966055D01*
X93949849Y-62120657D01*
X92674430Y-62120657D01*
X92984971Y-61416858D01*
X93054590Y-61222926D01*
X95114846Y-61222926D01*
X95118749Y-61240658D01*
X95208295Y-61291475D01*
X95429895Y-61319906D01*
X95801773Y-61328759D01*
X96488969Y-61328759D01*
X96429418Y-60799592D01*
X96421317Y-60731167D01*
X96370399Y-60364099D01*
X96301720Y-59929872D01*
X96227764Y-59508426D01*
X96211111Y-59419260D01*
X96146629Y-59091936D01*
X96092215Y-58891260D01*
X96030811Y-58784362D01*
X95945357Y-58738371D01*
X95818793Y-58720417D01*
X95673249Y-58713650D01*
X95578821Y-58755208D01*
X95519555Y-58885614D01*
X95462748Y-59143750D01*
X95430212Y-59311452D01*
X95361594Y-59683141D01*
X95290560Y-60086414D01*
X95223739Y-60481650D01*
X95167759Y-60829228D01*
X95129252Y-61089527D01*
X95114846Y-61222926D01*
X93054590Y-61222926D01*
X93498916Y-59985204D01*
X93559523Y-59797816D01*
X93711332Y-59322780D01*
X93815134Y-58977803D01*
X93874363Y-58739586D01*
X93889858Y-58607016D01*
X97754099Y-58607016D01*
X97763362Y-58805412D01*
X97826579Y-59099793D01*
X97946351Y-59510722D01*
X98125280Y-60058759D01*
X98153978Y-60143947D01*
X98439407Y-60955740D01*
X98584980Y-61328759D01*
X98716015Y-61664527D01*
X98933833Y-62157545D01*
X99008814Y-62327259D01*
X99342818Y-63000890D01*
X99480708Y-63256357D01*
X99743039Y-63742376D01*
X99943834Y-64109210D01*
X100140134Y-64490033D01*
X100261998Y-64764372D01*
X100263324Y-64768804D01*
X100318495Y-64953266D01*
X100318696Y-65077757D01*
X100300636Y-65193095D01*
X100354802Y-65284170D01*
X100537615Y-65338600D01*
X100556046Y-65342178D01*
X101033103Y-65380001D01*
X101528076Y-65333007D01*
X101554492Y-65327033D01*
X101695409Y-65236312D01*
X101694910Y-65112228D01*
X101549242Y-65011759D01*
X101449951Y-64963253D01*
X101379909Y-64869162D01*
X101404792Y-64771494D01*
X101487126Y-64546266D01*
X101611812Y-64235931D01*
X101763050Y-63877185D01*
X101925035Y-63506725D01*
X102081965Y-63161247D01*
X102218038Y-62877449D01*
X102317450Y-62692027D01*
X102493369Y-62404295D01*
X103524139Y-62459133D01*
X103901723Y-62480742D01*
X104366882Y-62510943D01*
X104780621Y-62541441D01*
X105084076Y-62568124D01*
X105302715Y-62585658D01*
X105536339Y-62579908D01*
X105613242Y-62530470D01*
X105610442Y-62517127D01*
X105535257Y-62386732D01*
X105371374Y-62157306D01*
X105137302Y-61852113D01*
X104851551Y-61494412D01*
X104532632Y-61107466D01*
X104199055Y-60714537D01*
X103869329Y-60338887D01*
X103649652Y-60097791D01*
X103446495Y-59896688D01*
X103283097Y-59777639D01*
X103121456Y-59714159D01*
X102923569Y-59679764D01*
X102822018Y-59666484D01*
X102452982Y-59612899D01*
X102099576Y-59555478D01*
X101944618Y-59530542D01*
X101740335Y-59506338D01*
X101648635Y-59508431D01*
X101672226Y-59560700D01*
X101779667Y-59723167D01*
X101954819Y-59967456D01*
X102177801Y-60265139D01*
X102326928Y-60463957D01*
X102571691Y-60816961D01*
X102704312Y-61059454D01*
X102728536Y-61199232D01*
X102648111Y-61244092D01*
X102614589Y-61232627D01*
X102463690Y-61120916D01*
X102223660Y-60902250D01*
X101909665Y-60591436D01*
X101536872Y-60203280D01*
X101120447Y-59752591D01*
X101030818Y-59655817D01*
X100540845Y-59200994D01*
X100066443Y-58892782D01*
X99817318Y-58760790D01*
X99492160Y-58575174D01*
X99238316Y-58415783D01*
X99140260Y-58349998D01*
X98964532Y-58239687D01*
X98876762Y-58196092D01*
X98868266Y-58206241D01*
X98892859Y-58289701D01*
X98977044Y-58466037D01*
X99126456Y-58745638D01*
X99346731Y-59138891D01*
X99643502Y-59656182D01*
X100022404Y-60307899D01*
X100089810Y-60423627D01*
X100431702Y-61023450D01*
X100684218Y-61493396D01*
X100851449Y-61842751D01*
X100937484Y-62080796D01*
X100946412Y-62216815D01*
X100882321Y-62260092D01*
X100857478Y-62250365D01*
X100733689Y-62134571D01*
X100538221Y-61903792D01*
X100285781Y-61577880D01*
X99991077Y-61176689D01*
X99668816Y-60720068D01*
X99333705Y-60227872D01*
X99000453Y-59719952D01*
X98748652Y-59328529D01*
X98506639Y-58955510D01*
X98330132Y-58692547D01*
X98204442Y-58521835D01*
X98114881Y-58425567D01*
X98046763Y-58385938D01*
X97985399Y-58385141D01*
X97916102Y-58405370D01*
X97887028Y-58415935D01*
X97796188Y-58484044D01*
X97761691Y-58584835D01*
X97754099Y-58607016D01*
X93889858Y-58607016D01*
X93892451Y-58584835D01*
X93872830Y-58490252D01*
X93818934Y-58432540D01*
X93734194Y-58388403D01*
X93681578Y-58368092D01*
X93613458Y-58365120D01*
X93536019Y-58405272D01*
X93435438Y-58505027D01*
X93297893Y-58680863D01*
X93109560Y-58949260D01*
X92856619Y-59326696D01*
X92525245Y-59829649D01*
X92068292Y-60516530D01*
X91644478Y-61133079D01*
X91293181Y-61619885D01*
X91017526Y-61972773D01*
X90820638Y-62187566D01*
X90705644Y-62260092D01*
X90700632Y-62259932D01*
X90651840Y-62195593D01*
X90692259Y-62011537D01*
X90823892Y-61703033D01*
X91048743Y-61265351D01*
X91368814Y-60693759D01*
X91677266Y-60157549D01*
X91995651Y-59603345D01*
X92244415Y-59169037D01*
X92431931Y-58839720D01*
X92566575Y-58600488D01*
X92656720Y-58436438D01*
X92710741Y-58332665D01*
X92737013Y-58274262D01*
X92743909Y-58246326D01*
X92717733Y-58243575D01*
X92587261Y-58303726D01*
X92384076Y-58424940D01*
X92142248Y-58573043D01*
X91806494Y-58767810D01*
X91468485Y-58955168D01*
X91461063Y-58959176D01*
X91082084Y-59198917D01*
X90716334Y-59510055D01*
X90317656Y-59931759D01*
X89945813Y-60343559D01*
X89580210Y-60721766D01*
X89276815Y-61005550D01*
X89046566Y-61185494D01*
X88900396Y-61252180D01*
X88849242Y-61196193D01*
X88855799Y-61157316D01*
X88948884Y-60960932D01*
X89149248Y-60645750D01*
X89453209Y-60217736D01*
X89558833Y-60070579D01*
X89743002Y-59789944D01*
X89849695Y-59589027D01*
X89870268Y-59485953D01*
X89796076Y-59498846D01*
X89775808Y-59506858D01*
X89618836Y-59541140D01*
X89352300Y-59584741D01*
X89020291Y-59630196D01*
X88690217Y-59681208D01*
X88344505Y-59767753D01*
X88145651Y-59867612D01*
X88143266Y-59869740D01*
X88010189Y-60007046D01*
X87799876Y-60244285D01*
X87535807Y-60552938D01*
X87241459Y-60904482D01*
X86940310Y-61270397D01*
X86655839Y-61622163D01*
X86411523Y-61931259D01*
X86230841Y-62169163D01*
X86137271Y-62307356D01*
X86074427Y-62460766D01*
X86073144Y-62560215D01*
X84239367Y-62560215D01*
X84287480Y-62518987D01*
X84533104Y-62282505D01*
X84844218Y-61965280D01*
X85195290Y-61595031D01*
X85560788Y-61199481D01*
X85915179Y-60806350D01*
X86232929Y-60443358D01*
X86488507Y-60138228D01*
X86656379Y-59918678D01*
X86898918Y-59566931D01*
X86455913Y-59462622D01*
X86148566Y-59384118D01*
X85241455Y-59072625D01*
X84439057Y-58671205D01*
X83755459Y-58189267D01*
X83204745Y-57636219D01*
X82801002Y-57021468D01*
X82648940Y-56656515D01*
X82598801Y-56426880D01*
X83874897Y-56426880D01*
X83957815Y-56582726D01*
X84153263Y-56862729D01*
X84551651Y-57308388D01*
X85153618Y-57752557D01*
X85882557Y-58090039D01*
X86734031Y-58318332D01*
X87080419Y-58374569D01*
X88052275Y-58444399D01*
X89045224Y-58399534D01*
X90007196Y-58244185D01*
X90886120Y-57982562D01*
X91195545Y-57850906D01*
X91582798Y-57654215D01*
X91945746Y-57439436D01*
X92251571Y-57227807D01*
X92467456Y-57040564D01*
X92560584Y-56898945D01*
X92568183Y-56806143D01*
X92512162Y-56792594D01*
X92349102Y-56868151D01*
X92306546Y-56888508D01*
X92076989Y-56981569D01*
X91757127Y-57096800D01*
X91402447Y-57213933D01*
X91238622Y-57263677D01*
X90392358Y-57470690D01*
X89500348Y-57615714D01*
X88602196Y-57696331D01*
X87737503Y-57710121D01*
X86945873Y-57654667D01*
X86266909Y-57527550D01*
X85850878Y-57402809D01*
X85204701Y-57157107D01*
X84633491Y-56876003D01*
X84184348Y-56580909D01*
X84047818Y-56477125D01*
X83904802Y-56392558D01*
X83874897Y-56426880D01*
X82598801Y-56426880D01*
X82499592Y-55972508D01*
X82489764Y-55600528D01*
X93676443Y-55600528D01*
X93679019Y-56055508D01*
X93688507Y-56382242D01*
X93708570Y-56611363D01*
X93742870Y-56773507D01*
X93756412Y-56806143D01*
X93795072Y-56899309D01*
X93868838Y-57019405D01*
X94049562Y-57220672D01*
X94398004Y-57418857D01*
X94586379Y-57461234D01*
X94913135Y-57505036D01*
X95313135Y-57541345D01*
X95738146Y-57567298D01*
X96139934Y-57580031D01*
X96470266Y-57576681D01*
X96680909Y-57554384D01*
X97091945Y-57452333D01*
X97399263Y-57356766D01*
X97617845Y-57242594D01*
X97762802Y-57084696D01*
X97834540Y-56896521D01*
X99015408Y-56896521D01*
X99056524Y-56998176D01*
X99222132Y-57153456D01*
X99488539Y-57345033D01*
X99832049Y-57555576D01*
X100228969Y-57767757D01*
X100899076Y-58047619D01*
X101774209Y-58279716D01*
X102683079Y-58409691D01*
X103607521Y-58440744D01*
X104491725Y-58370599D01*
X105313748Y-58203762D01*
X106051648Y-57944739D01*
X106683482Y-57598035D01*
X107187308Y-57168157D01*
X107348441Y-56983222D01*
X107530659Y-56753006D01*
X107680142Y-56543937D01*
X107771349Y-56392061D01*
X107778740Y-56333426D01*
X107725424Y-56359217D01*
X107568207Y-56463909D01*
X107353771Y-56621657D01*
X106976114Y-56877099D01*
X106236282Y-57245172D01*
X105375884Y-57533878D01*
X105228093Y-57571585D01*
X104894188Y-57638321D01*
X104532786Y-57680153D01*
X104096743Y-57701519D01*
X103538909Y-57706860D01*
X103216523Y-57702558D01*
X102067044Y-57617625D01*
X100960109Y-57415360D01*
X99827080Y-57084250D01*
X99644700Y-57024198D01*
X99342050Y-56935730D01*
X99121981Y-56886370D01*
X99022746Y-56885569D01*
X99015408Y-56896521D01*
X97834540Y-56896521D01*
X97849243Y-56857955D01*
X97892279Y-56537250D01*
X97907020Y-56097461D01*
X97908576Y-55513470D01*
X97907421Y-55148455D01*
X97891528Y-54566095D01*
X97841964Y-54123700D01*
X97740056Y-53802010D01*
X97567136Y-53581765D01*
X97304531Y-53443708D01*
X96933572Y-53368578D01*
X96435589Y-53337116D01*
X95791909Y-53330062D01*
X95296024Y-53331145D01*
X94919208Y-53338793D01*
X94772624Y-53348380D01*
X94650611Y-53356360D01*
X94459162Y-53387160D01*
X94313792Y-53434511D01*
X94183432Y-53501727D01*
X94036236Y-53596070D01*
X93897089Y-53721760D01*
X93799133Y-53882318D01*
X93735232Y-54104620D01*
X93698249Y-54415541D01*
X93681047Y-54841955D01*
X93676491Y-55410738D01*
X93676443Y-55600528D01*
X82489764Y-55600528D01*
X82479478Y-55211223D01*
X82519244Y-54904269D01*
X83852767Y-54904269D01*
X83911720Y-54962060D01*
X84108814Y-54927211D01*
X84447993Y-54803176D01*
X84596195Y-54745564D01*
X85390019Y-54508768D01*
X86245395Y-54355748D01*
X87083932Y-54301426D01*
X87888869Y-54329162D01*
X88913984Y-54432831D01*
X89936464Y-54604431D01*
X90902322Y-54834576D01*
X91757572Y-55113881D01*
X92090539Y-55241961D01*
X92340486Y-55335129D01*
X92485478Y-55379890D01*
X92553900Y-55382091D01*
X92574138Y-55347580D01*
X92574576Y-55282207D01*
X92542738Y-55185061D01*
X92375775Y-54999565D01*
X92087259Y-54785627D01*
X91701502Y-54557173D01*
X91242817Y-54328133D01*
X90735515Y-54112436D01*
X90203909Y-53924011D01*
X90071961Y-53881938D01*
X89663665Y-53747709D01*
X89411319Y-53654151D01*
X89309622Y-53596074D01*
X89353276Y-53568293D01*
X89536982Y-53565618D01*
X89855441Y-53582864D01*
X90235147Y-53621308D01*
X91141727Y-53828934D01*
X92016769Y-54200620D01*
X92202451Y-54297954D01*
X92406417Y-54403632D01*
X92511076Y-54456163D01*
X92539173Y-54456747D01*
X92574576Y-54368212D01*
X92556338Y-54313978D01*
X92422008Y-54156985D01*
X92180985Y-53952606D01*
X91861805Y-53722172D01*
X91493006Y-53487010D01*
X91103124Y-53268449D01*
X91002439Y-53215056D01*
X90771108Y-53081489D01*
X90639252Y-52987561D01*
X90633042Y-52950949D01*
X90780115Y-52966439D01*
X91076701Y-53039676D01*
X91440027Y-53158009D01*
X91820756Y-53304960D01*
X92169550Y-53464054D01*
X92243644Y-53501352D01*
X92477299Y-53612978D01*
X92610972Y-53653593D01*
X92685333Y-53628941D01*
X92741050Y-53544767D01*
X92743936Y-53539347D01*
X92814878Y-53348380D01*
X92798568Y-53239749D01*
X98787004Y-53239749D01*
X98831944Y-53477836D01*
X98921837Y-53712579D01*
X99430622Y-53455745D01*
X99660142Y-53349991D01*
X99980600Y-53223152D01*
X100309258Y-53109740D01*
X100605021Y-53022761D01*
X100826796Y-52975218D01*
X100933490Y-52980118D01*
X100933029Y-52986470D01*
X100848439Y-53055319D01*
X100656115Y-53177158D01*
X100389452Y-53330482D01*
X99989681Y-53561932D01*
X99593433Y-53815899D01*
X99283413Y-54042804D01*
X99081418Y-54226533D01*
X99009242Y-54350970D01*
X99010439Y-54395619D01*
X99032477Y-54452182D01*
X99107005Y-54447497D01*
X99265562Y-54374029D01*
X99539692Y-54224241D01*
X99717729Y-54130936D01*
X100076784Y-53964892D01*
X100398819Y-53839580D01*
X100437647Y-53827158D01*
X100728432Y-53751482D01*
X101084917Y-53678924D01*
X101460964Y-53616478D01*
X101810434Y-53571138D01*
X102087186Y-53549895D01*
X102245083Y-53559744D01*
X102232312Y-53588019D01*
X102092202Y-53658881D01*
X101841080Y-53758366D01*
X101506909Y-53874550D01*
X101385481Y-53915318D01*
X100758492Y-54151147D01*
X100178328Y-54409701D01*
X99684671Y-54672048D01*
X99317203Y-54919257D01*
X99284744Y-54946728D01*
X99145862Y-55110788D01*
X99105537Y-55248150D01*
X99125739Y-55299191D01*
X99194068Y-55325199D01*
X99340593Y-55285962D01*
X99601909Y-55176172D01*
X99751932Y-55111692D01*
X100617308Y-54807304D01*
X101561457Y-54574097D01*
X102552083Y-54413832D01*
X103556890Y-54328274D01*
X104543580Y-54319185D01*
X105479857Y-54388328D01*
X106333426Y-54537467D01*
X107071989Y-54768365D01*
X107370387Y-54884999D01*
X107621334Y-54964499D01*
X107747064Y-54968429D01*
X107762497Y-54896281D01*
X107682554Y-54747546D01*
X107533231Y-54549620D01*
X107355317Y-54360844D01*
X107244710Y-54281774D01*
X107008292Y-54143076D01*
X106705445Y-53982176D01*
X106378952Y-53820153D01*
X106071596Y-53678085D01*
X105826162Y-53577051D01*
X105685433Y-53538129D01*
X105614336Y-53526435D01*
X105443909Y-53448171D01*
X105434830Y-53438892D01*
X105490704Y-53410367D01*
X105668539Y-53396435D01*
X105930843Y-53395853D01*
X106240127Y-53407381D01*
X106558902Y-53429775D01*
X106849677Y-53461795D01*
X107074962Y-53502198D01*
X107159701Y-53520699D01*
X107264767Y-53515338D01*
X107259108Y-53429575D01*
X107143321Y-53283191D01*
X106880248Y-53086671D01*
X106491040Y-52860448D01*
X105993775Y-52616146D01*
X105401576Y-52345205D01*
X106016456Y-52380752D01*
X106022431Y-52381097D01*
X106333844Y-52394860D01*
X106504242Y-52388110D01*
X106560783Y-52356316D01*
X106530623Y-52294946D01*
X106433817Y-52202154D01*
X106212715Y-52065560D01*
X105875490Y-51917787D01*
X105397379Y-51746860D01*
X104808909Y-51549759D01*
X105356814Y-51507426D01*
X105904720Y-51465092D01*
X105674815Y-51315302D01*
X105535887Y-51234352D01*
X105021914Y-51045295D01*
X104404077Y-50948627D01*
X103709514Y-50941892D01*
X102965363Y-51022631D01*
X102198761Y-51188389D01*
X101436845Y-51436707D01*
X100706754Y-51765130D01*
X100618634Y-51812253D01*
X100263741Y-52020068D01*
X99885559Y-52264042D01*
X99518013Y-52519903D01*
X99195029Y-52763379D01*
X98950532Y-52970199D01*
X98818448Y-53116092D01*
X98787004Y-53239749D01*
X92798568Y-53239749D01*
X92789609Y-53180080D01*
X92651539Y-52998289D01*
X92384076Y-52766852D01*
X91520175Y-52143276D01*
X90663257Y-51660020D01*
X89778294Y-51301338D01*
X88826488Y-51048491D01*
X88039759Y-50940187D01*
X87261637Y-50946745D01*
X86554531Y-51073166D01*
X85945130Y-51316964D01*
X85674242Y-51465092D01*
X86266909Y-51507426D01*
X86859576Y-51549759D01*
X86150521Y-51795733D01*
X86037787Y-51836216D01*
X85692549Y-51976319D01*
X85402166Y-52116643D01*
X85220110Y-52232108D01*
X84998755Y-52422510D01*
X85590499Y-52382737D01*
X86182242Y-52342965D01*
X85411506Y-52718637D01*
X85050218Y-52908100D01*
X84675136Y-53150031D01*
X84442044Y-53366887D01*
X84361909Y-53549978D01*
X84386915Y-53562565D01*
X84529529Y-53546537D01*
X84756365Y-53488806D01*
X84842287Y-53465984D01*
X85113197Y-53417401D01*
X85419548Y-53385531D01*
X85720687Y-53371527D01*
X85975956Y-53376542D01*
X86144702Y-53401731D01*
X86186268Y-53448245D01*
X86183597Y-53452112D01*
X86066374Y-53522344D01*
X85863772Y-53583355D01*
X85829828Y-53590868D01*
X85481372Y-53703981D01*
X85082983Y-53881142D01*
X84687665Y-54094084D01*
X84348421Y-54314540D01*
X84118256Y-54514243D01*
X83928010Y-54750381D01*
X83852767Y-54904269D01*
X82519244Y-54904269D01*
X82585932Y-54389502D01*
X82816290Y-53524184D01*
X83167888Y-52632112D01*
X83638062Y-51730127D01*
X83861033Y-51375781D01*
X84314540Y-50804789D01*
X84819541Y-50366035D01*
X85394811Y-50050442D01*
X86059122Y-49848933D01*
X86831246Y-49752433D01*
X87729958Y-49751866D01*
X87800382Y-49755412D01*
X88930428Y-49901119D01*
X90042999Y-50213543D01*
X91139341Y-50693223D01*
X92220698Y-51340698D01*
X93288316Y-52156505D01*
X93479525Y-52310386D01*
X93662630Y-52412461D01*
X93832062Y-52422904D01*
X94047347Y-52357474D01*
X94261142Y-52276189D01*
X93789788Y-51277974D01*
X93629416Y-50923909D01*
X93390799Y-50356745D01*
X93163463Y-49775984D01*
X92980412Y-49263759D01*
X92869013Y-48920308D01*
X92753268Y-48518705D01*
X92681981Y-48181961D01*
X92644369Y-47855372D01*
X92629649Y-47484231D01*
X92628773Y-47397018D01*
X93753450Y-47397018D01*
X93808766Y-47977163D01*
X93955232Y-48649245D01*
X94188556Y-49395729D01*
X94504447Y-50199079D01*
X94898613Y-51041759D01*
X95410909Y-52057759D01*
X95756897Y-52083117D01*
X95780915Y-52084675D01*
X96041433Y-52069801D01*
X96191829Y-51998450D01*
X96195034Y-51994285D01*
X96270767Y-51868334D01*
X96402175Y-51626246D01*
X96571666Y-51301128D01*
X96761652Y-50926083D01*
X96785279Y-50878651D01*
X97251032Y-49863989D01*
X97586828Y-48957554D01*
X97792716Y-48159091D01*
X97868745Y-47468342D01*
X97814964Y-46885050D01*
X97631423Y-46408960D01*
X97479649Y-46187923D01*
X97074607Y-45798445D01*
X96581555Y-45520875D01*
X96038769Y-45373642D01*
X95484522Y-45375175D01*
X95435657Y-45383321D01*
X94946454Y-45552074D01*
X94494018Y-45856109D01*
X94115314Y-46264472D01*
X93847303Y-46746210D01*
X93793575Y-46926346D01*
X93753450Y-47397018D01*
X92628773Y-47397018D01*
X92627163Y-47236665D01*
X92637607Y-46925211D01*
X92676795Y-46683975D01*
X92756912Y-46451278D01*
X92890139Y-46165442D01*
X92935036Y-46077327D01*
X93355937Y-45449528D01*
X93892855Y-44927965D01*
X94520977Y-44537409D01*
X94562521Y-44517745D01*
X94858090Y-44390661D01*
X95115292Y-44317751D01*
X95403223Y-44284902D01*
X95790977Y-44278002D01*
X96227718Y-44293815D01*
X96622779Y-44352356D01*
X96981044Y-44464371D01*
X97357282Y-44649814D01*
X97883195Y-45036364D01*
X98341328Y-45523357D01*
X98688230Y-46069931D01*
X98811981Y-46332697D01*
X98896093Y-46560921D01*
X98942541Y-46791970D01*
X98962222Y-47081322D01*
X98965878Y-47468342D01*
X98966030Y-47484457D01*
G37*
%TD*%
%LPC*%
D11*
%TO.C,X4*%
X88900000Y-82090000D03*
D12*
X88900000Y-84630000D03*
X88900000Y-87170000D03*
X88900000Y-89710000D03*
%TD*%
D11*
%TO.C,X5*%
X91990000Y-78550000D03*
D12*
X94530000Y-78550000D03*
X97070000Y-78550000D03*
X99610000Y-78550000D03*
%TD*%
D11*
%TO.C,X3*%
X91990000Y-94150000D03*
D12*
X94530000Y-94150000D03*
X97070000Y-94150000D03*
X99610000Y-94150000D03*
%TD*%
D11*
%TO.C,X2*%
X103000000Y-82090000D03*
D12*
X103000000Y-84630000D03*
X103000000Y-87170000D03*
X103000000Y-89710000D03*
%TD*%
D13*
%TO.C,X1*%
X98890000Y-50630000D03*
X93110000Y-50630000D03*
D14*
X100320000Y-51130000D03*
D15*
X100320000Y-46950000D03*
D14*
X91680000Y-51130000D03*
D15*
X91680000Y-46950000D03*
%TD*%
%LPD*%
M02*
