M48
; DRILL file {KiCad 9.0.4} date 2025-12-27T15:00:13+0300
; FORMAT={-:-/ absolute / inch / decimal}
; #@! TF.CreationDate,2025-12-27T15:00:13+03:00
; #@! TF.GenerationSoftware,Kicad,Pcbnew,9.0.4
; #@! TF.FileFunction,Plated,1,2,PTH
FMAT,2
INCH
; #@! TA.AperFunction,Plated,PTH,ViaDrill
T1C0.0118
; #@! TA.AperFunction,Plated,PTH,ComponentDrill
T2C0.0236
; #@! TA.AperFunction,Plated,PTH,ComponentDrill
T3C0.0394
%
G90
G05
T1
X2.7756Y-3.1654
X2.7963Y-3.3524
X2.8514Y-3.6654
X2.9173Y-3.9291
X2.9222Y-3.4006
X2.9518Y-2.8081
X3.0955Y-2.6693
X3.1348Y-3.7687
X3.1801Y-3.1516
X3.2165Y-3.6407
X3.2234Y-3.9331
X3.2352Y-4.3386
X3.2805Y-3.4557
X3.3248Y-3.2825
X3.3514Y-2.6506
X3.375Y-3.876
X3.377Y-2.875
X3.3917Y-3.6004
X3.3957Y-2.0404
X3.4035Y-3.3268
X3.4134Y-2.2096
X3.4154Y-3.4872
X3.4429Y-4.0226
X3.4852Y-2.7362
X3.4872Y-2.6978
X3.4961Y-3.6467
X3.5Y-2.0354
X3.5059Y-2.3701
X3.5118Y-4.4567
X3.5187Y-2.2982
X3.5512Y-2.4242
X3.5758Y-3.2559
X3.5915Y-3.3366
X3.6122Y-4.1142
X3.6191Y-2.2274
X3.622Y-3.6201
X3.6358Y-3.5285
X3.6516Y-2.628
X3.6673Y-3.1969
X3.6693Y-3.4646
X3.6722Y-3.2559
X3.7037Y-1.8317
X3.7146Y-3.6122
X3.748Y-3.622
X3.7559Y-2.3406
X3.7707Y-2.7844
X3.7799Y-3.3862
X3.7913Y-3.0295
X3.815Y-3.4803
X3.8199Y-3.251
X3.8268Y-3.2953
X3.8366Y-1.8317
X3.8366Y-2.0807
X3.8711Y-3.3366
X3.878Y-2.5098
X3.8937Y-2.8632
X3.8957Y-4.4567
X3.9006Y-3.5492
X3.9055Y-4.0108
X3.9301Y-2.0807
X3.938Y-3.4498
X3.9459Y-4.1368
X4.0177Y-2.3681
X4.0719Y-2.0217
X4.0876Y-2.6959
X4.0955Y-2.7362
X4.0994Y-2.2707
X4.1043Y-2.3967
X4.122Y-4.0709
X4.124Y-3.4035
X4.186Y-2.0217
X4.1978Y-2.9567
X4.1998Y-2.4724
X4.2047Y-3.8278
X4.2185Y-2.2165
X4.2323Y-2.1112
X4.2805Y-3.6319
X4.2894Y-4.0089
X4.312Y-2.6732
X4.3652Y-3.7707
X4.4045Y-2.4724
X4.4587Y-2.5915
X4.4636Y-2.749
X4.4656Y-3.1467
X4.5177Y-3.5059
X4.5488Y-2.4037
X4.5541Y-4.1644
X4.6762Y-2.7736
X4.7008Y-3.6526
X4.7333Y-2.6211
X4.7372Y-3.2175
T3
X3.5Y-3.2319
X3.5Y-3.3319
X3.5Y-3.4319
X3.5Y-3.5319
X3.6217Y-3.0925
X3.6217Y-3.7067
X3.7217Y-3.0925
X3.7217Y-3.7067
X3.8217Y-3.0925
X3.8217Y-3.7067
X3.9217Y-3.0925
X3.9217Y-3.7067
X4.0551Y-3.2319
X4.0551Y-3.3319
X4.0551Y-3.4319
X4.0551Y-3.5319
T2
G00X3.6094Y-1.8642
M15
G01X3.6094Y-1.8327
M16
G05
G00X3.6094Y-2.0346
M15
G01X3.6094Y-1.9913
M16
G05
G00X3.9496Y-1.8642
M15
G01X3.9496Y-1.8327
M16
G05
G00X3.9496Y-2.0346
M15
G01X3.9496Y-1.9913
M16
G05
M30
