%TF.GenerationSoftware,KiCad,Pcbnew,9.0.4*%
%TF.CreationDate,2025-12-27T15:03:28+03:00*%
%TF.ProjectId,Blinky _hristmas ball,426c696e-6b79-4202-9168-726973746d61,rev?*%
%TF.SameCoordinates,Original*%
%TF.FileFunction,Paste,Top*%
%TF.FilePolarity,Positive*%
%FSLAX46Y46*%
G04 Gerber Fmt 4.6, Leading zero omitted, Abs format (unit mm)*
G04 Created by KiCad (PCBNEW 9.0.4) date 2025-12-27 15:03:28*
%MOMM*%
%LPD*%
G01*
G04 APERTURE LIST*
G04 Aperture macros list*
%AMRoundRect*
0 Rectangle with rounded corners*
0 $1 Rounding radius*
0 $2 $3 $4 $5 $6 $7 $8 $9 X,Y pos of 4 corners*
0 Add a 4 corners polygon primitive as box body*
4,1,4,$2,$3,$4,$5,$6,$7,$8,$9,$2,$3,0*
0 Add four circle primitives for the rounded corners*
1,1,$1+$1,$2,$3*
1,1,$1+$1,$4,$5*
1,1,$1+$1,$6,$7*
1,1,$1+$1,$8,$9*
0 Add four rect primitives between the rounded corners*
20,1,$1+$1,$2,$3,$4,$5,0*
20,1,$1+$1,$4,$5,$6,$7,0*
20,1,$1+$1,$6,$7,$8,$9,0*
20,1,$1+$1,$8,$9,$2,$3,0*%
%AMFreePoly0*
4,1,9,3.862500,-0.866500,0.737500,-0.866500,0.737500,-0.450000,-0.737500,-0.450000,-0.737500,0.450000,0.737500,0.450000,0.737500,0.866500,3.862500,0.866500,3.862500,-0.866500,3.862500,-0.866500,$1*%
G04 Aperture macros list end*
%ADD10RoundRect,0.140000X-0.170000X0.140000X-0.170000X-0.140000X0.170000X-0.140000X0.170000X0.140000X0*%
%ADD11RoundRect,0.147500X0.172500X-0.147500X0.172500X0.147500X-0.172500X0.147500X-0.172500X-0.147500X0*%
%ADD12RoundRect,0.147500X-0.172500X0.147500X-0.172500X-0.147500X0.172500X-0.147500X0.172500X0.147500X0*%
%ADD13RoundRect,0.135000X-0.135000X-0.185000X0.135000X-0.185000X0.135000X0.185000X-0.135000X0.185000X0*%
%ADD14RoundRect,0.140000X0.170000X-0.140000X0.170000X0.140000X-0.170000X0.140000X-0.170000X-0.140000X0*%
%ADD15RoundRect,0.147500X-0.147500X-0.172500X0.147500X-0.172500X0.147500X0.172500X-0.147500X0.172500X0*%
%ADD16RoundRect,0.200000X-0.200000X-0.275000X0.200000X-0.275000X0.200000X0.275000X-0.200000X0.275000X0*%
%ADD17RoundRect,0.150000X0.150000X-0.587500X0.150000X0.587500X-0.150000X0.587500X-0.150000X-0.587500X0*%
%ADD18RoundRect,0.140000X-0.140000X-0.170000X0.140000X-0.170000X0.140000X0.170000X-0.140000X0.170000X0*%
%ADD19RoundRect,0.135000X-0.185000X0.135000X-0.185000X-0.135000X0.185000X-0.135000X0.185000X0.135000X0*%
%ADD20RoundRect,0.200000X0.200000X0.275000X-0.200000X0.275000X-0.200000X-0.275000X0.200000X-0.275000X0*%
%ADD21RoundRect,0.150000X-0.587500X-0.150000X0.587500X-0.150000X0.587500X0.150000X-0.587500X0.150000X0*%
%ADD22RoundRect,0.140000X0.140000X0.170000X-0.140000X0.170000X-0.140000X-0.170000X0.140000X-0.170000X0*%
%ADD23RoundRect,0.135000X0.185000X-0.135000X0.185000X0.135000X-0.185000X0.135000X-0.185000X-0.135000X0*%
%ADD24RoundRect,0.200000X0.275000X-0.200000X0.275000X0.200000X-0.275000X0.200000X-0.275000X-0.200000X0*%
%ADD25RoundRect,0.135000X0.135000X0.185000X-0.135000X0.185000X-0.135000X-0.185000X0.135000X-0.185000X0*%
%ADD26R,1.050000X0.650000*%
%ADD27RoundRect,0.150000X-0.150000X0.587500X-0.150000X-0.587500X0.150000X-0.587500X0.150000X0.587500X0*%
%ADD28RoundRect,0.167500X-0.167500X0.167500X-0.167500X-0.167500X0.167500X-0.167500X0.167500X0.167500X0*%
%ADD29RoundRect,0.050000X-0.050000X0.375000X-0.050000X-0.375000X0.050000X-0.375000X0.050000X0.375000X0*%
%ADD30RoundRect,0.050000X-0.375000X0.050000X-0.375000X-0.050000X0.375000X-0.050000X0.375000X0.050000X0*%
%ADD31RoundRect,0.150000X0.587500X0.150000X-0.587500X0.150000X-0.587500X-0.150000X0.587500X-0.150000X0*%
%ADD32RoundRect,0.225000X0.225000X-0.425000X0.225000X0.425000X-0.225000X0.425000X-0.225000X-0.425000X0*%
%ADD33FreePoly0,90.000000*%
%ADD34RoundRect,0.150000X0.150000X0.425000X-0.150000X0.425000X-0.150000X-0.425000X0.150000X-0.425000X0*%
%ADD35RoundRect,0.075000X0.075000X0.500000X-0.075000X0.500000X-0.075000X-0.500000X0.075000X-0.500000X0*%
%ADD36O,1.000000X2.100000*%
%ADD37O,1.000000X1.800000*%
G04 APERTURE END LIST*
D10*
%TO.C,C6*%
X93300000Y-84070000D03*
X93300000Y-85030000D03*
%TD*%
D11*
%TO.C,D6*%
X116650000Y-78135000D03*
X116650000Y-77165000D03*
%TD*%
D12*
%TO.C,D2*%
X104850000Y-108565000D03*
X104850000Y-109535000D03*
%TD*%
%TO.C,D4*%
X77500000Y-98900000D03*
X77500000Y-99870000D03*
%TD*%
D13*
%TO.C,R9*%
X95290000Y-76200000D03*
X96310000Y-76200000D03*
%TD*%
D14*
%TO.C,C5*%
X92600000Y-62780000D03*
X92600000Y-61820000D03*
%TD*%
D15*
%TO.C,D15*%
X68965000Y-73350000D03*
X69935000Y-73350000D03*
%TD*%
D16*
%TO.C,R10*%
X103175000Y-63250000D03*
X104825000Y-63250000D03*
%TD*%
D17*
%TO.C,Q2*%
X94850000Y-74687500D03*
X96750000Y-74687500D03*
X95800000Y-72812500D03*
%TD*%
D18*
%TO.C,C4*%
X95520000Y-59900000D03*
X96480000Y-59900000D03*
%TD*%
D19*
%TO.C,R11*%
X105462500Y-85427500D03*
X105462500Y-86447500D03*
%TD*%
D20*
%TO.C,R6*%
X88675000Y-64850000D03*
X87025000Y-64850000D03*
%TD*%
D21*
%TO.C,Q3*%
X107012500Y-84987500D03*
X107012500Y-86887500D03*
X108887500Y-85937500D03*
%TD*%
D11*
%TO.C,D8*%
X87850000Y-69467500D03*
X87850000Y-68497500D03*
%TD*%
D15*
%TO.C,D11*%
X119182500Y-68300000D03*
X120152500Y-68300000D03*
%TD*%
D22*
%TO.C,C2*%
X92080000Y-53350000D03*
X91120000Y-53350000D03*
%TD*%
D15*
%TO.C,D16*%
X79265000Y-59800000D03*
X80235000Y-59800000D03*
%TD*%
D23*
%TO.C,R13*%
X86437500Y-86322500D03*
X86437500Y-85302500D03*
%TD*%
D15*
%TO.C,D9*%
X112415000Y-59350000D03*
X113385000Y-59350000D03*
%TD*%
D22*
%TO.C,C3*%
X95530000Y-58950000D03*
X94570000Y-58950000D03*
%TD*%
D24*
%TO.C,R5*%
X94450000Y-67475000D03*
X94450000Y-65825000D03*
%TD*%
D25*
%TO.C,R1*%
X100860000Y-53400000D03*
X99840000Y-53400000D03*
%TD*%
D20*
%TO.C,R12*%
X88675000Y-63350000D03*
X87025000Y-63350000D03*
%TD*%
D12*
%TO.C,D13*%
X77400000Y-61782500D03*
X77400000Y-62752500D03*
%TD*%
D26*
%TO.C,SW1*%
X93875000Y-61225000D03*
X98025000Y-61225000D03*
X93875000Y-63375000D03*
X98025000Y-63375000D03*
%TD*%
D25*
%TO.C,R2*%
X92110000Y-54400000D03*
X91090000Y-54400000D03*
%TD*%
D15*
%TO.C,D12*%
X122465000Y-73500000D03*
X123435000Y-73500000D03*
%TD*%
D27*
%TO.C,Q1*%
X96662500Y-97962500D03*
X94762500Y-97962500D03*
X95712500Y-99837500D03*
%TD*%
D15*
%TO.C,D14*%
X71982500Y-67400000D03*
X72952500Y-67400000D03*
%TD*%
D28*
%TO.C,DD1*%
X96420000Y-85600000D03*
X95600000Y-85600000D03*
X96420000Y-86420000D03*
X95600000Y-86420000D03*
D29*
X96810000Y-84560000D03*
X96410000Y-84560000D03*
X96010000Y-84560000D03*
X95610000Y-84560000D03*
X95210000Y-84560000D03*
D30*
X94560000Y-85210000D03*
X94560000Y-85610000D03*
X94560000Y-86010000D03*
X94560000Y-86410000D03*
X94560000Y-86810000D03*
D29*
X95210000Y-87460000D03*
X95610000Y-87460000D03*
X96010000Y-87460000D03*
X96410000Y-87460000D03*
X96810000Y-87460000D03*
D30*
X97460000Y-86810000D03*
X97460000Y-86410000D03*
X97460000Y-86010000D03*
X97460000Y-85610000D03*
X97460000Y-85210000D03*
%TD*%
D24*
%TO.C,R3*%
X97450000Y-67475000D03*
X97450000Y-65825000D03*
%TD*%
D11*
%TO.C,D5*%
X104800000Y-69517500D03*
X104800000Y-68547500D03*
%TD*%
D31*
%TO.C,Q4*%
X84937500Y-86762500D03*
X84937500Y-84862500D03*
X83062500Y-85812500D03*
%TD*%
D15*
%TO.C,D10*%
X115582500Y-63200000D03*
X116552500Y-63200000D03*
%TD*%
D16*
%TO.C,R8*%
X103175000Y-64750000D03*
X104825000Y-64750000D03*
%TD*%
D10*
%TO.C,C7*%
X99300000Y-61820000D03*
X99300000Y-62780000D03*
%TD*%
D12*
%TO.C,D1*%
X116650000Y-98430000D03*
X116650000Y-99400000D03*
%TD*%
D32*
%TO.C,U1*%
X94450000Y-57550000D03*
D33*
X95950000Y-57462500D03*
D32*
X97450000Y-57550000D03*
%TD*%
D11*
%TO.C,D7*%
X77500000Y-78270000D03*
X77500000Y-77300000D03*
%TD*%
D22*
%TO.C,C1*%
X97430000Y-58950000D03*
X96470000Y-58950000D03*
%TD*%
D25*
%TO.C,R7*%
X96222500Y-96487500D03*
X95202500Y-96487500D03*
%TD*%
D34*
%TO.C,X1*%
X99200000Y-51705000D03*
X98400000Y-51705000D03*
D35*
X97250000Y-51705000D03*
X96250000Y-51705000D03*
X95750000Y-51705000D03*
X94750000Y-51705000D03*
D34*
X93600000Y-51705000D03*
X92800000Y-51705000D03*
X92800000Y-51705000D03*
X93600000Y-51705000D03*
D35*
X94250000Y-51705000D03*
X95250000Y-51705000D03*
X96750000Y-51705000D03*
X97750000Y-51705000D03*
D34*
X98400000Y-51705000D03*
X99200000Y-51705000D03*
D36*
X100320000Y-51130000D03*
D37*
X100320000Y-46950000D03*
D36*
X91680000Y-51130000D03*
D37*
X91680000Y-46950000D03*
%TD*%
D24*
%TO.C,R4*%
X95950000Y-67475000D03*
X95950000Y-65825000D03*
%TD*%
D12*
%TO.C,D3*%
X87850000Y-107930000D03*
X87850000Y-108900000D03*
%TD*%
M02*
