%TF.GenerationSoftware,KiCad,Pcbnew,9.0.4*%
%TF.CreationDate,2025-12-27T15:03:28+03:00*%
%TF.ProjectId,Blinky _hristmas ball,426c696e-6b79-4202-9168-726973746d61,rev?*%
%TF.SameCoordinates,Original*%
%TF.FileFunction,Legend,Top*%
%TF.FilePolarity,Positive*%
%FSLAX46Y46*%
G04 Gerber Fmt 4.6, Leading zero omitted, Abs format (unit mm)*
G04 Created by KiCad (PCBNEW 9.0.4) date 2025-12-27 15:03:28*
%MOMM*%
%LPD*%
G01*
G04 APERTURE LIST*
G04 Aperture macros list*
%AMRoundRect*
0 Rectangle with rounded corners*
0 $1 Rounding radius*
0 $2 $3 $4 $5 $6 $7 $8 $9 X,Y pos of 4 corners*
0 Add a 4 corners polygon primitive as box body*
4,1,4,$2,$3,$4,$5,$6,$7,$8,$9,$2,$3,0*
0 Add four circle primitives for the rounded corners*
1,1,$1+$1,$2,$3*
1,1,$1+$1,$4,$5*
1,1,$1+$1,$6,$7*
1,1,$1+$1,$8,$9*
0 Add four rect primitives between the rounded corners*
20,1,$1+$1,$2,$3,$4,$5,0*
20,1,$1+$1,$4,$5,$6,$7,0*
20,1,$1+$1,$6,$7,$8,$9,0*
20,1,$1+$1,$8,$9,$2,$3,0*%
%AMFreePoly0*
4,1,9,3.862500,-0.866500,0.737500,-0.866500,0.737500,-0.450000,-0.737500,-0.450000,-0.737500,0.450000,0.737500,0.450000,0.737500,0.866500,3.862500,0.866500,3.862500,-0.866500,3.862500,-0.866500,$1*%
G04 Aperture macros list end*
%ADD10C,0.120000*%
%ADD11C,0.100000*%
%ADD12C,0.000000*%
%ADD13RoundRect,0.140000X-0.170000X0.140000X-0.170000X-0.140000X0.170000X-0.140000X0.170000X0.140000X0*%
%ADD14RoundRect,0.147500X0.172500X-0.147500X0.172500X0.147500X-0.172500X0.147500X-0.172500X-0.147500X0*%
%ADD15RoundRect,0.147500X-0.172500X0.147500X-0.172500X-0.147500X0.172500X-0.147500X0.172500X0.147500X0*%
%ADD16R,1.700000X1.700000*%
%ADD17C,1.700000*%
%ADD18RoundRect,0.135000X-0.135000X-0.185000X0.135000X-0.185000X0.135000X0.185000X-0.135000X0.185000X0*%
%ADD19RoundRect,0.140000X0.170000X-0.140000X0.170000X0.140000X-0.170000X0.140000X-0.170000X-0.140000X0*%
%ADD20RoundRect,0.147500X-0.147500X-0.172500X0.147500X-0.172500X0.147500X0.172500X-0.147500X0.172500X0*%
%ADD21RoundRect,0.200000X-0.200000X-0.275000X0.200000X-0.275000X0.200000X0.275000X-0.200000X0.275000X0*%
%ADD22RoundRect,0.150000X0.150000X-0.587500X0.150000X0.587500X-0.150000X0.587500X-0.150000X-0.587500X0*%
%ADD23RoundRect,0.140000X-0.140000X-0.170000X0.140000X-0.170000X0.140000X0.170000X-0.140000X0.170000X0*%
%ADD24RoundRect,0.135000X-0.185000X0.135000X-0.185000X-0.135000X0.185000X-0.135000X0.185000X0.135000X0*%
%ADD25RoundRect,0.200000X0.200000X0.275000X-0.200000X0.275000X-0.200000X-0.275000X0.200000X-0.275000X0*%
%ADD26RoundRect,0.150000X-0.587500X-0.150000X0.587500X-0.150000X0.587500X0.150000X-0.587500X0.150000X0*%
%ADD27RoundRect,0.140000X0.140000X0.170000X-0.140000X0.170000X-0.140000X-0.170000X0.140000X-0.170000X0*%
%ADD28RoundRect,0.135000X0.185000X-0.135000X0.185000X0.135000X-0.185000X0.135000X-0.185000X-0.135000X0*%
%ADD29RoundRect,0.200000X0.275000X-0.200000X0.275000X0.200000X-0.275000X0.200000X-0.275000X-0.200000X0*%
%ADD30RoundRect,0.135000X0.135000X0.185000X-0.135000X0.185000X-0.135000X-0.185000X0.135000X-0.185000X0*%
%ADD31R,1.050000X0.650000*%
%ADD32RoundRect,0.150000X-0.150000X0.587500X-0.150000X-0.587500X0.150000X-0.587500X0.150000X0.587500X0*%
%ADD33RoundRect,0.050000X-0.050000X0.375000X-0.050000X-0.375000X0.050000X-0.375000X0.050000X0.375000X0*%
%ADD34RoundRect,0.050000X-0.375000X0.050000X-0.375000X-0.050000X0.375000X-0.050000X0.375000X0.050000X0*%
%ADD35R,1.650000X1.650000*%
%ADD36RoundRect,0.150000X0.587500X0.150000X-0.587500X0.150000X-0.587500X-0.150000X0.587500X-0.150000X0*%
%ADD37RoundRect,0.225000X0.225000X-0.425000X0.225000X0.425000X-0.225000X0.425000X-0.225000X-0.425000X0*%
%ADD38FreePoly0,90.000000*%
%ADD39C,0.650000*%
%ADD40RoundRect,0.150000X0.150000X0.425000X-0.150000X0.425000X-0.150000X-0.425000X0.150000X-0.425000X0*%
%ADD41RoundRect,0.075000X0.075000X0.500000X-0.075000X0.500000X-0.075000X-0.500000X0.075000X-0.500000X0*%
%ADD42O,1.000000X2.100000*%
%ADD43O,1.000000X1.800000*%
G04 APERTURE END LIST*
D10*
%TO.C,C6*%
X92940000Y-84442164D02*
X92940000Y-84657836D01*
X93660000Y-84442164D02*
X93660000Y-84657836D01*
D11*
%TO.C,D6*%
X116700000Y-78740000D02*
G75*
G02*
X116600000Y-78740000I-50000J0D01*
G01*
X116600000Y-78740000D02*
G75*
G02*
X116700000Y-78740000I50000J0D01*
G01*
%TO.C,D2*%
X104900000Y-107960000D02*
G75*
G02*
X104800000Y-107960000I-50000J0D01*
G01*
X104800000Y-107960000D02*
G75*
G02*
X104900000Y-107960000I50000J0D01*
G01*
D12*
%TO.C,G\u002A\u002A\u002A*%
G36*
X82757772Y-60099732D02*
G01*
X82833400Y-60268664D01*
X82834333Y-60294493D01*
X82772722Y-60468805D01*
X82629507Y-60540783D01*
X82467111Y-60497136D01*
X82376174Y-60392028D01*
X82335227Y-60229361D01*
X82408712Y-60125899D01*
X82598499Y-60045128D01*
X82757772Y-60099732D01*
G37*
G36*
X92139515Y-110186169D02*
G01*
X92255219Y-110348320D01*
X92248465Y-110531492D01*
X92121465Y-110640932D01*
X91936000Y-110670000D01*
X91713682Y-110624597D01*
X91623535Y-110531492D01*
X91622582Y-110331018D01*
X91748072Y-110175279D01*
X91936000Y-110119667D01*
X92139515Y-110186169D01*
G37*
G36*
X106369935Y-107824656D02*
G01*
X106527867Y-107936659D01*
X106583333Y-108094725D01*
X106511591Y-108196791D01*
X106343493Y-108248448D01*
X106160000Y-108230525D01*
X105993730Y-108121537D01*
X105965738Y-107971888D01*
X106005877Y-107900006D01*
X106174058Y-107805060D01*
X106369935Y-107824656D01*
G37*
G36*
X109559368Y-77472446D02*
G01*
X109664592Y-77588910D01*
X109711114Y-77730049D01*
X109631333Y-77820447D01*
X109417729Y-77897878D01*
X109260431Y-77817428D01*
X109216886Y-77751271D01*
X109176654Y-77566234D01*
X109251662Y-77446720D01*
X109394902Y-77409775D01*
X109559368Y-77472446D01*
G37*
G36*
X110592756Y-103329919D02*
G01*
X110703979Y-103438748D01*
X110735263Y-103601916D01*
X110689464Y-103749595D01*
X110573033Y-103812000D01*
X110388991Y-103755781D01*
X110320468Y-103699220D01*
X110283527Y-103549122D01*
X110358214Y-103401930D01*
X110497922Y-103320851D01*
X110592756Y-103329919D01*
G37*
G36*
X115747256Y-88163895D02*
G01*
X115915485Y-88247384D01*
X115960448Y-88392185D01*
X115869986Y-88536430D01*
X115825998Y-88564508D01*
X115663548Y-88605138D01*
X115557418Y-88528966D01*
X115489566Y-88353509D01*
X115554378Y-88212038D01*
X115722343Y-88161302D01*
X115747256Y-88163895D01*
G37*
G36*
X81783159Y-60100935D02*
G01*
X81860667Y-60166333D01*
X81906893Y-60324027D01*
X81822925Y-60466773D01*
X81644130Y-60544106D01*
X81593642Y-60547333D01*
X81435303Y-60488862D01*
X81383284Y-60420333D01*
X81369327Y-60215983D01*
X81472332Y-60072793D01*
X81593642Y-60039333D01*
X81783159Y-60100935D01*
G37*
G36*
X85960947Y-107541987D02*
G01*
X86063304Y-107700661D01*
X86067901Y-107892046D01*
X86005958Y-108007067D01*
X85830357Y-108121220D01*
X85635145Y-108067921D01*
X85545485Y-107992723D01*
X85438679Y-107795033D01*
X85494736Y-107603728D01*
X85607167Y-107504508D01*
X85796884Y-107461457D01*
X85960947Y-107541987D01*
G37*
G36*
X114685514Y-92026606D02*
G01*
X114776085Y-92187723D01*
X114769616Y-92377965D01*
X114665302Y-92522173D01*
X114492431Y-92622137D01*
X114362033Y-92598339D01*
X114251714Y-92502952D01*
X114135919Y-92301496D01*
X114167913Y-92117073D01*
X114327854Y-91990699D01*
X114514987Y-91958667D01*
X114685514Y-92026606D01*
G37*
G36*
X74914604Y-87621710D02*
G01*
X75002323Y-87682689D01*
X75150795Y-87876600D01*
X75136306Y-88058747D01*
X75038952Y-88184952D01*
X74826019Y-88304832D01*
X74606394Y-88282881D01*
X74511600Y-88216400D01*
X74406014Y-88022740D01*
X74428131Y-87828800D01*
X74543341Y-87672221D01*
X74717035Y-87590644D01*
X74914604Y-87621710D01*
G37*
G36*
X75239457Y-80666989D02*
G01*
X75377820Y-80811262D01*
X75388013Y-81022497D01*
X75384956Y-81032604D01*
X75273855Y-81154966D01*
X75087487Y-81208701D01*
X74899051Y-81187585D01*
X74781746Y-81085391D01*
X74781182Y-81083945D01*
X74754989Y-80848082D01*
X74862254Y-80683377D01*
X75010638Y-80630219D01*
X75239457Y-80666989D01*
G37*
G36*
X99280833Y-108520508D02*
G01*
X99424789Y-108686437D01*
X99447018Y-108883074D01*
X99360871Y-109054052D01*
X99179700Y-109143010D01*
X99132667Y-109146000D01*
X98953715Y-109084936D01*
X98882042Y-109023067D01*
X98808030Y-108834205D01*
X98854102Y-108649919D01*
X98984206Y-108515644D01*
X99162289Y-108476816D01*
X99280833Y-108520508D01*
G37*
G36*
X111792950Y-63270570D02*
G01*
X112020701Y-63365430D01*
X112142456Y-63551932D01*
X112137867Y-63777076D01*
X112046653Y-63931436D01*
X111853987Y-64079956D01*
X111668254Y-64067716D01*
X111494000Y-63934000D01*
X111355108Y-63708722D01*
X111358613Y-63494108D01*
X111485392Y-63332596D01*
X111716322Y-63266624D01*
X111792950Y-63270570D01*
G37*
G36*
X116119778Y-95334332D02*
G01*
X116253791Y-95491172D01*
X116276817Y-95710017D01*
X116198069Y-95899812D01*
X116009790Y-96073598D01*
X115777664Y-96084264D01*
X115621500Y-96015885D01*
X115498880Y-95859778D01*
X115475012Y-95642241D01*
X115546719Y-95437061D01*
X115650552Y-95341113D01*
X115907718Y-95273107D01*
X116119778Y-95334332D01*
G37*
G36*
X67919952Y-78525899D02*
G01*
X68096286Y-78629714D01*
X68220684Y-78841403D01*
X68208801Y-79048648D01*
X68091160Y-79217864D01*
X67898288Y-79315464D01*
X67660707Y-79307861D01*
X67530833Y-79251885D01*
X67419312Y-79102339D01*
X67385240Y-78880684D01*
X67434412Y-78668233D01*
X67484267Y-78598267D01*
X67681473Y-78506311D01*
X67919952Y-78525899D01*
G37*
G36*
X82495856Y-104270149D02*
G01*
X82656469Y-104376072D01*
X82708971Y-104547781D01*
X82664195Y-104730540D01*
X82532978Y-104869615D01*
X82368667Y-104912667D01*
X82190890Y-104856180D01*
X82131600Y-104811067D01*
X82045616Y-104642274D01*
X82041016Y-104443579D01*
X82114146Y-104292821D01*
X82157189Y-104265878D01*
X82334659Y-104247712D01*
X82495856Y-104270149D01*
G37*
G36*
X97726616Y-67125933D02*
G01*
X97817232Y-67205008D01*
X97848280Y-67353813D01*
X97810806Y-67578849D01*
X97672680Y-67718363D01*
X97484364Y-67748823D01*
X97296324Y-67646699D01*
X97273867Y-67621660D01*
X97203457Y-67443586D01*
X97200000Y-67304160D01*
X97249795Y-67169501D01*
X97381650Y-67115683D01*
X97524000Y-67109000D01*
X97726616Y-67125933D01*
G37*
G36*
X100362269Y-70501054D02*
G01*
X100531920Y-70627452D01*
X100635212Y-70823011D01*
X100643760Y-71037782D01*
X100555067Y-71198400D01*
X100354092Y-71295125D01*
X100127144Y-71259662D01*
X99938881Y-71102860D01*
X99932934Y-71094011D01*
X99856812Y-70852625D01*
X99933208Y-70638971D01*
X100146045Y-70496572D01*
X100154644Y-70493769D01*
X100362269Y-70501054D01*
G37*
G36*
X80015198Y-96353956D02*
G01*
X80218828Y-96509317D01*
X80328528Y-96761142D01*
X80336667Y-96862259D01*
X80264910Y-97113756D01*
X80082276Y-97291446D01*
X79837723Y-97377444D01*
X79580206Y-97353865D01*
X79369776Y-97215487D01*
X79257068Y-96978736D01*
X79283673Y-96713961D01*
X79440664Y-96474985D01*
X79500992Y-96424272D01*
X79761348Y-96317971D01*
X80015198Y-96353956D01*
G37*
G36*
X95099266Y-105368535D02*
G01*
X95254392Y-105498724D01*
X95284859Y-105542691D01*
X95376368Y-105710133D01*
X95365074Y-105839344D01*
X95288119Y-105971000D01*
X95091660Y-106144660D01*
X94856669Y-106167984D01*
X94627283Y-106038419D01*
X94600680Y-106010769D01*
X94491235Y-105789501D01*
X94525377Y-105573296D01*
X94682995Y-105410532D01*
X94874483Y-105352191D01*
X95099266Y-105368535D01*
G37*
G36*
X105180146Y-71478710D02*
G01*
X105242931Y-71550591D01*
X105343665Y-71731003D01*
X105311792Y-71895481D01*
X105309125Y-71900529D01*
X105170178Y-72018221D01*
X104970046Y-72064576D01*
X104796882Y-72022190D01*
X104777111Y-72005555D01*
X104715895Y-71841272D01*
X104755743Y-71638592D01*
X104877572Y-71478445D01*
X104905494Y-71461041D01*
X105058162Y-71410145D01*
X105180146Y-71478710D01*
G37*
G36*
X109103038Y-107098700D02*
G01*
X109251933Y-107260522D01*
X109292667Y-107398719D01*
X109228832Y-107506662D01*
X109087003Y-107627969D01*
X108941693Y-107702414D01*
X108911667Y-107706667D01*
X108762918Y-107651151D01*
X108663714Y-107573619D01*
X108554089Y-107447304D01*
X108548273Y-107339275D01*
X108618312Y-107193100D01*
X108769972Y-107061253D01*
X108911667Y-107029333D01*
X109103038Y-107098700D01*
G37*
G36*
X84267274Y-71195327D02*
G01*
X84477767Y-71353703D01*
X84623089Y-71552385D01*
X84654667Y-71677765D01*
X84585905Y-71954825D01*
X84409213Y-72152871D01*
X84168977Y-72248372D01*
X83909582Y-72217798D01*
X83778970Y-72142004D01*
X83616824Y-71928750D01*
X83570675Y-71673714D01*
X83627751Y-71424445D01*
X83775283Y-71228492D01*
X84000500Y-71133406D01*
X84050582Y-71130667D01*
X84267274Y-71195327D01*
G37*
G36*
X105882898Y-103855005D02*
G01*
X106075407Y-103982126D01*
X106176014Y-104194097D01*
X106181167Y-104262842D01*
X106120092Y-104540403D01*
X105937261Y-104700323D01*
X105685918Y-104743333D01*
X105437639Y-104697538D01*
X105265394Y-104534767D01*
X105256822Y-104521910D01*
X105163597Y-104346012D01*
X105174867Y-104201494D01*
X105236344Y-104077410D01*
X105415129Y-103893180D01*
X105646726Y-103822200D01*
X105882898Y-103855005D01*
G37*
G36*
X79441691Y-75758442D02*
G01*
X79456158Y-75767463D01*
X79631893Y-75973197D01*
X79687251Y-76235263D01*
X79624776Y-76495250D01*
X79447012Y-76694744D01*
X79414952Y-76713519D01*
X79179095Y-76795332D01*
X78963798Y-76748783D01*
X78781751Y-76627855D01*
X78598969Y-76397566D01*
X78574072Y-76140386D01*
X78709539Y-75891171D01*
X78728000Y-75872000D01*
X78945181Y-75745954D01*
X79211632Y-75704002D01*
X79441691Y-75758442D01*
G37*
G36*
X97659978Y-99991032D02*
G01*
X97841466Y-100172320D01*
X97941332Y-100401483D01*
X97947333Y-100467667D01*
X97888446Y-100686671D01*
X97778000Y-100848667D01*
X97576297Y-100976761D01*
X97397000Y-101018000D01*
X97177995Y-100959113D01*
X97016000Y-100848667D01*
X96888084Y-100649531D01*
X96846667Y-100473812D01*
X96918572Y-100269397D01*
X97095170Y-100074492D01*
X97317783Y-99943149D01*
X97450751Y-99917333D01*
X97659978Y-99991032D01*
G37*
G36*
X79547135Y-57096765D02*
G01*
X79574667Y-57192954D01*
X79631286Y-57320545D01*
X79773257Y-57500460D01*
X79838073Y-57567436D01*
X80101479Y-57824964D01*
X79770408Y-58169510D01*
X79439337Y-58514057D01*
X79077321Y-58145189D01*
X78882108Y-57934392D01*
X78800939Y-57808179D01*
X78819718Y-57740432D01*
X78850317Y-57724513D01*
X78977700Y-57621868D01*
X79125727Y-57431565D01*
X79161361Y-57374352D01*
X79308461Y-57180781D01*
X79448151Y-57083381D01*
X79547135Y-57096765D01*
G37*
G36*
X97554251Y-55677352D02*
G01*
X97612731Y-55738119D01*
X97508707Y-55843077D01*
X97333500Y-55945391D01*
X97074951Y-56028834D01*
X96697684Y-56087188D01*
X96250644Y-56119078D01*
X95782778Y-56123127D01*
X95343031Y-56097960D01*
X94980350Y-56042202D01*
X94878167Y-56014404D01*
X94647265Y-55926239D01*
X94501818Y-55843432D01*
X94476000Y-55807833D01*
X94555100Y-55777192D01*
X94770421Y-55755694D01*
X95088992Y-55745545D01*
X95386167Y-55746895D01*
X95853508Y-55746743D01*
X96344112Y-55732304D01*
X96780778Y-55706370D01*
X96952500Y-55690219D01*
X97333946Y-55661233D01*
X97554251Y-55677352D01*
G37*
G36*
X97585657Y-54845457D02*
G01*
X97602833Y-54922120D01*
X97581212Y-54993422D01*
X97453057Y-55115208D01*
X97192575Y-55218096D01*
X96836091Y-55298367D01*
X96419930Y-55352302D01*
X95980416Y-55376180D01*
X95553875Y-55366281D01*
X95176630Y-55318885D01*
X94962031Y-55261651D01*
X94638669Y-55121737D01*
X94461981Y-54996748D01*
X94430993Y-54903793D01*
X94544732Y-54859983D01*
X94802226Y-54882427D01*
X94981284Y-54922980D01*
X95510388Y-55020564D01*
X96056844Y-55031444D01*
X96675555Y-54955298D01*
X96901425Y-54911745D01*
X97260025Y-54843282D01*
X97479745Y-54820182D01*
X97585657Y-54845457D01*
G37*
G36*
X100148667Y-86328333D02*
G01*
X100148667Y-90942667D01*
X96056444Y-90942667D01*
X95239734Y-90941533D01*
X94475031Y-90938282D01*
X93778942Y-90933141D01*
X93168072Y-90926334D01*
X92659027Y-90918088D01*
X92268411Y-90908629D01*
X92012832Y-90898183D01*
X91908894Y-90886976D01*
X91907778Y-90886222D01*
X91897103Y-90793233D01*
X91887089Y-90546617D01*
X91877925Y-90162079D01*
X91869806Y-89655323D01*
X91862922Y-89042056D01*
X91857466Y-88337982D01*
X91853630Y-87558806D01*
X91851606Y-86720234D01*
X91851333Y-86271889D01*
X91851333Y-81714000D01*
X96000000Y-81714000D01*
X100148667Y-81714000D01*
X100148667Y-86328333D01*
G37*
G36*
X97556711Y-56417939D02*
G01*
X97599191Y-56461091D01*
X97593644Y-56493400D01*
X97467417Y-56638611D01*
X97208334Y-56764328D01*
X96852299Y-56864963D01*
X96435218Y-56934923D01*
X95992997Y-56968620D01*
X95561540Y-56960461D01*
X95176754Y-56904857D01*
X95092096Y-56882899D01*
X94836570Y-56787228D01*
X94636255Y-56674760D01*
X94598274Y-56642654D01*
X94554734Y-56586665D01*
X94571011Y-56548826D01*
X94670259Y-56526044D01*
X94875635Y-56515223D01*
X95210294Y-56513269D01*
X95548511Y-56515654D01*
X96016071Y-56513547D01*
X96473896Y-56500323D01*
X96867822Y-56478191D01*
X97132589Y-56451067D01*
X97411702Y-56415564D01*
X97556711Y-56417939D01*
G37*
G36*
X112909975Y-58081394D02*
G01*
X112961871Y-58262429D01*
X112969613Y-58301174D01*
X113124191Y-58689203D01*
X113411569Y-59002097D01*
X113800563Y-59206959D01*
X113839602Y-59219006D01*
X114223638Y-59330985D01*
X113797059Y-59508263D01*
X113463336Y-59686220D01*
X113232248Y-59918664D01*
X113073932Y-60245911D01*
X112977045Y-60615317D01*
X112876774Y-61097667D01*
X112771875Y-60609987D01*
X112606902Y-60122865D01*
X112343249Y-59765199D01*
X111968173Y-59520536D01*
X111908492Y-59495341D01*
X111560354Y-59356044D01*
X112014010Y-59126188D01*
X112285239Y-58973275D01*
X112453558Y-58820288D01*
X112574441Y-58607260D01*
X112637000Y-58452775D01*
X112738169Y-58210694D01*
X112822422Y-58049192D01*
X112860411Y-58008275D01*
X112909975Y-58081394D01*
G37*
G36*
X115836214Y-87079906D02*
G01*
X116039026Y-87214288D01*
X116186883Y-87319629D01*
X116294557Y-87329044D01*
X116439980Y-87240253D01*
X116493340Y-87200983D01*
X116673890Y-87088346D01*
X116794950Y-87083546D01*
X116866793Y-87129728D01*
X116986616Y-87317371D01*
X116944221Y-87534934D01*
X116856408Y-87656054D01*
X116771551Y-87771584D01*
X116786875Y-87871710D01*
X116913155Y-88022183D01*
X116917075Y-88026359D01*
X117047698Y-88198001D01*
X117055962Y-88329603D01*
X117027758Y-88385305D01*
X116929353Y-88497438D01*
X116811401Y-88522547D01*
X116652333Y-88450187D01*
X116430580Y-88269910D01*
X116124574Y-87971271D01*
X116080925Y-87926736D01*
X115799562Y-87631452D01*
X115626594Y-87427906D01*
X115546095Y-87292867D01*
X115542137Y-87203106D01*
X115562125Y-87170029D01*
X115690758Y-87064872D01*
X115836214Y-87079906D01*
G37*
G36*
X116180856Y-61884242D02*
G01*
X116233780Y-62182747D01*
X116299958Y-62441070D01*
X116334351Y-62534686D01*
X116405198Y-62652436D01*
X116518739Y-62746480D01*
X116714554Y-62840796D01*
X117032223Y-62959364D01*
X117039667Y-62961997D01*
X117133972Y-63008360D01*
X117097192Y-63054834D01*
X116936002Y-63118100D01*
X116604982Y-63292210D01*
X116384615Y-63557518D01*
X116250043Y-63945817D01*
X116236434Y-64012862D01*
X116183546Y-64270579D01*
X116139203Y-64449884D01*
X116119774Y-64501115D01*
X116094349Y-64442738D01*
X116060762Y-64260955D01*
X116038141Y-64092288D01*
X115932127Y-63676050D01*
X115717466Y-63381305D01*
X115377292Y-63187245D01*
X115277726Y-63154125D01*
X114944977Y-63054431D01*
X115272655Y-62941181D01*
X115571191Y-62808501D01*
X115772235Y-62630098D01*
X115907812Y-62364289D01*
X116006573Y-61985896D01*
X116119641Y-61436333D01*
X116180856Y-61884242D01*
G37*
G36*
X123039217Y-72273492D02*
G01*
X123078118Y-72457817D01*
X123093333Y-72685086D01*
X123152992Y-73022581D01*
X123328460Y-73239362D01*
X123614475Y-73329630D01*
X123680434Y-73332000D01*
X123916455Y-73360843D01*
X124083413Y-73431944D01*
X124101063Y-73449035D01*
X124130942Y-73528758D01*
X124049549Y-73596906D01*
X123830469Y-73674238D01*
X123804756Y-73681869D01*
X123423583Y-73855157D01*
X123188764Y-74110434D01*
X123095469Y-74453414D01*
X123093333Y-74523754D01*
X123070644Y-74757557D01*
X123014288Y-74888800D01*
X122941829Y-74893015D01*
X122890538Y-74806256D01*
X122845999Y-74605520D01*
X122839333Y-74506204D01*
X122778518Y-74226557D01*
X122623938Y-73975521D01*
X122417396Y-73814201D01*
X122350960Y-73792306D01*
X122095153Y-73716687D01*
X121922853Y-73646394D01*
X121789445Y-73568448D01*
X121799584Y-73502311D01*
X121875535Y-73441314D01*
X122073658Y-73357726D01*
X122259551Y-73332000D01*
X122530192Y-73255490D01*
X122732637Y-73050918D01*
X122834520Y-72755721D01*
X122840630Y-72659868D01*
X122861500Y-72409652D01*
X122911920Y-72244521D01*
X122977256Y-72192944D01*
X123039217Y-72273492D01*
G37*
G36*
X72637436Y-65820135D02*
G01*
X72717478Y-66171411D01*
X72803234Y-66477875D01*
X72879294Y-66686094D01*
X72896873Y-66719708D01*
X73118451Y-66944285D01*
X73468264Y-67129535D01*
X73906482Y-67256812D01*
X74113535Y-67289235D01*
X74379819Y-67340539D01*
X74482473Y-67401707D01*
X74421486Y-67456356D01*
X74196847Y-67488105D01*
X74113667Y-67490563D01*
X73771728Y-67553484D01*
X73407500Y-67709788D01*
X73098013Y-67922161D01*
X72990113Y-68034841D01*
X72873108Y-68247923D01*
X72767228Y-68547399D01*
X72720179Y-68743978D01*
X72655084Y-69084002D01*
X72589992Y-69417110D01*
X72560589Y-69564333D01*
X72492022Y-69903000D01*
X72427457Y-69395000D01*
X72326116Y-68784837D01*
X72185976Y-68321770D01*
X71989514Y-67984901D01*
X71719205Y-67753334D01*
X71357528Y-67606173D01*
X70886957Y-67522521D01*
X70854267Y-67519002D01*
X70590559Y-67487356D01*
X70414915Y-67458367D01*
X70367222Y-67440556D01*
X70456076Y-67412564D01*
X70668198Y-67361349D01*
X70960857Y-67297120D01*
X71015679Y-67285614D01*
X71483162Y-67167622D01*
X71821833Y-67019196D01*
X72058706Y-66810318D01*
X72220797Y-66510971D01*
X72335122Y-66091139D01*
X72394403Y-65753702D01*
X72494124Y-65112269D01*
X72637436Y-65820135D01*
G37*
G36*
X119672315Y-65782521D02*
G01*
X119714433Y-65988674D01*
X119762713Y-66262333D01*
X119895618Y-66861809D01*
X120073769Y-67319911D01*
X120319572Y-67663051D01*
X120655436Y-67917643D01*
X121103768Y-68110097D01*
X121405583Y-68198815D01*
X121627864Y-68260677D01*
X121732941Y-68309742D01*
X121709985Y-68359373D01*
X121548170Y-68422930D01*
X121236667Y-68513774D01*
X121125210Y-68544792D01*
X120732540Y-68698047D01*
X120382932Y-68914584D01*
X120119568Y-69162555D01*
X119994204Y-69379048D01*
X119954949Y-69540486D01*
X119898071Y-69822229D01*
X119832756Y-70177381D01*
X119795324Y-70394381D01*
X119655675Y-71224429D01*
X119547928Y-70463154D01*
X119430038Y-69846005D01*
X119260948Y-69371914D01*
X119021835Y-69017732D01*
X118693880Y-68760309D01*
X118258258Y-68576493D01*
X117947006Y-68494068D01*
X117687497Y-68425254D01*
X117586033Y-68363557D01*
X117644988Y-68297448D01*
X117866737Y-68215398D01*
X118013333Y-68172173D01*
X118562317Y-67972222D01*
X118957741Y-67725992D01*
X119191011Y-67460053D01*
X119271898Y-67312455D01*
X119339908Y-67139722D01*
X119403398Y-66909540D01*
X119470723Y-66589598D01*
X119550237Y-66147581D01*
X119588285Y-65923667D01*
X119617693Y-65766426D01*
X119642886Y-65713908D01*
X119672315Y-65782521D01*
G37*
G36*
X77365366Y-59665956D02*
G01*
X77389903Y-59873253D01*
X77447539Y-60183040D01*
X77526712Y-60534471D01*
X77542317Y-60597290D01*
X77704919Y-61101920D01*
X77919473Y-61471833D01*
X78216368Y-61735922D01*
X78625992Y-61923082D01*
X79056650Y-62037133D01*
X79371042Y-62110363D01*
X79609877Y-62176790D01*
X79734508Y-62225248D01*
X79744000Y-62235714D01*
X79667972Y-62276564D01*
X79469743Y-62332627D01*
X79223860Y-62385438D01*
X78638051Y-62544026D01*
X78180240Y-62769331D01*
X77864675Y-63053434D01*
X77777375Y-63189553D01*
X77691028Y-63415220D01*
X77599381Y-63750074D01*
X77517743Y-64135227D01*
X77491476Y-64289192D01*
X77434949Y-64640886D01*
X77386291Y-64930463D01*
X77352610Y-65116228D01*
X77343329Y-65158116D01*
X77322164Y-65117720D01*
X77285494Y-64941812D01*
X77239580Y-64662809D01*
X77214775Y-64492366D01*
X77103936Y-63869179D01*
X76956384Y-63390791D01*
X76754359Y-63033733D01*
X76480101Y-62774533D01*
X76115849Y-62589723D01*
X75679734Y-62463805D01*
X75360916Y-62395022D01*
X75095166Y-62343477D01*
X74935984Y-62319483D01*
X74928781Y-62319030D01*
X74939367Y-62296028D01*
X75085250Y-62239954D01*
X75338035Y-62161079D01*
X75468333Y-62123879D01*
X75991692Y-61965405D01*
X76377803Y-61804880D01*
X76655361Y-61611501D01*
X76853058Y-61354463D01*
X76999590Y-61002959D01*
X77123649Y-60526187D01*
X77173444Y-60293333D01*
X77246839Y-59963237D01*
X77307774Y-59735603D01*
X77349565Y-59632275D01*
X77365366Y-59665956D01*
G37*
G36*
X69519490Y-71336408D02*
G01*
X69568198Y-71532833D01*
X69617021Y-71741262D01*
X69699533Y-71807312D01*
X69795667Y-71723333D01*
X69908792Y-71645722D01*
X70035697Y-71660063D01*
X70092000Y-71751671D01*
X70033202Y-71876161D01*
X69887089Y-72045120D01*
X69838000Y-72090991D01*
X69669519Y-72274972D01*
X69596796Y-72476347D01*
X69584000Y-72697653D01*
X69592764Y-72924731D01*
X69614931Y-73060737D01*
X69628016Y-73078000D01*
X69791211Y-73018908D01*
X70004062Y-72872504D01*
X70212204Y-72685093D01*
X70361276Y-72502982D01*
X70398408Y-72421781D01*
X70468430Y-72211002D01*
X70536601Y-72084099D01*
X70648511Y-72012572D01*
X70726611Y-72076242D01*
X70739901Y-72240995D01*
X70729005Y-72295822D01*
X70699342Y-72439844D01*
X70738976Y-72461503D01*
X70882766Y-72375005D01*
X70898318Y-72364819D01*
X71091168Y-72275059D01*
X71241631Y-72264496D01*
X71241840Y-72264576D01*
X71354163Y-72367330D01*
X71331470Y-72504304D01*
X71188871Y-72631386D01*
X71103317Y-72668986D01*
X70933006Y-72735542D01*
X70906819Y-72789991D01*
X71008224Y-72873736D01*
X71018650Y-72881049D01*
X71174702Y-73021461D01*
X71172436Y-73109042D01*
X71015562Y-73140161D01*
X70773670Y-73120930D01*
X70461761Y-73100129D01*
X70229318Y-73149152D01*
X70096337Y-73215906D01*
X69925012Y-73329975D01*
X69840026Y-73411776D01*
X69838000Y-73419331D01*
X69905033Y-73487112D01*
X70074913Y-73600816D01*
X70180591Y-73662699D01*
X70401584Y-73776935D01*
X70559034Y-73810018D01*
X70733847Y-73769161D01*
X70854258Y-73722775D01*
X71096170Y-73656497D01*
X71238220Y-73674867D01*
X71259256Y-73761837D01*
X71138122Y-73901361D01*
X71114216Y-73919978D01*
X70926745Y-74061387D01*
X71144372Y-74160545D01*
X71312188Y-74288901D01*
X71360854Y-74439057D01*
X71279820Y-74558130D01*
X71156191Y-74556792D01*
X70961983Y-74486559D01*
X70934348Y-74472766D01*
X70671056Y-74336613D01*
X70699028Y-74567752D01*
X70693343Y-74765849D01*
X70628553Y-74824027D01*
X70531120Y-74748494D01*
X70427510Y-74545451D01*
X70411747Y-74500400D01*
X70281257Y-74221526D01*
X70075860Y-74024142D01*
X69937614Y-73939490D01*
X69584000Y-73742646D01*
X69584000Y-74104792D01*
X69614305Y-74385323D01*
X69730908Y-74606800D01*
X69847518Y-74738820D01*
X70001204Y-74935289D01*
X70053901Y-75083672D01*
X70006314Y-75155143D01*
X69859150Y-75120878D01*
X69838428Y-75110229D01*
X69680573Y-75038921D01*
X69606432Y-75073168D01*
X69573537Y-75241847D01*
X69568198Y-75293980D01*
X69511934Y-75510474D01*
X69412503Y-75605210D01*
X69303542Y-75563319D01*
X69260864Y-75443462D01*
X69245333Y-75265222D01*
X69216891Y-75072282D01*
X69129180Y-75037169D01*
X69008267Y-75126933D01*
X68894618Y-75183534D01*
X68800833Y-75119970D01*
X68758003Y-75028366D01*
X68823708Y-74914537D01*
X68970167Y-74779370D01*
X69145718Y-74605643D01*
X69225755Y-74427458D01*
X69245313Y-74164849D01*
X69245333Y-74151334D01*
X69236870Y-73918886D01*
X69215376Y-73776444D01*
X69201185Y-73755333D01*
X69057619Y-73809569D01*
X68862679Y-73943031D01*
X68668031Y-74111849D01*
X68525347Y-74272156D01*
X68483333Y-74364817D01*
X68448154Y-74567842D01*
X68363919Y-74735699D01*
X68262579Y-74815117D01*
X68218225Y-74806801D01*
X68169650Y-74693298D01*
X68181753Y-74550430D01*
X68206298Y-74395800D01*
X68154728Y-74360608D01*
X68002266Y-74438329D01*
X67930675Y-74484309D01*
X67728419Y-74566693D01*
X67556554Y-74556699D01*
X67469717Y-74460251D01*
X67467333Y-74434079D01*
X67533151Y-74335560D01*
X67695035Y-74207820D01*
X67729887Y-74185842D01*
X67894478Y-74078399D01*
X67925297Y-74020120D01*
X67835835Y-73976572D01*
X67814554Y-73969715D01*
X67672685Y-73872135D01*
X67636667Y-73781378D01*
X67662491Y-73707821D01*
X67759980Y-73686356D01*
X67959157Y-73717755D01*
X68271667Y-73797738D01*
X68437339Y-73785853D01*
X68650922Y-73705175D01*
X68850946Y-73588002D01*
X68975940Y-73466627D01*
X68991333Y-73419632D01*
X68917968Y-73313555D01*
X68737965Y-73203324D01*
X68511458Y-73114104D01*
X68298586Y-73071065D01*
X68187000Y-73083007D01*
X67942037Y-73147972D01*
X67743751Y-73143541D01*
X67641461Y-73073072D01*
X67636667Y-73045541D01*
X67708125Y-72934683D01*
X67827167Y-72876202D01*
X68017667Y-72823989D01*
X67806750Y-72716034D01*
X67640298Y-72586765D01*
X67567659Y-72461784D01*
X67598660Y-72316179D01*
X67727660Y-72259611D01*
X67901325Y-72305138D01*
X67978487Y-72361187D01*
X68093041Y-72453585D01*
X68137299Y-72424022D01*
X68144666Y-72249034D01*
X68144667Y-72244455D01*
X68172958Y-72035411D01*
X68243629Y-71971826D01*
X68335376Y-72042255D01*
X68426892Y-72235257D01*
X68476506Y-72422692D01*
X68583584Y-72643763D01*
X68825138Y-72845671D01*
X68886329Y-72883180D01*
X69245333Y-73095194D01*
X69245333Y-72677259D01*
X69229086Y-72401051D01*
X69159862Y-72216440D01*
X69006939Y-72047158D01*
X68982724Y-72025338D01*
X68818183Y-71852077D01*
X68788242Y-71736350D01*
X68813391Y-71698076D01*
X68930012Y-71652724D01*
X69008267Y-71706400D01*
X69139924Y-71799009D01*
X69219241Y-71744327D01*
X69261135Y-71532833D01*
X69317790Y-71322165D01*
X69414667Y-71257667D01*
X69519490Y-71336408D01*
G37*
G36*
X96388686Y-44350143D02*
G01*
X96676617Y-44382992D01*
X96933819Y-44455902D01*
X97229388Y-44582986D01*
X97270932Y-44602650D01*
X97899054Y-44993206D01*
X98435972Y-45514769D01*
X98856873Y-46142568D01*
X98901770Y-46230683D01*
X99034997Y-46516519D01*
X99115114Y-46749216D01*
X99154302Y-46990452D01*
X99164746Y-47301906D01*
X99162260Y-47549472D01*
X99147540Y-47920613D01*
X99109928Y-48247202D01*
X99038641Y-48583946D01*
X98922896Y-48985549D01*
X98811497Y-49329000D01*
X98628446Y-49841225D01*
X98401110Y-50421986D01*
X98162493Y-50989150D01*
X98002121Y-51343215D01*
X97530767Y-52341430D01*
X97744562Y-52422715D01*
X97959847Y-52488145D01*
X98129279Y-52477702D01*
X98312384Y-52375627D01*
X98503593Y-52221746D01*
X99571211Y-51405939D01*
X100652568Y-50758464D01*
X101748910Y-50278784D01*
X102861481Y-49966360D01*
X103991527Y-49820653D01*
X104061951Y-49817107D01*
X104960663Y-49817674D01*
X105732787Y-49914174D01*
X106397098Y-50115683D01*
X106972368Y-50431276D01*
X107477369Y-50870030D01*
X107930876Y-51441022D01*
X108153847Y-51795368D01*
X108624021Y-52697353D01*
X108975619Y-53589425D01*
X109205977Y-54454743D01*
X109312431Y-55276464D01*
X109292317Y-56037749D01*
X109142969Y-56721756D01*
X108990907Y-57086709D01*
X108587164Y-57701460D01*
X108036450Y-58254508D01*
X107352852Y-58736446D01*
X106550454Y-59137866D01*
X105643343Y-59449359D01*
X105335996Y-59527863D01*
X104892991Y-59632172D01*
X105135530Y-59983919D01*
X105303402Y-60203469D01*
X105558980Y-60508599D01*
X105876730Y-60871591D01*
X106231121Y-61264722D01*
X106596619Y-61660272D01*
X106947691Y-62030521D01*
X107258805Y-62347746D01*
X107504429Y-62584228D01*
X107628569Y-62690603D01*
X107811361Y-62851039D01*
X108037285Y-63078774D01*
X108276385Y-63339516D01*
X108498704Y-63598972D01*
X108674285Y-63822851D01*
X108773171Y-63976859D01*
X108784667Y-64014004D01*
X108740679Y-64093875D01*
X108596217Y-64132073D01*
X108332534Y-64129330D01*
X107930882Y-64086376D01*
X107712089Y-64055873D01*
X107251920Y-63990295D01*
X106757809Y-63922403D01*
X106316713Y-63864078D01*
X106202333Y-63849548D01*
X105839193Y-63802532D01*
X105504767Y-63756588D01*
X105264159Y-63720700D01*
X105241499Y-63716961D01*
X105051616Y-63702739D01*
X105003373Y-63739019D01*
X105082569Y-63810064D01*
X105275005Y-63900138D01*
X105465137Y-63964783D01*
X105937695Y-64124214D01*
X106516817Y-64346958D01*
X107160382Y-64615294D01*
X107826269Y-64911498D01*
X108472358Y-65217847D01*
X108635540Y-65298796D01*
X110451579Y-66302567D01*
X112173928Y-67442317D01*
X113796908Y-68709360D01*
X115314839Y-70095011D01*
X116722042Y-71590584D01*
X118012837Y-73187392D01*
X119181545Y-74876751D01*
X120222487Y-76649973D01*
X121129983Y-78498375D01*
X121898354Y-80413269D01*
X122521920Y-82385970D01*
X122995003Y-84407792D01*
X123311922Y-86470049D01*
X123438037Y-87937000D01*
X123468046Y-89848510D01*
X123341847Y-91792888D01*
X123064132Y-93750240D01*
X122639598Y-95700673D01*
X122072939Y-97624292D01*
X121368850Y-99501206D01*
X120532025Y-101311519D01*
X120082904Y-102153978D01*
X118994193Y-103934720D01*
X117774334Y-105612806D01*
X116430247Y-107183622D01*
X114968847Y-108642554D01*
X113397052Y-109984988D01*
X111721779Y-111206309D01*
X109949946Y-112301903D01*
X108088469Y-113267157D01*
X106144266Y-114097455D01*
X104124255Y-114788183D01*
X102035352Y-115334728D01*
X99884475Y-115732474D01*
X99683926Y-115761403D01*
X99290536Y-115806366D01*
X98782740Y-115848696D01*
X98190951Y-115887318D01*
X97545581Y-115921160D01*
X96877044Y-115949146D01*
X96215752Y-115970204D01*
X95592119Y-115983259D01*
X95036556Y-115987239D01*
X94579478Y-115981069D01*
X94251297Y-115963675D01*
X94179667Y-115955726D01*
X93988905Y-115932610D01*
X93678920Y-115897869D01*
X93298960Y-115856940D01*
X93036667Y-115829479D01*
X91017099Y-115539167D01*
X89014081Y-115091553D01*
X87041332Y-114493767D01*
X85112574Y-113752941D01*
X83241525Y-112876206D01*
X81441906Y-111870692D01*
X79727438Y-110743530D01*
X78111839Y-109501852D01*
X76608831Y-108152789D01*
X75232132Y-106703472D01*
X75032007Y-106471573D01*
X73694945Y-104778976D01*
X72513400Y-103022069D01*
X71483776Y-101194477D01*
X70602478Y-99289829D01*
X69876821Y-97335000D01*
X69285193Y-95279575D01*
X68862787Y-93226421D01*
X68609603Y-91176093D01*
X68525641Y-89129144D01*
X68535306Y-88897562D01*
X69967488Y-88897562D01*
X69972088Y-89803628D01*
X69998593Y-90663795D01*
X70047279Y-91437468D01*
X70118423Y-92084051D01*
X70118657Y-92085667D01*
X70393450Y-93710163D01*
X70734833Y-95219875D01*
X71156809Y-96660979D01*
X71673377Y-98079650D01*
X72298540Y-99522063D01*
X72506142Y-99959667D01*
X73434198Y-101689353D01*
X74511624Y-103352750D01*
X75727326Y-104937641D01*
X77070206Y-106431811D01*
X78529168Y-107823043D01*
X80093116Y-109099123D01*
X81750955Y-110247834D01*
X81984986Y-110394741D01*
X83734551Y-111383734D01*
X85582723Y-112246469D01*
X87507592Y-112975635D01*
X89487248Y-113563925D01*
X91499781Y-114004030D01*
X93523279Y-114288641D01*
X93714000Y-114307206D01*
X94200268Y-114338451D01*
X94813903Y-114356086D01*
X95516210Y-114360939D01*
X96268496Y-114353842D01*
X97032067Y-114335626D01*
X97768231Y-114307119D01*
X98438294Y-114269154D01*
X99003561Y-114222561D01*
X99302000Y-114187267D01*
X101480860Y-113802541D01*
X103577233Y-113272581D01*
X105588370Y-112598958D01*
X107511523Y-111783241D01*
X109343944Y-110827002D01*
X111082884Y-109731812D01*
X112725595Y-108499242D01*
X114269328Y-107130861D01*
X115711336Y-105628242D01*
X116980141Y-104083593D01*
X118044420Y-102562701D01*
X119005594Y-100938011D01*
X119851337Y-99236919D01*
X120569321Y-97486822D01*
X121147220Y-95715117D01*
X121572707Y-93949200D01*
X121597451Y-93821333D01*
X121737892Y-93054495D01*
X121845133Y-92389346D01*
X121923369Y-91779914D01*
X121976796Y-91180227D01*
X122009609Y-90544314D01*
X122026006Y-89826203D01*
X122030190Y-89080000D01*
X122027304Y-88353128D01*
X122016412Y-87754731D01*
X121995136Y-87244042D01*
X121961097Y-86780298D01*
X121911916Y-86322731D01*
X121845215Y-85830578D01*
X121837505Y-85778000D01*
X121448796Y-83707294D01*
X120904219Y-81699764D01*
X120207025Y-79760655D01*
X119360461Y-77895209D01*
X118367777Y-76108671D01*
X117232219Y-74406283D01*
X115957037Y-72793289D01*
X114545480Y-71274932D01*
X113000794Y-69856456D01*
X111326230Y-68543105D01*
X111028333Y-68330288D01*
X110375092Y-67896770D01*
X109653993Y-67464977D01*
X108888674Y-67045484D01*
X108102769Y-66648866D01*
X107319917Y-66285698D01*
X106563754Y-65966555D01*
X105857916Y-65702012D01*
X105226040Y-65502643D01*
X104691762Y-65379023D01*
X104348364Y-65341718D01*
X104093038Y-65341957D01*
X103961000Y-65373381D01*
X103906493Y-65457328D01*
X103890368Y-65555282D01*
X103888388Y-65666519D01*
X103933101Y-65750201D01*
X104054703Y-65826730D01*
X104283392Y-65916508D01*
X104567701Y-66012894D01*
X106336065Y-66687610D01*
X108051822Y-67517079D01*
X109704732Y-68492104D01*
X111284552Y-69603490D01*
X112781041Y-70842040D01*
X114183956Y-72198558D01*
X115483057Y-73663849D01*
X116668101Y-75228717D01*
X117728846Y-76883966D01*
X118655051Y-78620399D01*
X118689917Y-78693005D01*
X119452117Y-80431628D01*
X120059367Y-82144377D01*
X120517745Y-83857762D01*
X120833328Y-85598291D01*
X121012195Y-87392471D01*
X121061333Y-89035657D01*
X121020724Y-90594364D01*
X120893606Y-92054582D01*
X120672047Y-93467819D01*
X120348111Y-94885588D01*
X119951102Y-96243691D01*
X119257872Y-98138819D01*
X118418106Y-99954878D01*
X117438277Y-101685334D01*
X116324862Y-103323654D01*
X115084334Y-104863305D01*
X113723167Y-106297753D01*
X112247837Y-107620467D01*
X110664817Y-108824911D01*
X108980582Y-109904555D01*
X107201606Y-110852863D01*
X105334364Y-111663304D01*
X104297333Y-112039387D01*
X102269657Y-112639276D01*
X100232073Y-113070603D01*
X98188719Y-113333556D01*
X96143737Y-113428321D01*
X94101264Y-113355086D01*
X92065442Y-113114040D01*
X90040409Y-112705368D01*
X88030305Y-112129260D01*
X86039270Y-111385901D01*
X85586000Y-111191964D01*
X83995427Y-110416000D01*
X91004667Y-110416000D01*
X91030734Y-110675358D01*
X91133277Y-110881064D01*
X91292533Y-111059467D01*
X91608832Y-111286766D01*
X91944308Y-111347394D01*
X92312837Y-111243451D01*
X92358398Y-111220817D01*
X92670313Y-110980335D01*
X92836226Y-110654555D01*
X92867333Y-110388694D01*
X92838787Y-110147548D01*
X92730261Y-109942237D01*
X92562748Y-109755815D01*
X92258164Y-109451230D01*
X92267454Y-107181948D01*
X92273451Y-105717000D01*
X93463719Y-105717000D01*
X93541307Y-106135572D01*
X93752924Y-106534078D01*
X94066853Y-106857798D01*
X94163535Y-106924345D01*
X94535837Y-107156136D01*
X94585380Y-109145901D01*
X94600362Y-109779201D01*
X94609029Y-110264661D01*
X94610321Y-110623697D01*
X94603181Y-110877721D01*
X94586548Y-111048146D01*
X94559365Y-111156386D01*
X94520571Y-111223854D01*
X94480704Y-111262667D01*
X94252903Y-111538914D01*
X94158896Y-111854069D01*
X94197992Y-112166378D01*
X94369502Y-112434088D01*
X94501761Y-112536388D01*
X94861617Y-112681623D01*
X95191045Y-112661501D01*
X95447804Y-112511500D01*
X95631166Y-112266031D01*
X95715471Y-112016635D01*
X95725938Y-111790420D01*
X95653143Y-111601222D01*
X95518192Y-111423969D01*
X95272491Y-111135667D01*
X95306989Y-109146000D01*
X95341488Y-107156333D01*
X95716794Y-106924443D01*
X96075718Y-106611633D01*
X96311721Y-106212488D01*
X96412393Y-105764380D01*
X96365321Y-105304682D01*
X96308945Y-105141458D01*
X96182666Y-104931754D01*
X95988444Y-104702991D01*
X95769910Y-104497353D01*
X95570695Y-104357021D01*
X95459269Y-104320000D01*
X95410245Y-104286449D01*
X95368543Y-104178607D01*
X95333665Y-103985693D01*
X95305110Y-103696926D01*
X95282376Y-103301524D01*
X95264965Y-102788705D01*
X95252374Y-102147688D01*
X95244105Y-101367691D01*
X95239655Y-100437933D01*
X95239619Y-100410487D01*
X95902787Y-100410487D01*
X95914575Y-100772558D01*
X95979262Y-101063872D01*
X95999578Y-101108842D01*
X96288134Y-101527744D01*
X96650470Y-101797852D01*
X97101040Y-101927433D01*
X97453110Y-101940016D01*
X97961212Y-101919279D01*
X98426476Y-102696162D01*
X98891740Y-103473046D01*
X98830817Y-105624091D01*
X98769894Y-107775136D01*
X98570086Y-107866175D01*
X98391863Y-107999521D01*
X98219590Y-108205578D01*
X98201455Y-108234107D01*
X98055734Y-108618923D01*
X98059606Y-109011687D01*
X98201946Y-109373158D01*
X98471631Y-109664098D01*
X98634953Y-109763227D01*
X98984651Y-109886494D01*
X99314674Y-109878865D01*
X99599199Y-109786095D01*
X99921249Y-109570464D01*
X100128289Y-109264339D01*
X100217014Y-108904489D01*
X100184122Y-108527681D01*
X100026307Y-108170683D01*
X99769358Y-107892457D01*
X99556000Y-107724629D01*
X99556000Y-105487404D01*
X100508869Y-105487404D01*
X100525029Y-105673808D01*
X100656667Y-105844000D01*
X100862800Y-105990859D01*
X101047609Y-105977014D01*
X101203912Y-105847411D01*
X101312863Y-105620384D01*
X101300412Y-105467701D01*
X101178572Y-105271933D01*
X100975427Y-105187778D01*
X100748957Y-105230549D01*
X100653255Y-105296754D01*
X100508869Y-105487404D01*
X99556000Y-105487404D01*
X99556000Y-105440511D01*
X99556000Y-103156393D01*
X99141422Y-102521323D01*
X98889766Y-102134420D01*
X98719740Y-101860780D01*
X98621179Y-101671369D01*
X98583919Y-101537158D01*
X98597795Y-101429114D01*
X98652642Y-101318206D01*
X98695399Y-101247428D01*
X98891578Y-100793910D01*
X98924493Y-100333851D01*
X98876033Y-100072585D01*
X98672059Y-99588529D01*
X98352582Y-99223241D01*
X98041938Y-99032814D01*
X97907998Y-98971472D01*
X97808224Y-98909244D01*
X97735172Y-98821166D01*
X97681399Y-98682276D01*
X97639462Y-98467610D01*
X97601918Y-98152205D01*
X97561324Y-97711098D01*
X97526133Y-97302856D01*
X97488050Y-96895997D01*
X97450060Y-96550339D01*
X97416432Y-96301110D01*
X99169418Y-96301110D01*
X99188256Y-96545388D01*
X99228571Y-96891389D01*
X99286898Y-97306507D01*
X99309750Y-97454642D01*
X99495788Y-98634298D01*
X100436061Y-99444446D01*
X100811148Y-99768759D01*
X101177845Y-100087816D01*
X101498938Y-100369107D01*
X101737211Y-100580123D01*
X101776200Y-100615130D01*
X102176066Y-100975667D01*
X102187285Y-105237115D01*
X102189658Y-106195586D01*
X102190951Y-106998898D01*
X102190644Y-107661225D01*
X102188218Y-108196740D01*
X102183154Y-108619615D01*
X102174933Y-108944026D01*
X102163034Y-109184145D01*
X102146939Y-109354145D01*
X102126129Y-109468200D01*
X102100084Y-109540483D01*
X102068284Y-109585168D01*
X102030211Y-109616429D01*
X102026731Y-109618877D01*
X101881292Y-109782100D01*
X101765009Y-110012037D01*
X101761271Y-110023067D01*
X101718437Y-110375240D01*
X101837262Y-110677951D01*
X102115056Y-110927247D01*
X102450531Y-111054267D01*
X102774906Y-111012839D01*
X103084029Y-110803709D01*
X103142358Y-110743254D01*
X103300510Y-110536745D01*
X103350815Y-110349160D01*
X103336211Y-110180569D01*
X103252715Y-109919656D01*
X103118331Y-109703109D01*
X103115353Y-109699902D01*
X103077276Y-109655384D01*
X103045251Y-109600339D01*
X103018754Y-109520717D01*
X102997261Y-109402469D01*
X102980250Y-109231546D01*
X102967196Y-108993898D01*
X102957577Y-108675477D01*
X102950869Y-108262232D01*
X102949331Y-108076338D01*
X104557728Y-108076338D01*
X104586742Y-108467130D01*
X104696741Y-108731030D01*
X104866670Y-108925511D01*
X105110552Y-109106348D01*
X105183575Y-109146193D01*
X105403299Y-109253915D01*
X105541731Y-109300533D01*
X105672129Y-109294137D01*
X105867753Y-109242819D01*
X105921724Y-109227717D01*
X106267822Y-109049952D01*
X106536404Y-108754988D01*
X106702787Y-108386508D01*
X106742285Y-107988195D01*
X106715315Y-107823374D01*
X106597075Y-107576519D01*
X106395880Y-107343789D01*
X106162995Y-107173632D01*
X105964721Y-107114000D01*
X105770675Y-107049606D01*
X105695234Y-106923500D01*
X105645364Y-106799103D01*
X105610182Y-106829213D01*
X105593823Y-106884601D01*
X105494648Y-107009469D01*
X105296302Y-107135890D01*
X105223423Y-107168310D01*
X104890191Y-107385024D01*
X104663585Y-107701668D01*
X104557728Y-108076338D01*
X102949331Y-108076338D01*
X102946548Y-107740116D01*
X102944091Y-107095078D01*
X102942974Y-106313069D01*
X102942675Y-105380040D01*
X102942667Y-105064855D01*
X102942667Y-100613625D01*
X101568073Y-99412729D01*
X100193480Y-98211834D01*
X100046830Y-97223083D01*
X99989191Y-96830862D01*
X99941715Y-96500958D01*
X99909438Y-96268843D01*
X99909226Y-96267110D01*
X102619253Y-96267110D01*
X102664616Y-96479785D01*
X102685060Y-96548842D01*
X102736757Y-96814317D01*
X102770577Y-97174979D01*
X102779865Y-97557055D01*
X102779212Y-97592592D01*
X102763708Y-98273518D01*
X103784521Y-99491760D01*
X104805333Y-100710003D01*
X104805333Y-101400879D01*
X104820298Y-101788008D01*
X104859740Y-102165127D01*
X104915486Y-102456678D01*
X104922049Y-102479570D01*
X105038764Y-102867385D01*
X104745491Y-103149193D01*
X104445161Y-103483694D01*
X104278270Y-103802322D01*
X104223014Y-104156819D01*
X104230957Y-104370075D01*
X104350066Y-104854190D01*
X104615803Y-105257561D01*
X105020321Y-105568810D01*
X105079153Y-105600111D01*
X105504941Y-105734076D01*
X105925688Y-105721113D01*
X106318267Y-105582662D01*
X106659548Y-105340159D01*
X106926404Y-105015043D01*
X107095706Y-104628751D01*
X107144327Y-104202722D01*
X107053612Y-103769960D01*
X106859355Y-103420225D01*
X106580421Y-103113641D01*
X106264498Y-102895637D01*
X106058857Y-102822338D01*
X105861047Y-102737807D01*
X105719683Y-102562465D01*
X105628098Y-102276740D01*
X105579625Y-101861055D01*
X105573611Y-101625345D01*
X106241703Y-101625345D01*
X106277182Y-101827279D01*
X106392224Y-101925519D01*
X106581169Y-101941808D01*
X106770616Y-101877707D01*
X106843223Y-101815236D01*
X106904452Y-101644123D01*
X106825809Y-101495613D01*
X106636004Y-101408221D01*
X106532932Y-101399000D01*
X106325407Y-101459588D01*
X106241703Y-101625345D01*
X105573611Y-101625345D01*
X105567333Y-101379327D01*
X105567333Y-100549883D01*
X105128211Y-100000775D01*
X104865932Y-99681065D01*
X104544893Y-99301661D01*
X104220596Y-98927843D01*
X104108217Y-98801019D01*
X103527345Y-98150372D01*
X103552506Y-97573353D01*
X103577667Y-96996333D01*
X104593667Y-97929296D01*
X105027141Y-98325737D01*
X105502549Y-98757893D01*
X105968568Y-99179262D01*
X106373872Y-99543340D01*
X106456333Y-99616961D01*
X106837616Y-99958113D01*
X107235896Y-100316619D01*
X107601959Y-100648065D01*
X107867970Y-100890911D01*
X108432941Y-101410158D01*
X108493850Y-103902900D01*
X108554758Y-106395641D01*
X108246379Y-106704021D01*
X108044346Y-106938971D01*
X107953323Y-107150690D01*
X107938000Y-107320179D01*
X108010871Y-107694909D01*
X108206406Y-107994001D01*
X108489991Y-108198355D01*
X108827010Y-108288872D01*
X109182847Y-108246453D01*
X109413958Y-108134543D01*
X109714101Y-107851248D01*
X109865784Y-107515236D01*
X109867482Y-107157957D01*
X109717668Y-106810860D01*
X109490145Y-106563667D01*
X109286026Y-106394333D01*
X109229062Y-103877007D01*
X109937900Y-103877007D01*
X109939720Y-104205109D01*
X110097142Y-104531584D01*
X110203100Y-104668699D01*
X110461877Y-104918307D01*
X110736605Y-105037532D01*
X111091398Y-105052349D01*
X111140602Y-105048500D01*
X111506103Y-104955543D01*
X111754971Y-104778988D01*
X112002198Y-104445932D01*
X112105787Y-104087302D01*
X112080986Y-103732308D01*
X111943039Y-103410156D01*
X111707192Y-103150056D01*
X111388690Y-102981216D01*
X111002780Y-102932844D01*
X110805235Y-102959429D01*
X110603041Y-102982422D01*
X110455119Y-102921998D01*
X110295759Y-102760227D01*
X110118610Y-102596190D01*
X110012683Y-102568642D01*
X110001977Y-102661717D01*
X110110492Y-102859553D01*
X110121878Y-102875164D01*
X110304060Y-103121580D01*
X110087825Y-103508466D01*
X109937900Y-103877007D01*
X109229062Y-103877007D01*
X109225846Y-103734904D01*
X109165667Y-101075476D01*
X108146731Y-100136571D01*
X107751116Y-99774572D01*
X107269698Y-99338034D01*
X106743843Y-98864232D01*
X106214914Y-98390440D01*
X105742412Y-97970000D01*
X105235044Y-97520423D01*
X104840092Y-97169559D01*
X104543507Y-96903510D01*
X104331244Y-96708378D01*
X104189253Y-96570267D01*
X104103489Y-96475277D01*
X104059904Y-96409513D01*
X104044451Y-96359076D01*
X104043082Y-96310069D01*
X104043333Y-96289030D01*
X103988422Y-96124674D01*
X103977504Y-96108755D01*
X106787124Y-96108755D01*
X106791859Y-96266770D01*
X106871489Y-96390341D01*
X107040113Y-96586651D01*
X107265242Y-96823820D01*
X107514387Y-97069967D01*
X107755060Y-97293210D01*
X107954773Y-97461670D01*
X108081036Y-97543464D01*
X108096155Y-97546667D01*
X108209147Y-97494749D01*
X108390732Y-97363524D01*
X108481141Y-97287623D01*
X108776175Y-97028580D01*
X108980328Y-97351979D01*
X109176704Y-97620993D01*
X109483561Y-97986557D01*
X109885197Y-98432300D01*
X110365909Y-98941852D01*
X110909994Y-99498841D01*
X111501749Y-100086895D01*
X112125472Y-100689643D01*
X112700500Y-101230522D01*
X112981713Y-101501274D01*
X113154867Y-101698718D01*
X113243607Y-101855976D01*
X113271582Y-102006167D01*
X113272000Y-102030970D01*
X113344987Y-102321361D01*
X113519487Y-102548513D01*
X113809796Y-102748936D01*
X114124104Y-102784678D01*
X114445054Y-102675349D01*
X114690647Y-102462896D01*
X114846774Y-102158395D01*
X114880667Y-101936883D01*
X114823400Y-101777580D01*
X114677951Y-101569611D01*
X114581969Y-101464369D01*
X114380681Y-101282735D01*
X114216936Y-101204586D01*
X114022249Y-101201379D01*
X113967015Y-101208090D01*
X113856285Y-101218565D01*
X113754369Y-101207629D01*
X113641626Y-101160703D01*
X113498415Y-101063210D01*
X113305093Y-100900574D01*
X113042019Y-100658215D01*
X112689552Y-100321556D01*
X112413040Y-100054755D01*
X112049292Y-99699026D01*
X114305774Y-99699026D01*
X114380697Y-99828529D01*
X114551084Y-100016265D01*
X114774107Y-100224439D01*
X115006941Y-100415254D01*
X115206760Y-100550917D01*
X115320637Y-100594667D01*
X115423575Y-100536724D01*
X115598798Y-100385462D01*
X115790308Y-100192500D01*
X116079926Y-99852736D01*
X116237558Y-99592765D01*
X116271544Y-99397609D01*
X116259286Y-99350532D01*
X116165716Y-99233620D01*
X115976469Y-99065282D01*
X115737756Y-98879892D01*
X115495789Y-98711823D01*
X115296779Y-98595449D01*
X115200083Y-98562667D01*
X115058903Y-98627300D01*
X114941716Y-98753167D01*
X114804510Y-98935368D01*
X114614741Y-99162281D01*
X114547586Y-99237882D01*
X114386994Y-99455699D01*
X114307796Y-99646939D01*
X114305774Y-99699026D01*
X112049292Y-99699026D01*
X111941083Y-99593202D01*
X111423342Y-99077528D01*
X110905373Y-98553703D01*
X110432733Y-98067696D01*
X110372385Y-98004404D01*
X113035851Y-98004404D01*
X113105846Y-98167591D01*
X113308455Y-98294145D01*
X113383080Y-98317823D01*
X113576033Y-98407223D01*
X113821628Y-98569492D01*
X113963342Y-98682015D01*
X114215002Y-98884703D01*
X114368502Y-98971883D01*
X114442595Y-98950548D01*
X114457333Y-98866211D01*
X114393426Y-98756206D01*
X114227272Y-98590839D01*
X114034000Y-98435667D01*
X113798091Y-98237856D01*
X113647238Y-98061714D01*
X113610667Y-97968494D01*
X113543231Y-97816808D01*
X113384454Y-97746951D01*
X113199632Y-97776422D01*
X113115827Y-97835887D01*
X113035851Y-98004404D01*
X110372385Y-98004404D01*
X110150763Y-97771969D01*
X109126204Y-96684938D01*
X109323914Y-96417302D01*
X109486760Y-96182824D01*
X109564045Y-96002444D01*
X109547573Y-95836786D01*
X109429147Y-95646474D01*
X109200573Y-95392132D01*
X109085769Y-95273221D01*
X108538910Y-94710333D01*
X107942278Y-94710333D01*
X107587345Y-94720535D01*
X107392864Y-94752846D01*
X107351088Y-94809829D01*
X107430000Y-94879667D01*
X107508006Y-94979243D01*
X107454036Y-95117815D01*
X107265874Y-95311702D01*
X107042466Y-95561644D01*
X106874234Y-95844753D01*
X106787124Y-96108755D01*
X103977504Y-96108755D01*
X103853951Y-95928615D01*
X103831218Y-95903184D01*
X103565915Y-95727827D01*
X103256371Y-95685244D01*
X102957530Y-95772749D01*
X102746333Y-95956175D01*
X102643861Y-96118024D01*
X102619253Y-96267110D01*
X99909226Y-96267110D01*
X99897423Y-96170833D01*
X99822432Y-96126180D01*
X99646487Y-96108669D01*
X99435465Y-96116447D01*
X99255243Y-96147658D01*
X99175519Y-96191159D01*
X99169418Y-96301110D01*
X97416432Y-96301110D01*
X97416421Y-96301027D01*
X97391391Y-96183208D01*
X97390215Y-96181023D01*
X97263111Y-96114195D01*
X97064290Y-96120988D01*
X96870478Y-96193548D01*
X96810381Y-96240381D01*
X96743771Y-96315161D01*
X96703222Y-96400714D01*
X96688561Y-96527957D01*
X96699615Y-96727805D01*
X96736211Y-97031173D01*
X96798174Y-97468977D01*
X96803294Y-97504333D01*
X96882759Y-98114160D01*
X96920791Y-98561744D01*
X96917451Y-98849013D01*
X96872799Y-98977894D01*
X96849613Y-98986000D01*
X96718404Y-99045987D01*
X96526494Y-99198401D01*
X96317032Y-99401920D01*
X96133167Y-99615222D01*
X96030972Y-99769971D01*
X95942164Y-100051634D01*
X95902787Y-100410487D01*
X95239619Y-100410487D01*
X95238507Y-99564227D01*
X95238000Y-96205454D01*
X94986066Y-96150120D01*
X94779399Y-96126777D01*
X94647399Y-96148390D01*
X94624209Y-96248194D01*
X94604563Y-96515711D01*
X94588496Y-96949353D01*
X94576041Y-97547537D01*
X94567233Y-98308677D01*
X94562106Y-99231187D01*
X94560667Y-100172992D01*
X94559678Y-101145002D01*
X94556506Y-101959430D01*
X94550847Y-102628019D01*
X94542393Y-103162511D01*
X94530838Y-103574646D01*
X94515875Y-103876168D01*
X94497200Y-104078817D01*
X94474505Y-104194336D01*
X94454833Y-104230719D01*
X94324536Y-104336435D01*
X94128096Y-104494769D01*
X94061785Y-104548054D01*
X93788559Y-104845287D01*
X93580057Y-105219178D01*
X93471562Y-105600765D01*
X93463719Y-105717000D01*
X92273451Y-105717000D01*
X92276744Y-104912667D01*
X91988430Y-104912667D01*
X91748070Y-104953138D01*
X91648725Y-105046591D01*
X91634668Y-105165245D01*
X91622078Y-105428788D01*
X91611506Y-105812779D01*
X91603503Y-106292775D01*
X91598621Y-106844335D01*
X91597333Y-107324125D01*
X91597333Y-109467733D01*
X91301000Y-109764067D01*
X91109753Y-109985013D01*
X91022969Y-110189448D01*
X91004667Y-110416000D01*
X83995427Y-110416000D01*
X83776771Y-110309328D01*
X82057231Y-109289529D01*
X81493497Y-108890471D01*
X87754920Y-108890471D01*
X87789696Y-109110827D01*
X87983911Y-109455753D01*
X88280824Y-109695597D01*
X88640366Y-109815210D01*
X89022468Y-109799442D01*
X89307961Y-109684857D01*
X89612963Y-109419009D01*
X89782127Y-109085021D01*
X89813385Y-108718579D01*
X89704663Y-108355371D01*
X89453893Y-108031086D01*
X89406299Y-107989973D01*
X89184333Y-107807613D01*
X89156805Y-105534640D01*
X89151402Y-104875223D01*
X89150748Y-104221485D01*
X89153470Y-103779814D01*
X90917207Y-103779814D01*
X90931375Y-104114842D01*
X90962770Y-104385262D01*
X91011579Y-104544445D01*
X91021600Y-104557067D01*
X91149525Y-104603889D01*
X91396570Y-104636911D01*
X91718662Y-104655981D01*
X92071728Y-104660949D01*
X92411695Y-104651666D01*
X92694489Y-104627981D01*
X92876038Y-104589744D01*
X92916146Y-104563516D01*
X92945179Y-104440997D01*
X92973514Y-104192864D01*
X92996729Y-103862797D01*
X93004711Y-103689197D01*
X93016269Y-103243728D01*
X92993643Y-102940685D01*
X92911109Y-102753374D01*
X92742944Y-102655098D01*
X92463423Y-102619164D01*
X92046821Y-102618875D01*
X91974583Y-102620187D01*
X91606168Y-102635609D01*
X91296376Y-102664390D01*
X91087804Y-102701752D01*
X91029017Y-102726257D01*
X90976170Y-102853401D01*
X90939794Y-103102463D01*
X90920076Y-103426811D01*
X90917207Y-103779814D01*
X89153470Y-103779814D01*
X89154530Y-103607781D01*
X89162432Y-103068466D01*
X89174141Y-102637894D01*
X89185436Y-102403858D01*
X89193536Y-102280139D01*
X91532432Y-102280139D01*
X92009383Y-102305236D01*
X92275437Y-102315424D01*
X92463665Y-102315487D01*
X92521945Y-102308833D01*
X92496027Y-102240499D01*
X92384845Y-102103598D01*
X92373778Y-102091709D01*
X92240795Y-101882142D01*
X92190000Y-101677768D01*
X92148873Y-101497118D01*
X92071229Y-101413873D01*
X91892446Y-101424427D01*
X91736890Y-101584579D01*
X91622291Y-101874683D01*
X91610594Y-101924236D01*
X91532432Y-102280139D01*
X89193536Y-102280139D01*
X89241595Y-101546049D01*
X90398297Y-100621848D01*
X90823847Y-100283021D01*
X91248097Y-99947323D01*
X91634822Y-99643271D01*
X91947800Y-99399385D01*
X92086769Y-99292538D01*
X92357458Y-99074428D01*
X92584090Y-98870351D01*
X92723303Y-98719735D01*
X92734160Y-98703882D01*
X92791154Y-98537850D01*
X92840715Y-98255664D01*
X92881049Y-97894893D01*
X92910364Y-97493105D01*
X92926869Y-97087870D01*
X92928771Y-96716755D01*
X92914278Y-96417329D01*
X92881597Y-96227162D01*
X92854452Y-96182247D01*
X92664557Y-96118441D01*
X92450781Y-96117786D01*
X92287470Y-96175211D01*
X92248169Y-96223596D01*
X92225546Y-96350618D01*
X92197638Y-96608286D01*
X92168114Y-96958148D01*
X92142569Y-97330208D01*
X92081582Y-98320558D01*
X91521958Y-98763457D01*
X91268145Y-98964865D01*
X90916871Y-99244353D01*
X90502904Y-99574221D01*
X90061011Y-99926768D01*
X89722673Y-100196996D01*
X88483014Y-101187635D01*
X88421059Y-102757363D01*
X88402599Y-103375757D01*
X88390552Y-104098242D01*
X88385433Y-104859679D01*
X88387755Y-105594928D01*
X88394757Y-106093408D01*
X88430410Y-107859726D01*
X88203069Y-107994020D01*
X87967086Y-108220927D01*
X87809500Y-108541908D01*
X87754920Y-108890471D01*
X81493497Y-108890471D01*
X80434296Y-108140681D01*
X80016270Y-107791333D01*
X84146667Y-107791333D01*
X84219123Y-107854979D01*
X84358333Y-107876000D01*
X84517448Y-107847017D01*
X84570000Y-107791333D01*
X84827317Y-107791333D01*
X84897702Y-108191588D01*
X85096632Y-108483471D01*
X85418065Y-108661373D01*
X85827197Y-108719666D01*
X86100074Y-108696317D01*
X86298936Y-108595310D01*
X86438332Y-108462602D01*
X86662293Y-108119343D01*
X86737150Y-107753969D01*
X86666036Y-107401058D01*
X86452079Y-107095186D01*
X86303905Y-106978060D01*
X86094000Y-106840525D01*
X86094000Y-105247804D01*
X86093896Y-105056292D01*
X86433577Y-105056292D01*
X86450246Y-105232662D01*
X86518875Y-105353631D01*
X86538500Y-105364593D01*
X86766427Y-105410310D01*
X86896855Y-105338391D01*
X86891911Y-105210059D01*
X86802080Y-105038415D01*
X86672035Y-104889181D01*
X86549929Y-104828000D01*
X86467321Y-104897183D01*
X86433577Y-105056292D01*
X86093896Y-105056292D01*
X86093686Y-104672228D01*
X86088193Y-104245080D01*
X86070689Y-103945463D01*
X86034344Y-103752480D01*
X85972329Y-103645235D01*
X85877812Y-103602829D01*
X85743963Y-103604365D01*
X85564833Y-103628823D01*
X85332000Y-103661886D01*
X85332000Y-105303276D01*
X85327639Y-105927314D01*
X85314825Y-106409543D01*
X85293959Y-106742283D01*
X85265444Y-106917856D01*
X85246089Y-106944667D01*
X85129218Y-107018529D01*
X85003827Y-107204265D01*
X84896516Y-107448095D01*
X84833884Y-107696241D01*
X84827317Y-107791333D01*
X84570000Y-107791333D01*
X84497544Y-107727687D01*
X84358333Y-107706667D01*
X84199218Y-107735649D01*
X84146667Y-107791333D01*
X80016270Y-107791333D01*
X78914884Y-106870894D01*
X78703191Y-106663162D01*
X83650890Y-106663162D01*
X83716308Y-106677311D01*
X83808000Y-106682065D01*
X84046989Y-106712429D01*
X84224061Y-106770894D01*
X84231333Y-106775333D01*
X84405222Y-106854102D01*
X84508585Y-106805208D01*
X84517083Y-106792457D01*
X84517156Y-106669013D01*
X84494991Y-106621627D01*
X84402639Y-106565512D01*
X84206539Y-106562722D01*
X83971411Y-106594605D01*
X83732454Y-106637451D01*
X83650890Y-106663162D01*
X78703191Y-106663162D01*
X77505909Y-105488280D01*
X76644186Y-104495987D01*
X81268316Y-104495987D01*
X81341439Y-104914555D01*
X81539483Y-105259483D01*
X81831606Y-105512727D01*
X82186962Y-105656246D01*
X82574706Y-105671998D01*
X82963995Y-105541941D01*
X83010443Y-105515012D01*
X83254274Y-105290663D01*
X83447916Y-104977997D01*
X83548406Y-104651814D01*
X83554000Y-104568643D01*
X83504713Y-104351101D01*
X83380379Y-104087617D01*
X83216284Y-103835615D01*
X83047718Y-103652521D01*
X82958398Y-103599402D01*
X82905098Y-103576551D01*
X82864257Y-103532625D01*
X82834325Y-103447392D01*
X82813755Y-103300619D01*
X82800999Y-103072074D01*
X82794509Y-102741524D01*
X82793283Y-102428246D01*
X84833763Y-102428246D01*
X84848206Y-102775863D01*
X84865881Y-102944167D01*
X84919042Y-103304000D01*
X85760521Y-103304000D01*
X86602000Y-103304000D01*
X86602000Y-102412038D01*
X86602000Y-101520076D01*
X85734167Y-101544205D01*
X84866333Y-101568333D01*
X84839527Y-102076333D01*
X84833763Y-102428246D01*
X82793283Y-102428246D01*
X82792737Y-102288738D01*
X82794135Y-101693483D01*
X82795022Y-101464081D01*
X82799872Y-100253502D01*
X85332000Y-100253502D01*
X85337344Y-100629999D01*
X85351798Y-100941974D01*
X85372995Y-101151623D01*
X85392474Y-101219585D01*
X85510136Y-101253518D01*
X85719024Y-101257267D01*
X85752307Y-101254863D01*
X86051667Y-101229667D01*
X86064501Y-100440721D01*
X86073032Y-100095667D01*
X86085305Y-99822382D01*
X86099310Y-99659329D01*
X86106835Y-99630692D01*
X86211881Y-99545282D01*
X86414644Y-99371961D01*
X86692133Y-99131054D01*
X87021359Y-98842885D01*
X87379334Y-98527779D01*
X87743068Y-98206059D01*
X88089572Y-97898050D01*
X88395857Y-97624076D01*
X88638933Y-97404461D01*
X88795811Y-97259530D01*
X88843822Y-97210984D01*
X88959541Y-97148182D01*
X89150845Y-97123333D01*
X89448325Y-97051738D01*
X89666254Y-96865400D01*
X89787495Y-96606986D01*
X89794907Y-96319167D01*
X89671351Y-96044610D01*
X89611515Y-95976485D01*
X89352620Y-95815533D01*
X89065624Y-95783114D01*
X88793862Y-95863686D01*
X88580669Y-96041705D01*
X88469379Y-96301630D01*
X88462364Y-96388645D01*
X88443815Y-96529033D01*
X88374889Y-96666160D01*
X88231764Y-96829696D01*
X87990620Y-97049311D01*
X87806197Y-97205911D01*
X87483558Y-97479053D01*
X87084024Y-97821186D01*
X86657663Y-98189252D01*
X86254540Y-98540194D01*
X86242167Y-98551025D01*
X85332000Y-99347894D01*
X85332000Y-100253502D01*
X82799872Y-100253502D01*
X82803359Y-99383260D01*
X82837446Y-99347894D01*
X84469846Y-97654230D01*
X84922488Y-97189105D01*
X85357831Y-96750130D01*
X85756227Y-96356480D01*
X86098027Y-96027331D01*
X86363582Y-95781858D01*
X86533243Y-95639238D01*
X86538500Y-95635407D01*
X86813851Y-95397962D01*
X86821807Y-95383771D01*
X105751911Y-95383771D01*
X105838069Y-95527935D01*
X105906000Y-95599333D01*
X106134381Y-95743949D01*
X106364631Y-95756953D01*
X106548269Y-95640939D01*
X106596279Y-95562399D01*
X106652511Y-95319653D01*
X106563534Y-95117004D01*
X106365241Y-94952337D01*
X106208450Y-94861374D01*
X106103651Y-94868631D01*
X105979391Y-94988212D01*
X105937357Y-95036792D01*
X105783947Y-95239089D01*
X105751911Y-95383771D01*
X86821807Y-95383771D01*
X86930768Y-95189416D01*
X86894480Y-94995207D01*
X86807619Y-94885714D01*
X86574644Y-94756094D01*
X86308586Y-94781192D01*
X86032920Y-94956116D01*
X85922432Y-95070167D01*
X85794033Y-95211955D01*
X85565479Y-95456894D01*
X85254360Y-95786439D01*
X84878265Y-96182043D01*
X84454784Y-96625161D01*
X84001506Y-97097247D01*
X83892881Y-97210057D01*
X82137106Y-99032448D01*
X82099720Y-101196491D01*
X82062335Y-103360533D01*
X81665167Y-103741087D01*
X81445087Y-103964626D01*
X81325378Y-104135963D01*
X81276427Y-104311423D01*
X81268316Y-104495987D01*
X76644186Y-104495987D01*
X76214289Y-104000952D01*
X75046940Y-102417021D01*
X74784044Y-101992693D01*
X80774567Y-101992693D01*
X80824358Y-102136706D01*
X80929333Y-102203333D01*
X81033409Y-102135269D01*
X81071328Y-102067788D01*
X81061023Y-101928552D01*
X80961188Y-101836750D01*
X80836360Y-101843662D01*
X80812965Y-101862501D01*
X80774567Y-101992693D01*
X74784044Y-101992693D01*
X74036375Y-100785914D01*
X77466656Y-100785914D01*
X77471582Y-101039915D01*
X77478279Y-101114601D01*
X77536232Y-101440582D01*
X77645405Y-101648175D01*
X77710468Y-101711118D01*
X77948508Y-101818771D01*
X78276746Y-101863469D01*
X78626540Y-101840932D01*
X78849488Y-101782095D01*
X78958039Y-101731002D01*
X79022687Y-101653654D01*
X79054770Y-101510790D01*
X79065625Y-101263150D01*
X79066667Y-101029970D01*
X79062348Y-100778304D01*
X79332956Y-100778304D01*
X79337410Y-100827500D01*
X79380910Y-100908735D01*
X79495964Y-100954169D01*
X79719777Y-100973124D01*
X79928688Y-100975667D01*
X80224550Y-100984616D01*
X80450705Y-101008022D01*
X80554847Y-101039167D01*
X80720263Y-101100906D01*
X80915440Y-101055394D01*
X81010624Y-100979734D01*
X81085651Y-100776341D01*
X81014926Y-100573189D01*
X80910196Y-100478454D01*
X80758484Y-100435896D01*
X80564917Y-100505138D01*
X80516132Y-100532880D01*
X80215774Y-100639007D01*
X79809319Y-100679246D01*
X79788228Y-100679333D01*
X79515162Y-100686409D01*
X79375333Y-100715479D01*
X79332956Y-100778304D01*
X79062348Y-100778304D01*
X79060559Y-100674066D01*
X79021179Y-100449000D01*
X78916938Y-100324662D01*
X78716249Y-100270943D01*
X78387524Y-100257731D01*
X78255925Y-100257156D01*
X77964080Y-100274675D01*
X77770970Y-100344184D01*
X77630950Y-100463817D01*
X77514552Y-100616162D01*
X77466656Y-100785914D01*
X74036375Y-100785914D01*
X74010778Y-100744599D01*
X73112719Y-98991798D01*
X72359680Y-97166730D01*
X72300340Y-96980230D01*
X78227987Y-96980230D01*
X78283374Y-97377373D01*
X78358915Y-97602150D01*
X78583454Y-97920898D01*
X78910680Y-98202218D01*
X79274943Y-98390332D01*
X79293995Y-98396625D01*
X79616528Y-98444104D01*
X80007699Y-98425348D01*
X80384023Y-98348505D01*
X80581738Y-98270950D01*
X80914360Y-98012581D01*
X81187477Y-97630207D01*
X81366554Y-97180613D01*
X81426244Y-96898131D01*
X81418632Y-96671107D01*
X81339361Y-96399494D01*
X81331589Y-96377813D01*
X81188217Y-95980333D01*
X81905027Y-95259408D01*
X82418572Y-94742915D01*
X90099803Y-94742915D01*
X90115237Y-94889148D01*
X90152337Y-94957510D01*
X90319205Y-95061360D01*
X90578698Y-95133512D01*
X90857731Y-95162583D01*
X91083216Y-95137190D01*
X91139199Y-95111203D01*
X91145880Y-95099070D01*
X92359333Y-95099070D01*
X92930833Y-95074035D01*
X93502333Y-95049000D01*
X93502333Y-94117667D01*
X93502333Y-94057354D01*
X93502333Y-93186333D01*
X92930833Y-93161298D01*
X92359333Y-93136263D01*
X94391333Y-93136263D01*
X94391333Y-94057354D01*
X94396550Y-94437083D01*
X94410673Y-94752420D01*
X94431416Y-94965955D01*
X94451358Y-95038470D01*
X94561973Y-95066557D01*
X94788048Y-95078441D01*
X95022858Y-95073747D01*
X95534333Y-95049000D01*
X95534333Y-94397108D01*
X96435112Y-94397108D01*
X96438436Y-94709692D01*
X96450325Y-94921893D01*
X96461322Y-94983542D01*
X96542258Y-95050331D01*
X96736462Y-95078499D01*
X97036070Y-95074235D01*
X97566333Y-95049000D01*
X97578495Y-94563868D01*
X98508301Y-94563868D01*
X98518173Y-94802767D01*
X98522852Y-94843551D01*
X98560287Y-95098608D01*
X99121643Y-95073804D01*
X99683000Y-95049000D01*
X99683000Y-94117667D01*
X99683000Y-93416224D01*
X100510114Y-93416224D01*
X100536958Y-93674009D01*
X100588070Y-94001499D01*
X100654704Y-94351492D01*
X100728111Y-94676790D01*
X100799547Y-94930193D01*
X100842969Y-95038175D01*
X100924704Y-95134443D01*
X101063647Y-95165637D01*
X101312805Y-95143897D01*
X101574599Y-95089891D01*
X101776472Y-95016667D01*
X101822216Y-94987952D01*
X101897697Y-94819524D01*
X101904446Y-94497058D01*
X101849366Y-94074033D01*
X106775451Y-94074033D01*
X106788172Y-94283334D01*
X106940839Y-94451532D01*
X107204662Y-94571615D01*
X107422804Y-94537169D01*
X107510799Y-94460993D01*
X107589308Y-94250682D01*
X107530904Y-94024724D01*
X107351765Y-93839838D01*
X107329952Y-93826971D01*
X107156556Y-93748383D01*
X107034268Y-93772778D01*
X106927786Y-93858430D01*
X106775451Y-94074033D01*
X101849366Y-94074033D01*
X101842495Y-94021259D01*
X101785832Y-93736667D01*
X102180667Y-93736667D01*
X103060608Y-93736667D01*
X103464103Y-93732950D01*
X103729323Y-93718617D01*
X103887224Y-93688895D01*
X103968763Y-93639012D01*
X103995885Y-93592466D01*
X104017388Y-93429076D01*
X104011556Y-93169896D01*
X103995187Y-92999799D01*
X103939155Y-92551333D01*
X103059911Y-92551333D01*
X102180667Y-92551333D01*
X102180667Y-93144000D01*
X102180667Y-93736667D01*
X101785832Y-93736667D01*
X101756331Y-93588500D01*
X101658635Y-93144000D01*
X101112660Y-93144000D01*
X100791598Y-93154932D01*
X100605486Y-93192613D01*
X100521057Y-93264369D01*
X100516285Y-93275341D01*
X100510114Y-93416224D01*
X99683000Y-93416224D01*
X99683000Y-93186333D01*
X99122307Y-93161544D01*
X98561615Y-93136756D01*
X98523516Y-93862625D01*
X98510095Y-94230858D01*
X98508301Y-94563868D01*
X97578495Y-94563868D01*
X97590310Y-94092567D01*
X97614286Y-93136135D01*
X97039976Y-93161234D01*
X96465667Y-93186333D01*
X96441251Y-94026973D01*
X96435112Y-94397108D01*
X95534333Y-94397108D01*
X95534333Y-94117667D01*
X95534333Y-93186333D01*
X94962833Y-93161298D01*
X94391333Y-93136263D01*
X92359333Y-93136263D01*
X92359333Y-94117667D01*
X92359333Y-95099070D01*
X91145880Y-95099070D01*
X91200434Y-94999993D01*
X91274240Y-94766682D01*
X91350972Y-94457039D01*
X91420812Y-94117667D01*
X91420984Y-94116833D01*
X91474633Y-93791833D01*
X91502272Y-93527808D01*
X91500226Y-93398000D01*
X91467810Y-93276802D01*
X91385424Y-93209524D01*
X91209758Y-93176108D01*
X90988658Y-93161095D01*
X90746673Y-93153354D01*
X90577645Y-93177810D01*
X90460026Y-93261079D01*
X90372273Y-93429778D01*
X90292837Y-93710524D01*
X90200175Y-94129934D01*
X90198656Y-94137036D01*
X90126951Y-94503879D01*
X90099803Y-94742915D01*
X82418572Y-94742915D01*
X82621838Y-94538482D01*
X82968369Y-93502574D01*
X83088319Y-93144000D01*
X88041333Y-93144000D01*
X88046574Y-93397135D01*
X88081426Y-93565454D01*
X88174584Y-93666261D01*
X88354742Y-93716863D01*
X88650595Y-93734563D01*
X89024058Y-93736667D01*
X89904000Y-93736667D01*
X89904000Y-93144000D01*
X89904000Y-92551333D01*
X89024058Y-92551333D01*
X88604324Y-92554494D01*
X88325228Y-92575512D01*
X88158075Y-92631695D01*
X88074171Y-92740345D01*
X88044821Y-92918770D01*
X88041333Y-93144000D01*
X83088319Y-93144000D01*
X83314901Y-92466667D01*
X83622684Y-92466667D01*
X83811382Y-92472352D01*
X84132331Y-92488049D01*
X84548879Y-92511723D01*
X85024374Y-92541337D01*
X85323673Y-92561174D01*
X85840528Y-92595092D01*
X86214496Y-92615185D01*
X86471539Y-92620443D01*
X86637620Y-92609858D01*
X86738699Y-92582419D01*
X86800739Y-92537118D01*
X86828773Y-92502659D01*
X86921533Y-92299675D01*
X105145260Y-92299675D01*
X105170849Y-92491751D01*
X105264336Y-92602825D01*
X105380044Y-92621910D01*
X105639465Y-92650426D01*
X106017386Y-92686068D01*
X106488593Y-92726532D01*
X107027874Y-92769517D01*
X107374482Y-92795621D01*
X109364291Y-92942239D01*
X110020216Y-93529953D01*
X110319487Y-93796587D01*
X110705339Y-94138141D01*
X111136654Y-94518332D01*
X111572310Y-94900877D01*
X111765729Y-95070167D01*
X112855318Y-96022667D01*
X113635159Y-96025343D01*
X114415000Y-96028019D01*
X114633743Y-96388943D01*
X114905782Y-96729829D01*
X115240173Y-96934860D01*
X115666128Y-97018061D01*
X115942602Y-97017370D01*
X116360327Y-96961912D01*
X116664340Y-96838418D01*
X116715330Y-96804606D01*
X117024395Y-96487038D01*
X117211122Y-96084020D01*
X117268065Y-95634494D01*
X117187782Y-95177400D01*
X117074944Y-94923334D01*
X116810929Y-94569668D01*
X116479971Y-94354137D01*
X116056588Y-94263979D01*
X115758664Y-94264104D01*
X115263894Y-94356851D01*
X114872683Y-94566878D01*
X114600889Y-94884555D01*
X114544135Y-95001512D01*
X114484763Y-95130297D01*
X114411680Y-95207271D01*
X114284688Y-95245769D01*
X114063588Y-95259124D01*
X113762838Y-95260667D01*
X113088887Y-95260667D01*
X112058610Y-94355858D01*
X111642558Y-93986979D01*
X111209770Y-93597306D01*
X110803806Y-93226432D01*
X110468228Y-92913948D01*
X110381889Y-92831858D01*
X110051378Y-92527699D01*
X109806085Y-92334316D01*
X109620842Y-92234077D01*
X109492889Y-92208950D01*
X109339647Y-92201066D01*
X109045645Y-92181062D01*
X108638860Y-92151027D01*
X108147266Y-92113052D01*
X107598840Y-92069226D01*
X107345333Y-92048512D01*
X106648603Y-91995393D01*
X106084855Y-91961341D01*
X105663320Y-91946707D01*
X105393231Y-91951840D01*
X105292167Y-91970541D01*
X105186782Y-92101332D01*
X105145260Y-92299675D01*
X86921533Y-92299675D01*
X86933281Y-92273966D01*
X86922372Y-92070205D01*
X86898823Y-92044635D01*
X90834141Y-92044635D01*
X96020570Y-92022818D01*
X101207000Y-92001000D01*
X101207000Y-91020278D01*
X101207000Y-90434667D01*
X102180667Y-90434667D01*
X102180667Y-91020278D01*
X102196819Y-91393984D01*
X102245128Y-91603412D01*
X102286500Y-91648593D01*
X102456485Y-91679718D01*
X102735810Y-91695282D01*
X103070430Y-91696356D01*
X103406302Y-91684013D01*
X103689380Y-91659324D01*
X103865619Y-91623358D01*
X103879566Y-91617021D01*
X103989376Y-91509996D01*
X104037266Y-91313223D01*
X104043333Y-91145788D01*
X104033744Y-90846137D01*
X103986306Y-90645015D01*
X103873009Y-90522877D01*
X103665846Y-90460177D01*
X103336807Y-90437366D01*
X103024354Y-90434667D01*
X102180667Y-90434667D01*
X101207000Y-90434667D01*
X101207000Y-89909460D01*
X105407926Y-89909460D01*
X105414226Y-89993020D01*
X105440333Y-90307667D01*
X106075333Y-90305975D01*
X106378807Y-90298579D01*
X106806136Y-90279243D01*
X107312453Y-90250435D01*
X107852893Y-90214622D01*
X108187507Y-90189821D01*
X109664681Y-90075359D01*
X109838507Y-90284338D01*
X109954275Y-90422469D01*
X110154853Y-90660730D01*
X110415677Y-90969979D01*
X110712180Y-91321077D01*
X110835502Y-91466982D01*
X111658671Y-92440648D01*
X112565101Y-92496109D01*
X112970087Y-92523360D01*
X113243492Y-92552686D01*
X113422879Y-92594154D01*
X113545811Y-92657835D01*
X113649853Y-92753798D01*
X113689266Y-92797450D01*
X114031978Y-93094261D01*
X114388449Y-93223166D01*
X114763776Y-93185373D01*
X114968105Y-93100233D01*
X115225373Y-92886431D01*
X115408557Y-92582590D01*
X115473017Y-92280371D01*
X115400799Y-91989731D01*
X115214369Y-91698930D01*
X114957741Y-91468122D01*
X114827709Y-91398437D01*
X114448528Y-91315024D01*
X114097746Y-91396986D01*
X113785314Y-91627711D01*
X113660071Y-91746547D01*
X113546891Y-91816683D01*
X113401339Y-91846821D01*
X113178982Y-91845660D01*
X112835388Y-91821902D01*
X112805364Y-91819595D01*
X112073549Y-91763344D01*
X111243335Y-90781505D01*
X110930226Y-90415350D01*
X110701099Y-90153164D01*
X112039013Y-90153164D01*
X112124210Y-90341587D01*
X112303921Y-90466444D01*
X112540848Y-90500297D01*
X112769566Y-90431688D01*
X112907121Y-90275699D01*
X112933990Y-90056918D01*
X112853812Y-89837467D01*
X112727344Y-89710934D01*
X112483897Y-89635111D01*
X112256601Y-89718743D01*
X112085628Y-89928607D01*
X112039013Y-90153164D01*
X110701099Y-90153164D01*
X110633568Y-90075889D01*
X110380504Y-89793661D01*
X110198176Y-89599206D01*
X110152444Y-89554075D01*
X109891767Y-89308483D01*
X108639717Y-89404504D01*
X108109868Y-89444153D01*
X107557988Y-89483785D01*
X107044785Y-89519137D01*
X106630969Y-89545949D01*
X106583333Y-89548844D01*
X106112054Y-89578485D01*
X105784570Y-89607529D01*
X105575647Y-89645562D01*
X105460054Y-89702170D01*
X105412557Y-89786941D01*
X105407926Y-89909460D01*
X101207000Y-89909460D01*
X101207000Y-89181451D01*
X102183809Y-89181451D01*
X102202190Y-89392203D01*
X102280702Y-89513665D01*
X102447645Y-89568395D01*
X102731319Y-89578948D01*
X103089359Y-89569917D01*
X103916333Y-89545667D01*
X103941310Y-88976736D01*
X103948415Y-88696253D01*
X103922836Y-88506959D01*
X103837903Y-88392420D01*
X103666941Y-88336203D01*
X103383279Y-88321877D01*
X102960244Y-88333008D01*
X102900049Y-88335229D01*
X102223000Y-88360333D01*
X102197259Y-88858853D01*
X102183809Y-89181451D01*
X101207000Y-89181451D01*
X101207000Y-87954709D01*
X105403344Y-87954709D01*
X105409852Y-88071285D01*
X105414056Y-88078814D01*
X105506338Y-88086036D01*
X105746618Y-88094862D01*
X106113572Y-88104934D01*
X106585875Y-88115895D01*
X107142203Y-88127387D01*
X107761233Y-88139051D01*
X108421638Y-88150531D01*
X109102097Y-88161467D01*
X109781284Y-88171503D01*
X110437875Y-88180281D01*
X111050546Y-88187442D01*
X111597972Y-88192629D01*
X112058830Y-88195484D01*
X112383000Y-88195760D01*
X113822333Y-88191000D01*
X113848179Y-87880740D01*
X113850545Y-87852333D01*
X114266833Y-87852333D01*
X114340818Y-88403380D01*
X114546876Y-88882543D01*
X114861159Y-89276063D01*
X115259821Y-89570183D01*
X115719016Y-89751141D01*
X116214896Y-89805181D01*
X116723615Y-89718542D01*
X117155997Y-89519310D01*
X117608343Y-89157955D01*
X117910063Y-88720568D01*
X118064213Y-88202232D01*
X118082346Y-88026979D01*
X118077980Y-87524920D01*
X117979336Y-87115093D01*
X117766617Y-86737659D01*
X117578917Y-86505170D01*
X117174611Y-86156988D01*
X116723027Y-85952468D01*
X116248368Y-85881768D01*
X115774835Y-85935042D01*
X115326631Y-86102448D01*
X114927957Y-86374141D01*
X114603016Y-86740277D01*
X114376009Y-87191012D01*
X114271139Y-87716503D01*
X114266833Y-87852333D01*
X113850545Y-87852333D01*
X113874025Y-87570480D01*
X113340179Y-87522347D01*
X113142116Y-87511587D01*
X112795389Y-87500608D01*
X112320665Y-87489757D01*
X111738613Y-87479380D01*
X111069900Y-87469824D01*
X110335194Y-87461435D01*
X109555164Y-87454561D01*
X109123333Y-87451607D01*
X105440333Y-87429000D01*
X105414056Y-87746500D01*
X105403344Y-87954709D01*
X101207000Y-87954709D01*
X101207000Y-87477062D01*
X102180667Y-87477062D01*
X103090833Y-87453031D01*
X104001000Y-87429000D01*
X104026789Y-86928853D01*
X104025959Y-86588537D01*
X103978875Y-86398556D01*
X103942122Y-86358650D01*
X103813650Y-86328362D01*
X103558928Y-86304373D01*
X103221009Y-86289966D01*
X103006167Y-86287296D01*
X102180667Y-86286000D01*
X102180667Y-86881531D01*
X102180667Y-87477062D01*
X101207000Y-87477062D01*
X101207000Y-86881531D01*
X101207000Y-86328333D01*
X101207000Y-86059490D01*
X105471587Y-86059490D01*
X108158170Y-86002124D01*
X109029652Y-85980713D01*
X109735269Y-85957161D01*
X110278477Y-85931278D01*
X110662733Y-85902872D01*
X110891494Y-85871752D01*
X110962363Y-85847150D01*
X111053172Y-85743228D01*
X111217100Y-85529139D01*
X111432000Y-85234707D01*
X111675727Y-84889758D01*
X111711056Y-84838890D01*
X112342138Y-83928238D01*
X114987236Y-83900619D01*
X117632333Y-83873000D01*
X117910446Y-84105833D01*
X118230191Y-84290324D01*
X118536227Y-84310857D01*
X118809966Y-84172739D01*
X119032818Y-83881275D01*
X119084469Y-83770751D01*
X119155606Y-83560835D01*
X119147744Y-83391925D01*
X119056281Y-83171918D01*
X119054359Y-83167983D01*
X118838197Y-82859395D01*
X118571569Y-82711180D01*
X118257840Y-82724848D01*
X118151031Y-82762407D01*
X117929438Y-82890519D01*
X117774733Y-83042060D01*
X117763763Y-83060390D01*
X117733811Y-83107469D01*
X117688112Y-83145445D01*
X117609389Y-83175462D01*
X117480366Y-83198663D01*
X117283768Y-83216193D01*
X117002318Y-83229194D01*
X116618742Y-83238811D01*
X116115763Y-83246187D01*
X115476105Y-83252466D01*
X114777845Y-83258058D01*
X111885794Y-83280333D01*
X111306054Y-84084667D01*
X111065315Y-84419681D01*
X110852188Y-84718123D01*
X110691508Y-84945102D01*
X110613006Y-85058333D01*
X110572939Y-85107131D01*
X110512767Y-85146062D01*
X110413642Y-85176659D01*
X110256715Y-85200456D01*
X110023138Y-85218987D01*
X109694065Y-85233787D01*
X109250648Y-85246389D01*
X108674038Y-85258328D01*
X108012349Y-85270000D01*
X105525000Y-85312333D01*
X105498293Y-85685911D01*
X105471587Y-86059490D01*
X101207000Y-86059490D01*
X101207000Y-84999793D01*
X102190424Y-84999793D01*
X102199562Y-85229024D01*
X102215769Y-85324020D01*
X102283981Y-85380416D01*
X102452725Y-85416337D01*
X102746060Y-85434891D01*
X103107730Y-85439333D01*
X103493526Y-85437298D01*
X103742703Y-85426465D01*
X103887966Y-85399741D01*
X103962019Y-85350033D01*
X103997568Y-85270249D01*
X104004239Y-85244905D01*
X104019383Y-85046771D01*
X104001791Y-84767912D01*
X103982723Y-84631072D01*
X103912409Y-84211667D01*
X103067705Y-84211667D01*
X102223000Y-84211667D01*
X102197259Y-84710186D01*
X102190424Y-84999793D01*
X101207000Y-84999793D01*
X101207000Y-83552612D01*
X105488010Y-83552612D01*
X105494539Y-83670265D01*
X105498722Y-83678061D01*
X105587358Y-83685429D01*
X105819736Y-83696378D01*
X106170328Y-83709936D01*
X106613604Y-83725135D01*
X107124034Y-83741004D01*
X107260667Y-83745006D01*
X107800615Y-83761153D01*
X108295502Y-83776934D01*
X108715630Y-83791325D01*
X109031305Y-83803301D01*
X109212831Y-83811838D01*
X109229167Y-83812945D01*
X109490902Y-83759123D01*
X109631333Y-83661333D01*
X109778665Y-83439777D01*
X109762491Y-83218404D01*
X109616575Y-83010623D01*
X109385385Y-82851290D01*
X109145615Y-82825881D01*
X108965921Y-82920500D01*
X108872703Y-82960293D01*
X108673901Y-82989850D01*
X108354147Y-83010087D01*
X107898073Y-83021921D01*
X107290310Y-83026270D01*
X107192155Y-83026333D01*
X105525000Y-83026333D01*
X105498722Y-83343833D01*
X105488010Y-83552612D01*
X101207000Y-83552612D01*
X101207000Y-83322667D01*
X102180667Y-83322667D01*
X103060488Y-83322667D01*
X103454407Y-83320992D01*
X103711123Y-83311289D01*
X103862762Y-83286540D01*
X103941451Y-83239728D01*
X103979316Y-83163834D01*
X103991343Y-83119331D01*
X104011397Y-82909859D01*
X104000532Y-82628304D01*
X103989014Y-82526664D01*
X103935650Y-82137333D01*
X103058158Y-82137333D01*
X102180667Y-82137333D01*
X102180667Y-82730000D01*
X102180667Y-83322667D01*
X101207000Y-83322667D01*
X101207000Y-82730000D01*
X101207000Y-82076966D01*
X113325538Y-82076966D01*
X113557490Y-82276483D01*
X113766348Y-82433104D01*
X113887741Y-82454025D01*
X113941409Y-82334619D01*
X113949333Y-82184663D01*
X113948688Y-82179667D01*
X114034000Y-82179667D01*
X114055671Y-82388122D01*
X114133404Y-82469319D01*
X114182167Y-82474703D01*
X114359299Y-82440261D01*
X114416362Y-82411203D01*
X114630401Y-82204381D01*
X114818321Y-81935764D01*
X114940286Y-81669320D01*
X114965333Y-81529704D01*
X114901268Y-81300203D01*
X114739454Y-81054323D01*
X114525466Y-80842365D01*
X114304878Y-80714632D01*
X114211800Y-80698000D01*
X114106888Y-80717282D01*
X114053717Y-80802877D01*
X114035387Y-80996406D01*
X114034000Y-81135833D01*
X114070530Y-81506737D01*
X114174122Y-81728500D01*
X114267094Y-81843334D01*
X114241667Y-81880404D01*
X114174122Y-81883333D01*
X114073931Y-81933244D01*
X114035717Y-82104957D01*
X114034000Y-82179667D01*
X113948688Y-82179667D01*
X113916866Y-81933200D01*
X113813786Y-81833866D01*
X113631580Y-81881257D01*
X113549046Y-81930518D01*
X113325538Y-82076966D01*
X101207000Y-82076966D01*
X101207000Y-80655667D01*
X96042333Y-80655667D01*
X90877667Y-80655667D01*
X90855904Y-86350151D01*
X90834141Y-92044635D01*
X86898823Y-92044635D01*
X86802680Y-91940242D01*
X86750167Y-91923649D01*
X86564011Y-91899233D01*
X86253441Y-91872558D01*
X85849225Y-91845014D01*
X85382134Y-91817989D01*
X84882939Y-91792873D01*
X84382411Y-91771055D01*
X83911320Y-91753925D01*
X83500436Y-91742871D01*
X83180531Y-91739284D01*
X82982374Y-91744552D01*
X82937035Y-91751486D01*
X82839095Y-91810021D01*
X82745775Y-91920787D01*
X82646260Y-92106721D01*
X82529738Y-92390758D01*
X82385394Y-92795835D01*
X82240576Y-93228667D01*
X82100011Y-93646444D01*
X81983998Y-93948193D01*
X81866105Y-94179360D01*
X81719903Y-94385394D01*
X81518960Y-94611741D01*
X81310017Y-94828758D01*
X81034776Y-95108871D01*
X80846355Y-95285793D01*
X80713768Y-95377968D01*
X80606029Y-95403840D01*
X80492152Y-95381856D01*
X80421059Y-95357924D01*
X80077665Y-95283348D01*
X79688036Y-95265387D01*
X79324180Y-95302846D01*
X79083629Y-95380108D01*
X78776684Y-95598963D01*
X78500178Y-95895655D01*
X78316246Y-96202825D01*
X78310053Y-96218678D01*
X78235898Y-96566219D01*
X78227987Y-96980230D01*
X72300340Y-96980230D01*
X71758577Y-95277507D01*
X71662965Y-94912853D01*
X74118771Y-94912853D01*
X74155541Y-95005810D01*
X74320366Y-95147898D01*
X74476479Y-95177296D01*
X74709720Y-95208272D01*
X74864009Y-95283132D01*
X74902059Y-95379180D01*
X74874959Y-95419846D01*
X74739368Y-95495855D01*
X74524916Y-95569071D01*
X74510668Y-95572774D01*
X74324260Y-95636695D01*
X74236549Y-95699347D01*
X74235502Y-95706402D01*
X74240367Y-95837771D01*
X74241327Y-95916833D01*
X74311614Y-96058745D01*
X74454557Y-96163605D01*
X74611560Y-96215627D01*
X74710503Y-96159452D01*
X74789432Y-96025699D01*
X74919877Y-95839929D01*
X75053064Y-95734954D01*
X75137786Y-95723245D01*
X75169138Y-95800163D01*
X75158038Y-96001334D01*
X75151924Y-96057489D01*
X75144553Y-96314597D01*
X75179750Y-96493617D01*
X75199995Y-96524795D01*
X75286197Y-96595873D01*
X75386177Y-96605968D01*
X75573738Y-96562110D01*
X75578477Y-96560842D01*
X75689406Y-96505550D01*
X75734759Y-96394850D01*
X75716689Y-96195448D01*
X75637353Y-95874048D01*
X75625640Y-95832167D01*
X75626108Y-95706498D01*
X75729632Y-95708147D01*
X75929110Y-95835826D01*
X76010599Y-95901871D01*
X76257814Y-96053036D01*
X76455808Y-96066082D01*
X76580468Y-95946219D01*
X76611333Y-95772019D01*
X76569096Y-95574417D01*
X76423997Y-95466723D01*
X76148451Y-95430437D01*
X76101405Y-95430000D01*
X75880863Y-95401185D01*
X75818506Y-95330452D01*
X75916360Y-95241363D01*
X76079999Y-95181050D01*
X76313493Y-95123203D01*
X76484396Y-95093029D01*
X76505500Y-95091805D01*
X76595188Y-95025742D01*
X76616577Y-94869578D01*
X76577111Y-94684661D01*
X76484234Y-94532339D01*
X76432940Y-94493818D01*
X76301471Y-94450970D01*
X76172499Y-94497383D01*
X75991558Y-94653256D01*
X75984409Y-94660172D01*
X75808393Y-94818896D01*
X75681568Y-94911892D01*
X75654802Y-94922000D01*
X75603534Y-94852577D01*
X75602260Y-94687674D01*
X75647086Y-94492343D01*
X75685875Y-94403022D01*
X75717158Y-94202089D01*
X75613022Y-94046944D01*
X75426000Y-93990667D01*
X75234565Y-94050863D01*
X75148764Y-94235444D01*
X75165896Y-94550399D01*
X75168016Y-94562167D01*
X75196111Y-94779930D01*
X75189810Y-94907841D01*
X75176472Y-94922000D01*
X75087257Y-94866260D01*
X74933604Y-94726838D01*
X74875667Y-94668000D01*
X74711631Y-94509712D01*
X74595602Y-94420942D01*
X74575856Y-94414000D01*
X74482339Y-94466272D01*
X74324629Y-94595025D01*
X74291926Y-94624810D01*
X74145497Y-94785749D01*
X74118771Y-94912853D01*
X71662965Y-94912853D01*
X71643782Y-94839689D01*
X71461064Y-94094046D01*
X71315273Y-93441360D01*
X71202331Y-92846162D01*
X71118158Y-92272984D01*
X71091068Y-92005816D01*
X72980705Y-92005816D01*
X73055694Y-92289343D01*
X73225170Y-92531316D01*
X73477428Y-92698015D01*
X73800766Y-92755725D01*
X73958807Y-92738622D01*
X74146597Y-92652924D01*
X74333405Y-92500408D01*
X74524184Y-92297333D01*
X77252504Y-92297333D01*
X79980823Y-92297333D01*
X80987274Y-91302500D01*
X81089587Y-91201768D01*
X88045042Y-91201768D01*
X88077767Y-91452807D01*
X88145761Y-91605894D01*
X88282554Y-91660823D01*
X88562207Y-91687840D01*
X88996314Y-91687968D01*
X89055927Y-91686327D01*
X89861667Y-91662333D01*
X89861667Y-91069667D01*
X89861667Y-90477000D01*
X89069973Y-90452543D01*
X88620184Y-90450693D01*
X88311639Y-90476301D01*
X88159806Y-90526410D01*
X88086915Y-90672986D01*
X88048375Y-90919966D01*
X88045042Y-91201768D01*
X81089587Y-91201768D01*
X81336619Y-90958554D01*
X81655818Y-90646817D01*
X81920303Y-90391090D01*
X82105505Y-90215176D01*
X82172486Y-90154260D01*
X82241229Y-90102525D01*
X82324383Y-90066630D01*
X82446201Y-90046290D01*
X82630939Y-90041221D01*
X82902851Y-90051140D01*
X83286192Y-90075763D01*
X83805218Y-90114806D01*
X84032123Y-90132507D01*
X84572355Y-90175418D01*
X85076479Y-90216568D01*
X85511857Y-90253208D01*
X85845848Y-90282586D01*
X86045813Y-90301953D01*
X86053564Y-90302819D01*
X86347478Y-90313027D01*
X86522197Y-90246810D01*
X86618279Y-90083897D01*
X86638463Y-90010485D01*
X86662421Y-89901397D01*
X86667491Y-89811576D01*
X86638477Y-89737968D01*
X86560182Y-89677518D01*
X86417409Y-89627169D01*
X86194961Y-89583867D01*
X85877642Y-89544555D01*
X85450254Y-89506179D01*
X84897600Y-89465683D01*
X84204484Y-89420011D01*
X83469333Y-89373306D01*
X83082362Y-89346142D01*
X82711398Y-89315612D01*
X82426192Y-89287542D01*
X82386621Y-89282865D01*
X82023575Y-89237994D01*
X80862621Y-90379752D01*
X79701667Y-91521510D01*
X77161667Y-91549588D01*
X74621667Y-91577667D01*
X74292352Y-91344833D01*
X74034497Y-91181506D01*
X73834656Y-91123649D01*
X73625213Y-91163195D01*
X73439693Y-91243080D01*
X73161001Y-91448967D01*
X73011906Y-91714451D01*
X72980705Y-92005816D01*
X71091068Y-92005816D01*
X71058675Y-91686356D01*
X71019801Y-91050810D01*
X70997458Y-90330877D01*
X70994586Y-90087049D01*
X77681890Y-90087049D01*
X77794717Y-90182405D01*
X77997598Y-90261790D01*
X78288931Y-90444398D01*
X78439006Y-90648967D01*
X78547416Y-90835001D01*
X78622500Y-90936395D01*
X78633298Y-90942667D01*
X78703819Y-90883955D01*
X78845898Y-90733281D01*
X78959309Y-90604000D01*
X79141910Y-90412220D01*
X79294221Y-90289466D01*
X79353415Y-90265333D01*
X79500483Y-90218733D01*
X79616446Y-90149208D01*
X79696411Y-90075932D01*
X79680604Y-90013458D01*
X79546197Y-89934045D01*
X79375327Y-89856176D01*
X79105804Y-89711295D01*
X78931833Y-89532001D01*
X78796401Y-89274615D01*
X78689222Y-89048641D01*
X78621448Y-88961652D01*
X78572980Y-88994100D01*
X78553606Y-89038481D01*
X78478406Y-89238333D01*
X78389489Y-89476074D01*
X78239490Y-89709568D01*
X77969882Y-89872803D01*
X77953906Y-89879294D01*
X77735362Y-89989594D01*
X77681890Y-90087049D01*
X70994586Y-90087049D01*
X70987565Y-89491088D01*
X70986199Y-89122333D01*
X70986821Y-88296597D01*
X70990043Y-88003923D01*
X73638966Y-88003923D01*
X73729431Y-88380690D01*
X73965523Y-88714327D01*
X74071333Y-88806245D01*
X74464884Y-89024202D01*
X74866420Y-89073252D01*
X75280090Y-88953783D01*
X75309792Y-88938636D01*
X88044089Y-88938636D01*
X88060222Y-89208361D01*
X88106640Y-89420677D01*
X88145761Y-89489227D01*
X88282554Y-89544157D01*
X88562207Y-89571173D01*
X88996314Y-89571302D01*
X89055927Y-89569661D01*
X89861667Y-89545667D01*
X89886598Y-88978709D01*
X89911530Y-88411752D01*
X89601393Y-88353570D01*
X89331235Y-88327404D01*
X89004731Y-88330286D01*
X88670495Y-88357217D01*
X88377141Y-88403197D01*
X88173284Y-88463226D01*
X88112225Y-88506722D01*
X88060628Y-88681442D01*
X88044089Y-88938636D01*
X75309792Y-88938636D01*
X75339095Y-88923692D01*
X75570900Y-88748107D01*
X75748573Y-88527698D01*
X75761107Y-88504065D01*
X75960838Y-88263307D01*
X76145667Y-88181357D01*
X76274370Y-88169888D01*
X76556851Y-88157502D01*
X76977557Y-88144514D01*
X77520938Y-88131242D01*
X78171441Y-88118002D01*
X78913516Y-88105111D01*
X79731611Y-88092886D01*
X80610173Y-88081644D01*
X81522000Y-88071816D01*
X86644333Y-88021667D01*
X86644333Y-87683000D01*
X86644333Y-87344333D01*
X84654667Y-87320637D01*
X84099555Y-87317273D01*
X83409867Y-87318294D01*
X82620293Y-87323352D01*
X81765522Y-87332098D01*
X80880246Y-87344183D01*
X79999154Y-87359260D01*
X79243988Y-87374971D01*
X75822977Y-87453003D01*
X75621718Y-87213820D01*
X75302063Y-86950696D01*
X74931241Y-86833662D01*
X74542056Y-86861762D01*
X74167315Y-87034041D01*
X73909852Y-87263659D01*
X73697862Y-87619691D01*
X73638966Y-88003923D01*
X70990043Y-88003923D01*
X70994409Y-87607244D01*
X71011799Y-87021375D01*
X71027853Y-86745907D01*
X88052230Y-86745907D01*
X88058679Y-86955705D01*
X88083667Y-87429000D01*
X88761000Y-87476974D01*
X89096491Y-87501362D01*
X89375315Y-87522770D01*
X89546924Y-87537289D01*
X89565333Y-87539177D01*
X89751064Y-87508998D01*
X89802556Y-87483494D01*
X89868347Y-87364901D01*
X89892383Y-87108783D01*
X89887223Y-86870957D01*
X89861667Y-86328333D01*
X89069973Y-86303876D01*
X88634411Y-86297473D01*
X88341255Y-86321459D01*
X88164105Y-86392849D01*
X88076563Y-86528660D01*
X88052230Y-86745907D01*
X71027853Y-86745907D01*
X71041829Y-86506090D01*
X71066287Y-86249385D01*
X76970270Y-86249385D01*
X76986989Y-86449078D01*
X77083047Y-86576286D01*
X77299610Y-86697980D01*
X77516925Y-86659380D01*
X77669635Y-86509596D01*
X77757145Y-86275085D01*
X77681576Y-86085286D01*
X77494429Y-85960048D01*
X77315937Y-85911456D01*
X77170666Y-85983712D01*
X77118086Y-86033247D01*
X76970270Y-86249385D01*
X71066287Y-86249385D01*
X71087333Y-86028490D01*
X71151149Y-85555674D01*
X71236112Y-85054743D01*
X71345059Y-84492797D01*
X71407072Y-84190358D01*
X73333353Y-84190358D01*
X73381753Y-84522185D01*
X73565011Y-84842303D01*
X73663508Y-84945820D01*
X73987237Y-85141739D01*
X74355736Y-85181360D01*
X74740945Y-85062326D01*
X74945757Y-84893623D01*
X75085679Y-84681326D01*
X75190815Y-84495547D01*
X75329519Y-84432135D01*
X75549717Y-84476379D01*
X75643338Y-84510156D01*
X75926371Y-84559824D01*
X75994647Y-84533874D01*
X77924864Y-84533874D01*
X77971520Y-84705896D01*
X78128019Y-84834610D01*
X78413058Y-84950164D01*
X78784214Y-85064653D01*
X79233130Y-85188462D01*
X79554028Y-85250370D01*
X79776609Y-85250112D01*
X79930573Y-85187420D01*
X80045622Y-85062030D01*
X80051413Y-85053305D01*
X80195334Y-84772198D01*
X80247450Y-84634288D01*
X80528298Y-84634288D01*
X80566878Y-84719012D01*
X80707097Y-84764164D01*
X80897737Y-84792677D01*
X81110535Y-84835748D01*
X81297556Y-84916771D01*
X81501082Y-85062062D01*
X81763393Y-85297932D01*
X81863258Y-85393559D01*
X82428889Y-85939630D01*
X84506143Y-85944115D01*
X85159851Y-85944421D01*
X85663849Y-85941369D01*
X86037747Y-85933762D01*
X86301157Y-85920403D01*
X86473687Y-85900096D01*
X86574949Y-85871645D01*
X86624552Y-85833853D01*
X86634956Y-85814239D01*
X86656622Y-85626484D01*
X86638005Y-85486598D01*
X86591734Y-85380221D01*
X86492083Y-85313654D01*
X86298636Y-85270652D01*
X86024248Y-85239928D01*
X85739416Y-85221270D01*
X85330621Y-85205373D01*
X84843224Y-85193490D01*
X84322589Y-85186875D01*
X84069191Y-85185935D01*
X82679381Y-85185333D01*
X82484233Y-84998048D01*
X88046804Y-84998048D01*
X88057061Y-85216228D01*
X88140147Y-85346982D01*
X88321038Y-85410731D01*
X88624711Y-85427899D01*
X89000456Y-85421055D01*
X89861667Y-85397000D01*
X89861667Y-84804333D01*
X89861667Y-84211667D01*
X89184617Y-84186562D01*
X88752035Y-84175169D01*
X88458468Y-84187778D01*
X88273943Y-84237617D01*
X88168487Y-84337910D01*
X88112126Y-84501884D01*
X88084398Y-84672016D01*
X88046804Y-84998048D01*
X82484233Y-84998048D01*
X82164191Y-84690901D01*
X81892255Y-84439896D01*
X81685735Y-84284531D01*
X81494813Y-84196371D01*
X81269674Y-84146977D01*
X81192124Y-84136010D01*
X80892878Y-84107425D01*
X80716116Y-84136211D01*
X80618525Y-84245332D01*
X80556787Y-84457754D01*
X80553176Y-84474766D01*
X80528298Y-84634288D01*
X80247450Y-84634288D01*
X80340626Y-84387721D01*
X80466304Y-83964358D01*
X80551384Y-83566591D01*
X80563861Y-83478629D01*
X80585255Y-83233960D01*
X80555273Y-83095640D01*
X80450132Y-83002950D01*
X80357833Y-82952612D01*
X80168964Y-82873662D01*
X79882373Y-82774255D01*
X79548807Y-82669595D01*
X79219012Y-82574886D01*
X78943737Y-82505332D01*
X78773727Y-82476139D01*
X78767051Y-82476000D01*
X78565969Y-82552176D01*
X78409922Y-82746804D01*
X78341630Y-82993093D01*
X78303519Y-83210356D01*
X78220590Y-83524287D01*
X78109351Y-83873714D01*
X78086290Y-83939313D01*
X77969353Y-84288396D01*
X77924864Y-84533874D01*
X75994647Y-84533874D01*
X76137101Y-84479731D01*
X76232997Y-84330273D01*
X76237729Y-84121054D01*
X76098798Y-83989946D01*
X77429183Y-83989946D01*
X77435143Y-84031169D01*
X77491949Y-84200248D01*
X77569417Y-84212399D01*
X77669579Y-84064951D01*
X77794466Y-83755238D01*
X77906535Y-83411746D01*
X78029613Y-82972987D01*
X78082987Y-82684913D01*
X78067257Y-82544164D01*
X78062732Y-82538865D01*
X77966367Y-82535561D01*
X77847029Y-82661726D01*
X77719674Y-82881799D01*
X77599257Y-83160219D01*
X77500732Y-83461425D01*
X77439056Y-83749854D01*
X77429183Y-83989946D01*
X76098798Y-83989946D01*
X76093840Y-83985267D01*
X75798909Y-83921235D01*
X75633005Y-83915333D01*
X75361794Y-83905126D01*
X75213072Y-83863830D01*
X75140668Y-83775436D01*
X75127812Y-83740158D01*
X75020313Y-83579544D01*
X74831038Y-83418599D01*
X74804607Y-83401808D01*
X74445247Y-83260774D01*
X74106062Y-83263208D01*
X73806167Y-83383246D01*
X73564674Y-83595026D01*
X73400698Y-83872684D01*
X73333353Y-84190358D01*
X71407072Y-84190358D01*
X71414494Y-84154162D01*
X71872096Y-82342724D01*
X72331601Y-80995960D01*
X74101582Y-80995960D01*
X74188346Y-81336589D01*
X74382395Y-81605568D01*
X74655372Y-81788148D01*
X74978919Y-81869583D01*
X75324678Y-81835125D01*
X75664290Y-81670026D01*
X75864557Y-81489835D01*
X75912283Y-81446259D01*
X75979913Y-81412080D01*
X76085759Y-81386551D01*
X76248133Y-81368928D01*
X76485348Y-81358464D01*
X76815717Y-81354415D01*
X77257551Y-81356036D01*
X77829162Y-81362580D01*
X78548864Y-81373302D01*
X78677563Y-81375333D01*
X81348744Y-81417667D01*
X81994272Y-82349000D01*
X82254666Y-82718484D01*
X82501068Y-83057053D01*
X82707464Y-83329672D01*
X82847836Y-83501305D01*
X82858740Y-83513167D01*
X83077681Y-83746000D01*
X84353007Y-83736811D01*
X84850319Y-83729760D01*
X85333416Y-83716767D01*
X85755367Y-83699502D01*
X86069242Y-83679636D01*
X86136333Y-83673311D01*
X86644333Y-83619000D01*
X86644333Y-83322667D01*
X86644333Y-83026333D01*
X84993333Y-83000361D01*
X83342333Y-82974389D01*
X83310026Y-82927622D01*
X88044269Y-82927622D01*
X88061933Y-83122550D01*
X88138104Y-83239773D01*
X88300206Y-83299036D01*
X88575661Y-83320085D01*
X88991890Y-83322668D01*
X89012343Y-83322667D01*
X89904000Y-83322667D01*
X89904000Y-82727135D01*
X89904000Y-82131604D01*
X88993833Y-82155635D01*
X88083667Y-82179667D01*
X88057691Y-82635241D01*
X88044269Y-82927622D01*
X83310026Y-82927622D01*
X82580333Y-81871321D01*
X82310136Y-81488055D01*
X82063330Y-81152497D01*
X81859845Y-80890656D01*
X81719613Y-80728544D01*
X81675733Y-80690793D01*
X81558610Y-80671859D01*
X81293645Y-80654601D01*
X80902325Y-80639601D01*
X80406138Y-80627446D01*
X79826570Y-80618719D01*
X79185110Y-80614005D01*
X78828193Y-80613333D01*
X76123255Y-80613333D01*
X75784588Y-80274667D01*
X75554562Y-80067952D01*
X75361930Y-79965856D01*
X75143897Y-79936482D01*
X75118461Y-79936316D01*
X74714170Y-80007437D01*
X74391724Y-80206530D01*
X74180565Y-80513459D01*
X74150463Y-80598428D01*
X74101582Y-80995960D01*
X72331601Y-80995960D01*
X72486727Y-80541299D01*
X73026374Y-79287761D01*
X79006969Y-79287761D01*
X79136537Y-79538251D01*
X79159117Y-79563286D01*
X79367441Y-79730650D01*
X79570494Y-79751283D01*
X79747626Y-79680059D01*
X79973049Y-79485519D01*
X80051171Y-79248809D01*
X79982920Y-79009622D01*
X79769226Y-78807648D01*
X79726639Y-78784022D01*
X79538059Y-78701461D01*
X79404580Y-78712107D01*
X79245806Y-78814612D01*
X79044027Y-79041063D01*
X79006969Y-79287761D01*
X73026374Y-79287761D01*
X73246819Y-78775692D01*
X74140806Y-77071706D01*
X74682131Y-76210667D01*
X77542667Y-76210667D01*
X77616234Y-76716687D01*
X77819869Y-77142536D01*
X78127970Y-77474686D01*
X78514935Y-77699605D01*
X78955162Y-77803763D01*
X79423050Y-77773631D01*
X79892996Y-77595678D01*
X80018817Y-77519274D01*
X80272147Y-77385201D01*
X80444615Y-77365428D01*
X80461676Y-77372878D01*
X80605722Y-77482638D01*
X80843851Y-77697327D01*
X81156076Y-77996727D01*
X81522408Y-78360622D01*
X81922860Y-78768795D01*
X82337443Y-79201029D01*
X82746168Y-79637108D01*
X83129048Y-80056814D01*
X83255542Y-80198690D01*
X83586555Y-80570787D01*
X83884482Y-80902343D01*
X84128938Y-81170935D01*
X84299535Y-81354142D01*
X84371736Y-81426396D01*
X84510023Y-81466584D01*
X84807419Y-81494204D01*
X85254124Y-81508674D01*
X85774014Y-81509984D01*
X87064348Y-81500174D01*
X87147423Y-81263953D01*
X87183699Y-81004573D01*
X87138191Y-80884032D01*
X87081438Y-80825654D01*
X86981036Y-80786686D01*
X86808779Y-80764346D01*
X86536462Y-80755851D01*
X86135879Y-80758419D01*
X85905790Y-80762451D01*
X84765696Y-80784569D01*
X84737133Y-80753743D01*
X88052175Y-80753743D01*
X88121456Y-81046163D01*
X88257242Y-81208971D01*
X88319300Y-81231281D01*
X88564583Y-81259914D01*
X88891754Y-81274803D01*
X89236760Y-81275671D01*
X89535544Y-81262242D01*
X89713500Y-81237302D01*
X89815030Y-81194805D01*
X89872356Y-81108633D01*
X89897873Y-80938047D01*
X89903979Y-80642310D01*
X89903996Y-80617319D01*
X102180667Y-80617319D01*
X102185382Y-80924610D01*
X102207737Y-81102310D01*
X102260044Y-81190076D01*
X102354615Y-81227567D01*
X102371167Y-81230914D01*
X102714312Y-81268789D01*
X103130118Y-81276021D01*
X103524634Y-81252209D01*
X103641167Y-81236323D01*
X103958667Y-81183844D01*
X103958667Y-80933536D01*
X105048011Y-80933536D01*
X105074839Y-81260268D01*
X105101667Y-81587000D01*
X106498667Y-81632525D01*
X107086562Y-81649582D01*
X107774434Y-81666213D01*
X108492929Y-81680930D01*
X109172694Y-81692250D01*
X109463506Y-81696025D01*
X111031346Y-81714000D01*
X111388113Y-81458565D01*
X113149606Y-81458565D01*
X113151611Y-81573697D01*
X113268242Y-81673676D01*
X113472493Y-81717272D01*
X113693216Y-81703877D01*
X113859263Y-81632883D01*
X113897941Y-81580075D01*
X113955831Y-81304690D01*
X113940061Y-81135833D01*
X113931845Y-81047859D01*
X113838706Y-80857785D01*
X113689137Y-80782674D01*
X113687476Y-80782667D01*
X113538160Y-80853367D01*
X113373040Y-81027525D01*
X113230671Y-81248229D01*
X113149606Y-81458565D01*
X111388113Y-81458565D01*
X112257506Y-80836104D01*
X113483667Y-79958209D01*
X114161000Y-80000167D01*
X114504114Y-80025796D01*
X114725715Y-80061893D01*
X114873504Y-80125280D01*
X114995181Y-80232778D01*
X115072199Y-80321504D01*
X115400782Y-80603008D01*
X115768423Y-80733211D01*
X116144477Y-80711627D01*
X116498294Y-80537772D01*
X116698229Y-80347185D01*
X116878074Y-80016476D01*
X116915449Y-79657347D01*
X116823185Y-79308874D01*
X116614111Y-79010136D01*
X116301057Y-78800211D01*
X116176086Y-78756801D01*
X115806115Y-78736204D01*
X115435682Y-78854693D01*
X115122786Y-79092432D01*
X115092333Y-79127459D01*
X115001490Y-79225740D01*
X114902918Y-79281742D01*
X114755065Y-79301950D01*
X114516376Y-79292848D01*
X114203333Y-79266213D01*
X113843223Y-79244331D01*
X113528020Y-79244585D01*
X113311885Y-79266398D01*
X113277160Y-79276047D01*
X113111605Y-79357548D01*
X112851538Y-79517784D01*
X112487463Y-79763167D01*
X112009885Y-80100106D01*
X111409310Y-80535013D01*
X111370419Y-80563440D01*
X110781172Y-80994333D01*
X107914591Y-80963935D01*
X105048011Y-80933536D01*
X103958667Y-80933536D01*
X103958667Y-80613763D01*
X103958667Y-80043683D01*
X103565849Y-79989841D01*
X103059249Y-79943489D01*
X102626481Y-79948961D01*
X102371167Y-79989364D01*
X102269775Y-80031761D01*
X102212456Y-80117700D01*
X102186874Y-80287845D01*
X102180693Y-80582855D01*
X102180667Y-80617319D01*
X89903996Y-80617319D01*
X89904000Y-80611294D01*
X89904000Y-80036338D01*
X89417167Y-80007336D01*
X89049509Y-79998428D01*
X88667717Y-80008677D01*
X88507000Y-80020667D01*
X88255762Y-80052553D01*
X88126897Y-80105488D01*
X88073960Y-80213762D01*
X88055981Y-80353645D01*
X88052175Y-80753743D01*
X84737133Y-80753743D01*
X84350348Y-80336312D01*
X84130839Y-80095082D01*
X83838760Y-79768067D01*
X83511934Y-79397882D01*
X83188189Y-79027141D01*
X83182994Y-79021153D01*
X82880254Y-78678267D01*
X82592403Y-78363126D01*
X82349630Y-78108082D01*
X82182129Y-77945486D01*
X82166994Y-77932437D01*
X81984687Y-77773863D01*
X81724158Y-77540553D01*
X81430895Y-77273399D01*
X81313998Y-77165651D01*
X81096082Y-76957685D01*
X82961333Y-76957685D01*
X83018917Y-77223150D01*
X83193629Y-77366586D01*
X83389521Y-77396000D01*
X83511708Y-77425184D01*
X83673386Y-77523025D01*
X83893643Y-77704956D01*
X84191568Y-77986409D01*
X84494421Y-78289297D01*
X84807096Y-78611107D01*
X85075478Y-78895620D01*
X85277558Y-79118859D01*
X85391326Y-79256849D01*
X85407656Y-79284131D01*
X85506905Y-79557280D01*
X85595026Y-79703445D01*
X85701324Y-79760080D01*
X85785204Y-79766667D01*
X85987821Y-79717094D01*
X86093087Y-79640766D01*
X86162775Y-79441353D01*
X86097828Y-79223263D01*
X85917701Y-79038038D01*
X85851270Y-79000066D01*
X85701914Y-78898250D01*
X85461464Y-78702461D01*
X85159194Y-78437828D01*
X84824377Y-78129483D01*
X84705725Y-78016658D01*
X84328208Y-77646779D01*
X84064945Y-77368476D01*
X83901014Y-77163839D01*
X83821492Y-77014957D01*
X83808000Y-76939110D01*
X83728159Y-76706332D01*
X83596333Y-76583881D01*
X83430624Y-76494298D01*
X83300329Y-76508787D01*
X83173000Y-76583881D01*
X82994787Y-76785449D01*
X82961333Y-76957685D01*
X81096082Y-76957685D01*
X81031664Y-76896208D01*
X80857315Y-76703120D01*
X80768431Y-76554845D01*
X80742487Y-76419841D01*
X80744266Y-76367785D01*
X80704653Y-75890904D01*
X80528774Y-75454180D01*
X80242708Y-75083412D01*
X79872533Y-74804399D01*
X79444326Y-74642942D01*
X78984165Y-74624839D01*
X78982712Y-74625033D01*
X78473234Y-74768576D01*
X78056583Y-75037934D01*
X77751606Y-75412353D01*
X77577151Y-75871079D01*
X77542667Y-76210667D01*
X74682131Y-76210667D01*
X75157119Y-75455144D01*
X75582636Y-74856000D01*
X76362953Y-73861854D01*
X77252423Y-72845706D01*
X78213698Y-71845207D01*
X78469722Y-71601661D01*
X82486564Y-71601661D01*
X82505103Y-71974929D01*
X82643445Y-72386627D01*
X82899122Y-72763425D01*
X83230040Y-73049385D01*
X83369776Y-73123932D01*
X83705035Y-73271848D01*
X83737495Y-74148750D01*
X83769956Y-75025652D01*
X84445145Y-75710442D01*
X84788132Y-76053534D01*
X85173534Y-76431099D01*
X85582470Y-76825484D01*
X85996058Y-77219036D01*
X86395416Y-77594103D01*
X86761662Y-77933033D01*
X87075916Y-78218174D01*
X87319296Y-78431872D01*
X87472919Y-78556475D01*
X87515942Y-78581333D01*
X87625353Y-78523695D01*
X87718999Y-78433167D01*
X87845791Y-78271371D01*
X87902283Y-78185911D01*
X87859535Y-78099388D01*
X87777615Y-77998442D01*
X89979092Y-77998442D01*
X89987048Y-78151622D01*
X90032897Y-78390599D01*
X90119155Y-78751141D01*
X90138884Y-78830573D01*
X90235237Y-79211428D01*
X90307150Y-79457415D01*
X90371077Y-79597991D01*
X90443473Y-79662608D01*
X90540792Y-79680722D01*
X90614268Y-79681528D01*
X90880210Y-79657301D01*
X91172538Y-79598992D01*
X91195167Y-79592881D01*
X91354609Y-79539421D01*
X91455088Y-79465669D01*
X91499322Y-79343414D01*
X91490030Y-79144444D01*
X91429933Y-78840548D01*
X91321749Y-78403514D01*
X91313077Y-78369667D01*
X91309541Y-78355879D01*
X92292613Y-78355879D01*
X92309168Y-78721063D01*
X92315797Y-78807538D01*
X92375149Y-79520043D01*
X92938741Y-79495188D01*
X93502333Y-79470333D01*
X93502333Y-78539000D01*
X93502333Y-78478687D01*
X93502333Y-77607667D01*
X92938372Y-77582803D01*
X92374411Y-77557940D01*
X92315429Y-77826487D01*
X92294692Y-78037425D01*
X92292613Y-78355879D01*
X91309541Y-78355879D01*
X91117664Y-77607667D01*
X90662163Y-77620660D01*
X90352891Y-77648536D01*
X90159931Y-77720764D01*
X90066781Y-77806400D01*
X90006509Y-77895291D01*
X89979092Y-77998442D01*
X87777615Y-77998442D01*
X87703924Y-77907637D01*
X87445691Y-77621708D01*
X87384783Y-77557596D01*
X94391333Y-77557596D01*
X94391333Y-78478687D01*
X94396550Y-78858417D01*
X94410673Y-79173754D01*
X94431416Y-79387289D01*
X94451358Y-79459803D01*
X94561973Y-79487891D01*
X94788048Y-79499774D01*
X95022858Y-79495081D01*
X95534333Y-79470333D01*
X95534333Y-78817860D01*
X96434962Y-78817860D01*
X96437873Y-79129287D01*
X96449156Y-79340006D01*
X96459761Y-79400807D01*
X96570946Y-79473717D01*
X96838070Y-79508838D01*
X97015438Y-79512667D01*
X97303620Y-79506352D01*
X97469051Y-79476246D01*
X97558166Y-79405604D01*
X97609654Y-79298402D01*
X97633354Y-79161642D01*
X98476698Y-79161642D01*
X98515675Y-79356898D01*
X98610072Y-79460989D01*
X98774360Y-79499829D01*
X99023006Y-79499330D01*
X99121951Y-79495130D01*
X99683000Y-79470333D01*
X99683000Y-79416656D01*
X100526153Y-79416656D01*
X100530641Y-79429577D01*
X100658000Y-79517064D01*
X100895700Y-79598134D01*
X101185058Y-79656152D01*
X101394236Y-79674364D01*
X101577284Y-79661144D01*
X101676782Y-79576389D01*
X101746740Y-79372919D01*
X101748944Y-79364500D01*
X101750745Y-79357502D01*
X104948874Y-79357502D01*
X104981007Y-79540905D01*
X105041572Y-79726122D01*
X105110477Y-79841050D01*
X105133390Y-79851333D01*
X105239384Y-79824406D01*
X105464039Y-79752410D01*
X105767016Y-79648520D01*
X105914136Y-79596318D01*
X106245279Y-79477549D01*
X106521612Y-79378279D01*
X106699765Y-79314097D01*
X106734461Y-79301506D01*
X106793576Y-79240734D01*
X106759457Y-79105863D01*
X106711120Y-79006188D01*
X106593828Y-78832778D01*
X106484468Y-78751512D01*
X106475614Y-78750667D01*
X106345535Y-78776281D01*
X106109091Y-78842892D01*
X105812899Y-78935148D01*
X105503576Y-79037698D01*
X105227740Y-79135192D01*
X105032005Y-79212280D01*
X104965265Y-79248014D01*
X104948874Y-79357502D01*
X101750745Y-79357502D01*
X101882623Y-78845078D01*
X101975509Y-78464655D01*
X102032424Y-78199157D01*
X102058189Y-78024508D01*
X102057625Y-77916634D01*
X102049398Y-77884062D01*
X104081885Y-77884062D01*
X104164451Y-78033905D01*
X104296896Y-78184539D01*
X104410307Y-78242667D01*
X104494064Y-78185394D01*
X104494257Y-78185228D01*
X106774113Y-78185228D01*
X106785945Y-78343945D01*
X106903786Y-78938500D01*
X107151802Y-79450154D01*
X107417584Y-79787833D01*
X107561165Y-79922404D01*
X107712133Y-79993698D01*
X107911501Y-80005647D01*
X108200286Y-79962184D01*
X108512165Y-79892776D01*
X109043655Y-79735039D01*
X109470395Y-79541762D01*
X109765288Y-79326276D01*
X109837405Y-79240961D01*
X109953119Y-79030868D01*
X109933074Y-78913026D01*
X109774067Y-78874318D01*
X109747895Y-78874329D01*
X109528728Y-78815802D01*
X109401192Y-78663521D01*
X109403535Y-78465841D01*
X109521439Y-78349072D01*
X109697471Y-78342481D01*
X109864328Y-78442492D01*
X109902294Y-78492362D01*
X110020137Y-78596927D01*
X110127450Y-78554316D01*
X110202277Y-78386297D01*
X110224000Y-78173350D01*
X110152469Y-77842149D01*
X109961350Y-77496885D01*
X109685853Y-77192135D01*
X109503736Y-77056964D01*
X109205485Y-76932017D01*
X108842615Y-76896934D01*
X108389491Y-76952423D01*
X107820474Y-77099193D01*
X107804860Y-77103941D01*
X107355644Y-77257656D01*
X107050956Y-77414657D01*
X106867802Y-77602931D01*
X106783186Y-77850459D01*
X106774113Y-78185228D01*
X104494257Y-78185228D01*
X104683983Y-78022456D01*
X104965740Y-77767174D01*
X105325012Y-77432866D01*
X105747476Y-77032854D01*
X105996196Y-76794128D01*
X109677613Y-76794128D01*
X109716000Y-76845667D01*
X109860148Y-76953257D01*
X109938033Y-76972667D01*
X110041228Y-76904670D01*
X110054667Y-76845667D01*
X109980521Y-76743864D01*
X109832633Y-76718667D01*
X109683625Y-76732955D01*
X109677613Y-76794128D01*
X105996196Y-76794128D01*
X106218811Y-76580458D01*
X106354210Y-76448961D01*
X111167895Y-76448961D01*
X111268463Y-76553439D01*
X111432825Y-76588329D01*
X111600571Y-76617111D01*
X111663333Y-76683795D01*
X111722946Y-76823651D01*
X111852286Y-76912585D01*
X111967313Y-76904323D01*
X112058061Y-76789781D01*
X112156179Y-76595365D01*
X112157697Y-76591667D01*
X112298848Y-76370434D01*
X112506719Y-76165519D01*
X112533890Y-76145487D01*
X112806333Y-75953307D01*
X112833668Y-76219759D01*
X112818471Y-76435736D01*
X112703354Y-76638995D01*
X112589634Y-76766192D01*
X112415193Y-76987231D01*
X112363351Y-77154548D01*
X112369143Y-77178753D01*
X112484293Y-77297589D01*
X112655664Y-77278281D01*
X112759528Y-77205500D01*
X112838997Y-77148853D01*
X112827354Y-77230018D01*
X112819098Y-77253967D01*
X112812360Y-77452419D01*
X112897364Y-77634979D01*
X113037959Y-77731748D01*
X113067716Y-77734667D01*
X113181748Y-77662702D01*
X113281863Y-77488460D01*
X113285631Y-77477957D01*
X113363301Y-77310399D01*
X113443886Y-77286235D01*
X113489185Y-77315913D01*
X113640343Y-77365959D01*
X113756964Y-77294926D01*
X113780000Y-77208495D01*
X113732268Y-77085879D01*
X113614113Y-76899519D01*
X113580049Y-76853501D01*
X113478737Y-76675008D01*
X113391848Y-76446338D01*
X113332133Y-76217576D01*
X113312342Y-76038806D01*
X113345228Y-75960114D01*
X113352501Y-75959711D01*
X113484365Y-76027070D01*
X113667278Y-76185952D01*
X113854817Y-76389413D01*
X114000558Y-76590513D01*
X114029741Y-76644511D01*
X114169942Y-76867374D01*
X114300081Y-76952926D01*
X114399971Y-76892454D01*
X114429243Y-76816938D01*
X114485605Y-76698009D01*
X114592689Y-76716947D01*
X114640473Y-76744518D01*
X114788740Y-76798128D01*
X114904131Y-76713063D01*
X114922341Y-76689270D01*
X114999377Y-76484227D01*
X114917714Y-76319819D01*
X114782335Y-76248663D01*
X114666575Y-76197898D01*
X114703483Y-76132525D01*
X114760758Y-76088951D01*
X114869094Y-75962837D01*
X114827492Y-75869791D01*
X114654102Y-75822376D01*
X114387549Y-75830594D01*
X114104775Y-75844752D01*
X113908924Y-75792918D01*
X113780000Y-75706300D01*
X113645321Y-75579422D01*
X113638156Y-75498479D01*
X113695333Y-75448541D01*
X114039430Y-75309897D01*
X114405382Y-75323609D01*
X114489897Y-75350375D01*
X114724652Y-75398760D01*
X114854890Y-75343002D01*
X114859604Y-75198804D01*
X114814329Y-75107887D01*
X114753269Y-74980770D01*
X114804661Y-74941681D01*
X114832619Y-74940667D01*
X114987318Y-74876906D01*
X115028389Y-74703753D01*
X115005149Y-74594067D01*
X114917437Y-74465965D01*
X114755346Y-74467013D01*
X114592357Y-74467671D01*
X114517255Y-74347188D01*
X114430061Y-74201428D01*
X114306975Y-74199171D01*
X114182339Y-74329836D01*
X114120506Y-74469425D01*
X113938014Y-74768050D01*
X113728101Y-74935092D01*
X113533617Y-75044905D01*
X113409680Y-75105709D01*
X113394160Y-75110000D01*
X113371127Y-75034576D01*
X113357904Y-74845184D01*
X113356667Y-74754799D01*
X113396291Y-74450637D01*
X113537563Y-74212867D01*
X113579331Y-74167187D01*
X113718877Y-73966876D01*
X113750683Y-73797414D01*
X113678684Y-73696258D01*
X113529660Y-73694241D01*
X113391962Y-73682382D01*
X113340189Y-73555680D01*
X113255163Y-73412033D01*
X113101126Y-73363931D01*
X112947833Y-73411873D01*
X112865589Y-73552281D01*
X112808290Y-73681390D01*
X112659043Y-73695211D01*
X112632756Y-73690578D01*
X112469543Y-73703193D01*
X112425347Y-73805596D01*
X112500361Y-73966929D01*
X112630161Y-74103882D01*
X112833644Y-74368322D01*
X112913501Y-74671849D01*
X112889040Y-74862176D01*
X112848596Y-74958387D01*
X112780331Y-74977626D01*
X112635759Y-74919340D01*
X112513721Y-74857898D01*
X112277452Y-74700788D01*
X112151052Y-74499576D01*
X112113759Y-74372089D01*
X112016940Y-74145086D01*
X111886114Y-74044608D01*
X111756832Y-74079311D01*
X111664646Y-74257850D01*
X111663535Y-74262480D01*
X111608883Y-74396475D01*
X111548746Y-74368084D01*
X111447235Y-74306491D01*
X111319528Y-74350750D01*
X111180608Y-74486224D01*
X111174863Y-74634847D01*
X111301865Y-74740100D01*
X111322539Y-74746245D01*
X111435511Y-74785127D01*
X111419913Y-74841877D01*
X111313846Y-74932403D01*
X111196223Y-75044946D01*
X111208346Y-75126410D01*
X111279214Y-75192078D01*
X111413527Y-75262738D01*
X111586790Y-75245240D01*
X111702481Y-75207347D01*
X111905627Y-75152996D01*
X112076127Y-75176727D01*
X112297886Y-75290288D01*
X112298827Y-75290843D01*
X112613173Y-75476312D01*
X112413420Y-75634530D01*
X112218820Y-75735051D01*
X111968780Y-75751133D01*
X111622176Y-75683669D01*
X111516195Y-75654023D01*
X111342494Y-75660002D01*
X111262048Y-75771193D01*
X111294242Y-75940434D01*
X111360116Y-76033727D01*
X111451065Y-76152503D01*
X111410753Y-76208986D01*
X111320687Y-76236239D01*
X111179738Y-76325754D01*
X111167895Y-76448961D01*
X106354210Y-76448961D01*
X106697582Y-76115483D01*
X107219533Y-75601341D01*
X107717909Y-75102086D01*
X108175730Y-74635351D01*
X108576015Y-74218768D01*
X108901783Y-73869971D01*
X109136053Y-73606592D01*
X109246712Y-73468495D01*
X109438748Y-73204905D01*
X109574481Y-73052016D01*
X109695649Y-72982461D01*
X109843989Y-72968876D01*
X109993880Y-72978614D01*
X110255019Y-72979797D01*
X110451529Y-72912058D01*
X110669862Y-72745362D01*
X110672892Y-72742704D01*
X110965297Y-72396887D01*
X111104149Y-72024064D01*
X111088668Y-71649424D01*
X110918076Y-71298155D01*
X110723856Y-71094473D01*
X110352399Y-70876096D01*
X109960983Y-70823004D01*
X109587236Y-70925512D01*
X109259844Y-71139907D01*
X109061397Y-71424603D01*
X108978721Y-71805978D01*
X108982117Y-72136941D01*
X109021004Y-72677548D01*
X108281251Y-73491607D01*
X108005772Y-73785475D01*
X107635120Y-74167315D01*
X107197355Y-74608961D01*
X106720536Y-75082249D01*
X106232720Y-75559012D01*
X105953371Y-75828362D01*
X105514818Y-76251694D01*
X105109412Y-76648412D01*
X104755705Y-76999932D01*
X104472251Y-77287670D01*
X104277605Y-77493044D01*
X104196454Y-77588101D01*
X104088896Y-77760509D01*
X104081885Y-77884062D01*
X102049398Y-77884062D01*
X102047191Y-77875322D01*
X101917694Y-77739232D01*
X101683919Y-77637290D01*
X101405831Y-77580464D01*
X101143391Y-77579726D01*
X100956562Y-77646042D01*
X100931202Y-77671167D01*
X100871117Y-77803152D01*
X100794940Y-78048157D01*
X100712769Y-78361843D01*
X100634705Y-78699874D01*
X100570847Y-79017911D01*
X100531297Y-79271617D01*
X100526153Y-79416656D01*
X99683000Y-79416656D01*
X99683000Y-78539000D01*
X99683000Y-77607667D01*
X99123850Y-77582913D01*
X98564701Y-77558159D01*
X98507135Y-78393978D01*
X98478675Y-78849306D01*
X98476698Y-79161642D01*
X97633354Y-79161642D01*
X97641872Y-79112486D01*
X97653841Y-78808474D01*
X97644159Y-78436551D01*
X97636960Y-78321161D01*
X97582803Y-77558186D01*
X97024235Y-77582926D01*
X96465667Y-77607667D01*
X96441251Y-78448307D01*
X96434962Y-78817860D01*
X95534333Y-78817860D01*
X95534333Y-78539000D01*
X95534333Y-77607667D01*
X94962833Y-77582631D01*
X94391333Y-77557596D01*
X87384783Y-77557596D01*
X87095074Y-77252647D01*
X86662312Y-76811505D01*
X86221828Y-76372610D01*
X85063490Y-75229137D01*
X86566733Y-75229137D01*
X86709328Y-75482668D01*
X86924648Y-75598165D01*
X87177799Y-75568329D01*
X87414020Y-75406343D01*
X87559933Y-75217275D01*
X87588054Y-75017756D01*
X87573113Y-74914501D01*
X87560333Y-74749844D01*
X87599866Y-74581955D01*
X87708634Y-74367502D01*
X87903558Y-74063154D01*
X87908416Y-74055904D01*
X88104663Y-73748557D01*
X88206783Y-73545247D01*
X88226601Y-73417925D01*
X88200774Y-73362414D01*
X88090767Y-73269266D01*
X87982178Y-73279986D01*
X87858362Y-73409545D01*
X87702675Y-73672915D01*
X87575667Y-73924667D01*
X87402638Y-74262603D01*
X87271638Y-74470171D01*
X87162030Y-74574314D01*
X87056859Y-74602000D01*
X86855630Y-74673365D01*
X86677644Y-74847319D01*
X86569958Y-75063651D01*
X86566733Y-75229137D01*
X85063490Y-75229137D01*
X84485333Y-74658399D01*
X84485333Y-74037533D01*
X84488186Y-73724890D01*
X84513856Y-73513616D01*
X84588008Y-73354617D01*
X84736306Y-73198802D01*
X84984416Y-72997077D01*
X85060546Y-72937258D01*
X85406341Y-72566133D01*
X85610802Y-72126039D01*
X85668484Y-71649040D01*
X85573941Y-71167198D01*
X85415604Y-70846294D01*
X85097759Y-70477625D01*
X84719067Y-70244964D01*
X84304790Y-70138515D01*
X83880191Y-70148480D01*
X83470533Y-70265064D01*
X83101079Y-70478471D01*
X82797091Y-70778903D01*
X82583831Y-71156566D01*
X82486564Y-71601661D01*
X78469722Y-71601661D01*
X79209427Y-70898007D01*
X80202261Y-70041755D01*
X80889957Y-69505951D01*
X82038740Y-68709429D01*
X83079928Y-68072179D01*
X86634144Y-68072179D01*
X86689043Y-68386201D01*
X86876014Y-68722571D01*
X87157413Y-68931867D01*
X87507276Y-69006092D01*
X87899638Y-68937248D01*
X88132541Y-68830817D01*
X88458470Y-68647634D01*
X88929572Y-69105984D01*
X89164030Y-69327787D01*
X89356905Y-69498747D01*
X89472534Y-69587510D01*
X89483004Y-69592555D01*
X89522728Y-69684619D01*
X89551934Y-69901818D01*
X89565087Y-70200029D01*
X89565333Y-70248722D01*
X89561415Y-70570879D01*
X89543139Y-70759158D01*
X89500725Y-70848955D01*
X89424390Y-70875663D01*
X89391795Y-70876667D01*
X89091574Y-70947632D01*
X88801894Y-71129693D01*
X88595872Y-71376598D01*
X88593100Y-71381895D01*
X88477024Y-71769086D01*
X88523540Y-72142489D01*
X88726268Y-72477203D01*
X88917042Y-72646796D01*
X88974741Y-72697150D01*
X89015717Y-72768167D01*
X89041505Y-72884368D01*
X89053636Y-73070275D01*
X89053645Y-73350408D01*
X89043065Y-73749290D01*
X89023429Y-74291440D01*
X89022086Y-74326694D01*
X88962581Y-75887462D01*
X89316004Y-76472397D01*
X89483982Y-76743696D01*
X89618295Y-76948144D01*
X89696045Y-77051289D01*
X89704766Y-77057333D01*
X89798325Y-77027822D01*
X89984920Y-76954842D01*
X90033719Y-76934653D01*
X90224097Y-76834750D01*
X90323279Y-76742955D01*
X90327333Y-76727227D01*
X90286312Y-76615821D01*
X90179053Y-76407219D01*
X90037210Y-76160862D01*
X89747086Y-75679243D01*
X89795363Y-74272788D01*
X89843639Y-72866333D01*
X90135637Y-72539936D01*
X90307595Y-72332671D01*
X90383878Y-72170358D01*
X90388570Y-71978231D01*
X90367458Y-71820269D01*
X90344548Y-71576303D01*
X90328324Y-71214643D01*
X90320452Y-70786853D01*
X90321657Y-70403610D01*
X90336034Y-69380221D01*
X89773866Y-68854341D01*
X89466074Y-68543709D01*
X89299805Y-68317410D01*
X89273181Y-68169725D01*
X89354503Y-68115003D01*
X91260549Y-68115003D01*
X91286918Y-68356346D01*
X91393455Y-68553066D01*
X91555000Y-68723150D01*
X91851333Y-69002629D01*
X91851333Y-72224757D01*
X91851333Y-75446885D01*
X92070551Y-75994482D01*
X92188928Y-76280548D01*
X92276458Y-76440155D01*
X92363776Y-76504620D01*
X92481515Y-76505260D01*
X92557385Y-76492177D01*
X92763978Y-76440229D01*
X92889673Y-76384430D01*
X92890729Y-76383508D01*
X92898354Y-76279841D01*
X92855329Y-76064294D01*
X92784868Y-75829667D01*
X93502333Y-75829667D01*
X93756333Y-75974443D01*
X93971278Y-76087516D01*
X94091974Y-76114370D01*
X94165810Y-76061596D01*
X94184226Y-76033956D01*
X94194634Y-75905892D01*
X94068191Y-75821585D01*
X93835381Y-75798868D01*
X93788266Y-75802333D01*
X93502333Y-75829667D01*
X92784868Y-75829667D01*
X92770959Y-75783350D01*
X92770110Y-75780871D01*
X92721709Y-75631290D01*
X92681987Y-75480130D01*
X92649749Y-75308484D01*
X92623800Y-75097446D01*
X92602945Y-74828112D01*
X92585990Y-74481575D01*
X92571739Y-74038930D01*
X92558998Y-73481271D01*
X92553088Y-73152389D01*
X94574346Y-73152389D01*
X94575856Y-73874687D01*
X94578877Y-74503564D01*
X94583337Y-75023485D01*
X94589166Y-75418912D01*
X94596290Y-75674310D01*
X94603626Y-75771107D01*
X94660870Y-75899899D01*
X94783004Y-75945848D01*
X94965686Y-75940441D01*
X95280333Y-75914333D01*
X95302152Y-70723600D01*
X95316024Y-67423664D01*
X96369588Y-67423664D01*
X96452267Y-67813093D01*
X96651000Y-68150091D01*
X96946428Y-68389068D01*
X97013803Y-68420423D01*
X97270000Y-68526543D01*
X97270000Y-71240564D01*
X97270000Y-73954586D01*
X96955514Y-74875910D01*
X96813049Y-75307741D01*
X96734753Y-75605826D01*
X96725147Y-75794898D01*
X96788753Y-75899691D01*
X96930090Y-75944938D01*
X97152822Y-75955370D01*
X97298605Y-75944202D01*
X97399375Y-75885025D01*
X97486107Y-75741966D01*
X97589774Y-75479150D01*
X97608583Y-75427500D01*
X97775313Y-75052064D01*
X97996859Y-74738910D01*
X98255611Y-74475000D01*
X98478753Y-74247800D01*
X98640824Y-74045341D01*
X98709518Y-73908454D01*
X98710017Y-73900644D01*
X98641791Y-73764785D01*
X98472844Y-73613197D01*
X98413000Y-73574781D01*
X98226248Y-73462738D01*
X98118758Y-73394676D01*
X98109236Y-73387137D01*
X98105076Y-73302656D01*
X98096988Y-73070275D01*
X98085627Y-72711366D01*
X98071648Y-72247301D01*
X98055706Y-71699451D01*
X98038455Y-71089187D01*
X98037971Y-71071763D01*
X98977626Y-71071763D01*
X99089483Y-71452764D01*
X99149451Y-71554000D01*
X99350752Y-71793225D01*
X99583904Y-71995951D01*
X99619397Y-72019667D01*
X99888144Y-72189000D01*
X99891405Y-73448951D01*
X99890636Y-73948969D01*
X99881709Y-74322408D01*
X99859182Y-74612002D01*
X99817612Y-74860483D01*
X99751556Y-75110586D01*
X99655572Y-75405043D01*
X99634374Y-75466993D01*
X99525393Y-75808576D01*
X99448767Y-76096622D01*
X99414850Y-76289467D01*
X99417707Y-76338769D01*
X99525829Y-76433430D01*
X99699166Y-76488208D01*
X99890286Y-76518440D01*
X99990228Y-76536647D01*
X100055157Y-76476745D01*
X100135471Y-76316500D01*
X100324748Y-75832946D01*
X100461561Y-75457068D01*
X100554423Y-75143515D01*
X100611850Y-74846938D01*
X100642356Y-74521986D01*
X100654455Y-74123308D01*
X100656662Y-73605554D01*
X100656667Y-73540492D01*
X100656667Y-72160477D01*
X100946993Y-71981046D01*
X101191811Y-71758973D01*
X101405818Y-71443718D01*
X101549711Y-71103533D01*
X101588000Y-70867875D01*
X101523315Y-70556812D01*
X101356388Y-70221577D01*
X101127912Y-69928792D01*
X100911987Y-69761098D01*
X100487582Y-69627826D01*
X100025038Y-69631156D01*
X99692867Y-69724087D01*
X99366056Y-69945657D01*
X99129113Y-70273759D01*
X98995236Y-70663945D01*
X98977626Y-71071763D01*
X98037971Y-71071763D01*
X98034900Y-70961333D01*
X97967995Y-68548333D01*
X98251937Y-68311034D01*
X98522584Y-67988834D01*
X100511796Y-67988834D01*
X100664383Y-68265906D01*
X100743506Y-68351865D01*
X100938888Y-68518420D01*
X101125650Y-68580224D01*
X101357339Y-68573623D01*
X101518505Y-68563434D01*
X101648956Y-68582366D01*
X101780721Y-68650628D01*
X101945830Y-68788431D01*
X102176311Y-69015984D01*
X102363902Y-69208750D01*
X102709266Y-69582254D01*
X103046768Y-69977908D01*
X103357197Y-70369814D01*
X103621345Y-70732076D01*
X103819999Y-71038797D01*
X103933951Y-71264081D01*
X103953628Y-71351822D01*
X103893958Y-71465096D01*
X103710779Y-71605824D01*
X103388058Y-71785501D01*
X103258341Y-71850333D01*
X102845330Y-72063027D01*
X102566666Y-72247955D01*
X102400558Y-72442878D01*
X102325214Y-72685558D01*
X102318841Y-73013755D01*
X102354408Y-73416667D01*
X102423911Y-74065847D01*
X102476327Y-74568325D01*
X102511793Y-74945851D01*
X102530443Y-75220178D01*
X102532415Y-75413059D01*
X102517844Y-75546244D01*
X102486866Y-75641487D01*
X102439618Y-75720538D01*
X102376234Y-75805151D01*
X102369401Y-75814239D01*
X102228321Y-76021310D01*
X102077308Y-76270673D01*
X101944769Y-76511660D01*
X101859109Y-76693608D01*
X101842000Y-76754923D01*
X101909122Y-76822313D01*
X102066048Y-76918362D01*
X102246115Y-77006984D01*
X102382661Y-77052090D01*
X102392333Y-77052850D01*
X102473623Y-76987442D01*
X102618239Y-76810805D01*
X102800324Y-76555652D01*
X102879167Y-76436921D01*
X103038992Y-76183335D01*
X103155473Y-75963757D01*
X103231838Y-75747977D01*
X103271318Y-75505782D01*
X103277143Y-75206962D01*
X103252543Y-74821304D01*
X103218182Y-74487803D01*
X103874229Y-74487803D01*
X103940833Y-74588637D01*
X104107189Y-74720612D01*
X104170344Y-74760121D01*
X104408005Y-74958191D01*
X104597490Y-75211455D01*
X104613496Y-75242827D01*
X104711561Y-75429745D01*
X104776027Y-75479853D01*
X104837124Y-75413182D01*
X104846318Y-75397121D01*
X104965293Y-75231276D01*
X105136249Y-75038921D01*
X105146444Y-75028612D01*
X105375038Y-74820420D01*
X105612111Y-74631807D01*
X105863667Y-74449947D01*
X105475504Y-74280985D01*
X105265953Y-74178737D01*
X105123237Y-74064139D01*
X105014121Y-73893659D01*
X104905369Y-73623765D01*
X104847941Y-73459000D01*
X104804249Y-73382256D01*
X104751005Y-73426333D01*
X104670566Y-73609863D01*
X104647520Y-73670667D01*
X104488203Y-73977455D01*
X104257771Y-74181923D01*
X104189743Y-74221000D01*
X103994363Y-74347006D01*
X103883620Y-74459275D01*
X103874229Y-74487803D01*
X103218182Y-74487803D01*
X103200749Y-74318598D01*
X103151310Y-73891644D01*
X103105091Y-73483071D01*
X103069937Y-73140723D01*
X103048872Y-72896645D01*
X103044923Y-72782882D01*
X103046245Y-72778734D01*
X103125098Y-72727705D01*
X103310138Y-72614018D01*
X103562130Y-72461767D01*
X103575152Y-72453953D01*
X104080637Y-72150725D01*
X104294818Y-72350017D01*
X104648198Y-72618181D01*
X104976631Y-72729044D01*
X105305459Y-72686997D01*
X105551261Y-72567829D01*
X105802717Y-72341190D01*
X105972440Y-72045419D01*
X106030811Y-71740122D01*
X106016875Y-71630840D01*
X105888123Y-71364151D01*
X105662395Y-71119385D01*
X105385830Y-70929272D01*
X105104571Y-70826540D01*
X104892706Y-70833474D01*
X104781551Y-70843038D01*
X104661543Y-70785864D01*
X104510418Y-70641840D01*
X104305910Y-70390857D01*
X104105990Y-70122908D01*
X103915598Y-69884616D01*
X103638500Y-69565754D01*
X103402596Y-69307170D01*
X105241503Y-69307170D01*
X105278880Y-69468035D01*
X105424545Y-69573673D01*
X105622201Y-69608676D01*
X105815549Y-69557637D01*
X105899669Y-69487295D01*
X105945211Y-69374539D01*
X105850854Y-69264830D01*
X105826602Y-69247353D01*
X105607699Y-69153421D01*
X105400970Y-69156262D01*
X105263495Y-69250040D01*
X105241503Y-69307170D01*
X103402596Y-69307170D01*
X103308821Y-69204380D01*
X102960688Y-68838554D01*
X102885201Y-68761447D01*
X102662136Y-68530168D01*
X104657197Y-68530168D01*
X104672443Y-68812264D01*
X104807274Y-69015940D01*
X105006410Y-69122631D01*
X105208302Y-69070312D01*
X105385948Y-68866671D01*
X105396059Y-68848292D01*
X105457577Y-68635416D01*
X105478883Y-68354423D01*
X105477414Y-68334602D01*
X105567333Y-68334602D01*
X105582854Y-68604418D01*
X105647303Y-68773766D01*
X105787516Y-68910062D01*
X105800167Y-68919589D01*
X106035038Y-69063442D01*
X106196341Y-69072575D01*
X106315690Y-68944969D01*
X106345760Y-68884757D01*
X106378457Y-68628169D01*
X106289931Y-68339751D01*
X106103675Y-68075606D01*
X105955403Y-67952513D01*
X105761559Y-67862067D01*
X105640145Y-67904796D01*
X105579650Y-68092030D01*
X105567333Y-68334602D01*
X105477414Y-68334602D01*
X105458998Y-68086056D01*
X105407274Y-67925439D01*
X105276885Y-67849119D01*
X105096160Y-67897773D01*
X104905495Y-68053405D01*
X104799808Y-68196059D01*
X104657197Y-68530168D01*
X102662136Y-68530168D01*
X102576467Y-68441345D01*
X102315611Y-68158431D01*
X102123769Y-67936608D01*
X102022079Y-67799784D01*
X102011333Y-67773110D01*
X101960534Y-67648401D01*
X101834314Y-67463835D01*
X101792140Y-67411829D01*
X101517896Y-67196022D01*
X101212935Y-67136352D01*
X100912078Y-67232821D01*
X100706526Y-67411829D01*
X100526064Y-67709754D01*
X100511796Y-67988834D01*
X98522584Y-67988834D01*
X98526493Y-67984180D01*
X98669510Y-67598102D01*
X98678282Y-67193528D01*
X98550101Y-66811188D01*
X98367723Y-66568748D01*
X98027029Y-66335184D01*
X97641794Y-66240286D01*
X97249710Y-66275167D01*
X96888468Y-66430943D01*
X96595761Y-66698725D01*
X96422322Y-67027397D01*
X96369588Y-67423664D01*
X95316024Y-67423664D01*
X95323972Y-65532866D01*
X94963486Y-65558933D01*
X94603000Y-65585000D01*
X94579606Y-70580333D01*
X94576150Y-71489676D01*
X94574420Y-72352207D01*
X94574346Y-73152389D01*
X92553088Y-73152389D01*
X92546571Y-72789693D01*
X92535048Y-72062000D01*
X92522702Y-71245785D01*
X92513658Y-70582186D01*
X92508572Y-70054503D01*
X92508100Y-69646041D01*
X92512897Y-69340100D01*
X92523619Y-69119983D01*
X92540921Y-68968994D01*
X92565457Y-68870433D01*
X92597885Y-68807603D01*
X92638858Y-68763808D01*
X92665373Y-68741703D01*
X92830174Y-68554460D01*
X92947875Y-68346624D01*
X93004673Y-68147112D01*
X92976515Y-67957713D01*
X92905585Y-67789692D01*
X92687140Y-67485369D01*
X92405880Y-67307853D01*
X92096199Y-67250342D01*
X91792492Y-67306034D01*
X91529152Y-67468129D01*
X91340573Y-67729824D01*
X91261150Y-68084318D01*
X91260549Y-68115003D01*
X89354503Y-68115003D01*
X89384323Y-68094937D01*
X89520343Y-68082667D01*
X89687481Y-68042281D01*
X89734667Y-67965221D01*
X89682339Y-67896396D01*
X89510208Y-67849075D01*
X89195555Y-67817584D01*
X89126678Y-67813421D01*
X88758140Y-67778475D01*
X88545517Y-67722616D01*
X88479518Y-67661555D01*
X88311111Y-67406743D01*
X88024389Y-67228591D01*
X87662403Y-67152424D01*
X87612149Y-67151333D01*
X87326912Y-67172639D01*
X87124282Y-67257893D01*
X86957251Y-67401774D01*
X86713925Y-67729391D01*
X86634144Y-68072179D01*
X83079928Y-68072179D01*
X83260610Y-67961594D01*
X84510996Y-67286877D01*
X85745325Y-66709712D01*
X86644333Y-66351677D01*
X87130419Y-66174116D01*
X87479678Y-66043866D01*
X87714102Y-65949501D01*
X87855685Y-65879598D01*
X87926421Y-65822733D01*
X87948303Y-65767482D01*
X87943324Y-65702421D01*
X87939809Y-65678777D01*
X87849757Y-65537484D01*
X87628345Y-65477047D01*
X87270874Y-65497564D01*
X86772643Y-65599132D01*
X86360963Y-65711628D01*
X85062302Y-66162399D01*
X83725433Y-66759597D01*
X82372046Y-67491266D01*
X81023834Y-68345447D01*
X79702486Y-69310185D01*
X79405333Y-69545911D01*
X78947191Y-69934723D01*
X78413372Y-70419895D01*
X77837339Y-70968314D01*
X77252553Y-71546870D01*
X76692474Y-72122449D01*
X76190565Y-72661941D01*
X75780284Y-73132232D01*
X75776044Y-73137332D01*
X74529464Y-74767022D01*
X73419365Y-76487423D01*
X72451201Y-78286404D01*
X71630423Y-80151836D01*
X70962483Y-82071591D01*
X70452833Y-84033538D01*
X70162613Y-85626216D01*
X70082355Y-86309924D01*
X70022898Y-87110114D01*
X69984517Y-87986192D01*
X69967488Y-88897562D01*
X68535306Y-88897562D01*
X68610902Y-87086129D01*
X68865384Y-85047601D01*
X69289088Y-83014116D01*
X69879303Y-80994333D01*
X70551102Y-79199422D01*
X71350454Y-77460770D01*
X72287805Y-75759257D01*
X73373604Y-74075761D01*
X74490820Y-72554496D01*
X74802776Y-72178671D01*
X75217692Y-71717375D01*
X75710218Y-71195640D01*
X76255007Y-70638497D01*
X76826712Y-70070980D01*
X77399985Y-69518122D01*
X77949477Y-69004954D01*
X78449842Y-68556509D01*
X78875732Y-68197820D01*
X79006152Y-68095322D01*
X80678136Y-66903151D01*
X82392869Y-65853690D01*
X84133762Y-64956448D01*
X85526611Y-64357600D01*
X85944149Y-64193123D01*
X86316124Y-64045088D01*
X86608519Y-63927142D01*
X86787320Y-63852930D01*
X86813667Y-63841261D01*
X86833881Y-63807000D01*
X86705664Y-63796370D01*
X86448054Y-63807941D01*
X86080089Y-63840285D01*
X85620807Y-63891972D01*
X85089246Y-63961574D01*
X84951000Y-63981076D01*
X84360254Y-64057453D01*
X83876942Y-64103215D01*
X83517501Y-64117462D01*
X83298367Y-64099291D01*
X83243153Y-64074708D01*
X83246381Y-63997101D01*
X83340975Y-63840577D01*
X83532900Y-63598184D01*
X83828118Y-63262967D01*
X84232594Y-62827972D01*
X84455411Y-62595711D01*
X86178667Y-62595711D01*
X86255570Y-62645149D01*
X86489194Y-62650899D01*
X86707833Y-62633365D01*
X87011288Y-62606682D01*
X87425027Y-62576184D01*
X87890186Y-62545983D01*
X88267770Y-62524374D01*
X89298540Y-62469536D01*
X89474459Y-62757268D01*
X89573871Y-62942690D01*
X89709944Y-63226488D01*
X89866874Y-63571966D01*
X90028859Y-63942426D01*
X90180097Y-64301172D01*
X90304783Y-64611507D01*
X90387117Y-64836735D01*
X90412000Y-64934403D01*
X90341958Y-65028494D01*
X90242667Y-65077000D01*
X90096999Y-65177469D01*
X90096500Y-65301553D01*
X90237417Y-65392274D01*
X90263833Y-65398248D01*
X90758806Y-65445242D01*
X91235863Y-65407419D01*
X91254294Y-65403841D01*
X91437107Y-65349411D01*
X91491273Y-65258336D01*
X91473213Y-65142998D01*
X91473414Y-65018507D01*
X91528585Y-64834045D01*
X93375333Y-64834045D01*
X93434072Y-64997427D01*
X93565833Y-65049945D01*
X93743777Y-65061883D01*
X94050488Y-65068313D01*
X94459575Y-65069794D01*
X94944648Y-65066884D01*
X95479318Y-65060143D01*
X96037194Y-65050129D01*
X96591888Y-65037402D01*
X97117008Y-65022520D01*
X97586165Y-65006042D01*
X97972969Y-64988527D01*
X98251030Y-64970535D01*
X98393958Y-64952623D01*
X98406470Y-64947421D01*
X98434715Y-64810390D01*
X98387118Y-64655963D01*
X98289630Y-64442000D01*
X95934082Y-64442000D01*
X95209275Y-64442841D01*
X94636039Y-64447178D01*
X94196615Y-64457732D01*
X93873242Y-64477225D01*
X93648160Y-64508378D01*
X93503608Y-64553911D01*
X93421828Y-64616547D01*
X93385057Y-64699005D01*
X93375537Y-64804008D01*
X93375333Y-64834045D01*
X91528585Y-64834045D01*
X91529911Y-64829613D01*
X91651775Y-64555274D01*
X91848075Y-64174451D01*
X92048870Y-63807617D01*
X92311201Y-63321598D01*
X94137333Y-63321598D01*
X94183592Y-63517500D01*
X94334745Y-63583964D01*
X94430182Y-63577738D01*
X94576529Y-63488059D01*
X94594619Y-63416718D01*
X95252777Y-63416718D01*
X95268144Y-63467100D01*
X95340271Y-63549274D01*
X95499821Y-63582986D01*
X95766220Y-63578624D01*
X96029620Y-63554296D01*
X96163924Y-63508856D01*
X96209334Y-63424707D01*
X96211368Y-63388927D01*
X97107954Y-63388927D01*
X97175833Y-63522213D01*
X97331225Y-63582786D01*
X97375455Y-63580105D01*
X97535049Y-63496089D01*
X97566333Y-63384826D01*
X97499044Y-63239557D01*
X97347050Y-63177549D01*
X97185159Y-63225240D01*
X97165098Y-63243035D01*
X97107954Y-63388927D01*
X96211368Y-63388927D01*
X96211667Y-63383667D01*
X96185355Y-63278821D01*
X96079014Y-63221311D01*
X95851537Y-63191710D01*
X95797688Y-63188045D01*
X95465740Y-63195381D01*
X95285521Y-63270858D01*
X95252777Y-63416718D01*
X94594619Y-63416718D01*
X94603000Y-63383667D01*
X94546943Y-63245149D01*
X94370167Y-63187543D01*
X94197172Y-63193983D01*
X94139007Y-63286203D01*
X94137333Y-63321598D01*
X92311201Y-63321598D01*
X92449091Y-63066131D01*
X92783095Y-62392500D01*
X92858076Y-62222786D01*
X94057809Y-62222786D01*
X94113847Y-62374597D01*
X94243167Y-62425278D01*
X94430887Y-62437965D01*
X94738408Y-62443254D01*
X95134776Y-62442052D01*
X95589035Y-62435263D01*
X96070232Y-62423793D01*
X96547413Y-62408548D01*
X96989622Y-62390433D01*
X97365906Y-62370355D01*
X97645309Y-62349219D01*
X97796879Y-62327931D01*
X97813803Y-62320807D01*
X97842060Y-62185898D01*
X97794452Y-62031296D01*
X97696963Y-61817333D01*
X95962461Y-61817333D01*
X95377011Y-61818233D01*
X94938241Y-61822289D01*
X94623496Y-61831537D01*
X94410127Y-61848014D01*
X94275482Y-61873755D01*
X94196908Y-61910795D01*
X94151756Y-61961171D01*
X94140312Y-61981100D01*
X94057809Y-62222786D01*
X92858076Y-62222786D01*
X93075894Y-61729768D01*
X93206929Y-61394000D01*
X95302940Y-61394000D01*
X95990136Y-61394000D01*
X96362014Y-61385147D01*
X96583614Y-61356716D01*
X96673160Y-61305899D01*
X96677063Y-61288167D01*
X96662657Y-61154768D01*
X96624150Y-60894469D01*
X96568170Y-60546891D01*
X96501349Y-60151655D01*
X96430315Y-59748382D01*
X96361697Y-59376693D01*
X96329161Y-59208991D01*
X96272354Y-58950855D01*
X96213088Y-58820449D01*
X96118660Y-58778891D01*
X95973116Y-58785658D01*
X95846552Y-58803612D01*
X95761098Y-58849603D01*
X95699694Y-58956501D01*
X95645280Y-59157177D01*
X95580798Y-59484501D01*
X95564145Y-59573667D01*
X95490189Y-59995113D01*
X95421510Y-60429340D01*
X95370592Y-60796408D01*
X95362491Y-60864833D01*
X95302940Y-61394000D01*
X93206929Y-61394000D01*
X93352502Y-61020981D01*
X93637931Y-60209188D01*
X93666629Y-60124000D01*
X93845558Y-59575963D01*
X93965330Y-59165034D01*
X94028547Y-58870653D01*
X94037810Y-58672257D01*
X94030218Y-58650076D01*
X97899458Y-58650076D01*
X97917546Y-58804827D01*
X97976775Y-59043044D01*
X98080577Y-59388021D01*
X98232386Y-59863057D01*
X98292993Y-60050445D01*
X98806938Y-61482099D01*
X99392189Y-62808492D01*
X99979995Y-63923617D01*
X100212995Y-64337674D01*
X100369957Y-64630294D01*
X100460380Y-64826183D01*
X100493758Y-64950047D01*
X100479587Y-65026593D01*
X100427365Y-65080526D01*
X100425267Y-65082084D01*
X100330260Y-65204532D01*
X100395365Y-65306489D01*
X100612174Y-65384060D01*
X100972283Y-65433353D01*
X101211984Y-65446470D01*
X101482359Y-65422480D01*
X101696425Y-65347025D01*
X101719984Y-65330938D01*
X101831428Y-65229592D01*
X101808547Y-65162514D01*
X101736167Y-65115064D01*
X101614244Y-65005851D01*
X101588000Y-64942902D01*
X101620964Y-64829203D01*
X101709545Y-64597481D01*
X101838280Y-64283405D01*
X101991704Y-63922643D01*
X102154353Y-63550863D01*
X102310763Y-63203736D01*
X102445468Y-62916928D01*
X102543005Y-62726109D01*
X102565106Y-62689201D01*
X102638483Y-62597236D01*
X102737073Y-62539868D01*
X102898629Y-62509035D01*
X103160901Y-62496674D01*
X103476006Y-62494667D01*
X103940329Y-62505652D01*
X104449448Y-62534682D01*
X104904326Y-62575869D01*
X104965915Y-62583251D01*
X105293708Y-62618554D01*
X105552749Y-62635588D01*
X105700926Y-62631990D01*
X105718765Y-62625456D01*
X105717482Y-62526007D01*
X105654638Y-62372597D01*
X105561068Y-62234404D01*
X105380386Y-61996500D01*
X105136070Y-61687404D01*
X104851599Y-61335638D01*
X104550450Y-60969723D01*
X104256102Y-60618179D01*
X103992033Y-60309526D01*
X103781720Y-60072287D01*
X103648643Y-59934981D01*
X103646258Y-59932853D01*
X103447404Y-59832994D01*
X103101692Y-59746449D01*
X102771618Y-59695437D01*
X102439609Y-59649982D01*
X102173073Y-59606381D01*
X102016101Y-59572099D01*
X101995833Y-59564087D01*
X101921641Y-59551194D01*
X101942214Y-59654268D01*
X102048907Y-59855185D01*
X102233076Y-60135820D01*
X102338700Y-60282977D01*
X102642661Y-60710991D01*
X102843025Y-61026173D01*
X102936110Y-61222557D01*
X102942667Y-61261434D01*
X102891513Y-61317421D01*
X102745343Y-61250735D01*
X102515094Y-61070791D01*
X102211699Y-60787007D01*
X101846096Y-60408800D01*
X101474253Y-59997000D01*
X101075575Y-59575296D01*
X100709825Y-59264158D01*
X100330846Y-59024417D01*
X100323424Y-59020409D01*
X99985415Y-58833051D01*
X99649661Y-58638284D01*
X99407833Y-58490181D01*
X99204648Y-58368967D01*
X99074176Y-58308816D01*
X99048000Y-58311567D01*
X99054896Y-58339503D01*
X99081168Y-58397906D01*
X99135189Y-58501679D01*
X99225334Y-58665729D01*
X99359978Y-58904961D01*
X99547494Y-59234278D01*
X99796258Y-59668586D01*
X100114643Y-60222790D01*
X100423095Y-60759000D01*
X100743166Y-61330592D01*
X100968017Y-61768274D01*
X101099650Y-62076778D01*
X101140069Y-62260834D01*
X101091277Y-62325173D01*
X101086265Y-62325333D01*
X100971271Y-62252807D01*
X100774383Y-62038014D01*
X100498728Y-61685126D01*
X100147431Y-61198320D01*
X99723617Y-60581771D01*
X99266664Y-59894890D01*
X98935290Y-59391937D01*
X98682349Y-59014501D01*
X98494016Y-58746104D01*
X98356471Y-58570268D01*
X98255890Y-58470513D01*
X98178451Y-58430361D01*
X98110331Y-58433333D01*
X98057715Y-58453644D01*
X97972975Y-58497781D01*
X97919079Y-58555493D01*
X97899458Y-58650076D01*
X94030218Y-58650076D01*
X93995721Y-58549285D01*
X93904881Y-58481176D01*
X93875807Y-58470611D01*
X93806510Y-58450382D01*
X93745146Y-58451179D01*
X93677028Y-58490808D01*
X93587467Y-58587076D01*
X93461777Y-58757788D01*
X93285270Y-59020751D01*
X93043257Y-59393770D01*
X92791456Y-59785193D01*
X92458204Y-60293113D01*
X92123093Y-60785309D01*
X91800832Y-61241930D01*
X91506128Y-61643121D01*
X91253688Y-61969033D01*
X91058220Y-62199812D01*
X90934431Y-62315606D01*
X90909588Y-62325333D01*
X90845497Y-62282056D01*
X90854425Y-62146037D01*
X90940460Y-61907992D01*
X91107691Y-61558637D01*
X91360207Y-61088691D01*
X91702099Y-60488868D01*
X91769505Y-60373140D01*
X92148407Y-59721423D01*
X92445178Y-59204132D01*
X92665453Y-58810879D01*
X92814865Y-58531278D01*
X92899050Y-58354942D01*
X92923643Y-58271482D01*
X92915147Y-58261333D01*
X92827377Y-58304928D01*
X92651649Y-58415239D01*
X92553593Y-58481024D01*
X92299749Y-58640415D01*
X91974591Y-58826031D01*
X91725466Y-58958023D01*
X91251064Y-59266235D01*
X90761091Y-59721058D01*
X90671462Y-59817832D01*
X90255037Y-60268521D01*
X89882244Y-60656677D01*
X89568249Y-60967491D01*
X89328219Y-61186157D01*
X89177320Y-61297868D01*
X89143798Y-61309333D01*
X89063373Y-61264473D01*
X89087597Y-61124695D01*
X89220218Y-60882202D01*
X89464981Y-60529198D01*
X89614108Y-60330380D01*
X89837090Y-60032697D01*
X90012242Y-59788408D01*
X90119683Y-59625941D01*
X90143274Y-59573672D01*
X90051574Y-59571579D01*
X89847291Y-59595783D01*
X89692333Y-59620719D01*
X89338927Y-59678140D01*
X88969891Y-59731725D01*
X88868340Y-59745005D01*
X88670453Y-59779400D01*
X88508812Y-59842880D01*
X88345414Y-59961929D01*
X88142257Y-60163032D01*
X87922580Y-60404128D01*
X87592854Y-60779778D01*
X87259277Y-61172707D01*
X86940358Y-61559653D01*
X86654607Y-61917354D01*
X86420535Y-62222547D01*
X86256652Y-62451973D01*
X86181467Y-62582368D01*
X86178667Y-62595711D01*
X84455411Y-62595711D01*
X84752291Y-62286247D01*
X84961347Y-62071333D01*
X85416532Y-61599455D01*
X85847391Y-61142852D01*
X86238783Y-60718455D01*
X86575567Y-60343198D01*
X86842601Y-60034014D01*
X87024744Y-59807836D01*
X87106856Y-59681596D01*
X87110000Y-59668420D01*
X87035874Y-59626254D01*
X86851865Y-59577416D01*
X86792500Y-59565807D01*
X86306669Y-59443701D01*
X85749451Y-59251341D01*
X85188032Y-59015791D01*
X84689600Y-58764116D01*
X84467716Y-58629333D01*
X83808155Y-58112249D01*
X83291347Y-57523759D01*
X82928343Y-56906667D01*
X82808386Y-56643127D01*
X82731979Y-56423083D01*
X82727475Y-56398667D01*
X84013169Y-56398667D01*
X84020560Y-56457302D01*
X84111767Y-56609178D01*
X84261250Y-56818247D01*
X84443468Y-57048463D01*
X84604601Y-57233398D01*
X85108427Y-57663276D01*
X85740261Y-58009980D01*
X86478161Y-58269003D01*
X87300184Y-58435840D01*
X88184388Y-58505985D01*
X89108830Y-58474932D01*
X90017700Y-58344957D01*
X90892833Y-58112860D01*
X91562940Y-57832998D01*
X91959860Y-57620817D01*
X92303370Y-57410274D01*
X92569777Y-57218697D01*
X92735385Y-57063417D01*
X92776501Y-56961762D01*
X92769163Y-56950810D01*
X92669928Y-56951611D01*
X92449859Y-57000971D01*
X92147209Y-57089439D01*
X91964829Y-57149491D01*
X90831800Y-57480601D01*
X89724865Y-57682866D01*
X88575386Y-57767799D01*
X88253000Y-57772101D01*
X87695166Y-57766760D01*
X87259123Y-57745394D01*
X86897721Y-57703562D01*
X86563816Y-57636826D01*
X86416025Y-57599119D01*
X85555627Y-57310413D01*
X84815795Y-56942340D01*
X84438138Y-56686898D01*
X84223702Y-56529150D01*
X84066485Y-56424458D01*
X84013169Y-56398667D01*
X82727475Y-56398667D01*
X82689767Y-56194268D01*
X82672395Y-55904412D01*
X82670870Y-55578711D01*
X93883333Y-55578711D01*
X93884889Y-56162702D01*
X93899630Y-56602491D01*
X93942666Y-56923196D01*
X94029107Y-57149937D01*
X94174064Y-57307835D01*
X94392646Y-57422007D01*
X94699964Y-57517574D01*
X95111000Y-57619625D01*
X95321643Y-57641922D01*
X95651975Y-57645272D01*
X96053763Y-57632539D01*
X96478774Y-57606586D01*
X96878774Y-57570277D01*
X97205530Y-57526475D01*
X97393905Y-57484098D01*
X97742347Y-57285913D01*
X97923071Y-57084646D01*
X97996837Y-56964550D01*
X98035497Y-56871384D01*
X99223726Y-56871384D01*
X99231325Y-56964186D01*
X99324453Y-57105805D01*
X99540338Y-57293048D01*
X99846163Y-57504677D01*
X100209111Y-57719456D01*
X100596364Y-57916147D01*
X100905789Y-58047803D01*
X101784713Y-58309426D01*
X102746685Y-58464775D01*
X103739634Y-58509640D01*
X104711490Y-58439810D01*
X105057878Y-58383573D01*
X105909352Y-58155280D01*
X106638291Y-57817798D01*
X107240258Y-57373629D01*
X107638646Y-56927970D01*
X107834094Y-56647967D01*
X107917012Y-56492121D01*
X107887107Y-56457799D01*
X107744091Y-56542366D01*
X107607561Y-56646150D01*
X107158418Y-56941244D01*
X106587208Y-57222348D01*
X105941031Y-57468050D01*
X105525000Y-57592791D01*
X104846036Y-57719908D01*
X104054406Y-57775362D01*
X103189713Y-57761572D01*
X102291561Y-57680955D01*
X101399551Y-57535931D01*
X100553287Y-57328918D01*
X100389462Y-57279174D01*
X100034782Y-57162041D01*
X99714920Y-57046810D01*
X99485363Y-56953749D01*
X99442807Y-56933392D01*
X99279747Y-56857835D01*
X99223726Y-56871384D01*
X98035497Y-56871384D01*
X98049039Y-56838748D01*
X98083339Y-56676604D01*
X98103402Y-56447483D01*
X98112890Y-56120749D01*
X98115466Y-55665769D01*
X98115418Y-55475979D01*
X98110862Y-54907196D01*
X98093660Y-54480782D01*
X98056677Y-54169861D01*
X97992776Y-53947559D01*
X97894820Y-53787001D01*
X97755673Y-53661311D01*
X97608477Y-53566968D01*
X97478117Y-53499752D01*
X97332747Y-53452401D01*
X97141298Y-53421601D01*
X97019285Y-53413621D01*
X98977031Y-53413621D01*
X99047973Y-53604588D01*
X99050859Y-53610008D01*
X99106576Y-53694182D01*
X99180937Y-53718834D01*
X99314610Y-53678219D01*
X99548265Y-53566593D01*
X99622359Y-53529295D01*
X99971153Y-53370201D01*
X100351882Y-53223250D01*
X100715208Y-53104917D01*
X101011794Y-53031680D01*
X101158867Y-53016190D01*
X101152657Y-53052802D01*
X101020801Y-53146730D01*
X100789470Y-53280297D01*
X100688785Y-53333690D01*
X100298903Y-53552251D01*
X99930104Y-53787413D01*
X99610924Y-54017847D01*
X99369901Y-54222226D01*
X99235571Y-54379219D01*
X99217333Y-54433453D01*
X99252736Y-54521988D01*
X99280833Y-54521404D01*
X99385492Y-54468873D01*
X99589458Y-54363195D01*
X99775140Y-54265861D01*
X100650182Y-53894175D01*
X101556762Y-53686549D01*
X101936468Y-53648105D01*
X102254927Y-53630859D01*
X102438633Y-53633534D01*
X102482287Y-53661315D01*
X102380590Y-53719392D01*
X102128244Y-53812950D01*
X101719948Y-53947179D01*
X101588000Y-53989252D01*
X101056394Y-54177677D01*
X100549092Y-54393374D01*
X100090407Y-54622414D01*
X99704650Y-54850868D01*
X99416134Y-55064806D01*
X99249171Y-55250302D01*
X99217333Y-55347448D01*
X99217771Y-55412821D01*
X99238009Y-55447332D01*
X99306431Y-55445131D01*
X99451423Y-55400370D01*
X99701370Y-55307202D01*
X100034337Y-55179122D01*
X100889587Y-54899817D01*
X101855445Y-54669672D01*
X102877925Y-54498072D01*
X103903040Y-54394403D01*
X104707977Y-54366667D01*
X105546514Y-54420989D01*
X106401890Y-54574009D01*
X107195714Y-54810805D01*
X107343916Y-54868417D01*
X107683095Y-54992452D01*
X107880189Y-55027301D01*
X107939142Y-54969510D01*
X107863899Y-54815622D01*
X107673653Y-54579484D01*
X107443488Y-54379781D01*
X107104244Y-54159325D01*
X106708926Y-53946383D01*
X106310537Y-53769222D01*
X105962081Y-53656109D01*
X105928137Y-53648596D01*
X105725535Y-53587585D01*
X105608312Y-53517353D01*
X105605641Y-53513486D01*
X105647207Y-53466972D01*
X105815953Y-53441783D01*
X106071222Y-53436768D01*
X106372361Y-53450772D01*
X106678712Y-53482642D01*
X106949622Y-53531225D01*
X107035544Y-53554047D01*
X107262380Y-53611778D01*
X107404994Y-53627806D01*
X107430000Y-53615219D01*
X107349865Y-53432128D01*
X107116773Y-53215272D01*
X106741691Y-52973341D01*
X106380403Y-52783878D01*
X105609667Y-52408206D01*
X106201410Y-52447978D01*
X106793154Y-52487751D01*
X106571799Y-52297349D01*
X106389743Y-52181884D01*
X106099360Y-52041560D01*
X105754122Y-51901457D01*
X105641388Y-51860974D01*
X104932333Y-51615000D01*
X105525000Y-51572667D01*
X106117667Y-51530333D01*
X105846779Y-51382205D01*
X105237378Y-51138407D01*
X104530272Y-51011986D01*
X103752150Y-51005428D01*
X102965421Y-51113732D01*
X102013615Y-51366579D01*
X101128652Y-51725261D01*
X100271734Y-52208517D01*
X99407833Y-52832093D01*
X99140370Y-53063530D01*
X99002300Y-53245321D01*
X98977031Y-53413621D01*
X97019285Y-53413621D01*
X96872701Y-53404034D01*
X96495885Y-53396386D01*
X96000000Y-53395303D01*
X95356320Y-53402357D01*
X94858337Y-53433819D01*
X94487378Y-53508949D01*
X94224773Y-53647006D01*
X94051853Y-53867251D01*
X93949945Y-54188941D01*
X93900381Y-54631336D01*
X93884488Y-55213696D01*
X93883333Y-55578711D01*
X82670870Y-55578711D01*
X82670507Y-55501249D01*
X82670714Y-55467333D01*
X82687233Y-55009911D01*
X82692914Y-54961522D01*
X84029412Y-54961522D01*
X84044845Y-55033670D01*
X84170575Y-55029740D01*
X84421522Y-54950240D01*
X84719920Y-54833606D01*
X85458483Y-54602708D01*
X86312052Y-54453569D01*
X87248329Y-54384426D01*
X88235019Y-54393515D01*
X89239826Y-54479073D01*
X90230452Y-54639338D01*
X91174601Y-54872545D01*
X92039977Y-55176933D01*
X92190000Y-55241413D01*
X92451316Y-55351203D01*
X92597841Y-55390440D01*
X92666170Y-55364432D01*
X92686372Y-55313391D01*
X92646047Y-55176029D01*
X92507165Y-55011969D01*
X92474706Y-54984498D01*
X92107238Y-54737289D01*
X91613581Y-54474942D01*
X91033417Y-54216388D01*
X90406428Y-53980559D01*
X90285000Y-53939791D01*
X89950829Y-53823607D01*
X89699707Y-53724122D01*
X89559597Y-53653260D01*
X89546826Y-53624985D01*
X89704723Y-53615136D01*
X89981475Y-53636379D01*
X90330945Y-53681719D01*
X90706992Y-53744165D01*
X91063477Y-53816723D01*
X91354262Y-53892399D01*
X91393090Y-53904821D01*
X91715125Y-54030133D01*
X92074180Y-54196177D01*
X92252217Y-54289482D01*
X92526347Y-54439270D01*
X92684904Y-54512738D01*
X92759432Y-54517423D01*
X92781470Y-54460860D01*
X92782667Y-54416211D01*
X92710491Y-54291774D01*
X92508496Y-54108045D01*
X92198476Y-53881140D01*
X91802228Y-53627173D01*
X91402457Y-53395723D01*
X91135794Y-53242399D01*
X90943470Y-53120560D01*
X90858880Y-53051711D01*
X90858419Y-53045359D01*
X90965113Y-53040459D01*
X91186888Y-53088002D01*
X91482651Y-53174981D01*
X91811309Y-53288393D01*
X92131767Y-53415232D01*
X92361287Y-53520986D01*
X92870072Y-53777820D01*
X92959965Y-53543077D01*
X93004905Y-53304990D01*
X92973461Y-53181333D01*
X92841377Y-53035440D01*
X92596880Y-52828620D01*
X92273896Y-52585144D01*
X91906350Y-52329283D01*
X91528168Y-52085309D01*
X91173275Y-51877494D01*
X91085155Y-51830371D01*
X90355064Y-51501948D01*
X89593148Y-51253630D01*
X88826546Y-51087872D01*
X88082395Y-51007133D01*
X87387832Y-51013868D01*
X86769995Y-51110536D01*
X86256022Y-51299593D01*
X86117094Y-51380543D01*
X85887189Y-51530333D01*
X86435095Y-51572667D01*
X86983000Y-51615000D01*
X86394530Y-51812101D01*
X85916419Y-51983028D01*
X85579194Y-52130801D01*
X85358092Y-52267395D01*
X85261286Y-52360187D01*
X85231126Y-52421557D01*
X85287667Y-52453351D01*
X85458065Y-52460101D01*
X85769478Y-52446338D01*
X85775453Y-52445993D01*
X86390333Y-52410446D01*
X85798134Y-52681387D01*
X85300869Y-52925689D01*
X84911661Y-53151912D01*
X84648588Y-53348432D01*
X84532801Y-53494816D01*
X84527142Y-53580579D01*
X84632208Y-53585940D01*
X84716947Y-53567439D01*
X84942232Y-53527036D01*
X85233007Y-53495016D01*
X85551782Y-53472622D01*
X85861066Y-53461094D01*
X86123370Y-53461676D01*
X86301205Y-53475608D01*
X86357079Y-53504133D01*
X86348000Y-53513412D01*
X86177573Y-53591676D01*
X86106476Y-53603370D01*
X85965747Y-53642292D01*
X85720313Y-53743326D01*
X85412957Y-53885394D01*
X85086464Y-54047417D01*
X84783617Y-54208317D01*
X84547199Y-54347015D01*
X84436592Y-54426085D01*
X84258678Y-54614861D01*
X84109355Y-54812787D01*
X84029412Y-54961522D01*
X82692914Y-54961522D01*
X82736985Y-54586116D01*
X82829626Y-54162594D01*
X82974808Y-53705988D01*
X83182186Y-53182944D01*
X83461414Y-52560106D01*
X83593135Y-52280292D01*
X84003905Y-51520202D01*
X84448588Y-50916309D01*
X84946968Y-50456066D01*
X85518827Y-50126925D01*
X86183948Y-49916341D01*
X86962114Y-49811767D01*
X87512358Y-49794667D01*
X88569017Y-49860191D01*
X89588811Y-50061145D01*
X90589382Y-50404104D01*
X91588372Y-50895640D01*
X92603424Y-51542327D01*
X93017951Y-51845959D01*
X93389223Y-52122741D01*
X93656330Y-52307179D01*
X93846223Y-52414088D01*
X93985852Y-52458282D01*
X94102169Y-52454574D01*
X94118618Y-52450958D01*
X94307457Y-52399945D01*
X94406066Y-52364273D01*
X94395267Y-52280305D01*
X94320692Y-52079007D01*
X94195687Y-51793801D01*
X94087502Y-51566566D01*
X93775799Y-50914723D01*
X93524989Y-50348742D01*
X93310041Y-49808568D01*
X93105925Y-49234148D01*
X93066687Y-49117333D01*
X92943823Y-48714364D01*
X92870422Y-48363886D01*
X92834949Y-47990824D01*
X92825879Y-47549698D01*
X92826031Y-47533583D01*
X93923164Y-47533583D01*
X93999193Y-48224332D01*
X94205081Y-49022795D01*
X94540877Y-49929230D01*
X95006630Y-50943892D01*
X95030257Y-50991324D01*
X95220243Y-51366369D01*
X95389734Y-51691487D01*
X95521142Y-51933575D01*
X95596875Y-52059526D01*
X95600080Y-52063691D01*
X95750476Y-52135042D01*
X96010994Y-52149916D01*
X96035012Y-52148358D01*
X96381000Y-52123000D01*
X96893296Y-51107000D01*
X97287462Y-50264320D01*
X97603353Y-49460970D01*
X97836677Y-48714486D01*
X97983143Y-48042404D01*
X98038459Y-47462259D01*
X97998334Y-46991587D01*
X97944606Y-46811451D01*
X97676595Y-46329713D01*
X97297891Y-45921350D01*
X96845455Y-45617315D01*
X96356252Y-45448562D01*
X96307387Y-45440416D01*
X95753140Y-45438883D01*
X95210354Y-45586116D01*
X94717302Y-45863686D01*
X94312260Y-46253164D01*
X94160486Y-46474201D01*
X93976945Y-46950291D01*
X93923164Y-47533583D01*
X92826031Y-47533583D01*
X92829687Y-47146563D01*
X92849368Y-46857211D01*
X92895816Y-46626162D01*
X92979928Y-46397938D01*
X93103679Y-46135172D01*
X93450581Y-45588598D01*
X93908714Y-45101605D01*
X94434627Y-44715055D01*
X94810865Y-44529612D01*
X95169130Y-44417597D01*
X95564191Y-44359056D01*
X96000932Y-44343243D01*
X96388686Y-44350143D01*
G37*
D11*
%TO.C,D4*%
X77550000Y-98295000D02*
G75*
G02*
X77450000Y-98295000I-50000J0D01*
G01*
X77450000Y-98295000D02*
G75*
G02*
X77550000Y-98295000I50000J0D01*
G01*
D10*
%TO.C,X4*%
X87520000Y-80710000D02*
X88900000Y-80710000D01*
X87520000Y-82090000D02*
X87520000Y-80710000D01*
X87520000Y-83360000D02*
X87520000Y-91090000D01*
X87520000Y-83360000D02*
X90280000Y-83360000D01*
X87520000Y-91090000D02*
X90280000Y-91090000D01*
X90280000Y-83360000D02*
X90280000Y-91090000D01*
%TO.C,R9*%
X94850000Y-75700000D02*
X94850000Y-76700000D01*
X94850000Y-76700000D02*
X96750000Y-76700000D01*
X96750000Y-75700000D02*
X94850000Y-75700000D01*
X96750000Y-76700000D02*
X96750000Y-75700000D01*
%TO.C,C5*%
X92240000Y-62407836D02*
X92240000Y-62192164D01*
X92960000Y-62407836D02*
X92960000Y-62192164D01*
D11*
%TO.C,D15*%
X68410000Y-73350000D02*
G75*
G02*
X68310000Y-73350000I-50000J0D01*
G01*
X68310000Y-73350000D02*
G75*
G02*
X68410000Y-73350000I50000J0D01*
G01*
D10*
%TO.C,R10*%
X102500000Y-62450000D02*
X102500000Y-64050000D01*
X102500000Y-64050000D02*
X105500000Y-64050000D01*
X105500000Y-62450000D02*
X102500000Y-62450000D01*
X105500000Y-64050000D02*
X105500000Y-62450000D01*
%TO.C,Q2*%
X94240000Y-73750000D02*
X94240000Y-73100000D01*
X94240000Y-73750000D02*
X94240000Y-74400000D01*
X97360000Y-73750000D02*
X97360000Y-73100000D01*
X97360000Y-73750000D02*
X97360000Y-74400000D01*
X94290000Y-74912500D02*
X93960000Y-75152500D01*
X93960000Y-74672500D01*
X94290000Y-74912500D01*
G36*
X94290000Y-74912500D02*
G01*
X93960000Y-75152500D01*
X93960000Y-74672500D01*
X94290000Y-74912500D01*
G37*
%TO.C,C4*%
X95892164Y-59540000D02*
X96107836Y-59540000D01*
X95892164Y-60260000D02*
X96107836Y-60260000D01*
%TO.C,R11*%
X104962500Y-84987500D02*
X104962500Y-86887500D01*
X104962500Y-86887500D02*
X105962500Y-86887500D01*
X105962500Y-84987500D02*
X104962500Y-84987500D01*
X105962500Y-86887500D02*
X105962500Y-84987500D01*
%TO.C,X5*%
X90610000Y-79930000D02*
X90610000Y-78550000D01*
X91990000Y-79930000D02*
X90610000Y-79930000D01*
X93260000Y-77170000D02*
X100990000Y-77170000D01*
X93260000Y-79930000D02*
X93260000Y-77170000D01*
X93260000Y-79930000D02*
X100990000Y-79930000D01*
X100990000Y-79930000D02*
X100990000Y-77170000D01*
%TO.C,R6*%
X86350000Y-64050000D02*
X86350000Y-65650000D01*
X86350000Y-65650000D02*
X89350000Y-65650000D01*
X89350000Y-64050000D02*
X86350000Y-64050000D01*
X89350000Y-65650000D02*
X89350000Y-64050000D01*
%TO.C,Q3*%
X107950000Y-84377500D02*
X107300000Y-84377500D01*
X107950000Y-84377500D02*
X108600000Y-84377500D01*
X107950000Y-87497500D02*
X107300000Y-87497500D01*
X107950000Y-87497500D02*
X108600000Y-87497500D01*
X106787500Y-84427500D02*
X106547500Y-84097500D01*
X107027500Y-84097500D01*
X106787500Y-84427500D01*
G36*
X106787500Y-84427500D02*
G01*
X106547500Y-84097500D01*
X107027500Y-84097500D01*
X106787500Y-84427500D01*
G37*
D11*
%TO.C,D8*%
X87900000Y-70072500D02*
G75*
G02*
X87800000Y-70072500I-50000J0D01*
G01*
X87800000Y-70072500D02*
G75*
G02*
X87900000Y-70072500I50000J0D01*
G01*
%TO.C,D11*%
X118627500Y-68300000D02*
G75*
G02*
X118527500Y-68300000I-50000J0D01*
G01*
X118527500Y-68300000D02*
G75*
G02*
X118627500Y-68300000I50000J0D01*
G01*
D10*
%TO.C,C2*%
X91707836Y-52990000D02*
X91492164Y-52990000D01*
X91707836Y-53710000D02*
X91492164Y-53710000D01*
D11*
%TO.C,D16*%
X78710000Y-59800000D02*
G75*
G02*
X78610000Y-59800000I-50000J0D01*
G01*
X78610000Y-59800000D02*
G75*
G02*
X78710000Y-59800000I50000J0D01*
G01*
D10*
%TO.C,R13*%
X85937500Y-84862500D02*
X85937500Y-86762500D01*
X85937500Y-86762500D02*
X86937500Y-86762500D01*
X86937500Y-84862500D02*
X85937500Y-84862500D01*
X86937500Y-86762500D02*
X86937500Y-84862500D01*
D11*
%TO.C,D9*%
X111860000Y-59350000D02*
G75*
G02*
X111760000Y-59350000I-50000J0D01*
G01*
X111760000Y-59350000D02*
G75*
G02*
X111860000Y-59350000I50000J0D01*
G01*
D10*
%TO.C,X3*%
X90610000Y-95530000D02*
X90610000Y-94150000D01*
X91990000Y-95530000D02*
X90610000Y-95530000D01*
X93260000Y-92770000D02*
X100990000Y-92770000D01*
X93260000Y-95530000D02*
X93260000Y-92770000D01*
X93260000Y-95530000D02*
X100990000Y-95530000D01*
X100990000Y-95530000D02*
X100990000Y-92770000D01*
%TO.C,C3*%
X95157836Y-58590000D02*
X94942164Y-58590000D01*
X95157836Y-59310000D02*
X94942164Y-59310000D01*
%TO.C,R5*%
X93650000Y-65150000D02*
X93650000Y-68150000D01*
X93650000Y-68150000D02*
X95250000Y-68150000D01*
X95250000Y-65150000D02*
X93650000Y-65150000D01*
X95250000Y-68150000D02*
X95250000Y-65150000D01*
%TO.C,R1*%
X99400000Y-52900000D02*
X99400000Y-53900000D01*
X99400000Y-53900000D02*
X101300000Y-53900000D01*
X101300000Y-52900000D02*
X99400000Y-52900000D01*
X101300000Y-53900000D02*
X101300000Y-52900000D01*
%TO.C,R12*%
X86350000Y-62550000D02*
X86350000Y-64150000D01*
X86350000Y-64150000D02*
X89350000Y-64150000D01*
X89350000Y-62550000D02*
X86350000Y-62550000D01*
X89350000Y-64150000D02*
X89350000Y-62550000D01*
D11*
%TO.C,D13*%
X77450000Y-61177500D02*
G75*
G02*
X77350000Y-61177500I-50000J0D01*
G01*
X77350000Y-61177500D02*
G75*
G02*
X77450000Y-61177500I50000J0D01*
G01*
D10*
%TO.C,SW1*%
X93750000Y-60600000D02*
X93750000Y-60720000D01*
X93750000Y-61730000D02*
X93750000Y-62870000D01*
X93750000Y-63880000D02*
X93750000Y-64000000D01*
X93750000Y-64000000D02*
X98150000Y-64000000D01*
X98150000Y-60600000D02*
X93750000Y-60600000D01*
X98150000Y-60720000D02*
X98150000Y-60600000D01*
X98150000Y-62870000D02*
X98150000Y-61730000D01*
X98150000Y-64000000D02*
X98150000Y-63880000D01*
%TO.C,R2*%
X90650000Y-53900000D02*
X90650000Y-54900000D01*
X90650000Y-54900000D02*
X92550000Y-54900000D01*
X92550000Y-53900000D02*
X90650000Y-53900000D01*
X92550000Y-54900000D02*
X92550000Y-53900000D01*
%TO.C,X2*%
X101620000Y-80710000D02*
X103000000Y-80710000D01*
X101620000Y-82090000D02*
X101620000Y-80710000D01*
X101620000Y-83360000D02*
X101620000Y-91090000D01*
X101620000Y-83360000D02*
X104380000Y-83360000D01*
X101620000Y-91090000D02*
X104380000Y-91090000D01*
X104380000Y-83360000D02*
X104380000Y-91090000D01*
D11*
%TO.C,D12*%
X121910000Y-73500000D02*
G75*
G02*
X121810000Y-73500000I-50000J0D01*
G01*
X121810000Y-73500000D02*
G75*
G02*
X121910000Y-73500000I50000J0D01*
G01*
D10*
%TO.C,Q1*%
X94152500Y-98900000D02*
X94152500Y-98250000D01*
X94152500Y-98900000D02*
X94152500Y-99550000D01*
X97272500Y-98900000D02*
X97272500Y-98250000D01*
X97272500Y-98900000D02*
X97272500Y-99550000D01*
X97552500Y-97977500D02*
X97222500Y-97737500D01*
X97552500Y-97497500D01*
X97552500Y-97977500D01*
G36*
X97552500Y-97977500D02*
G01*
X97222500Y-97737500D01*
X97552500Y-97497500D01*
X97552500Y-97977500D01*
G37*
D11*
%TO.C,D14*%
X71427500Y-67400000D02*
G75*
G02*
X71327500Y-67400000I-50000J0D01*
G01*
X71327500Y-67400000D02*
G75*
G02*
X71427500Y-67400000I50000J0D01*
G01*
D10*
%TO.C,DD1*%
X94400000Y-84400000D02*
X94850000Y-84400000D01*
X94400000Y-84850000D02*
X94400000Y-84400000D01*
X94400000Y-87170000D02*
X94400000Y-87620000D01*
X94400000Y-87620000D02*
X94850000Y-87620000D01*
X97170000Y-84400000D02*
X97380000Y-84400000D01*
X97620000Y-84850000D02*
X97620000Y-84700000D01*
X97620000Y-87170000D02*
X97620000Y-87620000D01*
X97620000Y-87620000D02*
X97170000Y-87620000D01*
X97950000Y-84640000D02*
X97620000Y-84400000D01*
X97950000Y-84160000D01*
X97950000Y-84640000D01*
G36*
X97950000Y-84640000D02*
G01*
X97620000Y-84400000D01*
X97950000Y-84160000D01*
X97950000Y-84640000D01*
G37*
%TO.C,R3*%
X96650000Y-65150000D02*
X96650000Y-68150000D01*
X96650000Y-68150000D02*
X98250000Y-68150000D01*
X98250000Y-65150000D02*
X96650000Y-65150000D01*
X98250000Y-68150000D02*
X98250000Y-65150000D01*
D11*
%TO.C,D5*%
X104850000Y-70122500D02*
G75*
G02*
X104750000Y-70122500I-50000J0D01*
G01*
X104750000Y-70122500D02*
G75*
G02*
X104850000Y-70122500I50000J0D01*
G01*
D10*
%TO.C,Q4*%
X84000000Y-84252500D02*
X83350000Y-84252500D01*
X84000000Y-84252500D02*
X84650000Y-84252500D01*
X84000000Y-87372500D02*
X83350000Y-87372500D01*
X84000000Y-87372500D02*
X84650000Y-87372500D01*
X85402500Y-87652500D02*
X84922500Y-87652500D01*
X85162500Y-87322500D01*
X85402500Y-87652500D01*
G36*
X85402500Y-87652500D02*
G01*
X84922500Y-87652500D01*
X85162500Y-87322500D01*
X85402500Y-87652500D01*
G37*
D11*
%TO.C,D10*%
X115027500Y-63200000D02*
G75*
G02*
X114927500Y-63200000I-50000J0D01*
G01*
X114927500Y-63200000D02*
G75*
G02*
X115027500Y-63200000I50000J0D01*
G01*
D10*
%TO.C,R8*%
X102500000Y-63950000D02*
X102500000Y-65550000D01*
X102500000Y-65550000D02*
X105500000Y-65550000D01*
X105500000Y-63950000D02*
X102500000Y-63950000D01*
X105500000Y-65550000D02*
X105500000Y-63950000D01*
%TO.C,C7*%
X98940000Y-62192164D02*
X98940000Y-62407836D01*
X99660000Y-62192164D02*
X99660000Y-62407836D01*
D11*
%TO.C,D1*%
X116700000Y-97825000D02*
G75*
G02*
X116600000Y-97825000I-50000J0D01*
G01*
X116600000Y-97825000D02*
G75*
G02*
X116700000Y-97825000I50000J0D01*
G01*
D10*
%TO.C,U1*%
X93590000Y-56820000D02*
X93590000Y-54240000D01*
X94570000Y-54240000D02*
X93590000Y-54240000D01*
X97330000Y-54240000D02*
X98310000Y-54240000D01*
X98310000Y-54240000D02*
X98310000Y-56960000D01*
X93740000Y-57370000D02*
X93410000Y-57610000D01*
X93410000Y-57130000D01*
X93740000Y-57370000D01*
G36*
X93740000Y-57370000D02*
G01*
X93410000Y-57610000D01*
X93410000Y-57130000D01*
X93740000Y-57370000D01*
G37*
D11*
%TO.C,D7*%
X77550000Y-78875000D02*
G75*
G02*
X77450000Y-78875000I-50000J0D01*
G01*
X77450000Y-78875000D02*
G75*
G02*
X77550000Y-78875000I50000J0D01*
G01*
D10*
%TO.C,C1*%
X97057836Y-58590000D02*
X96842164Y-58590000D01*
X97057836Y-59310000D02*
X96842164Y-59310000D01*
%TO.C,R7*%
X94762500Y-95987500D02*
X94762500Y-96987500D01*
X94762500Y-96987500D02*
X96662500Y-96987500D01*
X96662500Y-95987500D02*
X94762500Y-95987500D01*
X96662500Y-96987500D02*
X96662500Y-95987500D01*
%TO.C,X1*%
X91330000Y-48125000D02*
X91330000Y-49825000D01*
X100670000Y-48125000D02*
X100670000Y-49825000D01*
%TO.C,R4*%
X95150000Y-65150000D02*
X95150000Y-68150000D01*
X95150000Y-68150000D02*
X96750000Y-68150000D01*
X96750000Y-65150000D02*
X95150000Y-65150000D01*
X96750000Y-68150000D02*
X96750000Y-65150000D01*
D11*
%TO.C,D3*%
X87900000Y-107325000D02*
G75*
G02*
X87800000Y-107325000I-50000J0D01*
G01*
X87800000Y-107325000D02*
G75*
G02*
X87900000Y-107325000I50000J0D01*
G01*
%TD*%
%LPC*%
D13*
%TO.C,C6*%
X93300000Y-84070000D03*
X93300000Y-85030000D03*
%TD*%
D14*
%TO.C,D6*%
X116650000Y-78135000D03*
X116650000Y-77165000D03*
%TD*%
D15*
%TO.C,D2*%
X104850000Y-108565000D03*
X104850000Y-109535000D03*
%TD*%
%TO.C,D4*%
X77500000Y-98900000D03*
X77500000Y-99870000D03*
%TD*%
D16*
%TO.C,X4*%
X88900000Y-82090000D03*
D17*
X88900000Y-84630000D03*
X88900000Y-87170000D03*
X88900000Y-89710000D03*
%TD*%
D18*
%TO.C,R9*%
X95290000Y-76200000D03*
X96310000Y-76200000D03*
%TD*%
D19*
%TO.C,C5*%
X92600000Y-62780000D03*
X92600000Y-61820000D03*
%TD*%
D20*
%TO.C,D15*%
X68965000Y-73350000D03*
X69935000Y-73350000D03*
%TD*%
D21*
%TO.C,R10*%
X103175000Y-63250000D03*
X104825000Y-63250000D03*
%TD*%
D22*
%TO.C,Q2*%
X94850000Y-74687500D03*
X96750000Y-74687500D03*
X95800000Y-72812500D03*
%TD*%
D23*
%TO.C,C4*%
X95520000Y-59900000D03*
X96480000Y-59900000D03*
%TD*%
D24*
%TO.C,R11*%
X105462500Y-85427500D03*
X105462500Y-86447500D03*
%TD*%
D16*
%TO.C,X5*%
X91990000Y-78550000D03*
D17*
X94530000Y-78550000D03*
X97070000Y-78550000D03*
X99610000Y-78550000D03*
%TD*%
D25*
%TO.C,R6*%
X88675000Y-64850000D03*
X87025000Y-64850000D03*
%TD*%
D26*
%TO.C,Q3*%
X107012500Y-84987500D03*
X107012500Y-86887500D03*
X108887500Y-85937500D03*
%TD*%
D14*
%TO.C,D8*%
X87850000Y-69467500D03*
X87850000Y-68497500D03*
%TD*%
D20*
%TO.C,D11*%
X119182500Y-68300000D03*
X120152500Y-68300000D03*
%TD*%
D27*
%TO.C,C2*%
X92080000Y-53350000D03*
X91120000Y-53350000D03*
%TD*%
D20*
%TO.C,D16*%
X79265000Y-59800000D03*
X80235000Y-59800000D03*
%TD*%
D28*
%TO.C,R13*%
X86437500Y-86322500D03*
X86437500Y-85302500D03*
%TD*%
D20*
%TO.C,D9*%
X112415000Y-59350000D03*
X113385000Y-59350000D03*
%TD*%
D16*
%TO.C,X3*%
X91990000Y-94150000D03*
D17*
X94530000Y-94150000D03*
X97070000Y-94150000D03*
X99610000Y-94150000D03*
%TD*%
D27*
%TO.C,C3*%
X95530000Y-58950000D03*
X94570000Y-58950000D03*
%TD*%
D29*
%TO.C,R5*%
X94450000Y-67475000D03*
X94450000Y-65825000D03*
%TD*%
D30*
%TO.C,R1*%
X100860000Y-53400000D03*
X99840000Y-53400000D03*
%TD*%
D25*
%TO.C,R12*%
X88675000Y-63350000D03*
X87025000Y-63350000D03*
%TD*%
D15*
%TO.C,D13*%
X77400000Y-61782500D03*
X77400000Y-62752500D03*
%TD*%
D31*
%TO.C,SW1*%
X93875000Y-61225000D03*
X98025000Y-61225000D03*
X93875000Y-63375000D03*
X98025000Y-63375000D03*
%TD*%
D30*
%TO.C,R2*%
X92110000Y-54400000D03*
X91090000Y-54400000D03*
%TD*%
D16*
%TO.C,X2*%
X103000000Y-82090000D03*
D17*
X103000000Y-84630000D03*
X103000000Y-87170000D03*
X103000000Y-89710000D03*
%TD*%
D20*
%TO.C,D12*%
X122465000Y-73500000D03*
X123435000Y-73500000D03*
%TD*%
D32*
%TO.C,Q1*%
X96662500Y-97962500D03*
X94762500Y-97962500D03*
X95712500Y-99837500D03*
%TD*%
D20*
%TO.C,D14*%
X71982500Y-67400000D03*
X72952500Y-67400000D03*
%TD*%
D33*
%TO.C,DD1*%
X96810000Y-84560000D03*
X96410000Y-84560000D03*
X96010000Y-84560000D03*
X95610000Y-84560000D03*
X95210000Y-84560000D03*
D34*
X94560000Y-85210000D03*
X94560000Y-85610000D03*
X94560000Y-86010000D03*
X94560000Y-86410000D03*
X94560000Y-86810000D03*
D33*
X95210000Y-87460000D03*
X95610000Y-87460000D03*
X96010000Y-87460000D03*
X96410000Y-87460000D03*
X96810000Y-87460000D03*
D34*
X97460000Y-86810000D03*
X97460000Y-86410000D03*
X97460000Y-86010000D03*
X97460000Y-85610000D03*
X97460000Y-85210000D03*
D35*
X96010000Y-86010000D03*
%TD*%
D29*
%TO.C,R3*%
X97450000Y-67475000D03*
X97450000Y-65825000D03*
%TD*%
D14*
%TO.C,D5*%
X104800000Y-69517500D03*
X104800000Y-68547500D03*
%TD*%
D36*
%TO.C,Q4*%
X84937500Y-86762500D03*
X84937500Y-84862500D03*
X83062500Y-85812500D03*
%TD*%
D20*
%TO.C,D10*%
X115582500Y-63200000D03*
X116552500Y-63200000D03*
%TD*%
D21*
%TO.C,R8*%
X103175000Y-64750000D03*
X104825000Y-64750000D03*
%TD*%
D13*
%TO.C,C7*%
X99300000Y-61820000D03*
X99300000Y-62780000D03*
%TD*%
D15*
%TO.C,D1*%
X116650000Y-98430000D03*
X116650000Y-99400000D03*
%TD*%
D37*
%TO.C,U1*%
X94450000Y-57550000D03*
D38*
X95950000Y-57462500D03*
D37*
X97450000Y-57550000D03*
%TD*%
D14*
%TO.C,D7*%
X77500000Y-78270000D03*
X77500000Y-77300000D03*
%TD*%
D27*
%TO.C,C1*%
X97430000Y-58950000D03*
X96470000Y-58950000D03*
%TD*%
D30*
%TO.C,R7*%
X96222500Y-96487500D03*
X95202500Y-96487500D03*
%TD*%
D39*
%TO.C,X1*%
X98890000Y-50630000D03*
X93110000Y-50630000D03*
D40*
X99200000Y-51705000D03*
X98400000Y-51705000D03*
D41*
X97250000Y-51705000D03*
X96250000Y-51705000D03*
X95750000Y-51705000D03*
X94750000Y-51705000D03*
D40*
X93600000Y-51705000D03*
X92800000Y-51705000D03*
X92800000Y-51705000D03*
X93600000Y-51705000D03*
D41*
X94250000Y-51705000D03*
X95250000Y-51705000D03*
X96750000Y-51705000D03*
X97750000Y-51705000D03*
D40*
X98400000Y-51705000D03*
X99200000Y-51705000D03*
D42*
X100320000Y-51130000D03*
D43*
X100320000Y-46950000D03*
D42*
X91680000Y-51130000D03*
D43*
X91680000Y-46950000D03*
%TD*%
D29*
%TO.C,R4*%
X95950000Y-67475000D03*
X95950000Y-65825000D03*
%TD*%
D15*
%TO.C,D3*%
X87850000Y-107930000D03*
X87850000Y-108900000D03*
%TD*%
%LPD*%
M02*
